<?xml version="1.0" standalone="no"?>
<!DOCTYPE svg PUBLIC "-//W3C//DTD SVG 1.1//EN" "http://www.w3.org/Graphics/SVG/1.1/DTD/svg11.dtd" >
<svg xmlns="http://www.w3.org/2000/svg" xmlns:xlink="http://www.w3.org/1999/xlink" version="1.1">
<metadata>
Created by FontForge 20170731 at Mon Jun 15 18:25:20 2015
 By Aleksey,,,
Copyright (c) by Binnenland, 2007. All rights reserved. This software may not be reproduced, used, displayed, modified, disclosed or transferred without the express written approval of (Binnenland). 
</metadata>
<defs>
<font id="MINISansSerif-Regular" horiz-adv-x="1049" >
  <font-face 
    font-family="MINI Sans Serif"
    font-weight="400"
    font-stretch="normal"
    units-per-em="2048"
    panose-1="2 0 6 6 3 0 0 2 0 4"
    ascent="1536"
    descent="-512"
    x-height="991"
    cap-height="1380"
    bbox="-207 -481 2216 1849"
    underline-thickness="102"
    underline-position="-307"
    unicode-range="U+000D-FB02"
  />
<missing-glyph horiz-adv-x="614" 
 />
    <glyph glyph-name=".notdef" horiz-adv-x="614" 
 />
    <glyph glyph-name=".null" horiz-adv-x="0" 
 />
    <glyph glyph-name=".null" horiz-adv-x="0" 
 />
    <glyph glyph-name="nonmarkingreturn" unicode="&#xd;" horiz-adv-x="532" 
 />
    <glyph glyph-name="space" unicode=" " horiz-adv-x="530" 
 />
    <glyph glyph-name="exclam" unicode="!" horiz-adv-x="541" 
d="M344 371h-149l-27 1009h205zM369 252v-252h-199v252h199z" />
    <glyph glyph-name="quotedbl" unicode="&#x22;" horiz-adv-x="805" 
d="M158 936v444h176v-444h-176zM471 936v444h176v-444h-176z" />
    <glyph glyph-name="numbersign" unicode="#" horiz-adv-x="1427" 
d="M410 582l43 264h-267v164h293l62 370h170l-60 -370h250l62 370h170l-60 -370h262v-164h-288l-43 -264h260v-164h-287l-66 -418h-174l68 418h-250l-66 -418h-174l68 418h-268v164h295zM582 582h249l43 264h-249z" />
    <glyph glyph-name="dollar" unicode="$" horiz-adv-x="1194" 
d="M657 1403q83 -6 146.5 -27t110.5 -52.5t79.5 -72t54 -84.5t32.5 -90.5t16 -89.5h-209q-4 39 -17 77t-39.5 69t-69 52.5t-104.5 28.5v-407q41 -8 87 -20t90 -27q51 -17 101 -44t89.5 -71.5t64.5 -108.5t25 -155q0 -87 -32.5 -158t-92.5 -123.5t-144.5 -84.5t-187.5 -40
v-139h-125v139q-131 7 -220 51t-144.5 108.5t-82 140t-32.5 145.5h211q4 -46 21.5 -90t49.5 -79t80.5 -58.5t116.5 -28.5v463q-43 11 -81 21.5t-72 21.5q-51 16 -101 45.5t-89.5 72t-64 99t-24.5 125.5q0 87 33 157t91 120.5t137 79.5t171 34v156h125v-156zM657 164
q57 6 103.5 23.5t79.5 45.5t51 65.5t18 82.5q0 61 -21 100.5t-56.5 64t-81 38t-93.5 24.5v-444zM303 1024q0 -46 21.5 -79t55 -55.5t74 -37t78.5 -23.5v388q-46 -3 -87.5 -17t-73 -39t-50 -59.5t-18.5 -77.5z" />
    <glyph glyph-name="percent" unicode="%" horiz-adv-x="1636" 
d="M397 1403q83 0 138 -35.5t88 -92t47 -127t14 -140.5q0 -41 -5 -86t-17 -89t-33 -84.5t-53 -71.5t-76 -49t-103 -18q-85 0 -141.5 36t-90 93t-47.5 128t-14 141q0 41 5 86t17.5 89t34 84t54 70t77.5 48t105 18zM397 1262q-43 0 -68.5 -25t-39.5 -63t-18.5 -82.5
t-4.5 -83.5q0 -36 3 -80.5t16 -83t39.5 -64.5t72.5 -26q34 0 58 17.5t39 50.5t21.5 80t6.5 106q0 36 -3.5 80t-16 83t-37.5 65t-68 26zM549 0h-158l699 1380h155zM1245 766q83 0 138 -35.5t88 -92t47 -127t14 -140.5q0 -41 -5 -86t-17 -89t-33 -84.5t-53 -71.5t-76 -49
t-103 -18q-85 0 -141.5 36t-90 93t-47.5 128t-14 141q0 41 5 86t17.5 89t34 84t54 70t77.5 48t105 18zM1245 625q-43 0 -69 -25t-39.5 -63t-18 -82.5t-4.5 -83.5q0 -36 3 -80.5t16 -83t39.5 -64.5t72.5 -26q34 0 58 17.5t39 50.5t21.5 80t6.5 106q0 36 -3.5 80t-16 83
t-37.5 65t-68 26z" />
    <glyph glyph-name="ampersand" unicode="&#x26;" horiz-adv-x="1286" 
d="M1171 754q-3 -145 -33.5 -274t-88.5 -220q42 -47 83 -92t74.5 -81t55.5 -59.5t26 -27.5h-244l-112 119q-76 -65 -175 -102t-204 -37q-111 0 -195 30t-140 82.5t-84 123.5t-28 153q0 66 20.5 121.5t55.5 101t81.5 82.5t98.5 67q-30 38 -61 77.5t-56 81t-41 84t-16 85.5
q0 69 25.5 130.5t73 107.5t114.5 73t150 27q77 0 143 -24.5t114 -68.5t75.5 -105t27.5 -134q0 -66 -24.5 -120t-63 -99t-86 -83t-94.5 -71l279 -303q31 65 47 149t18 206h184zM553 156q71 0 137.5 24.5t120.5 71.5l-332 360q-86 -51 -132 -106.5t-46 -132.5q0 -45 15.5 -85
t47 -69t78.5 -46t111 -17zM383 1069q0 -29 11 -57t29 -55.5t41 -54.5t48 -54l14 -17q36 19 71 41.5t63 51t45.5 64t17.5 81.5q0 38 -13 68t-36 50.5t-54.5 31t-68.5 10.5q-40 0 -71.5 -12.5t-53 -34.5t-32.5 -51t-11 -62z" />
    <glyph glyph-name="quotesingle" unicode="'" horiz-adv-x="492" 
d="M158 936v444h176v-444h-176z" />
    <glyph glyph-name="parenleft" unicode="(" horiz-adv-x="555" 
d="M72 590q0 103 11.5 197.5t31 178.5t44 156.5t50.5 132.5q60 141 137 250h201q-83 -119 -148 -263q-28 -62 -54.5 -135t-47 -155.5t-33 -173.5t-12.5 -188t12.5 -188t33 -173.5t47 -156t54.5 -134.5q65 -144 148 -264h-201q-77 109 -137 250q-26 60 -50.5 132.5t-44 156.5
t-31 178.5t-11.5 198.5z" />
    <glyph glyph-name="parenright" unicode=")" horiz-adv-x="555" 
d="M483 590q0 -104 -12 -198.5t-31.5 -178.5t-44 -156.5t-50.5 -132.5q-61 -141 -138 -250h-199q82 120 146 264q27 61 53.5 134.5t47.5 156t33.5 173.5t12.5 188t-12.5 188t-33.5 173.5t-47.5 155.5t-53.5 135q-64 144 -146 263h199q77 -109 138 -250q26 -60 50.5 -132.5
t44 -156.5t31.5 -178.5t12 -197.5z" />
    <glyph glyph-name="asterisk" unicode="*" horiz-adv-x="1069" 
d="M610 1184l279 100l61 -145l-282 -103l170 -233l-125 -101l-181 259l-170 -254l-137 92l168 237l-274 103l53 145l281 -102l-2 293h157z" />
    <glyph glyph-name="plus" unicode="+" horiz-adv-x="1090" 
d="M453 61v408h-404v176h404v408h186v-408h399v-176h-399v-408h-186z" />
    <glyph glyph-name="comma" unicode="," horiz-adv-x="512" 
d="M174 252h186v-125q0 -84 -18.5 -145.5t-57 -104t-98 -66.5t-141.5 -32v127q60 8 94.5 51.5t34.5 116.5v178z" />
    <glyph glyph-name="hyphen" unicode="-" horiz-adv-x="934" 
d="M145 643h646v-176h-646v176z" />
    <glyph glyph-name="period" unicode="." horiz-adv-x="512" 
d="M360 272v-272h-202v272h202z" />
    <glyph glyph-name="slash" unicode="/" horiz-adv-x="901" 
d="M205 -49h-187l680 1470h187z" />
    <glyph glyph-name="zero" unicode="0" horiz-adv-x="1090" 
d="M547 1397q93 0 164.5 -29t124.5 -80t88.5 -119.5t57 -147.5t31 -164t9.5 -169q0 -74 -8 -155.5t-28 -161t-54 -151.5t-87 -127t-126.5 -87.5t-171.5 -32.5q-94 0 -166.5 29.5t-125.5 80.5t-89 120t-57.5 148.5t-31 165.5t-9.5 171q0 73 8 154t28 160t54.5 150.5t88 126
t127.5 86.5t173 32zM547 1210q-63 0 -108 -23.5t-76.5 -63.5t-51 -92.5t-30 -110.5t-14 -118.5t-3.5 -115.5q0 -48 2 -105.5t10.5 -116t26.5 -113.5t49.5 -97.5t79 -68t115.5 -25.5q78 0 131.5 36.5t86 105t46.5 165.5t14 219q0 49 -3 106.5t-12.5 116t-27.5 113t-49 96
t-76.5 67t-109.5 25.5z" />
    <glyph glyph-name="one" unicode="1" horiz-adv-x="1090" 
d="M193 176h294v950l-303 -186v211l336 219h162v-1194h276v-176h-765v176z" />
    <glyph glyph-name="two" unicode="2" horiz-adv-x="1090" 
d="M958 182v-182h-847v188q87 78 171 156q36 33 74.5 70t77 74.5t74 73.5t65.5 69q79 86 127 171t48 175q0 51 -14.5 94t-43.5 74t-73 48t-103 17q-49 0 -90 -13t-72 -38t-50 -61.5t-23 -83.5h-199q7 84 41 154t91 121t137 79.5t181 28.5q99 0 176.5 -33t131 -89.5t82 -132
t28.5 -161.5q0 -75 -23.5 -143t-61.5 -128.5t-86.5 -114t-98.5 -99.5l-340 -314h620z" />
    <glyph glyph-name="three" unicode="3" horiz-adv-x="1090" 
d="M264 334q12 -44 35.5 -76.5t56 -54.5t72.5 -32.5t84 -10.5q60 0 109.5 18t84.5 51.5t54.5 80.5t19.5 106q0 51 -20 92.5t-56 71.5t-86.5 46.5t-111.5 16.5h-88v168h80q52 0 96 14.5t75.5 41t49.5 63t18 80.5q0 52 -17.5 90t-48 62.5t-71.5 36t-88 11.5q-84 0 -142 -37.5
t-75 -109.5h-203q12 78 49.5 139.5t94 105t130 66.5t158.5 23q84 0 159 -25t131 -72.5t89 -115.5t33 -154q0 -54 -12.5 -98.5t-34 -81.5t-50.5 -65.5t-61 -49.5q42 -24 79 -56t64 -72.5t42.5 -89.5t15.5 -107q0 -99 -36.5 -180t-99.5 -138t-148.5 -88t-182.5 -31
q-92 0 -167.5 25.5t-133 73t-96 114t-56.5 148.5h205z" />
    <glyph glyph-name="four" unicode="4" horiz-adv-x="1090" 
d="M858 1370v-893h186v-178h-186v-299h-194v299h-629v168l602 903h221zM664 477v653l-433 -653h433z" />
    <glyph glyph-name="five" unicode="5" horiz-adv-x="1090" 
d="M293 305q14 -38 39 -65.5t56 -45.5t65.5 -27t68.5 -9q61 0 109 21.5t81 61t50.5 96t17.5 126.5q0 145 -63.5 223t-188.5 78q-81 0 -140.5 -31.5t-88.5 -105.5h-176l78 743h694v-186h-541l-35 -303q53 37 111.5 53t118.5 16q99 0 178.5 -35t135.5 -99t86 -152.5t30 -196.5
q0 -107 -33 -197.5t-93 -156.5t-144.5 -103t-186.5 -37q-74 0 -143 21t-126.5 62.5t-101 103.5t-65.5 145h207z" />
    <glyph glyph-name="six" unicode="6" horiz-adv-x="1090" 
d="M780 1071q-20 71 -72.5 105t-134.5 34q-60 0 -108 -29t-83.5 -83.5t-58 -133.5t-32.5 -178q56 57 127.5 88t154.5 31q97 0 176 -36t135 -98.5t86.5 -146t30.5 -178.5q0 -105 -33.5 -192t-93 -149.5t-142 -97t-179.5 -34.5q-118 0 -206 48.5t-146 133t-86.5 198.5
t-28.5 245q0 176 30 323t91 252.5t153 164.5t215 59q84 0 151 -23.5t117 -66.5t83 -103t49 -133h-195zM553 160q55 0 101 18t79 53.5t51.5 88t18.5 120.5q0 61 -16.5 112.5t-48 88.5t-78 57.5t-107.5 20.5q-38 0 -82.5 -13.5t-82 -45.5t-62.5 -85.5t-25 -134.5
q0 -54 17.5 -104.5t50.5 -89.5t79.5 -62.5t104.5 -23.5z" />
    <glyph glyph-name="seven" unicode="7" horiz-adv-x="1090" 
d="M961 1370v-172l-553 -1198h-218l562 1184h-676v186h885z" />
    <glyph glyph-name="eight" unicode="8" horiz-adv-x="1090" 
d="M975 1012q0 -84 -43.5 -159.5t-120.5 -131.5q46 -28 83.5 -64t64 -79t41 -90.5t14.5 -98.5q0 -104 -38 -181.5t-102 -130t-149.5 -78.5t-179.5 -26q-95 0 -180.5 26t-149.5 78.5t-101.5 130t-37.5 181.5q0 51 14 99t39.5 91t62.5 79.5t84 62.5q-77 56 -120 131t-43 160
q0 90 33 162.5t91.5 122.5t137 77t170.5 27q90 0 168.5 -27t136.5 -77t91.5 -122.5t33.5 -162.5zM547 156q55 0 104 14.5t85.5 43.5t57.5 72.5t21 102.5q0 51 -17.5 94t-52 74t-84.5 48.5t-114 17.5q-66 0 -117 -17.5t-85.5 -48.5t-52.5 -74t-18 -94q0 -59 21.5 -102.5
t58.5 -72.5t87 -43.5t106 -14.5zM545 1219q-51 0 -94 -13t-74.5 -39.5t-49.5 -65.5t-18 -91q0 -45 17 -84t48 -67t74.5 -44t96.5 -16q51 0 94 16t74 44t48 67t17 84q0 52 -18 91t-49.5 65.5t-74 39.5t-91.5 13z" />
    <glyph glyph-name="nine" unicode="9" horiz-adv-x="1090" 
d="M307 299q20 -71 75 -106t136 -35q61 0 108.5 29.5t82 84.5t56.5 134t32 178q-56 -57 -127.5 -88t-155.5 -31q-97 0 -176 36t-135 98t-86.5 146t-30.5 179q0 101 32.5 187.5t91.5 150t141.5 99.5t183.5 36q118 0 205.5 -48t145.5 -132t86.5 -198t28.5 -247
q0 -176 -30 -323t-91 -252.5t-152.5 -164.5t-215.5 -59q-84 0 -150.5 23.5t-116.5 66.5t-83 103t-49 133h194zM535 1210q-56 0 -102 -18t-79 -53.5t-51 -88t-18 -120.5q0 -62 16.5 -113t48 -88t78 -57.5t107.5 -20.5q38 0 82 13.5t81.5 45.5t62.5 85.5t25 134.5
q0 54 -17.5 104.5t-50.5 89.5t-79.5 62.5t-103.5 23.5z" />
    <glyph glyph-name="colon" unicode=":" horiz-adv-x="571" 
d="M385 272v-272h-203v272h203zM385 991v-272h-203v272h203z" />
    <glyph glyph-name="semicolon" unicode=";" horiz-adv-x="547" 
d="M375 991v-272h-203v272h203zM180 252h187v-125q0 -84 -18.5 -145.5t-57.5 -104t-98.5 -66.5t-141.5 -32v127q60 8 94.5 51.5t34.5 116.5v178z" />
    <glyph glyph-name="less" unicode="&#x3c;" horiz-adv-x="1090" 
d="M993 76l-899 397v170l899 379v-188l-696 -277l696 -293v-188z" />
    <glyph glyph-name="equal" unicode="=" horiz-adv-x="1090" 
d="M995 649h-901v176h901v-176zM995 276h-901v177h901v-177z" />
    <glyph glyph-name="greater" unicode="&#x3e;" horiz-adv-x="1090" 
d="M96 264l697 293l-697 277v188l899 -379v-170l-899 -397v188z" />
    <glyph glyph-name="question" unicode="?" horiz-adv-x="928" 
d="M51 1014q7 85 41 154.5t87.5 119t123.5 76.5t150 27q87 0 160 -29t125 -80.5t81 -122.5t29 -155q0 -73 -30.5 -137.5t-72.5 -118.5q-35 -45 -75 -86.5t-74 -81.5q-38 -45 -60 -88.5t-22 -90.5v-49h-178v60q0 71 31.5 137.5t93.5 132.5q38 40 74.5 81t64.5 81
q25 37 40 73.5t15 79.5q0 97 -54 154t-150 57q-40 0 -76 -14.5t-63.5 -40t-45 -61t-20.5 -78.5h-195zM528 252v-252h-198v252h198z" />
    <glyph glyph-name="at" unicode="@" horiz-adv-x="1976" 
d="M897 152q61 0 117.5 34t100.5 97t70.5 153t26.5 203q0 37 -8 70t-28 58.5t-53.5 40.5t-84.5 15q-71 0 -129 -38t-99 -103t-64 -150.5t-23 -179.5q0 -57 11.5 -95t34 -61.5t54.5 -33.5t74 -10zM1739 608q0 86 -25.5 166.5t-72.5 150.5t-113.5 128t-148 99.5t-176 64
t-197.5 22.5q-104 0 -199.5 -26.5t-178.5 -75.5t-151 -117t-117 -151.5t-75.5 -179.5t-26.5 -200t26 -200t73.5 -179.5t115.5 -151.5t151 -116.5t179.5 -75t202.5 -26.5q75 0 138.5 11t119 31.5t104.5 50t96 67.5h244q-64 -75 -140 -135t-164.5 -102t-188 -64.5
t-209.5 -22.5q-128 0 -246 32.5t-220 91.5t-186 142t-143.5 184.5t-92 218.5t-32.5 244q0 126 33 243.5t93 219.5t143.5 186t186 143.5t220 92.5t244.5 33q126 0 242 -29t216.5 -81.5t182.5 -125.5t140 -162t90 -190.5t32 -210.5q0 -161 -43.5 -279.5t-114 -197.5
t-160 -117.5t-182.5 -38.5q-55 0 -95.5 12t-69 32t-45.5 45.5t-25 52.5q-26 -29 -58 -54.5t-70.5 -44.5t-83 -30t-96.5 -11q-60 0 -119.5 19.5t-106.5 65.5t-76 123t-29 192q0 77 16 152.5t46.5 144.5t75 128t102 102.5t127.5 68t151 24.5q63 0 117 -24t85 -62l15 72h194
l-143 -729q-11 -59 9 -93t83 -34q64 0 123 30t104 90t72 150.5t27 210.5z" />
    <glyph glyph-name="A" unicode="A" horiz-adv-x="1225" 
d="M897 344h-571l-127 -344h-207l524 1380h195l522 -1380h-207zM397 532h428l-215 574z" />
    <glyph glyph-name="B" unicode="B" horiz-adv-x="1296" 
d="M748 1380q114 0 193 -32t129 -84.5t72.5 -119t22.5 -136.5q0 -40 -9 -80t-28.5 -77.5t-49.5 -71t-72 -60.5q51 -26 87 -61t59 -75.5t33.5 -84.5t10.5 -88q0 -69 -23 -142t-73 -132.5t-129.5 -97.5t-192.5 -38h-626v1380h596zM354 1190v-383h414q55 0 92.5 19t60 48.5
t32.5 65t10 68.5q0 38 -11 71.5t-36.5 58t-67.5 38.5t-103 14h-391zM354 621v-431h422q61 0 102 20.5t66 52.5t36 71t11 76q0 35 -11 72.5t-36 68t-66 50.5t-102 20h-422z" />
    <glyph glyph-name="C" unicode="C" horiz-adv-x="1272" 
d="M1004 965q-13 56 -41.5 102t-71.5 78.5t-100.5 50.5t-128.5 18q-96 0 -167 -34.5t-118.5 -101t-70.5 -164t-23 -222.5q0 -255 97 -391.5t282 -136.5q145 0 230.5 68.5t119.5 193.5h207q-16 -98 -61 -181t-116.5 -143.5t-168 -94.5t-214.5 -34q-141 0 -249.5 51t-182 145
t-111.5 226.5t-38 296.5q0 163 39 295t113.5 225t183 143t248.5 50q118 0 212.5 -33.5t164.5 -92t113.5 -139.5t59.5 -175h-208z" />
    <glyph glyph-name="D" unicode="D" horiz-adv-x="1331" 
d="M668 1380q145 0 254.5 -51t183 -141t110.5 -212t37 -263q0 -163 -37.5 -294.5t-112 -224.5t-184.5 -143.5t-255 -50.5h-512v1380h516zM354 1190v-1000h318q192 0 284.5 132.5t92.5 386.5q0 108 -23.5 196.5t-71 152t-119 98t-167.5 34.5h-314z" />
    <glyph glyph-name="E" unicode="E" horiz-adv-x="1180" 
d="M1096 1190h-742v-391h611v-191h-611v-418h742v-190h-944v1380h944v-190z" />
    <glyph glyph-name="F" unicode="F" horiz-adv-x="1116" 
d="M1073 1190h-719v-391h594v-191h-594v-608h-202v1380h921v-190z" />
    <glyph glyph-name="G" unicode="G" horiz-adv-x="1315" 
d="M1006 965q-13 56 -41 102t-70.5 78.5t-98.5 50.5t-126 18q-98 0 -171 -34.5t-121 -101t-71.5 -164t-23.5 -222.5q0 -255 99.5 -391.5t291.5 -136.5q92 0 157.5 29t107 78t60.5 113.5t19 135.5v51h-430v189h633v-242q0 -115 -37 -214.5t-108 -173t-173.5 -115.5
t-232.5 -42q-144 0 -254.5 51t-185.5 145t-113.5 226.5t-38.5 296.5q0 163 38.5 295t113.5 225t185.5 143t254.5 50q116 0 210 -34t163.5 -93.5t112 -139.5t56.5 -173h-206z" />
    <glyph glyph-name="H" unicode="H" horiz-adv-x="1319" 
d="M1167 0h-202v608h-611v-608h-202v1380h202v-581h611v581h202v-1380z" />
    <glyph glyph-name="I" unicode="I" horiz-adv-x="506" 
d="M354 0h-202v1380h202v-1380z" />
    <glyph glyph-name="J" unicode="J" horiz-adv-x="928" 
d="M193 369q1 -39 14.5 -75.5t38 -65.5t60 -46.5t81.5 -17.5q49 0 86 16.5t61.5 45.5t37 68.5t12.5 86.5v999h202v-999q0 -81 -24 -154.5t-73.5 -129.5t-124.5 -89t-177 -33q-98 0 -171 32.5t-122 87.5t-74.5 126t-29.5 148h203z" />
    <glyph glyph-name="K" unicode="K" horiz-adv-x="1257" 
d="M354 719l594 661h258l-504 -551l553 -829h-241l-449 680l-211 -231v-449h-202v1380h202v-661z" />
    <glyph glyph-name="L" unicode="L" horiz-adv-x="1061" 
d="M354 190h711v-190h-913v1380h202v-1190z" />
    <glyph glyph-name="M" unicode="M" horiz-adv-x="1606" 
d="M1454 0h-203v969l-366 -830h-164l-367 830v-969h-202v1380h225l426 -1003l426 1003h225v-1380z" />
    <glyph glyph-name="N" unicode="N" horiz-adv-x="1321" 
d="M1169 0h-202l-613 1016v-1016h-202v1380h202l613 -1011v1011h202v-1380z" />
    <glyph glyph-name="O" unicode="O" horiz-adv-x="1321" 
d="M662 1405q147 0 256 -56t181 -151.5t108 -222t36 -268.5q0 -164 -37 -299t-110.5 -232t-183.5 -150t-255 -53q-143 0 -251.5 52.5t-181 147.5t-109.5 229t-37 298q0 161 39.5 291.5t114.5 222.5t183.5 141.5t246.5 49.5zM657 1214q-92 0 -162 -34t-117 -99.5t-71 -161
t-24 -219.5q0 -128 24 -228t71 -168.5t117 -104t162 -35.5q97 0 168.5 36t118.5 105t70.5 169t23.5 228q0 111 -22.5 204.5t-69.5 162t-118.5 107t-170.5 38.5z" />
    <glyph glyph-name="P" unicode="P" horiz-adv-x="1231" 
d="M731 1380q114 0 196.5 -38.5t136 -99t78.5 -134t25 -143.5q0 -67 -25 -139t-78.5 -132t-136 -98.5t-196.5 -38.5h-377v-557h-202v1380h579zM354 1190v-442h377q62 0 106 21t72 53.5t41 70.5t13 72q0 35 -13 74.5t-41 73t-72 55.5t-106 22h-377z" />
    <glyph glyph-name="Q" unicode="Q" horiz-adv-x="1321" 
d="M662 1405q147 0 256 -56t181 -151.5t108 -222t36 -268.5q0 -152 -31.5 -279t-94.5 -222t-156.5 -153.5t-217.5 -72.5q0 -94 44.5 -135.5t125.5 -41.5h131v-159q-15 -4 -36 -7q-18 -2 -45 -4t-64 -2q-64 0 -127.5 18t-114.5 59.5t-82.5 109t-31.5 166.5q-115 19 -202 78.5
t-145.5 152t-88 215.5t-29.5 270q0 161 39.5 291.5t114.5 222.5t183.5 141.5t246.5 49.5zM657 1214q-92 0 -162 -34t-117 -99.5t-71 -161t-24 -219.5q0 -128 24 -228t71 -168.5t117 -104t162 -35.5q97 0 168.5 36t118.5 105t70.5 169t23.5 228q0 111 -22.5 204.5t-69.5 162
t-118.5 107t-170.5 38.5z" />
    <glyph glyph-name="R" unicode="R" horiz-adv-x="1278" 
d="M737 1380q114 0 197 -38.5t136 -99t78.5 -134t25.5 -143.5q0 -54 -16.5 -111.5t-50.5 -110t-86.5 -95t-123.5 -66.5l338 -582h-231l-320 557h-330v-557h-202v1380h585zM354 1190v-442h383q62 0 106 21t72 53.5t41 70.5t13 72q0 35 -13 74.5t-41 73t-72 55.5t-106 22h-383
z" />
    <glyph glyph-name="S" unicode="S" horiz-adv-x="1180" 
d="M872 987q-8 115 -85.5 173.5t-202.5 58.5q-62 0 -113 -14.5t-87 -40t-55.5 -61.5t-19.5 -79q0 -53 23.5 -85t76 -56.5t137.5 -48t208 -58.5q172 -49 259 -139.5t87 -241.5q0 -96 -36.5 -174t-103.5 -133t-162.5 -85t-213.5 -30q-119 0 -213.5 34.5t-162.5 94.5
t-107.5 141.5t-47.5 176.5h211q6 -59 29 -106.5t63 -81t96.5 -52t129.5 -18.5t131 16t98.5 45t62 71t21.5 93q0 59 -26 96t-82 64t-143 51t-208 57q-70 19 -130 51t-104.5 77t-70 105t-25.5 136q0 84 35.5 154t99 120.5t151 78.5t192.5 28q104 0 192.5 -27t153.5 -79.5
t104.5 -131t46.5 -180.5h-209z" />
    <glyph glyph-name="T" unicode="T" horiz-adv-x="1087" 
d="M1053 1190h-406v-1190h-203v1190h-409v190h1018v-190z" />
    <glyph glyph-name="U" unicode="U" horiz-adv-x="1300" 
d="M1161 518q0 -144 -39.5 -247.5t-109 -169.5t-163.5 -97t-202 -31t-200.5 30t-161 95.5t-107.5 169t-39 250.5v862h203v-856q0 -183 76.5 -270.5t228.5 -87.5q155 0 233 87.5t78 270.5v856h203v-862z" />
    <glyph glyph-name="V" unicode="V" horiz-adv-x="1124" 
d="M659 0h-200l-463 1380h209l358 -1071l357 1071h206z" />
    <glyph glyph-name="W" unicode="W" horiz-adv-x="1640" 
d="M1284 0h-186l-277 1049l-284 -1049h-181l-356 1380h211l248 -1018l272 1018h178l275 -1015l248 1015h208z" />
    <glyph glyph-name="X" unicode="X" horiz-adv-x="1044" 
d="M528 877l297 503h232l-412 -684l428 -696h-229l-320 520l-317 -520h-230l433 705l-420 675h229z" />
    <glyph glyph-name="Y" unicode="Y" horiz-adv-x="1102" 
d="M-4 1380h229l326 -616l330 616h225l-453 -825v-555h-202v555z" />
    <glyph glyph-name="Z" unicode="Z" horiz-adv-x="1108" 
d="M1030 1204l-719 -1014h719v-190h-958v174l719 1016h-687v190h926v-176z" />
    <glyph glyph-name="bracketleft" unicode="[" horiz-adv-x="653" 
d="M612 1409h-270v-1497h270v-158h-448v1813h448v-158z" />
    <glyph glyph-name="backslash" unicode="\" horiz-adv-x="901" 
d="M37 1380h186l637 -1380h-186z" />
    <glyph glyph-name="bracketright" unicode="]" horiz-adv-x="655" 
d="M492 -246h-451v156h270v1499h-270v158h451v-1813z" />
    <glyph glyph-name="asciicircum" unicode="^" horiz-adv-x="977" 
d="M74 682l342 780h159l328 -780h-182l-229 543l-236 -543h-182z" />
    <glyph glyph-name="underscore" unicode="_" horiz-adv-x="907" 
d="M-16 -129h940v-158h-940v158z" />
    <glyph glyph-name="grave" unicode="`" horiz-adv-x="707" 
d="M309 1116l-227 264h221l201 -264h-195z" />
    <glyph glyph-name="a" unicode="a" horiz-adv-x="1081" 
d="M76 512q0 108 32.5 198.5t90.5 156t138 102.5t175 37q72 0 133.5 -24t106.5 -69v78h188v-768q0 -37 21 -51t55 -14h14v-156q-6 -2 -16 -4q-8 -2 -20 -3t-29 -1q-69 0 -117.5 26t-73.5 86q-48 -58 -118.5 -88t-151.5 -30q-103 0 -183 38t-134.5 107t-82.5 165.5t-28 213.5
zM266 508q0 -168 61 -257t189 -89q114 0 180 81.5t66 252.5t-61.5 253t-180.5 82q-58 0 -105 -21.5t-80 -63t-51 -101.5t-18 -137z" />
    <glyph glyph-name="b" unicode="b" horiz-adv-x="1061" 
d="M569 1006q98 0 175 -38t130 -104.5t81 -156.5t30 -195q0 -120 -28 -216.5t-81.5 -165t-131 -105.5t-175.5 -37q-74 0 -136.5 27.5t-108.5 78.5v-94h-189v1380h189v-477q46 51 108.5 77t136.5 26zM555 162q125 0 182.5 88t57.5 258q0 72 -15.5 132t-45.5 103t-75 67
t-104 24q-119 0 -179.5 -83.5t-60.5 -254.5q0 -168 57.5 -251t182.5 -83z" />
    <glyph glyph-name="c" unicode="c" horiz-adv-x="981" 
d="M522 162q90 0 142 42.5t67 117.5h193q-15 -78 -49 -140t-85.5 -105t-118.5 -66t-147 -23q-104 0 -187 34.5t-141.5 99.5t-90 159.5t-31.5 214.5t32.5 215t91.5 160.5t141 100t181 34.5q86 0 155 -25t119.5 -69.5t82 -105.5t43.5 -134h-193q-17 74 -67.5 116.5
t-141.5 42.5q-117 0 -185.5 -82.5t-68.5 -252.5q0 -172 65.5 -253t192.5 -81z" />
    <glyph glyph-name="d" unicode="d" horiz-adv-x="1059" 
d="M489 1006q73 0 135.5 -26t110.5 -77v477h189v-1380h-189v94q-48 -51 -110.5 -78.5t-135.5 -27.5q-99 0 -176 37.5t-130.5 106.5t-81 165.5t-27.5 214.5q0 105 28.5 195t82 156.5t130.5 104.5t174 38zM506 162q121 0 179 83t58 251q0 171 -61 253t-176 82
q-60 0 -105.5 -23.5t-75.5 -66t-45.5 -102t-15.5 -131.5q0 -166 58.5 -256t183.5 -90z" />
    <glyph glyph-name="e" unicode="e" horiz-adv-x="1018" 
d="M922 301q-44 -152 -145.5 -232.5t-262.5 -80.5q-103 0 -184.5 34t-138.5 98.5t-87 159t-30 216.5t32.5 217t91 160t139 99t175.5 34q109 0 190 -38.5t135 -106t80.5 -159.5t26.5 -198q0 -26 -2 -48t-2 -24h-672q6 -76 27 -128t53.5 -83.5t75 -45t90.5 -13.5
q78 0 134 32.5t81 106.5h193zM510 834q-48 0 -89.5 -17t-73 -48.5t-51 -76t-24.5 -98.5h476q-4 51 -19.5 94.5t-44.5 76t-72 51t-102 18.5z" />
    <glyph glyph-name="f" unicode="f" horiz-adv-x="643" 
d="M596 1225h-109q-54 0 -78 -26.5t-24 -92.5v-115h211v-172h-211v-819h-188v819h-150v172h150v96q0 88 21 147.5t60 96t95 52.5t127 16q20 0 38 -1.5t31 -3.5q15 -3 27 -5v-164z" />
    <glyph glyph-name="g" unicode="g" horiz-adv-x="1061" 
d="M297 -76q17 -62 68 -95.5t147 -33.5q62 0 105 16t69.5 50.5t38.5 88.5t12 130v37q-48 -54 -114 -85.5t-144 -31.5q-98 0 -173 37t-127 104t-78.5 161.5t-26.5 209.5q0 103 28 193t81.5 157t131.5 105.5t177 38.5q77 0 137 -27t108 -78v90h189v-911q0 -226 -106 -341.5
t-308 -115.5q-87 0 -157.5 22.5t-121.5 62t-82.5 95t-41.5 121.5h188zM264 512q0 -167 57.5 -252.5t178.5 -85.5q118 0 181.5 80t63.5 246q0 168 -57 251t-176 83q-60 0 -106.5 -23t-78 -65.5t-47.5 -102t-16 -131.5z" />
    <glyph glyph-name="h" unicode="h" 
d="M135 0v1380h189v-477q48 50 114.5 76.5t145.5 26.5q84 0 147.5 -28t107 -78.5t65.5 -120.5t22 -154v-625h-189v610q0 58 -15.5 101t-41.5 70.5t-60 41t-71 13.5q-103 0 -164 -71.5t-61 -225.5v-539h-189z" />
    <glyph glyph-name="i" unicode="i" horiz-adv-x="465" 
d="M326 0h-189v991h189v-991zM328 1145h-193v235h193v-235z" />
    <glyph glyph-name="j" unicode="j" horiz-adv-x="465" 
d="M330 1145h-193v235h193v-235zM328 -88q0 -84 -23 -139t-60.5 -88t-86 -46.5t-99.5 -13.5q-39 0 -64 5q-13 2 -24 5v160h54q54 0 84 25t30 82v1089h189v-1079z" />
    <glyph glyph-name="k" unicode="k" horiz-adv-x="965" 
d="M571 590l408 -590h-234l-307 457l-114 -119v-338h-189v1380h189v-802l385 413h233z" />
    <glyph glyph-name="l" unicode="l" horiz-adv-x="502" 
d="M317 256q0 -29 5.5 -47t16.5 -28t28.5 -13.5t40.5 -3.5h30v-160q-6 -3 -16 -5q-18 -5 -55 -5q-46 0 -89 10t-76 39.5t-53 82t-20 136.5v1118h188v-1124z" />
    <glyph glyph-name="m" unicode="m" horiz-adv-x="1548" 
d="M135 0v991h189v-88q46 50 106.5 76.5t134.5 26.5q91 0 160 -34t104 -106q50 73 120 106.5t163 33.5q82 0 141 -28t97.5 -78t56.5 -119.5t18 -153.5v-627h-188v610q0 119 -43 172.5t-121 53.5q-98 0 -146 -79.5t-48 -248.5v-508h-187v610q0 119 -44 172.5t-122 53.5
q-96 0 -149 -72.5t-53 -224.5v-539h-189z" />
    <glyph glyph-name="n" unicode="n" 
d="M135 0v991h189v-86q99 101 262 101q84 0 147.5 -28t106 -78.5t64.5 -120.5t22 -154v-625h-189v610q0 46 -11.5 87t-35 72t-58.5 49t-83 18q-51 0 -92.5 -17.5t-71 -54t-45.5 -92.5t-16 -133v-539h-189z" />
    <glyph glyph-name="o" unicode="o" horiz-adv-x="1026" 
d="M516 1006q102 0 183 -38t138 -105t87 -159t30 -200q0 -122 -31.5 -217.5t-89 -162t-139.5 -101.5t-182 -35q-104 0 -185.5 35t-138 101.5t-86.5 162t-30 217.5q0 117 33 210.5t91.5 158t140 99t179.5 34.5zM514 162q124 0 187 82.5t63 257.5q0 76 -16 137t-47.5 103.5
t-78.5 65.5t-108 23q-58 0 -104.5 -20.5t-79.5 -61.5t-50.5 -102.5t-17.5 -144.5q0 -175 63.5 -257.5t188.5 -82.5z" />
    <glyph glyph-name="p" unicode="p" horiz-adv-x="1055" 
d="M573 -12q-75 0 -139 29t-110 81v-460h-189v1353h189v-94q46 53 110 81t139 28q95 0 171 -37.5t128.5 -104.5t80.5 -160.5t28 -205.5q0 -111 -27 -205t-79 -161.5t-128 -105.5t-174 -38zM559 831q-124 0 -183 -81t-59 -248q0 -171 61.5 -256.5t180.5 -85.5q62 0 106 23.5
t72 67.5t41 107.5t13 143.5q0 155 -57.5 242t-174.5 87z" />
    <glyph glyph-name="q" unicode="q" horiz-adv-x="1061" 
d="M487 -12q-98 0 -175 38.5t-130 106.5t-80.5 161.5t-27.5 203.5q0 112 28 205.5t81.5 160.5t130 104.5t173.5 37.5q76 0 139 -28t111 -81v94h189v-1356h-189v463q-48 -52 -111 -81t-139 -29zM506 834q-62 0 -107.5 -24t-75.5 -67.5t-44.5 -106t-14.5 -138.5
q0 -78 14.5 -140.5t44.5 -106t75.5 -66.5t107.5 -23q115 0 176 82t61 252q0 167 -58 252.5t-179 85.5z" />
    <glyph glyph-name="r" unicode="r" horiz-adv-x="668" 
d="M135 0v991h189v-137q46 72 108 112t137 40q21 0 37.5 -2t28.5 -4q13 -3 24 -5v-188h-61q-60 0 -110.5 -15t-86.5 -52.5t-56.5 -100.5t-20.5 -158v-481h-189z" />
    <glyph glyph-name="s" unicode="s" horiz-adv-x="924" 
d="M649 682q-6 72 -53 116t-145 44q-45 0 -76.5 -11.5t-52 -29t-30 -39t-9.5 -41.5q0 -32 15.5 -51t52 -34t96 -31t147.5 -44q55 -18 102.5 -39.5t82 -53t54 -75.5t19.5 -106q0 -65 -25.5 -119.5t-75 -94.5t-123 -62.5t-169.5 -22.5q-88 0 -158 24.5t-120 67.5t-78 102
t-31 127h190q5 -71 55 -112t146 -41q94 0 147.5 30.5t53.5 81.5q0 32 -16 53t-52.5 38t-96 35.5t-147.5 45.5q-55 18 -102 41.5t-81 56t-53.5 76t-19.5 101.5q0 51 21 103t65 94t112 68t163 26q90 0 160 -24.5t118 -68t74.5 -102.5t30.5 -129h-191z" />
    <glyph glyph-name="t" unicode="t" horiz-adv-x="668" 
d="M387 991h213v-172h-213v-563q0 -29 7.5 -47t21.5 -28t33.5 -13.5t42.5 -3.5h67v-160q-15 -3 -33 -5q-15 -2 -33.5 -3.5t-37.5 -1.5q-48 0 -94 10t-82 39.5t-58 82t-22 136.5v557h-158v172h158v383h188v-383z" />
    <glyph glyph-name="u" unicode="u" 
d="M123 991h188v-608q0 -59 15.5 -101t42 -70t60.5 -41t71 -13q52 0 93.5 18t71 56t45 97t15.5 142v520h188v-991h-188v90q-50 -51 -116.5 -76.5t-143.5 -25.5q-84 0 -147.5 27.5t-107 78t-65.5 120.5t-22 155v622z" />
    <glyph glyph-name="v" unicode="v" horiz-adv-x="907" 
d="M549 0h-191l-350 991h207l238 -735l241 735h205z" />
    <glyph glyph-name="w" unicode="w" horiz-adv-x="1358" 
d="M1049 0h-166l-205 686l-203 -686h-166l-291 991h205l174 -680l199 680h166l199 -680l176 680h202z" />
    <glyph glyph-name="x" unicode="x" horiz-adv-x="913" 
d="M31 991h221l207 -315l217 315h219l-330 -475l348 -516h-219l-235 358l-244 -358h-215l348 514z" />
    <glyph glyph-name="y" unicode="y" horiz-adv-x="907" 
d="M481 -199q-29 -86 -87.5 -130t-166.5 -44q-32 0 -51 3q-11 1 -20 3v168h71q21 0 35.5 5.5t25 16t17.5 25.5t14 35l41 113l-352 995h207l242 -729l237 729h205z" />
    <glyph glyph-name="z" unicode="z" horiz-adv-x="920" 
d="M844 834l-537 -662h533v-172h-770v162l542 657h-520v172h752v-157z" />
    <glyph glyph-name="braceleft" unicode="{" horiz-adv-x="569" 
d="M565 1352q-65 0 -108.5 -22t-70.5 -59t-38.5 -84.5t-11.5 -99.5v-317q0 -21 -5 -47.5t-15 -52.5t-23.5 -48t-30.5 -34q23 -10 37.5 -30.5t22.5 -45t11 -51.5t3 -51v-324q0 -51 11.5 -99t38.5 -84.5t70.5 -58.5t108.5 -22v-150q-103 0 -181 32t-130.5 87.5t-79.5 130.5
t-27 160v330q0 62 -24 88t-80 28v123q56 2 80 28.5t24 88.5v324q0 86 27 160.5t79.5 129t130.5 86t181 31.5v-147z" />
    <glyph glyph-name="bar" unicode="|" horiz-adv-x="489" 
d="M334 -158h-178v1659h178v-1659z" />
    <glyph glyph-name="braceright" unicode="}" horiz-adv-x="569" 
d="M524 528q-54 -2 -78 -28t-24 -88v-330q0 -85 -27 -160t-80 -130.5t-131 -87.5t-180 -32v150q64 0 108 22t70 58.5t37.5 84.5t11.5 99v324q0 24 3.5 51t11.5 51.5t22.5 45t36.5 30.5q-17 11 -30.5 33t-23.5 48t-15 53t-5 48v317q0 52 -11.5 99.5t-37.5 84.5t-70 59
t-108 22v147q102 0 180 -31.5t131 -86t80 -129t27 -160.5v-324q0 -63 25 -89t77 -28v-123z" />
    <glyph glyph-name="asciitilde" unicode="~" horiz-adv-x="1034" 
d="M958 668q-6 -53 -26.5 -99.5t-54 -81t-79 -55t-100.5 -20.5q-41 0 -89.5 14.5t-97 32.5t-93 32.5t-76.5 14.5q-15 0 -29.5 -5t-27.5 -15.5t-22 -26.5t-13 -39h-176q8 54 32 100t59.5 79.5t80.5 52t96 18.5q42 0 90.5 -15t96.5 -32.5t92.5 -32.5t78.5 -15q38 0 60.5 25.5
t27.5 67.5h170z" />
    <glyph glyph-name="exclamdown" unicode="&#xa1;" horiz-adv-x="545" 
d="M203 621h149l27 -1010h-205zM178 739v252h199v-252h-199z" />
    <glyph glyph-name="cent" unicode="&#xa2;" horiz-adv-x="1012" 
d="M588 1004q76 -7 138 -34.5t108.5 -71t75.5 -101.5t40 -125h-192q-16 63 -58.5 103.5t-111.5 51.5v-663q71 11 115.5 52t58.5 106h192q-14 -73 -46 -132t-79.5 -102t-108.5 -68t-132 -30v-164h-125v166q-89 10 -160.5 49.5t-122.5 104t-78.5 153t-27.5 197.5t28.5 197.5
t80 153t123 104t157.5 50.5v166h125v-163zM264 496q0 -147 52.5 -226.5t146.5 -101.5v657q-91 -20 -145 -101.5t-54 -227.5z" />
    <glyph glyph-name="sterling" unicode="&#xa3;" horiz-adv-x="1001" 
d="M748 1024q-11 91 -57.5 143t-141.5 52q-53 0 -92 -16t-65 -45.5t-39 -70.5t-13 -92v-211h412v-133h-412v-327q0 -45 -9 -80.5t-28 -57.5h631v-186h-897v186q56 0 80 27t24 90v348h-86v133h86v215q0 85 27 159.5t79.5 130t128 87t173.5 31.5q89 0 159.5 -29.5t120.5 -81
t79.5 -121.5t37.5 -151h-198z" />
    <glyph glyph-name="yen" unicode="&#xa5;" horiz-adv-x="1102" 
d="M397 651h-301v133h228l-328 596h229l326 -616l330 616h225l-328 -596h226v-133h-297l-54 -96v-72h351v-133h-351v-350h-202v350h-355v133h355v72z" />
    <glyph glyph-name="brokenbar" unicode="&#xa6;" horiz-adv-x="481" 
d="M319 776h-180v725h180v-725zM319 -158h-180v725h180v-725z" />
    <glyph glyph-name="section" unicode="&#xa7;" horiz-adv-x="1018" 
d="M942 610q0 -86 -47 -153.5t-135 -104.5q43 -38 68.5 -91t25.5 -124q0 -62 -23 -118.5t-68 -99.5t-111 -68t-152 -25q-81 0 -145.5 24.5t-109.5 67.5t-69 102t-24 127h192q1 -35 13 -63.5t33 -48.5t49.5 -30.5t60.5 -10.5q44 0 75 12.5t50.5 32.5t28.5 44t10 48
q2 45 -21 78.5t-82 54.5q-75 29 -142 56.5t-138 56.5q-41 17 -78 41.5t-65.5 56.5t-45 73t-16.5 91q0 42 10.5 83t33.5 77t59 65t87 47q-37 38 -58.5 86.5t-21.5 110.5q0 56 20 109.5t61.5 95.5t105.5 68t153 26q159 0 244.5 -84.5t85.5 -239.5h-190q1 32 -5.5 61t-23.5 51
t-46 35t-73 13q-38 0 -64.5 -11t-43 -28.5t-24 -39.5t-7.5 -44q0 -46 20 -75t60 -46q62 -26 134 -55.5t140 -54.5q44 -16 82 -39.5t66.5 -57.5t44.5 -79t16 -103zM674 725q-59 23 -121.5 46t-140.5 54q-41 -8 -70 -26.5t-47.5 -43t-26.5 -51.5t-6 -51q3 -45 29 -70t61 -42
q30 -15 64 -30t69 -29.5t68.5 -27.5t62.5 -24q34 9 60 28.5t44 44.5t27 51.5t9 47.5q0 42 -21 75t-61 48z" />
    <glyph glyph-name="dieresis" unicode="&#xa8;" horiz-adv-x="887" 
d="M348 1159h-178v221h178v-221zM719 1159h-180v221h180v-221z" />
    <glyph glyph-name="copyright" unicode="&#xa9;" horiz-adv-x="1597" 
d="M1141 588q-11 -71 -37.5 -127.5t-68.5 -96t-99 -60.5t-129 -21q-81 0 -145.5 27.5t-109.5 80t-69 128t-24 171.5q0 97 24 172.5t69 128t109.5 80t145.5 27.5q72 0 129 -22t99 -62t69 -94.5t39 -118.5h-164q-14 66 -56 103.5t-116 37.5q-91 0 -137.5 -60t-46.5 -192
q0 -131 46.5 -191.5t137.5 -60.5q74 0 115 37.5t55 112.5h164zM80 688q0 99 25.5 190.5t72.5 171t112.5 145t145.5 112.5t172 72.5t191 25.5t191 -25.5t172 -72.5t145.5 -112.5t112.5 -145t72.5 -171t25.5 -190.5t-25.5 -190.5t-72.5 -171t-112.5 -145t-145.5 -112.5
t-172 -72.5t-191 -25.5q-100 0 -191.5 25.5t-171.5 72.5t-145.5 112.5t-112.5 145t-72.5 171t-25.5 190.5zM217 688q0 -120 45.5 -226.5t124.5 -186t185 -125.5t227 -46q120 0 226.5 46t185.5 125.5t125 186t46 226.5q0 121 -46 227t-125 185.5t-185.5 125.5t-226.5 46
q-121 0 -227 -46t-185 -125.5t-124.5 -185.5t-45.5 -227z" />
    <glyph glyph-name="ordfeminine" unicode="&#xaa;" horiz-adv-x="801" 
d="M74 1049q0 70 22 131.5t62 107.5t95.5 72t123.5 26q46 0 82 -12t67 -35v39h152v-522q0 -20 12 -27.5t29 -7.5h33v-119q-9 -2 -20 -4q-9 -2 -20.5 -3t-23.5 -1q-43 0 -77.5 17.5t-53.5 48.5q-34 -32 -80 -51t-100 -19q-72 0 -128.5 26.5t-95.5 74t-59 113.5t-20 145z
M223 1047q0 -109 41.5 -167.5t122.5 -58.5q72 0 110 54t38 163q0 110 -35 163.5t-109 53.5q-40 0 -71 -15.5t-52.5 -43t-33 -65.5t-11.5 -84z" />
    <glyph glyph-name="guillemotleft" unicode="&#xab;" horiz-adv-x="1106" 
d="M854 123l-338 442l338 420h209l-344 -418l342 -444h-207zM383 123l-338 442l338 420h209l-344 -418l342 -444h-207z" />
    <glyph glyph-name="logicalnot" unicode="&#xac;" horiz-adv-x="1137" 
d="M872 469h-792v176h975v-500h-183v324z" />
    <glyph glyph-name="registered" unicode="&#xae;" horiz-adv-x="1597" 
d="M858 1087q66 0 115 -22.5t82 -58t49 -79t16 -85.5q0 -29 -9.5 -60t-26.5 -61t-42.5 -55.5t-56.5 -42.5l166 -316h-174l-148 289h-131v-289h-155v780h315zM698 938v-195h160q28 0 48 8.5t32 22.5t17.5 32t5.5 36q0 16 -5.5 33t-17.5 31t-32 23t-48 9h-160zM80 688
q0 99 25.5 190.5t72.5 171t112.5 145t145.5 112.5t172 72.5t191 25.5t191 -25.5t172 -72.5t145.5 -112.5t112.5 -145t72.5 -171t25.5 -190.5t-25.5 -190.5t-72.5 -171t-112.5 -145t-145.5 -112.5t-172 -72.5t-191 -25.5q-100 0 -191.5 25.5t-171.5 72.5t-145.5 112.5
t-112.5 145t-72.5 171t-25.5 190.5zM217 688q0 -120 45.5 -226.5t124.5 -186t185 -125.5t227 -46q120 0 226.5 46t185.5 125.5t125 186t46 226.5q0 121 -46 227t-125 185.5t-185.5 125.5t-226.5 46q-121 0 -227 -46t-185 -125.5t-124.5 -185.5t-45.5 -227z" />
    <glyph glyph-name="macron" unicode="&#xaf;" horiz-adv-x="803" 
d="M109 1380h589v-147h-589v147z" />
    <glyph glyph-name="degree" unicode="&#xb0;" horiz-adv-x="750" 
d="M80 1094q0 61 23.5 115t63.5 94.5t94 64t116 23.5t116.5 -23.5t94.5 -64t63 -94.5t23 -115q0 -62 -23 -116t-63 -94t-94.5 -63.5t-116.5 -23.5t-116 23.5t-94 63.5t-63.5 94t-23.5 116zM231 1094q0 -31 11.5 -58t31.5 -47t46.5 -31.5t56.5 -11.5t56.5 11.5t46 31.5t31 47
t11.5 58q0 30 -11.5 56.5t-31 46t-46 31t-56.5 11.5t-56.5 -11.5t-46.5 -31t-31.5 -46t-11.5 -56.5z" />
    <glyph glyph-name="plusminus" unicode="&#xb1;" horiz-adv-x="1090" 
d="M1038 0h-989v174h989v-174zM453 287v295h-404v176h404v295h186v-295h399v-176h-399v-295h-186z" />
    <glyph glyph-name="two.superior" unicode="&#xb2;" horiz-adv-x="653" 
d="M246 961h346v-123h-500v118q49 45 97 89q20 19 42 39.5l44 41t42 40.5t37 38q42 44 66 85.5t24 86.5q0 50 -26.5 80.5t-85.5 30.5q-48 0 -81 -26.5t-38 -76.5h-141q4 50 24.5 92.5t54.5 73t79.5 47.5t101.5 17q62 0 109.5 -18.5t79 -51t47.5 -75.5t16 -91
q0 -41 -13.5 -77.5t-35 -69.5t-48.5 -62t-55 -55z" />
    <glyph glyph-name="three.superior" unicode="&#xb3;" horiz-adv-x="682" 
d="M207 1042q12 -46 47 -70t80 -24q60 0 96.5 34t36.5 93q0 50 -35 80.5t-92 30.5h-90v110h76q51 0 84.5 27t33.5 72q0 24 -9 42t-24.5 29.5t-36 17t-44.5 5.5q-38 0 -67.5 -20t-39.5 -60h-139q7 48 29.5 86.5t55 64.5t74 40t87.5 14q53 0 99 -14.5t80 -42.5t53.5 -69
t19.5 -95q0 -47 -20.5 -84.5t-55.5 -63.5q43 -28 71.5 -71t28.5 -99q0 -57 -22 -103.5t-59 -79t-86.5 -50t-104.5 -17.5q-109 0 -178.5 58.5t-92.5 158.5h144z" />
    <glyph glyph-name="acute" unicode="&#xb4;" horiz-adv-x="707" 
d="M209 1116l199 264h223l-230 -264h-192z" />
    <glyph glyph-name="mu" unicode="&#xb5;" horiz-adv-x="1061" 
d="M926 0h-189v80q-45 -43 -98.5 -68.5t-116.5 -25.5q-29 0 -58.5 5.5t-56 14.5t-48.5 21t-35 26v-415h-189v1353h189v-614q0 -57 16.5 -98.5t44 -68t63.5 -39.5t74 -13q42 0 80.5 16.5t68.5 49.5t48 84t18 120v563h189v-991z" />
    <glyph glyph-name="paragraph" unicode="&#xb6;" horiz-adv-x="1393" 
d="M1079 1188v-1188h-205v1188h-241v-1188h-211v592q-78 3 -146.5 35t-118.5 85.5t-79 123.5t-29 149q0 82 31 154t84 125.5t125 84.5t153 31h881v-192h-244z" />
    <glyph glyph-name="periodcentered" unicode="&#xb7;" horiz-adv-x="545" 
d="M375 745v-272h-195v272h195z" />
    <glyph glyph-name="cedilla" unicode="&#xb8;" horiz-adv-x="500" 
d="M262 -256q0 42 -31.5 69.5t-87.5 30.5v82h33q55 0 99.5 -14.5t75 -41t47 -63t16.5 -79.5q0 -44 -15.5 -80t-43 -62t-66.5 -40.5t-86 -14.5q-21 0 -36.5 2t-26.5 4q-12 3 -21 6v125q38 -5 65 -1t44.5 14.5t25.5 27t8 35.5z" />
    <glyph glyph-name="one.superior" unicode="&#xb9;" horiz-adv-x="446" 
d="M205 838v600l-168 -103v144l192 118h109v-759h-133z" />
    <glyph glyph-name="ordmasculine" unicode="&#xba;" horiz-adv-x="774" 
d="M389 1389q73 0 131 -26t98 -71.5t61 -108.5t21 -136q0 -84 -21.5 -149.5t-62 -111t-98 -69t-129.5 -23.5q-73 0 -131 23.5t-99 69t-63 111t-22 149.5q0 81 23 144.5t64.5 107.5t99.5 67t128 23zM389 825q81 0 121.5 53.5t40.5 165.5q0 101 -40.5 157t-121.5 56
q-75 0 -119.5 -52t-44.5 -161q0 -112 41.5 -165.5t122.5 -53.5z" />
    <glyph glyph-name="guillemotright" unicode="&#xbb;" horiz-adv-x="1108" 
d="M520 123l340 436l-346 426h211l338 -426l-338 -436h-205zM49 123l340 436l-346 426h211l338 -426l-338 -436h-205z" />
    <glyph glyph-name="onequarter" unicode="&#xbc;" horiz-adv-x="1444" 
d="M401 0h-141l705 1380h139zM205 618v601l-168 -103v144l192 118h109v-760h-133zM1300 760v-479h105v-121h-105v-160h-133v160h-352v106l342 494h143zM1167 281v313l-215 -313h215z" />
    <glyph glyph-name="onehalf" unicode="&#xbd;" horiz-adv-x="1530" 
d="M205 621v600l-168 -103v144l192 118h109v-759h-133zM401 0h-141l705 1380h139zM1126 123h347v-123h-500v119q49 44 97 88q41 38 86 81t79 79q42 43 66 85t24 87q0 49 -27 79.5t-86 30.5q-48 0 -80.5 -26.5t-37.5 -75.5h-142q5 50 25.5 92t54 72.5t79.5 47.5t101 17
q62 0 109.5 -18.5t79 -50.5t47.5 -75t16 -91q0 -42 -13.5 -78.5t-35 -69.5t-48.5 -62t-54 -55z" />
    <glyph glyph-name="threequarters" unicode="&#xbe;" horiz-adv-x="1624" 
d="M1481 762v-479h104v-121h-104v-160h-133v160h-353v106l342 494h144zM1348 283v313l-215 -313h215zM582 0h-142l705 1380h139zM207 827q12 -46 47 -70t80 -24q60 0 96.5 34t36.5 93q0 50 -35 80.5t-92 30.5h-90v110h76q51 0 84.5 27t33.5 72q0 24 -9 42t-24.5 29.5t-36 17
t-44.5 5.5q-38 0 -67.5 -20t-39.5 -60h-139q7 48 29.5 86.5t55 64.5t74 40t87.5 14q53 0 99 -14.5t80 -42.5t53.5 -69t19.5 -95q0 -47 -20.5 -84.5t-55.5 -63.5q43 -28 71.5 -71t28.5 -99q0 -57 -22 -103.5t-59 -79t-86.5 -50t-104.5 -17.5q-109 0 -178.5 58.5t-92.5 158.5
h144z" />
    <glyph glyph-name="questiondown" unicode="&#xbf;" horiz-adv-x="920" 
d="M831 -37q-7 -85 -40.5 -154.5t-87 -119t-123.5 -76.5t-150 -27q-87 0 -160 29t-125 80.5t-81 122.5t-29 155q0 36 8 70.5t22 67t32.5 62t39.5 56.5q35 45 75.5 86.5t74.5 81.5q38 45 60 88.5t22 89.5v50h178v-60q0 -71 -31.5 -137.5t-93.5 -132.5q-38 -40 -75 -81
t-64 -81q-25 -37 -40.5 -73.5t-15.5 -79.5q0 -98 54.5 -154.5t150.5 -56.5q40 0 76 14t63.5 39.5t45 61.5t20.5 79h194zM354 725v252h199v-252h-199z" />
    <glyph glyph-name="Agrave" unicode="&#xc0;" horiz-adv-x="1225" 
d="M897 344h-571l-127 -344h-207l524 1380h195l522 -1380h-207zM397 532h428l-215 574zM545 1499l-228 264h222l200 -264h-194z" />
    <glyph glyph-name="Aacute" unicode="&#xc1;" horiz-adv-x="1225" 
d="M897 344h-571l-127 -344h-207l524 1380h195l522 -1380h-207zM397 532h428l-215 574zM489 1499l199 264h223l-229 -264h-193z" />
    <glyph glyph-name="Acircumflex" unicode="&#xc2;" horiz-adv-x="1225" 
d="M897 344h-571l-127 -344h-207l524 1380h195l522 -1380h-207zM397 532h428l-215 574zM739 1499l-131 139l-127 -139h-188l219 264h197l219 -264h-189z" />
    <glyph glyph-name="Atilde" unicode="&#xc3;" horiz-adv-x="1225" 
d="M897 344h-571l-127 -344h-207l524 1380h195l522 -1380h-207zM397 532h428l-215 574zM961 1751q-8 -50 -25 -93t-44.5 -74.5t-65.5 -49.5t-87 -18q-38 0 -74 13t-69 28.5t-62 28.5t-51 13q-31 0 -47 -20.5t-22 -58.5h-152q11 48 28.5 90.5t44.5 73.5t64 49t88 18
q36 0 70.5 -13t67 -29t61 -29t51.5 -13q34 0 50 24.5t22 59.5h152z" />
    <glyph glyph-name="Adieresis" unicode="&#xc4;" horiz-adv-x="1225" 
d="M897 344h-571l-127 -344h-207l524 1380h195l522 -1380h-207zM397 532h428l-215 574zM514 1516h-178v221h178v-221zM885 1516h-180v221h180v-221z" />
    <glyph glyph-name="Aring" unicode="&#xc5;" horiz-adv-x="1225" 
d="M897 344h-571l-127 -344h-207l524 1380h195l522 -1380h-207zM397 532h428l-215 574zM610 1440q-44 0 -82 15.5t-66 42.5t-44.5 64.5t-16.5 82.5q0 44 16.5 81.5t44.5 64.5t66 42.5t82 15.5t82 -15.5t66.5 -42.5t44.5 -64.5t16 -81.5q0 -45 -16 -82.5t-44.5 -64.5
t-66.5 -42.5t-82 -15.5zM610 1544q45 0 73 28t28 73t-28 72.5t-73 27.5t-72.5 -27.5t-27.5 -72.5t27.5 -73t72.5 -28z" />
    <glyph glyph-name="AE" unicode="&#xc6;" horiz-adv-x="1649" 
d="M719 340h-404l-125 -340h-206l524 1380h1057v-190h-643v-391h526v-191h-526v-418h643v-190h-846v340zM387 528h332v662h-86z" />
    <glyph glyph-name="Ccedilla" unicode="&#xc7;" horiz-adv-x="1272" 
d="M1004 965q-13 56 -41.5 102t-71.5 78.5t-100.5 50.5t-128.5 18q-96 0 -167 -34.5t-118.5 -101t-70.5 -164t-23 -222.5q0 -255 97 -391.5t282 -136.5q145 0 230.5 68.5t119.5 193.5h207q-16 -98 -61 -181t-116.5 -143.5t-168 -94.5t-214.5 -34q-141 0 -249.5 51t-182 145
t-111.5 226.5t-38 296.5q0 163 39 295t113.5 225t183 143t248.5 50q118 0 212.5 -33.5t164.5 -92t113.5 -139.5t59.5 -175h-208zM694 -256q0 42 -31.5 69.5t-87.5 30.5v82h33q55 0 99.5 -14.5t75 -41t47 -63t16.5 -79.5q0 -44 -15.5 -80t-43 -62t-66.5 -40.5t-86 -14.5
q-21 0 -36.5 2t-26.5 4q-12 3 -21 6v125q38 -5 65 -1t44.5 14.5t25.5 27t8 35.5z" />
    <glyph glyph-name="Egrave" unicode="&#xc8;" horiz-adv-x="1180" 
d="M1096 1190h-742v-391h611v-191h-611v-418h742v-190h-944v1380h944v-190zM575 1499l-227 264h221l201 -264h-195z" />
    <glyph glyph-name="Eacute" unicode="&#xc9;" horiz-adv-x="1180" 
d="M1096 1190h-742v-391h611v-191h-611v-418h742v-190h-944v1380h944v-190zM420 1503l198 264h224l-230 -264h-192z" />
    <glyph glyph-name="Ecircumflex" unicode="&#xca;" horiz-adv-x="1180" 
d="M1096 1190h-742v-391h611v-191h-611v-418h742v-190h-944v1380h944v-190zM754 1497l-131 139l-127 -139h-189l219 264h197l219 -264h-188z" />
    <glyph glyph-name="Edieresis" unicode="&#xcb;" horiz-adv-x="1180" 
d="M1096 1190h-742v-391h611v-191h-611v-418h742v-190h-944v1380h944v-190zM528 1516h-178v221h178v-221zM899 1516h-180v221h180v-221z" />
    <glyph glyph-name="Igrave" unicode="&#xcc;" horiz-adv-x="506" 
d="M354 0h-202v1380h202v-1380zM162 1499l-228 264h222l200 -264h-194z" />
    <glyph glyph-name="Iacute" unicode="&#xcd;" horiz-adv-x="506" 
d="M354 0h-202v1380h202v-1380zM145 1499l199 264h223l-229 -264h-193z" />
    <glyph glyph-name="Icircumflex" unicode="&#xce;" horiz-adv-x="506" 
d="M354 0h-202v1380h202v-1380zM381 1499l-131 139l-127 -139h-189l220 264h196l219 -264h-188z" />
    <glyph glyph-name="Idieresis" unicode="&#xcf;" horiz-adv-x="506" 
d="M354 0h-202v1380h202v-1380zM156 1516h-179v221h179v-221zM526 1516h-180v221h180v-221z" />
    <glyph glyph-name="Eth" unicode="&#xd0;" horiz-adv-x="1432" 
d="M768 1380q145 0 255 -51t183.5 -141t110.5 -212t37 -263q0 -163 -38 -294.5t-112 -224.5t-184.5 -143.5t-255.5 -50.5h-512v614h-191v172h191v594h516zM455 1190v-404h235v-172h-235v-424h317q192 0 284.5 132.5t92.5 386.5q0 108 -23.5 196.5t-71 152t-119 98
t-167.5 34.5h-313z" />
    <glyph glyph-name="Ntilde" unicode="&#xd1;" horiz-adv-x="1321" 
d="M1169 0h-202l-613 1016v-1016h-202v1380h202l613 -1011v1011h202v-1380zM1010 1751q-8 -50 -25 -93t-44.5 -74.5t-65.5 -49.5t-87 -18q-38 0 -74 13t-69 28.5t-62 28.5t-51 13q-30 0 -46.5 -20.5t-22.5 -58.5h-152q11 48 28.5 90.5t44.5 73.5t64.5 49t88.5 18
q35 0 70 -13t67 -29t60.5 -29t51.5 -13q34 0 50 24.5t22 59.5h152z" />
    <glyph glyph-name="Ograve" unicode="&#xd2;" horiz-adv-x="1321" 
d="M662 1405q147 0 256 -56t181 -151.5t108 -222t36 -268.5q0 -164 -37 -299t-110.5 -232t-183.5 -150t-255 -53q-143 0 -251.5 52.5t-181 147.5t-109.5 229t-37 298q0 161 39.5 291.5t114.5 222.5t183.5 141.5t246.5 49.5zM657 1214q-92 0 -162 -34t-117 -99.5t-71 -161
t-24 -219.5q0 -128 24 -228t71 -168.5t117 -104t162 -35.5q97 0 168.5 36t118.5 105t70.5 169t23.5 228q0 111 -22.5 204.5t-69.5 162t-118.5 107t-170.5 38.5zM637 1499l-227 264h221l200 -264h-194z" />
    <glyph glyph-name="Oacute" unicode="&#xd3;" horiz-adv-x="1321" 
d="M662 1405q147 0 256 -56t181 -151.5t108 -222t36 -268.5q0 -164 -37 -299t-110.5 -232t-183.5 -150t-255 -53q-143 0 -251.5 52.5t-181 147.5t-109.5 229t-37 298q0 161 39.5 291.5t114.5 222.5t183.5 141.5t246.5 49.5zM657 1214q-92 0 -162 -34t-117 -99.5t-71 -161
t-24 -219.5q0 -128 24 -228t71 -168.5t117 -104t162 -35.5q97 0 168.5 36t118.5 105t70.5 169t23.5 228q0 111 -22.5 204.5t-69.5 162t-118.5 107t-170.5 38.5zM496 1499l198 264h224l-230 -264h-192z" />
    <glyph glyph-name="Ocircumflex" unicode="&#xd4;" horiz-adv-x="1321" 
d="M662 1405q147 0 256 -56t181 -151.5t108 -222t36 -268.5q0 -164 -37 -299t-110.5 -232t-183.5 -150t-255 -53q-143 0 -251.5 52.5t-181 147.5t-109.5 229t-37 298q0 161 39.5 291.5t114.5 222.5t183.5 141.5t246.5 49.5zM657 1214q-92 0 -162 -34t-117 -99.5t-71 -161
t-24 -219.5q0 -128 24 -228t71 -168.5t117 -104t162 -35.5q97 0 168.5 36t118.5 105t70.5 169t23.5 228q0 111 -22.5 204.5t-69.5 162t-118.5 107t-170.5 38.5zM791 1499l-132 139l-127 -139h-188l219 264h197l219 -264h-188z" />
    <glyph glyph-name="Otilde" unicode="&#xd5;" horiz-adv-x="1321" 
d="M662 1405q147 0 256 -56t181 -151.5t108 -222t36 -268.5q0 -164 -37 -299t-110.5 -232t-183.5 -150t-255 -53q-143 0 -251.5 52.5t-181 147.5t-109.5 229t-37 298q0 161 39.5 291.5t114.5 222.5t183.5 141.5t246.5 49.5zM657 1214q-92 0 -162 -34t-117 -99.5t-71 -161
t-24 -219.5q0 -128 24 -228t71 -168.5t117 -104t162 -35.5q97 0 168.5 36t118.5 105t70.5 169t23.5 228q0 111 -22.5 204.5t-69.5 162t-118.5 107t-170.5 38.5zM1008 1751q-8 -50 -25 -93t-44.5 -74.5t-65.5 -49.5t-87 -18q-38 0 -74 13t-69 28.5t-62 28.5t-51 13
q-31 0 -47 -20.5t-22 -58.5h-152q11 48 28.5 90.5t44.5 73.5t64.5 49t88.5 18q35 0 70 -13t67 -29t60.5 -29t51.5 -13q34 0 50 24.5t22 59.5h152z" />
    <glyph glyph-name="Odieresis" unicode="&#xd6;" horiz-adv-x="1321" 
d="M662 1405q147 0 256 -56t181 -151.5t108 -222t36 -268.5q0 -164 -37 -299t-110.5 -232t-183.5 -150t-255 -53q-143 0 -251.5 52.5t-181 147.5t-109.5 229t-37 298q0 161 39.5 291.5t114.5 222.5t183.5 141.5t246.5 49.5zM657 1214q-92 0 -162 -34t-117 -99.5t-71 -161
t-24 -219.5q0 -128 24 -228t71 -168.5t117 -104t162 -35.5q97 0 168.5 36t118.5 105t70.5 169t23.5 228q0 111 -22.5 204.5t-69.5 162t-118.5 107t-170.5 38.5zM565 1513h-178v222h178v-222zM936 1513h-180v222h180v-222z" />
    <glyph glyph-name="multiply" unicode="&#xd7;" horiz-adv-x="1090" 
d="M889 82l-344 344l-346 -346l-123 123l346 346l-344 344l121 123l344 -346l346 346l123 -125l-346 -344l344 -342z" />
    <glyph glyph-name="Oslash" unicode="&#xd8;" horiz-adv-x="1321" 
d="M659 1405q73 0 137 -15t119 -42l56 106h162l-99 -188q52 -48 91.5 -109.5t65.5 -133.5t39 -152t13 -164q0 -164 -36.5 -299t-110 -232t-183 -150t-254.5 -53q-77 0 -143 15.5t-123 44.5l-59 -115h-162l102 199q-97 96 -146.5 245t-49.5 338q0 161 39 291.5t113.5 222.5
t182.5 141.5t246 49.5zM1038 702q0 116 -24.5 212t-75.5 165l-457 -874q37 -22 81 -31.5t95 -9.5q97 0 168.5 36t118.5 105t70.5 169t23.5 228zM657 1214q-92 0 -162 -34t-117 -99.5t-71 -161t-24 -219.5q0 -128 22.5 -226.5t67.5 -166.5l452 869q-35 18 -77.5 28t-90.5 10z
" />
    <glyph glyph-name="Ugrave" unicode="&#xd9;" horiz-adv-x="1300" 
d="M1161 518q0 -144 -39.5 -247.5t-109 -169.5t-163.5 -97t-202 -31t-200.5 30t-161 95.5t-107.5 169t-39 250.5v862h203v-856q0 -183 76.5 -270.5t228.5 -87.5q155 0 233 87.5t78 270.5v856h203v-862zM674 1499l-228 264h222l200 -264h-194z" />
    <glyph glyph-name="Uacute" unicode="&#xda;" horiz-adv-x="1300" 
d="M1161 518q0 -144 -39.5 -247.5t-109 -169.5t-163.5 -97t-202 -31t-200.5 30t-161 95.5t-107.5 169t-39 250.5v862h203v-856q0 -183 76.5 -270.5t228.5 -87.5q155 0 233 87.5t78 270.5v856h203v-862zM442 1499l199 264h223l-229 -264h-193z" />
    <glyph glyph-name="Ucircumflex" unicode="&#xdb;" horiz-adv-x="1300" 
d="M1161 518q0 -144 -39.5 -247.5t-109 -169.5t-163.5 -97t-202 -31t-200.5 30t-161 95.5t-107.5 169t-39 250.5v862h203v-856q0 -183 76.5 -270.5t228.5 -87.5q155 0 233 87.5t78 270.5v856h203v-862zM778 1497l-131 139l-127 -139h-188l219 264h197l219 -264h-189z" />
    <glyph glyph-name="Udieresis" unicode="&#xdc;" horiz-adv-x="1300" 
d="M1161 518q0 -144 -39.5 -247.5t-109 -169.5t-163.5 -97t-202 -31t-200.5 30t-161 95.5t-107.5 169t-39 250.5v862h203v-856q0 -183 76.5 -270.5t228.5 -87.5q155 0 233 87.5t78 270.5v856h203v-862zM553 1513h-178v222h178v-222zM924 1513h-181v222h181v-222z" />
    <glyph glyph-name="Yacute" unicode="&#xdd;" horiz-adv-x="1102" 
d="M-4 1380h229l326 -616l330 616h225l-453 -825v-555h-202v555zM340 1497l199 264h223l-230 -264h-192z" />
    <glyph glyph-name="Thorn" unicode="&#xde;" horiz-adv-x="1245" 
d="M362 1380v-250h373q114 0 195 -40t133.5 -101.5t77 -136t24.5 -143.5q0 -68 -24.5 -141.5t-77 -134.5t-133.5 -100.5t-195 -39.5h-373v-293h-200v1380h200zM362 938v-453h373q62 0 105.5 21.5t70.5 54.5t39.5 72.5t12.5 75.5q0 35 -12.5 75.5t-39.5 74.5t-70.5 56.5
t-105.5 22.5h-373z" />
    <glyph glyph-name="germandbls" unicode="&#xdf;" horiz-adv-x="1098" 
d="M553 -8q-20 0 -36.5 1t-29.5 3q-15 2 -28 4v164h88q68 0 120 19t86.5 53.5t52 83.5t17.5 110q0 56 -16 103t-48 80.5t-79.5 52t-110.5 18.5h-57v166h29q49 0 85.5 18t60.5 47t36 64.5t12 71.5q0 37 -11.5 70.5t-33.5 59t-54.5 40t-74.5 14.5q-48 0 -89 -15t-71 -45
t-47.5 -76t-17.5 -108v-991h-186v981q0 108 31 188t86 133t130.5 79t163.5 26q80 0 146.5 -24.5t114.5 -70.5t75 -112t27 -149q0 -39 -11 -76t-30.5 -70.5t-46.5 -62t-60 -49.5q48 -20 91 -55.5t75.5 -82t51 -103t18.5 -118.5q0 -108 -33 -190.5t-93 -138.5t-145 -84.5
t-188 -28.5z" />
    <glyph glyph-name="agrave" unicode="&#xe0;" horiz-adv-x="1081" 
d="M76 512q0 108 32.5 198.5t90.5 156t138 102.5t175 37q72 0 133.5 -24t106.5 -69v78h188v-768q0 -37 21 -51t55 -14h14v-156q-6 -2 -16 -4q-8 -2 -20 -3t-29 -1q-69 0 -117.5 26t-73.5 86q-48 -58 -118.5 -88t-151.5 -30q-103 0 -183 38t-134.5 107t-82.5 165.5t-28 213.5
zM266 508q0 -168 61 -257t189 -89q114 0 180 81.5t66 252.5t-61.5 253t-180.5 82q-58 0 -105 -21.5t-80 -63t-51 -101.5t-18 -137zM492 1116l-228 264h221l201 -264h-194z" />
    <glyph glyph-name="aacute" unicode="&#xe1;" horiz-adv-x="1081" 
d="M76 512q0 108 32.5 198.5t90.5 156t138 102.5t175 37q72 0 133.5 -24t106.5 -69v78h188v-768q0 -37 21 -51t55 -14h14v-156q-6 -2 -16 -4q-8 -2 -20 -3t-29 -1q-69 0 -117.5 26t-73.5 86q-48 -58 -118.5 -88t-151.5 -30q-103 0 -183 38t-134.5 107t-82.5 165.5t-28 213.5
zM266 508q0 -168 61 -257t189 -89q114 0 180 81.5t66 252.5t-61.5 253t-180.5 82q-58 0 -105 -21.5t-80 -63t-51 -101.5t-18 -137zM391 1116l199 264h223l-229 -264h-193z" />
    <glyph glyph-name="acircumflex" unicode="&#xe2;" horiz-adv-x="1081" 
d="M76 512q0 108 32.5 198.5t90.5 156t138 102.5t175 37q72 0 133.5 -24t106.5 -69v78h188v-768q0 -37 21 -51t55 -14h14v-156q-6 -2 -16 -4q-8 -2 -20 -3t-29 -1q-69 0 -117.5 26t-73.5 86q-48 -58 -118.5 -88t-151.5 -30q-103 0 -183 38t-134.5 107t-82.5 165.5t-28 213.5
zM266 508q0 -168 61 -257t189 -89q114 0 180 81.5t66 252.5t-61.5 253t-180.5 82q-58 0 -105 -21.5t-80 -63t-51 -101.5t-18 -137zM666 1116l-131 139l-127 -139h-189l219 264h197l219 -264h-188z" />
    <glyph glyph-name="atilde" unicode="&#xe3;" horiz-adv-x="1081" 
d="M76 512q0 108 32.5 198.5t90.5 156t138 102.5t175 37q72 0 133.5 -24t106.5 -69v78h188v-768q0 -37 21 -51t55 -14h14v-156q-6 -2 -16 -4q-8 -2 -20 -3t-29 -1q-69 0 -117.5 26t-73.5 86q-48 -58 -118.5 -88t-151.5 -30q-103 0 -183 38t-134.5 107t-82.5 165.5t-28 213.5
zM266 508q0 -168 61 -257t189 -89q114 0 180 81.5t66 252.5t-61.5 253t-180.5 82q-58 0 -105 -21.5t-80 -63t-51 -101.5t-18 -137zM889 1378q-8 -50 -25 -93t-44 -74.5t-65 -49.5t-87 -18q-38 0 -74.5 13t-69.5 29t-61.5 29t-50.5 13q-31 0 -47.5 -21t-22.5 -59h-152
q11 48 28.5 90.5t44.5 73.5t64.5 49t88.5 18q35 0 70 -13t67 -29t61 -29t52 -13q34 0 49.5 24.5t21.5 59.5h152z" />
    <glyph glyph-name="adieresis" unicode="&#xe4;" horiz-adv-x="1081" 
d="M76 512q0 108 32.5 198.5t90.5 156t138 102.5t175 37q72 0 133.5 -24t106.5 -69v78h188v-768q0 -37 21 -51t55 -14h14v-156q-6 -2 -16 -4q-8 -2 -20 -3t-29 -1q-69 0 -117.5 26t-73.5 86q-48 -58 -118.5 -88t-151.5 -30q-103 0 -183 38t-134.5 107t-82.5 165.5t-28 213.5
zM266 508q0 -168 61 -257t189 -89q114 0 180 81.5t66 252.5t-61.5 253t-180.5 82q-58 0 -105 -21.5t-80 -63t-51 -101.5t-18 -137zM451 1159h-179v221h179v-221zM821 1159h-180v221h180v-221z" />
    <glyph glyph-name="aring" unicode="&#xe5;" horiz-adv-x="1081" 
d="M76 512q0 108 32.5 198.5t90.5 156t138 102.5t175 37q72 0 133.5 -24t106.5 -69v78h188v-768q0 -37 21 -51t55 -14h14v-156q-6 -2 -16 -4q-8 -2 -20 -3t-29 -1q-69 0 -117.5 26t-73.5 86q-48 -58 -118.5 -88t-151.5 -30q-103 0 -183 38t-134.5 107t-82.5 165.5t-28 213.5
zM266 508q0 -168 61 -257t189 -89q114 0 180 81.5t66 252.5t-61.5 253t-180.5 82q-58 0 -105 -21.5t-80 -63t-51 -101.5t-18 -137zM539 1098q-44 0 -82 15.5t-66.5 42.5t-44.5 64.5t-16 82.5q0 44 16 81.5t44.5 64.5t66.5 42.5t82 15.5q43 0 81.5 -15.5t66.5 -42.5
t44.5 -64.5t16.5 -81.5q0 -45 -16.5 -82.5t-44.5 -64.5t-66.5 -42.5t-81.5 -15.5zM539 1202q45 0 72.5 28t27.5 73t-27.5 72.5t-72.5 27.5t-73 -27.5t-28 -72.5t28 -73t73 -28z" />
    <glyph glyph-name="ae" unicode="&#xe6;" horiz-adv-x="1616" 
d="M776 145q-54 -72 -142 -115.5t-222 -43.5q-52 0 -110.5 17t-108 54t-82.5 95t-33 139q0 75 27.5 129t78 89t120.5 52.5t155 20.5q47 2 88 2h72h67v51q0 43 -10 80.5t-33 65t-59.5 43.5t-89.5 16t-88.5 -9.5t-57.5 -26t-33.5 -39.5t-17.5 -50h-197q10 71 42 125.5t81.5 91
t116 55.5t145.5 19q116 0 193.5 -35t122.5 -97q59 63 137.5 97.5t175.5 34.5q109 0 189.5 -38t133.5 -105t79 -158.5t26 -198.5q0 -26 -2 -48t-2 -24h-666q6 -76 26.5 -128t52.5 -84t74.5 -46t90.5 -14q79 0 132.5 32.5t78.5 106.5h193q-44 -151 -144 -232t-260 -81
q-111 0 -197 40t-143 117zM442 150q74 0 121.5 23t74.5 59t37.5 80t10.5 87v35q-20 1 -49 1h-62t-88 -1q-60 -1 -102.5 -10.5t-68.5 -27t-38 -43t-12 -58.5q0 -35 13 -61.5t36.5 -45.5t56 -28.5t70.5 -9.5zM1112 834q-48 0 -89 -17t-72.5 -48.5t-51.5 -75t-25 -97.5h472
q-3 51 -17.5 94.5t-42.5 75.5t-71 50t-103 18z" />
    <glyph glyph-name="ccedilla" unicode="&#xe7;" horiz-adv-x="981" 
d="M522 162q90 0 142 42.5t67 117.5h193q-15 -78 -49 -140t-85.5 -105t-118.5 -66t-147 -23q-104 0 -187 34.5t-141.5 99.5t-90 159.5t-31.5 214.5t32.5 215t91.5 160.5t141 100t181 34.5q86 0 155 -25t119.5 -69.5t82 -105.5t43.5 -134h-193q-17 74 -67.5 116.5
t-141.5 42.5q-117 0 -185.5 -82.5t-68.5 -252.5q0 -172 65.5 -253t192.5 -81zM516 -256q0 42 -31.5 69.5t-87.5 30.5v82h33q55 0 99.5 -14.5t75 -41t47 -63t16.5 -79.5q0 -44 -15.5 -80t-43 -62t-66.5 -40.5t-86 -14.5q-21 0 -36.5 2t-26.5 4q-12 3 -21 6v125q38 -5 65 -1
t44.5 14.5t25.5 27t8 35.5z" />
    <glyph glyph-name="egrave" unicode="&#xe8;" horiz-adv-x="1018" 
d="M922 301q-44 -152 -145.5 -232.5t-262.5 -80.5q-103 0 -184.5 34t-138.5 98.5t-87 159t-30 216.5t32.5 217t91 160t139 99t175.5 34q109 0 190 -38.5t135 -106t80.5 -159.5t26.5 -198q0 -26 -2 -48t-2 -24h-672q6 -76 27 -128t53.5 -83.5t75 -45t90.5 -13.5
q78 0 134 32.5t81 106.5h193zM510 834q-48 0 -89.5 -17t-73 -48.5t-51 -76t-24.5 -98.5h476q-4 51 -19.5 94.5t-44.5 76t-72 51t-102 18.5zM496 1116l-228 264h221l201 -264h-194z" />
    <glyph glyph-name="eacute" unicode="&#xe9;" horiz-adv-x="1018" 
d="M922 301q-44 -152 -145.5 -232.5t-262.5 -80.5q-103 0 -184.5 34t-138.5 98.5t-87 159t-30 216.5t32.5 217t91 160t139 99t175.5 34q109 0 190 -38.5t135 -106t80.5 -159.5t26.5 -198q0 -26 -2 -48t-2 -24h-672q6 -76 27 -128t53.5 -83.5t75 -45t90.5 -13.5
q78 0 134 32.5t81 106.5h193zM510 834q-48 0 -89.5 -17t-73 -48.5t-51 -76t-24.5 -98.5h476q-4 51 -19.5 94.5t-44.5 76t-72 51t-102 18.5zM344 1116l199 264h223l-229 -264h-193z" />
    <glyph glyph-name="ecircumflex" unicode="&#xea;" horiz-adv-x="1018" 
d="M922 301q-44 -152 -145.5 -232.5t-262.5 -80.5q-103 0 -184.5 34t-138.5 98.5t-87 159t-30 216.5t32.5 217t91 160t139 99t175.5 34q109 0 190 -38.5t135 -106t80.5 -159.5t26.5 -198q0 -26 -2 -48t-2 -24h-672q6 -76 27 -128t53.5 -83.5t75 -45t90.5 -13.5
q78 0 134 32.5t81 106.5h193zM510 834q-48 0 -89.5 -17t-73 -48.5t-51 -76t-24.5 -98.5h476q-4 51 -19.5 94.5t-44.5 76t-72 51t-102 18.5zM645 1120l-131 140l-127 -140h-188l219 264h196l220 -264h-189z" />
    <glyph glyph-name="edieresis" unicode="&#xeb;" horiz-adv-x="1018" 
d="M922 301q-44 -152 -145.5 -232.5t-262.5 -80.5q-103 0 -184.5 34t-138.5 98.5t-87 159t-30 216.5t32.5 217t91 160t139 99t175.5 34q109 0 190 -38.5t135 -106t80.5 -159.5t26.5 -198q0 -26 -2 -48t-2 -24h-672q6 -76 27 -128t53.5 -83.5t75 -45t90.5 -13.5
q78 0 134 32.5t81 106.5h193zM510 834q-48 0 -89.5 -17t-73 -48.5t-51 -76t-24.5 -98.5h476q-4 51 -19.5 94.5t-44.5 76t-72 51t-102 18.5zM412 1159h-179v221h179v-221zM782 1159h-180v221h180v-221z" />
    <glyph glyph-name="igrave" unicode="&#xec;" horiz-adv-x="459" 
d="M135 1116l-227 264h221l201 -264h-195zM328 0h-189v991h189v-991z" />
    <glyph glyph-name="iacute" unicode="&#xed;" horiz-adv-x="459" 
d="M137 1116l199 264h223l-229 -264h-193zM328 0h-189v991h189v-991z" />
    <glyph glyph-name="icircumflex" unicode="&#xee;" horiz-adv-x="459" 
d="M328 0h-189v991h189v-991zM362 1118l-131 139l-127 -139h-188l219 264h197l219 -264h-189z" />
    <glyph glyph-name="idieresis" unicode="&#xef;" horiz-adv-x="459" 
d="M135 1159h-178v221h178v-221zM506 1159h-180v221h180v-221zM328 0h-189v991h189v-991z" />
    <glyph glyph-name="eth" unicode="&#xf0;" horiz-adv-x="1042" 
d="M213 1399q58 6 92 6q102 0 185 -27t151 -75l180 112l60 -98l-150 -94q56 -63 96.5 -142.5t67 -171t39 -192t12.5 -205.5q0 -124 -30 -221.5t-86 -165t-136 -103.5t-180 -36q-101 0 -181.5 35.5t-136.5 102.5t-86 163t-30 217q0 115 31.5 207t88.5 156.5t137 99t177 34.5
q43 0 87.5 -10t78.5 -30q-17 49 -42 91t-60 74l-117 -73l-62 98l74 45q-37 16 -79.5 25.5t-90.5 9.5h-90v168zM514 166q118 0 181 83t63 253q0 73 -16 132.5t-47 102.5t-76.5 66.5t-104.5 23.5q-56 0 -101.5 -20.5t-77.5 -61.5t-49.5 -101.5t-17.5 -141.5q0 -170 63 -253
t183 -83z" />
    <glyph glyph-name="ntilde" unicode="&#xf1;" 
d="M135 0v991h189v-86q99 101 262 101q84 0 147.5 -28t106 -78.5t64.5 -120.5t22 -154v-625h-189v610q0 46 -11.5 87t-35 72t-58.5 49t-83 18q-51 0 -92.5 -17.5t-71 -54t-45.5 -92.5t-16 -133v-539h-189zM870 1378q-8 -50 -25 -93t-44 -74.5t-65 -49.5t-87 -18
q-38 0 -74 13t-69 29t-62 29t-51 13q-31 0 -47 -21t-22 -59h-152q11 48 28.5 90.5t44.5 73.5t64 49t88 18q36 0 70.5 -13t67 -29t61 -29t51.5 -13q34 0 50 24.5t22 59.5h151z" />
    <glyph glyph-name="ograve" unicode="&#xf2;" horiz-adv-x="1026" 
d="M516 1006q102 0 183 -38t138 -105t87 -159t30 -200q0 -122 -31.5 -217.5t-89 -162t-139.5 -101.5t-182 -35q-104 0 -185.5 35t-138 101.5t-86.5 162t-30 217.5q0 117 33 210.5t91.5 158t140 99t179.5 34.5zM514 162q124 0 187 82.5t63 257.5q0 76 -16 137t-47.5 103.5
t-78.5 65.5t-108 23q-58 0 -104.5 -20.5t-79.5 -61.5t-50.5 -102.5t-17.5 -144.5q0 -175 63.5 -257.5t188.5 -82.5zM463 1116l-227 264h221l200 -264h-194z" />
    <glyph glyph-name="oacute" unicode="&#xf3;" horiz-adv-x="1026" 
d="M516 1006q102 0 183 -38t138 -105t87 -159t30 -200q0 -122 -31.5 -217.5t-89 -162t-139.5 -101.5t-182 -35q-104 0 -185.5 35t-138 101.5t-86.5 162t-30 217.5q0 117 33 210.5t91.5 158t140 99t179.5 34.5zM514 162q124 0 187 82.5t63 257.5q0 76 -16 137t-47.5 103.5
t-78.5 65.5t-108 23q-58 0 -104.5 -20.5t-79.5 -61.5t-50.5 -102.5t-17.5 -144.5q0 -175 63.5 -257.5t188.5 -82.5zM362 1116l199 264h223l-229 -264h-193z" />
    <glyph glyph-name="ocircumflex" unicode="&#xf4;" horiz-adv-x="1026" 
d="M516 1006q102 0 183 -38t138 -105t87 -159t30 -200q0 -122 -31.5 -217.5t-89 -162t-139.5 -101.5t-182 -35q-104 0 -185.5 35t-138 101.5t-86.5 162t-30 217.5q0 117 33 210.5t91.5 158t140 99t179.5 34.5zM514 162q124 0 187 82.5t63 257.5q0 76 -16 137t-47.5 103.5
t-78.5 65.5t-108 23q-58 0 -104.5 -20.5t-79.5 -61.5t-50.5 -102.5t-17.5 -144.5q0 -175 63.5 -257.5t188.5 -82.5zM643 1120l-131 140l-127 -140h-188l219 264h196l219 -264h-188z" />
    <glyph glyph-name="otilde" unicode="&#xf5;" horiz-adv-x="1026" 
d="M516 1006q102 0 183 -38t138 -105t87 -159t30 -200q0 -122 -31.5 -217.5t-89 -162t-139.5 -101.5t-182 -35q-104 0 -185.5 35t-138 101.5t-86.5 162t-30 217.5q0 117 33 210.5t91.5 158t140 99t179.5 34.5zM514 162q124 0 187 82.5t63 257.5q0 76 -16 137t-47.5 103.5
t-78.5 65.5t-108 23q-58 0 -104.5 -20.5t-79.5 -61.5t-50.5 -102.5t-17.5 -144.5q0 -175 63.5 -257.5t188.5 -82.5zM864 1378q-8 -50 -25 -93t-44 -74.5t-65 -49.5t-87 -18q-38 0 -74 13t-69 29t-62 29t-51 13q-31 0 -47 -21t-23 -59h-151q11 48 28.5 90.5t44.5 73.5t64 49
t88 18q35 0 70 -13t67.5 -29t61 -29t51.5 -13q34 0 50 24.5t22 59.5h151z" />
    <glyph glyph-name="odieresis" unicode="&#xf6;" horiz-adv-x="1026" 
d="M516 1006q102 0 183 -38t138 -105t87 -159t30 -200q0 -122 -31.5 -217.5t-89 -162t-139.5 -101.5t-182 -35q-104 0 -185.5 35t-138 101.5t-86.5 162t-30 217.5q0 117 33 210.5t91.5 158t140 99t179.5 34.5zM514 162q124 0 187 82.5t63 257.5q0 76 -16 137t-47.5 103.5
t-78.5 65.5t-108 23q-58 0 -104.5 -20.5t-79.5 -61.5t-50.5 -102.5t-17.5 -144.5q0 -175 63.5 -257.5t188.5 -82.5zM420 1159h-178v221h178v-221zM791 1159h-181v221h181v-221z" />
    <glyph glyph-name="divide" unicode="&#xf7;" horiz-adv-x="1137" 
d="M1040 469h-948v176h948v-176zM670 330v-273h-203v273h203zM670 1049v-273h-203v273h203z" />
    <glyph glyph-name="oslash" unicode="&#xf8;" horiz-adv-x="1018" 
d="M795 899q72 -66 110.5 -168t38.5 -227q0 -122 -30 -218t-86.5 -162.5t-137 -102t-180.5 -35.5q-54 0 -101.5 10t-89.5 27l-45 -84h-149l86 159q-68 66 -102.5 169t-34.5 237q0 117 31.5 210.5t89 158t137.5 99t178 34.5q48 0 92 -10t82 -25l47 84h150zM510 162
q124 0 185 82.5t61 257.5q0 69 -14 126t-40 99l-299 -547q46 -18 107 -18zM262 502q0 -75 11 -131.5t34 -98.5l293 543q-43 19 -90 19q-116 0 -182 -83t-66 -249z" />
    <glyph glyph-name="ugrave" unicode="&#xf9;" 
d="M123 991h188v-608q0 -59 15.5 -101t42 -70t60.5 -41t71 -13q52 0 93.5 18t71 56t45 97t15.5 142v520h188v-991h-188v90q-50 -51 -116.5 -76.5t-143.5 -25.5q-84 0 -147.5 27.5t-107 78t-65.5 120.5t-22 155v622zM526 1116l-227 264h221l201 -264h-195z" />
    <glyph glyph-name="uacute" unicode="&#xfa;" 
d="M123 991h188v-608q0 -59 15.5 -101t42 -70t60.5 -41t71 -13q52 0 93.5 18t71 56t45 97t15.5 142v520h188v-991h-188v90q-50 -51 -116.5 -76.5t-143.5 -25.5q-84 0 -147.5 27.5t-107 78t-65.5 120.5t-22 155v622zM319 1116l199 264h223l-229 -264h-193z" />
    <glyph glyph-name="ucircumflex" unicode="&#xfb;" 
d="M123 991h188v-608q0 -59 15.5 -101t42 -70t60.5 -41t71 -13q52 0 93.5 18t71 56t45 97t15.5 142v520h188v-991h-188v90q-50 -51 -116.5 -76.5t-143.5 -25.5q-84 0 -147.5 27.5t-107 78t-65.5 120.5t-22 155v622zM649 1120l-131 140l-127 -140h-188l219 264h196l220 -264
h-189z" />
    <glyph glyph-name="udieresis" unicode="&#xfc;" 
d="M123 991h188v-608q0 -59 15.5 -101t42 -70t60.5 -41t71 -13q52 0 93.5 18t71 56t45 97t15.5 142v520h188v-991h-188v90q-50 -51 -116.5 -76.5t-143.5 -25.5q-84 0 -147.5 27.5t-107 78t-65.5 120.5t-22 155v622zM424 1159h-178v221h178v-221zM795 1159h-181v221h181v-221
z" />
    <glyph glyph-name="yacute" unicode="&#xfd;" horiz-adv-x="907" 
d="M481 -199q-29 -86 -87.5 -130t-166.5 -44q-32 0 -51 3q-11 1 -20 3v168h71q21 0 35.5 5.5t25 16t17.5 25.5t14 35l41 113l-352 995h207l242 -729l237 729h205zM281 1116l198 264h223l-229 -264h-192z" />
    <glyph glyph-name="thorn" unicode="&#xfe;" horiz-adv-x="993" 
d="M264 909q48 45 106.5 68.5t129.5 23.5q100 0 177.5 -37.5t129.5 -103.5t79 -156t27 -194q0 -117 -27.5 -213.5t-80.5 -165.5t-130 -107t-175 -38q-69 0 -129 25.5t-107 70.5v-471h-190v1769h190v-471zM489 827q-115 0 -174 -83.5t-59 -247.5q0 -162 56.5 -246t176.5 -84
q116 0 175 89t59 251q0 70 -15 129t-44.5 102t-73 66.5t-101.5 23.5z" />
    <glyph glyph-name="ydieresis" unicode="&#xff;" horiz-adv-x="907" 
d="M481 -199q-29 -86 -87.5 -130t-166.5 -44q-32 0 -51 3q-11 1 -20 3v168h71q21 0 35.5 5.5t25 16t17.5 25.5t14 35l41 113l-352 995h207l242 -729l237 729h205zM350 1159h-178v221h178v-221zM721 1159h-180v221h180v-221z" />
    <glyph glyph-name="Amacron" unicode="&#x100;" horiz-adv-x="1225" 
d="M897 344h-571l-127 -344h-207l524 1380h195l522 -1380h-207zM397 532h428l-215 574zM315 1710h590v-147h-590v147z" />
    <glyph glyph-name="amacron" unicode="&#x101;" horiz-adv-x="1081" 
d="M76 512q0 108 32.5 198.5t90.5 156t138 102.5t175 37q72 0 133.5 -24t106.5 -69v78h188v-768q0 -37 21 -51t55 -14h14v-156q-6 -2 -16 -4q-8 -2 -20 -3t-29 -1q-69 0 -117.5 26t-73.5 86q-48 -58 -118.5 -88t-151.5 -30q-103 0 -183 38t-134.5 107t-82.5 165.5t-28 213.5
zM266 508q0 -168 61 -257t189 -89q114 0 180 81.5t66 252.5t-61.5 253t-180.5 82q-58 0 -105 -21.5t-80 -63t-51 -101.5t-18 -137zM252 1325h590v-147h-590v147z" />
    <glyph glyph-name="Abreve" unicode="&#x102;" horiz-adv-x="1225" 
d="M897 344h-571l-127 -344h-207l524 1380h195l522 -1380h-207zM397 532h428l-215 574zM610 1491q-52 0 -98.5 19t-81.5 53t-55.5 81.5t-20.5 104.5h144q0 -53 31.5 -87t80.5 -34q51 0 82 34t31 87h143q0 -57 -20.5 -104.5t-55 -81.5t-81.5 -53t-99 -19z" />
    <glyph glyph-name="abreve" unicode="&#x103;" horiz-adv-x="1081" 
d="M76 512q0 108 32.5 198.5t90.5 156t138 102.5t175 37q72 0 133.5 -24t106.5 -69v78h188v-768q0 -37 21 -51t55 -14h14v-156q-6 -2 -16 -4q-8 -2 -20 -3t-29 -1q-69 0 -117.5 26t-73.5 86q-48 -58 -118.5 -88t-151.5 -30q-103 0 -183 38t-134.5 107t-82.5 165.5t-28 213.5
zM266 508q0 -168 61 -257t189 -89q114 0 180 81.5t66 252.5t-61.5 253t-180.5 82q-58 0 -105 -21.5t-80 -63t-51 -101.5t-18 -137zM547 1120q-52 0 -98.5 19t-81.5 53.5t-55.5 81.5t-20.5 104h143q0 -52 31.5 -86.5t81.5 -34.5q51 0 81.5 34.5t30.5 86.5h144
q0 -57 -20.5 -104t-55.5 -81.5t-81.5 -53.5t-98.5 -19z" />
    <glyph glyph-name="Aogonek" unicode="&#x104;" horiz-adv-x="1225" 
d="M897 344h-571l-127 -344h-207l524 1380h195l524 -1386h-10q-59 -3 -91 -35.5t-32 -89.5q0 -54 33.5 -85.5t87.5 -31.5h22v-106q-12 -4 -24 -7q-11 -2 -25 -4t-29 -2q-48 0 -87.5 13.5t-68.5 38t-45 60t-16 79.5q0 59 29 104.5t80 71.5h-33zM397 532h428l-215 574z" />
    <glyph glyph-name="aogonek" unicode="&#x105;" horiz-adv-x="1081" 
d="M907 -137q0 -54 32.5 -84.5t88.5 -30.5h23v-106q-12 -4 -24 -7q-11 -2 -25 -4t-29 -2q-48 0 -87.5 13.5t-68.5 38t-45 60t-16 79.5q0 63 33 113t90 73q-36 13 -62.5 36.5t-42.5 63.5q-48 -58 -118.5 -88t-151.5 -30q-103 0 -183 38t-134.5 107t-82.5 165.5t-28 213.5
q0 108 32.5 198.5t90.5 156t138 102.5t175 37q72 0 133.5 -24t106.5 -69v78h188v-768q0 -37 21 -51t55 -14h14v-168q-59 -3 -91 -36.5t-32 -90.5zM266 508q0 -168 61 -257t189 -89q114 0 180 81.5t66 252.5t-61.5 253t-180.5 82q-58 0 -105 -21.5t-80 -63t-51 -101.5
t-18 -137z" />
    <glyph glyph-name="Cacute" unicode="&#x106;" horiz-adv-x="1272" 
d="M1004 965q-13 56 -41.5 102t-71.5 78.5t-100.5 50.5t-128.5 18q-96 0 -167 -34.5t-118.5 -101t-70.5 -164t-23 -222.5q0 -255 97 -391.5t282 -136.5q145 0 230.5 68.5t119.5 193.5h207q-16 -98 -61 -181t-116.5 -143.5t-168 -94.5t-214.5 -34q-141 0 -249.5 51t-182 145
t-111.5 226.5t-38 296.5q0 163 39 295t113.5 225t183 143t248.5 50q118 0 212.5 -33.5t164.5 -92t113.5 -139.5t59.5 -175h-208zM485 1497l199 264h223l-229 -264h-193z" />
    <glyph glyph-name="cacute" unicode="&#x107;" horiz-adv-x="981" 
d="M522 162q90 0 142 42.5t67 117.5h193q-15 -78 -49 -140t-85.5 -105t-118.5 -66t-147 -23q-104 0 -187 34.5t-141.5 99.5t-90 159.5t-31.5 214.5t32.5 215t91.5 160.5t141 100t181 34.5q86 0 155 -25t119.5 -69.5t82 -105.5t43.5 -134h-193q-17 74 -67.5 116.5
t-141.5 42.5q-117 0 -185.5 -82.5t-68.5 -252.5q0 -172 65.5 -253t192.5 -81zM367 1116l198 264h223l-229 -264h-192z" />
    <glyph glyph-name="Ccircumflex" unicode="&#x108;" horiz-adv-x="1272" 
d="M1004 965q-13 56 -41.5 102t-71.5 78.5t-100.5 50.5t-128.5 18q-96 0 -167 -34.5t-118.5 -101t-70.5 -164t-23 -222.5q0 -255 97 -391.5t282 -136.5q145 0 230.5 68.5t119.5 193.5h207q-16 -98 -61 -181t-116.5 -143.5t-168 -94.5t-214.5 -34q-141 0 -249.5 51t-182 145
t-111.5 226.5t-38 296.5q0 163 39 295t113.5 225t183 143t248.5 50q118 0 212.5 -33.5t164.5 -92t113.5 -139.5t59.5 -175h-208zM797 1497l-131 139l-127 -139h-189l219 264h197l219 -264h-188z" />
    <glyph glyph-name="ccircumflex" unicode="&#x109;" horiz-adv-x="981" 
d="M522 162q90 0 142 42.5t67 117.5h193q-15 -78 -49 -140t-85.5 -105t-118.5 -66t-147 -23q-104 0 -187 34.5t-141.5 99.5t-90 159.5t-31.5 214.5t32.5 215t91.5 160.5t141 100t181 34.5q86 0 155 -25t119.5 -69.5t82 -105.5t43.5 -134h-193q-17 74 -67.5 116.5
t-141.5 42.5q-117 0 -185.5 -82.5t-68.5 -252.5q0 -172 65.5 -253t192.5 -81zM643 1118l-131 139l-127 -139h-188l219 264h196l219 -264h-188z" />
    <glyph glyph-name="Cdotaccent" unicode="&#x10a;" horiz-adv-x="1272" 
d="M1004 965q-13 56 -41.5 102t-71.5 78.5t-100.5 50.5t-128.5 18q-96 0 -167 -34.5t-118.5 -101t-70.5 -164t-23 -222.5q0 -255 97 -391.5t282 -136.5q145 0 230.5 68.5t119.5 193.5h207q-16 -98 -61 -181t-116.5 -143.5t-168 -94.5t-214.5 -34q-141 0 -249.5 51t-182 145
t-111.5 226.5t-38 296.5q0 163 39 295t113.5 225t183 143t248.5 50q118 0 212.5 -33.5t164.5 -92t113.5 -139.5t59.5 -175h-208zM762 1530h-191v235h191v-235z" />
    <glyph glyph-name="cdotaccent" unicode="&#x10b;" horiz-adv-x="981" 
d="M522 162q90 0 142 42.5t67 117.5h193q-15 -78 -49 -140t-85.5 -105t-118.5 -66t-147 -23q-104 0 -187 34.5t-141.5 99.5t-90 159.5t-31.5 214.5t32.5 215t91.5 160.5t141 100t181 34.5q86 0 155 -25t119.5 -69.5t82 -105.5t43.5 -134h-193q-17 74 -67.5 116.5
t-141.5 42.5q-117 0 -185.5 -82.5t-68.5 -252.5q0 -172 65.5 -253t192.5 -81zM608 1145h-190v235h190v-235z" />
    <glyph glyph-name="Ccaron" unicode="&#x10c;" horiz-adv-x="1272" 
d="M1004 965q-13 56 -41.5 102t-71.5 78.5t-100.5 50.5t-128.5 18q-96 0 -167 -34.5t-118.5 -101t-70.5 -164t-23 -222.5q0 -255 97 -391.5t282 -136.5q145 0 230.5 68.5t119.5 193.5h207q-16 -98 -61 -181t-116.5 -143.5t-168 -94.5t-214.5 -34q-141 0 -249.5 51t-182 145
t-111.5 226.5t-38 296.5q0 163 39 295t113.5 225t183 143t248.5 50q118 0 212.5 -33.5t164.5 -92t113.5 -139.5t59.5 -175h-208zM985 1761l-219 -264h-197l-219 264h189l127 -139l131 139h188z" />
    <glyph glyph-name="ccaron" unicode="&#x10d;" horiz-adv-x="981" 
d="M522 162q90 0 142 42.5t67 117.5h193q-15 -78 -49 -140t-85.5 -105t-118.5 -66t-147 -23q-104 0 -187 34.5t-141.5 99.5t-90 159.5t-31.5 214.5t32.5 215t91.5 160.5t141 100t181 34.5q86 0 155 -25t119.5 -69.5t82 -105.5t43.5 -134h-193q-17 74 -67.5 116.5
t-141.5 42.5q-117 0 -185.5 -82.5t-68.5 -252.5q0 -172 65.5 -253t192.5 -81zM821 1384l-219 -264h-196l-220 264h189l127 -139l131 139h188z" />
    <glyph glyph-name="Dcaron" unicode="&#x10e;" horiz-adv-x="1321" 
d="M344 1190v-1000h318q192 0 284 132.5t92 386.5q0 108 -23.5 196.5t-71 152t-119 98t-167.5 34.5h-313zM657 1380q145 0 255 -51t183.5 -141t110.5 -212t37 -263q0 -163 -38 -294.5t-112 -224.5t-184.5 -143.5t-255.5 -50.5h-512v1380h516zM938 1767l-219 -264h-197
l-219 264h189l126 -139l132 139h188z" />
    <glyph glyph-name="dcaron" unicode="&#x10f;" horiz-adv-x="1354" 
d="M489 1006q73 0 135.5 -26t110.5 -77v477h189v-1380h-189v94q-48 -51 -110.5 -78.5t-135.5 -27.5q-99 0 -176 37.5t-130.5 106.5t-81 165.5t-27.5 214.5q0 105 28.5 195t82 156.5t130.5 104.5t174 38zM506 162q121 0 179 83t58 251q0 171 -61 253t-176 82
q-60 0 -105.5 -23.5t-75.5 -66t-45.5 -102t-15.5 -131.5q0 -166 58.5 -256t183.5 -90zM1118 1098l-2 299h203l-45 -299h-156z" />
    <glyph glyph-name="Dcroat" unicode="&#x110;" horiz-adv-x="1432" 
d="M768 1380q145 0 255 -51t183.5 -141t110.5 -212t37 -263q0 -163 -38 -294.5t-112 -224.5t-184.5 -143.5t-255.5 -50.5h-512v614h-191v172h191v594h516zM455 1190v-404h235v-172h-235v-424h317q192 0 284.5 132.5t92.5 386.5q0 108 -23.5 196.5t-71 152t-119 98
t-167.5 34.5h-313z" />
    <glyph glyph-name="dcroat" unicode="&#x111;" horiz-adv-x="1057" 
d="M444 1239h283v139h188v-139h144v-147h-144v-1092h-188v94q-48 -51 -109.5 -79.5t-134.5 -28.5q-97 0 -173 38t-128.5 107t-80 166t-27.5 215q0 105 27 195t78.5 156.5t128 104.5t175.5 38q73 0 134.5 -29t109.5 -80v195h-283v147zM500 162q120 0 177.5 83t57.5 251
q0 171 -60 254.5t-175 83.5q-60 0 -104.5 -24t-74.5 -67t-44.5 -103t-14.5 -132q0 -166 59 -256t179 -90z" />
    <glyph glyph-name="Emacron" unicode="&#x112;" horiz-adv-x="1180" 
d="M1096 1190h-742v-391h611v-191h-611v-418h742v-190h-944v1380h944v-190zM330 1704h590v-148h-590v148z" />
    <glyph glyph-name="emacron" unicode="&#x113;" horiz-adv-x="1018" 
d="M922 301q-44 -152 -145.5 -232.5t-262.5 -80.5q-103 0 -184.5 34t-138.5 98.5t-87 159t-30 216.5t32.5 217t91 160t139 99t175.5 34q109 0 190 -38.5t135 -106t80.5 -159.5t26.5 -198q0 -26 -2 -48t-2 -24h-672q6 -76 27 -128t53.5 -83.5t75 -45t90.5 -13.5
q78 0 134 32.5t81 106.5h193zM510 834q-48 0 -89.5 -17t-73 -48.5t-51 -76t-24.5 -98.5h476q-4 51 -19.5 94.5t-44.5 76t-72 51t-102 18.5zM219 1329h590v-147h-590v147z" />
    <glyph glyph-name="Ebreve" unicode="&#x114;" horiz-adv-x="1180" 
d="M1096 1190h-742v-391h611v-191h-611v-418h742v-190h-944v1380h944v-190zM637 1491q-52 0 -98.5 19t-81.5 53t-55.5 81.5t-20.5 104.5h143q0 -53 31.5 -87t81.5 -34q51 0 82 34t31 87h143q0 -57 -20.5 -104.5t-55.5 -81.5t-81.5 -53t-98.5 -19z" />
    <glyph glyph-name="ebreve" unicode="&#x115;" horiz-adv-x="1018" 
d="M922 301q-44 -152 -145.5 -232.5t-262.5 -80.5q-103 0 -184.5 34t-138.5 98.5t-87 159t-30 216.5t32.5 217t91 160t139 99t175.5 34q109 0 190 -38.5t135 -106t80.5 -159.5t26.5 -198q0 -26 -2 -48t-2 -24h-672q6 -76 27 -128t53.5 -83.5t75 -45t90.5 -13.5
q78 0 134 32.5t81 106.5h193zM510 834q-48 0 -89.5 -17t-73 -48.5t-51 -76t-24.5 -98.5h476q-4 51 -19.5 94.5t-44.5 76t-72 51t-102 18.5zM516 1120q-52 0 -98.5 19t-81.5 53.5t-55.5 81.5t-20.5 104h143q0 -52 32 -86.5t81 -34.5q51 0 82 34.5t31 86.5h143
q0 -57 -20.5 -104t-55.5 -81.5t-81.5 -53.5t-98.5 -19z" />
    <glyph glyph-name="Edotaccent" unicode="&#x116;" horiz-adv-x="1180" 
d="M1096 1190h-742v-391h611v-191h-611v-418h742v-190h-944v1380h944v-190zM723 1530h-191v235h191v-235z" />
    <glyph glyph-name="edotaccent" unicode="&#x117;" horiz-adv-x="1018" 
d="M922 301q-44 -152 -145.5 -232.5t-262.5 -80.5q-103 0 -184.5 34t-138.5 98.5t-87 159t-30 216.5t32.5 217t91 160t139 99t175.5 34q109 0 190 -38.5t135 -106t80.5 -159.5t26.5 -198q0 -26 -2 -48t-2 -24h-672q6 -76 27 -128t53.5 -83.5t75 -45t90.5 -13.5
q78 0 134 32.5t81 106.5h193zM510 834q-48 0 -89.5 -17t-73 -48.5t-51 -76t-24.5 -98.5h476q-4 51 -19.5 94.5t-44.5 76t-72 51t-102 18.5zM612 1145h-190v235h190v-235z" />
    <glyph glyph-name="Eogonek" unicode="&#x118;" horiz-adv-x="1180" 
d="M973 -135q0 -54 32.5 -84.5t88.5 -30.5h22v-106q-12 -4 -24 -7q-11 -2 -25 -4t-29 -2q-48 0 -87.5 13.5t-68.5 38t-45 60t-16 79.5q0 57 28.5 104.5t76.5 73.5h-774v1380h944v-190h-742v-391h611v-191h-611v-418h742v-198q-59 -3 -91 -36.5t-32 -90.5z" />
    <glyph glyph-name="eogonek" unicode="&#x119;" horiz-adv-x="1018" 
d="M922 301q-36 -124 -110.5 -201t-188.5 -100q-45 -9 -72 -47.5t-27 -87.5q0 -27 9 -49t24 -37.5t35 -24t43 -8.5h33v-104q-12 -4 -24 -7q-11 -2 -25 -4t-29 -2q-48 0 -87.5 13.5t-68.5 39t-45 61t-16 79.5q0 54 24 98t66 70q-92 7 -164 44.5t-122 102t-76.5 155
t-26.5 204.5q0 122 32.5 217t91 160t139 99t175.5 34q109 0 190 -38.5t135 -106t80.5 -159.5t26.5 -198q0 -26 -2 -48t-2 -24h-672q6 -76 27 -128t53.5 -83.5t75 -45t90.5 -13.5q78 0 134 32.5t81 106.5h193zM510 834q-48 0 -89.5 -17t-73 -48.5t-51 -76t-24.5 -98.5h476
q-4 51 -19.5 94.5t-44.5 76t-72 51t-102 18.5z" />
    <glyph glyph-name="Ecaron" unicode="&#x11a;" horiz-adv-x="1180" 
d="M1096 1190h-742v-391h611v-191h-611v-418h742v-190h-944v1380h944v-190zM948 1761l-219 -264h-197l-219 264h189l127 -139l131 139h188z" />
    <glyph glyph-name="ecaron" unicode="&#x11b;" horiz-adv-x="1018" 
d="M922 301q-44 -152 -145.5 -232.5t-262.5 -80.5q-103 0 -184.5 34t-138.5 98.5t-87 159t-30 216.5t32.5 217t91 160t139 99t175.5 34q109 0 190 -38.5t135 -106t80.5 -159.5t26.5 -198q0 -26 -2 -48t-2 -24h-672q6 -76 27 -128t53.5 -83.5t75 -45t90.5 -13.5
q78 0 134 32.5t81 106.5h193zM510 834q-48 0 -89.5 -17t-73 -48.5t-51 -76t-24.5 -98.5h476q-4 51 -19.5 94.5t-44.5 76t-72 51t-102 18.5zM834 1384l-220 -264h-196l-219 264h188l127 -139l131 139h189z" />
    <glyph glyph-name="Gcircumflex" unicode="&#x11c;" horiz-adv-x="1315" 
d="M1006 965q-13 56 -41 102t-70.5 78.5t-98.5 50.5t-126 18q-98 0 -171 -34.5t-121 -101t-71.5 -164t-23.5 -222.5q0 -255 99.5 -391.5t291.5 -136.5q92 0 157.5 29t107 78t60.5 113.5t19 135.5v51h-430v189h633v-242q0 -115 -37 -214.5t-108 -173t-173.5 -115.5
t-232.5 -42q-144 0 -254.5 51t-185.5 145t-113.5 226.5t-38.5 296.5q0 163 38.5 295t113.5 225t185.5 143t254.5 50q116 0 210 -34t163.5 -93.5t112 -139.5t56.5 -173h-206zM805 1497l-131 139l-127 -139h-189l220 264h196l219 -264h-188z" />
    <glyph glyph-name="gcircumflex" unicode="&#x11d;" horiz-adv-x="1061" 
d="M297 -76q17 -62 68 -95.5t147 -33.5q62 0 105 16t69.5 50.5t38.5 88.5t12 130v37q-48 -54 -114 -85.5t-144 -31.5q-98 0 -173 37t-127 104t-78.5 161.5t-26.5 209.5q0 103 28 193t81.5 157t131.5 105.5t177 38.5q77 0 137 -27t108 -78v90h189v-911q0 -226 -106 -341.5
t-308 -115.5q-87 0 -157.5 22.5t-121.5 62t-82.5 95t-41.5 121.5h188zM264 512q0 -167 57.5 -252.5t178.5 -85.5q118 0 181.5 80t63.5 246q0 168 -57 251t-176 83q-60 0 -106.5 -23t-78 -65.5t-47.5 -102t-16 -131.5zM668 1118l-131 139l-127 -139h-189l219 264h197
l219 -264h-188z" />
    <glyph glyph-name="Gbreve" unicode="&#x11e;" horiz-adv-x="1315" 
d="M1006 965q-13 56 -41 102t-70.5 78.5t-98.5 50.5t-126 18q-98 0 -171 -34.5t-121 -101t-71.5 -164t-23.5 -222.5q0 -255 99.5 -391.5t291.5 -136.5q92 0 157.5 29t107 78t60.5 113.5t19 135.5v51h-430v189h633v-242q0 -115 -37 -214.5t-108 -173t-173.5 -115.5
t-232.5 -42q-144 0 -254.5 51t-185.5 145t-113.5 226.5t-38.5 296.5q0 163 38.5 295t113.5 225t185.5 143t254.5 50q116 0 210 -34t163.5 -93.5t112 -139.5t56.5 -173h-206zM664 1491q-53 0 -99.5 19t-81 53t-55 81.5t-20.5 104.5h143q0 -53 31.5 -87t81.5 -34q51 0 81.5 34
t30.5 87h144q0 -57 -20.5 -104.5t-55.5 -81.5t-81.5 -53t-98.5 -19z" />
    <glyph glyph-name="gbreve" unicode="&#x11f;" horiz-adv-x="1061" 
d="M297 -76q17 -62 68 -95.5t147 -33.5q62 0 105 16t69.5 50.5t38.5 88.5t12 130v37q-48 -54 -114 -85.5t-144 -31.5q-98 0 -173 37t-127 104t-78.5 161.5t-26.5 209.5q0 103 28 193t81.5 157t131.5 105.5t177 38.5q77 0 137 -27t108 -78v90h189v-911q0 -226 -106 -341.5
t-308 -115.5q-87 0 -157.5 22.5t-121.5 62t-82.5 95t-41.5 121.5h188zM264 512q0 -167 57.5 -252.5t178.5 -85.5q118 0 181.5 80t63.5 246q0 168 -57 251t-176 83q-60 0 -106.5 -23t-78 -65.5t-47.5 -102t-16 -131.5zM537 1108q-53 0 -99.5 19t-81 53t-55 81.5t-20.5 104.5
h143q0 -53 31.5 -87t81.5 -34q51 0 81.5 34t30.5 87h144q0 -57 -20.5 -104.5t-55.5 -81.5t-81.5 -53t-98.5 -19z" />
    <glyph glyph-name="Gdotaccent" unicode="&#x120;" horiz-adv-x="1315" 
d="M1006 965q-13 56 -41 102t-70.5 78.5t-98.5 50.5t-126 18q-98 0 -171 -34.5t-121 -101t-71.5 -164t-23.5 -222.5q0 -255 99.5 -391.5t291.5 -136.5q92 0 157.5 29t107 78t60.5 113.5t19 135.5v51h-430v189h633v-242q0 -115 -37 -214.5t-108 -173t-173.5 -115.5
t-232.5 -42q-144 0 -254.5 51t-185.5 145t-113.5 226.5t-38.5 296.5q0 163 38.5 295t113.5 225t185.5 143t254.5 50q116 0 210 -34t163.5 -93.5t112 -139.5t56.5 -173h-206zM770 1524h-190v235h190v-235z" />
    <glyph glyph-name="gdotaccent" unicode="&#x121;" horiz-adv-x="1061" 
d="M297 -76q17 -62 68 -95.5t147 -33.5q62 0 105 16t69.5 50.5t38.5 88.5t12 130v37q-48 -54 -114 -85.5t-144 -31.5q-98 0 -173 37t-127 104t-78.5 161.5t-26.5 209.5q0 103 28 193t81.5 157t131.5 105.5t177 38.5q77 0 137 -27t108 -78v90h189v-911q0 -226 -106 -341.5
t-308 -115.5q-87 0 -157.5 22.5t-121.5 62t-82.5 95t-41.5 121.5h188zM264 512q0 -167 57.5 -252.5t178.5 -85.5q118 0 181.5 80t63.5 246q0 168 -57 251t-176 83q-60 0 -106.5 -23t-78 -65.5t-47.5 -102t-16 -131.5zM633 1145h-191v235h191v-235z" />
    <glyph glyph-name="Gcommaaccent" unicode="&#x122;" horiz-adv-x="1315" 
d="M1006 965q-13 56 -41 102t-70.5 78.5t-98.5 50.5t-126 18q-98 0 -171 -34.5t-121 -101t-71.5 -164t-23.5 -222.5q0 -255 99.5 -391.5t291.5 -136.5q92 0 157.5 29t107 78t60.5 113.5t19 135.5v51h-430v189h633v-242q0 -115 -37 -214.5t-108 -173t-173.5 -115.5
t-232.5 -42q-144 0 -254.5 51t-185.5 145t-113.5 226.5t-38.5 296.5q0 163 38.5 295t113.5 225t185.5 143t254.5 50q116 0 210 -34t163.5 -93.5t112 -139.5t56.5 -173h-206zM487 -365q57 13 86 51t29 107v90h168v-59q0 -63 -16 -115.5t-50 -92.5t-88 -65t-129 -32v116z" />
    <glyph glyph-name="gcommaaccent" unicode="&#x123;" horiz-adv-x="1067" 
d="M297 -76q17 -62 68 -95.5t147 -33.5q62 0 105 16t69.5 50.5t38.5 88.5t12 130v37q-48 -54 -114 -85.5t-144 -31.5q-98 0 -173 37t-127 104t-78.5 161.5t-26.5 209.5q0 103 28 193t81.5 157t131.5 105.5t177 38.5q77 0 137 -27t108 -78v90h189v-911q0 -226 -106 -341.5
t-308 -115.5q-87 0 -157.5 22.5t-121.5 62t-82.5 95t-41.5 121.5h188zM264 512q0 -167 57.5 -252.5t178.5 -85.5q118 0 181.5 80t63.5 246q0 168 -57 251t-176 83q-60 0 -106.5 -23t-78 -65.5t-47.5 -102t-16 -131.5zM428 1110l-2 299h203l-45 -299h-156z" />
    <glyph glyph-name="Hcircumflex" unicode="&#x124;" horiz-adv-x="1319" 
d="M1167 0h-202v608h-611v-608h-202v1380h202v-581h611v581h202v-1380zM788 1497l-131 139l-127 -139h-188l219 264h197l219 -264h-189z" />
    <glyph glyph-name="hcircumflex" unicode="&#x125;" 
d="M135 0v1380h189v-477q48 50 114.5 76.5t145.5 26.5q84 0 147.5 -28t107 -78.5t65.5 -120.5t22 -154v-625h-189v610q0 58 -15.5 101t-41.5 70.5t-60 41t-71 13.5q-103 0 -164 -71.5t-61 -225.5v-539h-189zM649 1497l-131 139l-127 -139h-188l219 264h196l220 -264h-189z
" />
    <glyph glyph-name="Hbar" unicode="&#x126;" horiz-adv-x="1319" 
d="M1167 1221h121v-172h-121v-1049h-200v608h-613v-608h-202v1049h-136v172h136v159h202v-159h613v159h200v-159zM967 799v250h-613v-250h613z" />
    <glyph glyph-name="hbar" unicode="&#x127;" horiz-adv-x="1044" 
d="M6 1239h135v141h189v-141h276v-147h-276v-189q96 101 256 101q84 0 147 -28t105 -78.5t63 -120.5t21 -154v-623h-189v608q0 58 -14.5 101t-39.5 70.5t-58 41t-70 13.5q-103 0 -162 -71.5t-59 -225.5v-537h-189v1092h-135v147z" />
    <glyph glyph-name="Itilde" unicode="&#x128;" horiz-adv-x="506" 
d="M354 0h-202v1380h202v-1380zM602 1751q-8 -50 -25 -93t-44 -74.5t-65 -49.5t-87 -18q-38 0 -74 13t-69 28.5t-62 28.5t-51 13q-31 0 -47.5 -20.5t-22.5 -58.5h-151q10 48 27.5 90.5t44.5 73.5t64.5 49t88.5 18q35 0 70 -13t67 -29t61 -29t52 -13q34 0 49.5 24.5
t22.5 59.5h151z" />
    <glyph glyph-name="itilde" unicode="&#x129;" horiz-adv-x="459" 
d="M328 0h-189v991h189v-991zM582 1378q-8 -50 -25 -93t-44.5 -74.5t-65.5 -49.5t-87 -18q-38 0 -74 13t-69 29t-62 29t-51 13q-31 0 -47 -21t-22 -59h-152q11 48 28.5 90.5t44.5 73.5t64.5 49t88.5 18q35 0 70 -13t67 -29t60.5 -29t51.5 -13q34 0 50 24.5t22 59.5h152z" />
    <glyph glyph-name="Imacron" unicode="&#x12a;" horiz-adv-x="506" 
d="M354 0h-202v1380h202v-1380zM-41 1710h590v-147h-590v147z" />
    <glyph glyph-name="imacron" unicode="&#x12b;" horiz-adv-x="459" 
d="M-66 1327h590v-147h-590v147zM328 0h-189v991h189v-991z" />
    <glyph glyph-name="Ibreve" unicode="&#x12c;" horiz-adv-x="506" 
d="M354 0h-202v1380h202v-1380zM254 1491q-52 0 -98.5 19t-81.5 53t-55.5 81.5t-20.5 104.5h143q0 -53 31.5 -87t81.5 -34q51 0 82 34t31 87h143q0 -57 -20.5 -104.5t-55.5 -81.5t-81.5 -53t-98.5 -19z" />
    <glyph glyph-name="ibreve" unicode="&#x12d;" horiz-adv-x="459" 
d="M328 0h-189v991h189v-991zM231 1120q-52 0 -98.5 19t-81.5 53.5t-55.5 81.5t-20.5 104h144q0 -52 31.5 -86.5t80.5 -34.5q51 0 82 34.5t31 86.5h143q0 -57 -20.5 -104t-55 -81.5t-81.5 -53.5t-99 -19z" />
    <glyph glyph-name="Iogonek" unicode="&#x12e;" horiz-adv-x="506" 
d="M231 -135q0 -54 33 -84.5t88 -30.5h23v-106q-12 -4 -24 -7q-11 -2 -25 -4t-29 -2q-48 0 -87.5 13.5t-68.5 38t-45 60t-16 79.5q0 57 28 104.5t76 73.5h-32v1380h202v-1388q-59 -3 -91 -36.5t-32 -90.5z" />
    <glyph glyph-name="iogonek" unicode="&#x12f;" horiz-adv-x="467" 
d="M205 -135q0 -54 32.5 -84.5t88.5 -30.5h22v-106q-12 -4 -24 -7q-11 -2 -25 -4t-29 -2q-48 0 -87.5 13.5t-68.5 38t-45 60t-16 79.5q0 57 28.5 104.5t76.5 73.5h-19v991h189v-999q-59 -3 -91 -36.5t-32 -90.5zM330 1145h-193v235h193v-235z" />
    <glyph glyph-name="Idotaccent" unicode="&#x130;" horiz-adv-x="506" 
d="M354 0h-202v1380h202v-1380zM348 1526h-190v235h190v-235z" />
    <glyph glyph-name="dotlessi" unicode="&#x131;" horiz-adv-x="465" 
d="M326 0h-189v991h189v-991z" />
    <glyph glyph-name="IJ" unicode="&#x132;" horiz-adv-x="1432" 
d="M354 0h-202v1380h202v-1380zM696 369q1 -39 14.5 -75.5t38.5 -65.5t60.5 -46.5t81.5 -17.5q49 0 86 16.5t61.5 45.5t36.5 68.5t12 86.5v999h203v-999q0 -81 -24 -154.5t-73.5 -129.5t-124.5 -89t-177 -33q-98 0 -171 32.5t-122 87.5t-74.5 126t-29.5 148h202z" />
    <glyph glyph-name="ij" unicode="&#x133;" horiz-adv-x="934" 
d="M326 0h-189v991h189v-991zM328 1145h-193v235h193v-235zM799 1145h-193v235h193v-235zM797 -88q0 -84 -23 -139t-60.5 -88t-86 -46.5t-99.5 -13.5q-39 0 -64 5q-13 2 -24 5v160h54q54 0 84 25t30 82v1089h189v-1079z" />
    <glyph glyph-name="Jcircumflex" unicode="&#x134;" horiz-adv-x="928" 
d="M193 369q1 -39 14.5 -75.5t38 -65.5t60 -46.5t81.5 -17.5q49 0 86 16.5t61.5 45.5t37 68.5t12.5 86.5v999h202v-999q0 -81 -24 -154.5t-73.5 -129.5t-124.5 -89t-177 -33q-98 0 -171 32.5t-122 87.5t-74.5 126t-29.5 148h203zM815 1497l-131 139l-127 -139h-188l219 264
h196l220 -264h-189z" />
    <glyph glyph-name="jcircumflex" unicode="&#x135;" horiz-adv-x="467" 
d="M328 -88q0 -84 -23 -139t-60.5 -88t-86 -46.5t-99.5 -13.5q-39 0 -64 5q-13 2 -24 5v160h54q54 0 84 25t30 82v1089h189v-1079zM362 1120l-131 140l-127 -140h-188l219 264h197l219 -264h-189z" />
    <glyph glyph-name="Kcommaaccent" unicode="&#x136;" horiz-adv-x="1257" 
d="M354 719l594 661h258l-504 -551l553 -829h-241l-449 680l-211 -231v-449h-202v1380h202v-661zM467 -365q57 13 86 51t29 107v90h168v-59q0 -63 -16 -115.5t-50 -92.5t-88 -65t-129 -32v116z" />
    <glyph glyph-name="kcommaaccent" unicode="&#x137;" horiz-adv-x="965" 
d="M571 590l408 -590h-234l-307 457l-114 -119v-338h-189v1380h189v-802l385 413h233zM319 -365q57 13 86 51t29 107v90h168v-59q0 -63 -16 -115.5t-50 -92.5t-88 -65t-129 -32v116z" />
    <glyph glyph-name="kgreenlandic" unicode="&#x138;" horiz-adv-x="971" 
d="M631 918q43 46 99 63.5t130 17.5q22 0 38.5 -1.5t27.5 -3.5q13 -3 22 -5v-164h-100q-29 0 -52 -11t-44 -34l-191 -205l406 -575h-236l-301 446l-100 -100v-346h-189v991h189v-401z" />
    <glyph glyph-name="Lacute" unicode="&#x139;" horiz-adv-x="1061" 
d="M354 190h711v-190h-913v1380h202v-1190zM156 1499l198 264h224l-230 -264h-192z" />
    <glyph glyph-name="lacute" unicode="&#x13a;" horiz-adv-x="502" 
d="M317 256q0 -29 5.5 -47t16.5 -28t28.5 -13.5t40.5 -3.5h30v-160q-6 -3 -16 -5q-18 -5 -55 -5q-46 0 -89 10t-76 39.5t-53 82t-20 136.5v1118h188v-1124zM139 1499l199 264h223l-229 -264h-193z" />
    <glyph glyph-name="Lcommaaccent" unicode="&#x13b;" horiz-adv-x="1061" 
d="M354 190h711v-190h-913v1380h202v-1190zM420 -365q57 13 86 51t29 107v90h167v-59q0 -63 -16 -115.5t-50 -92.5t-87.5 -65t-128.5 -32v116z" />
    <glyph glyph-name="lcommaaccent" unicode="&#x13c;" horiz-adv-x="502" 
d="M317 256q0 -29 5.5 -47t16.5 -28t28.5 -13.5t40.5 -3.5h30v-160q-6 -3 -16 -5q-18 -5 -55 -5q-46 0 -89 10t-76 39.5t-53 82t-20 136.5v1118h188v-1124zM154 -365q57 13 85.5 51t28.5 107v90h168v-59q0 -63 -16 -115.5t-50 -92.5t-87.5 -65t-128.5 -32v116z" />
    <glyph glyph-name="Lcaron" unicode="&#x13d;" horiz-adv-x="1061" 
d="M354 190h711v-190h-913v1380h202v-1190zM641 1081l-2 299h203l-45 -299h-156z" />
    <glyph glyph-name="lcaron" unicode="&#x13e;" horiz-adv-x="741" 
d="M317 256q0 -29 5.5 -47t16.5 -28t28.5 -13.5t40.5 -3.5h30v-160q-6 -3 -16 -5q-18 -5 -55 -5q-46 0 -89 10t-76 39.5t-53 82t-20 136.5v1118h188v-1124zM502 1098l-2 299h202l-45 -299h-155z" />
    <glyph glyph-name="Ldot" unicode="&#x13f;" horiz-adv-x="1061" 
d="M354 190h711v-190h-913v1380h202v-1190zM774 741v-272h-194v272h194z" />
    <glyph glyph-name="ldot" unicode="&#x140;" horiz-adv-x="901" 
d="M317 256q0 -29 5.5 -47t16.5 -28t28.5 -13.5t40.5 -3.5h30v-160q-6 -3 -16 -5q-18 -5 -55 -5q-46 0 -89 10t-76 39.5t-53 82t-20 136.5v1118h188v-1124zM782 745v-272h-194v272h194z" />
    <glyph glyph-name="Lslash" unicode="&#x141;" horiz-adv-x="1047" 
d="M360 776l414 178v-194l-414 -178v-392h691v-190h-893v498l-115 -52v195l115 49v690h202v-604z" />
    <glyph glyph-name="lslash" unicode="&#x142;" horiz-adv-x="651" 
d="M375 760l188 84v-185l-188 -84v-327q0 -28 5.5 -44.5t16 -25.5t27 -11.5t39.5 -2.5h55v-160q-15 -3 -30 -5q-28 -5 -60 -5q-47 0 -90.5 10t-77.5 38.5t-54 80t-20 135.5v236l-131 -58v185l131 57v684h189v-602z" />
    <glyph glyph-name="Nacute" unicode="&#x143;" horiz-adv-x="1321" 
d="M1169 0h-202l-613 1016v-1016h-202v1380h202l613 -1011v1011h202v-1380zM459 1497l198 264h224l-230 -264h-192z" />
    <glyph glyph-name="nacute" unicode="&#x144;" 
d="M135 0v991h189v-86q99 101 262 101q84 0 147.5 -28t106 -78.5t64.5 -120.5t22 -154v-625h-189v610q0 46 -11.5 87t-35 72t-58.5 49t-83 18q-51 0 -92.5 -17.5t-71 -54t-45.5 -92.5t-16 -133v-539h-189zM375 1116l198 264h224l-230 -264h-192z" />
    <glyph glyph-name="Ncommaaccent" unicode="&#x145;" horiz-adv-x="1321" 
d="M1169 0h-202l-613 1016v-1016h-202v1380h202l613 -1011v1011h202v-1380zM475 -365q57 13 86 51t29 107v90h168v-59q0 -63 -16 -115.5t-50 -92.5t-88 -65t-129 -32v116z" />
    <glyph glyph-name="ncommaaccent" unicode="&#x146;" 
d="M135 0v991h189v-86q99 101 262 101q84 0 147.5 -28t106 -78.5t64.5 -120.5t22 -154v-625h-189v610q0 46 -11.5 87t-35 72t-58.5 49t-83 18q-51 0 -92.5 -17.5t-71 -54t-45.5 -92.5t-16 -133v-539h-189zM344 -365q57 13 86 51t29 107v90h168v-59q0 -63 -16 -115.5
t-50 -92.5t-88 -65t-129 -32v116z" />
    <glyph glyph-name="Ncaron" unicode="&#x147;" horiz-adv-x="1321" 
d="M1169 0h-202l-613 1016v-1016h-202v1380h202l613 -1011v1011h202v-1380zM977 1761l-219 -264h-197l-219 264h188l127 -139l131 139h189z" />
    <glyph glyph-name="ncaron" unicode="&#x148;" 
d="M135 0v991h189v-86q99 101 262 101q84 0 147.5 -28t106 -78.5t64.5 -120.5t22 -154v-625h-189v610q0 46 -11.5 87t-35 72t-58.5 49t-83 18q-51 0 -92.5 -17.5t-71 -54t-45.5 -92.5t-16 -133v-539h-189zM860 1384l-219 -264h-197l-219 264h189l127 -139l131 139h188z" />
    <glyph glyph-name="napostrophe" unicode="&#x149;" horiz-adv-x="1272" 
d="M358 0v991h189v-86q99 101 262 101q84 0 147.5 -28t106 -78.5t64.5 -120.5t22 -154v-625h-188v610q0 46 -11.5 87t-35 72t-59 49t-83.5 18q-51 0 -92.5 -17.5t-71 -54t-45.5 -92.5t-16 -133v-539h-189zM63 1098l-2 299h203l-45 -299h-156z" />
    <glyph glyph-name="Eng" unicode="&#x14a;" horiz-adv-x="1300" 
d="M1149 -137q0 -84 -25.5 -136t-65.5 -81t-89 -39t-97 -10q-39 0 -64 5q-13 2 -24 5v160h54q24 0 45 2.5t36.5 11.5t24 26t8.5 46v135l-598 1028v-1016h-202v1380h204l592 -1013v1013h201v-1517z" />
    <glyph glyph-name="eng" unicode="&#x14b;" horiz-adv-x="1038" 
d="M135 0v991h189v-90q49 50 112.5 76.5t145.5 26.5q84 0 146.5 -28t104 -78.5t62 -120.5t20.5 -154v-760q0 -84 -24 -136t-62.5 -81t-86 -39t-95.5 -10q-39 0 -64 5q-13 2 -24 5v160h53q25 0 46 2.5t36.5 11.5t24 26t8.5 46v755q0 38 -11.5 78t-34 73t-57 54t-79.5 21
q-51 0 -91.5 -17.5t-69.5 -54t-44.5 -92.5t-15.5 -133v-537h-189z" />
    <glyph glyph-name="Omacron" unicode="&#x14c;" horiz-adv-x="1321" 
d="M662 1405q147 0 256 -56t181 -151.5t108 -222t36 -268.5q0 -164 -37 -299t-110.5 -232t-183.5 -150t-255 -53q-143 0 -251.5 52.5t-181 147.5t-109.5 229t-37 298q0 161 39.5 291.5t114.5 222.5t183.5 141.5t246.5 49.5zM657 1214q-92 0 -162 -34t-117 -99.5t-71 -161
t-24 -219.5q0 -128 24 -228t71 -168.5t117 -104t162 -35.5q97 0 168.5 36t118.5 105t70.5 169t23.5 228q0 111 -22.5 204.5t-69.5 162t-118.5 107t-170.5 38.5zM365 1710h589v-147h-589v147z" />
    <glyph glyph-name="omacron" unicode="&#x14d;" horiz-adv-x="1026" 
d="M516 1006q102 0 183 -38t138 -105t87 -159t30 -200q0 -122 -31.5 -217.5t-89 -162t-139.5 -101.5t-182 -35q-104 0 -185.5 35t-138 101.5t-86.5 162t-30 217.5q0 117 33 210.5t91.5 158t140 99t179.5 34.5zM514 162q124 0 187 82.5t63 257.5q0 76 -16 137t-47.5 103.5
t-78.5 65.5t-108 23q-58 0 -104.5 -20.5t-79.5 -61.5t-50.5 -102.5t-17.5 -144.5q0 -175 63.5 -257.5t188.5 -82.5zM217 1323h590v-147h-590v147z" />
    <glyph glyph-name="Obreve" unicode="&#x14e;" horiz-adv-x="1321" 
d="M662 1405q147 0 256 -56t181 -151.5t108 -222t36 -268.5q0 -164 -37 -299t-110.5 -232t-183.5 -150t-255 -53q-143 0 -251.5 52.5t-181 147.5t-109.5 229t-37 298q0 161 39.5 291.5t114.5 222.5t183.5 141.5t246.5 49.5zM657 1214q-92 0 -162 -34t-117 -99.5t-71 -161
t-24 -219.5q0 -128 24 -228t71 -168.5t117 -104t162 -35.5q97 0 168.5 36t118.5 105t70.5 169t23.5 228q0 111 -22.5 204.5t-69.5 162t-118.5 107t-170.5 38.5zM659 1491q-52 0 -98.5 19t-81.5 53t-55.5 81.5t-20.5 104.5h144q0 -53 31.5 -87t80.5 -34q51 0 82 34t31 87h143
q0 -57 -20.5 -104.5t-55 -81.5t-81.5 -53t-99 -19z" />
    <glyph glyph-name="obreve" unicode="&#x14f;" horiz-adv-x="1026" 
d="M516 1006q102 0 183 -38t138 -105t87 -159t30 -200q0 -122 -31.5 -217.5t-89 -162t-139.5 -101.5t-182 -35q-104 0 -185.5 35t-138 101.5t-86.5 162t-30 217.5q0 117 33 210.5t91.5 158t140 99t179.5 34.5zM514 162q124 0 187 82.5t63 257.5q0 76 -16 137t-47.5 103.5
t-78.5 65.5t-108 23q-58 0 -104.5 -20.5t-79.5 -61.5t-50.5 -102.5t-17.5 -144.5q0 -175 63.5 -257.5t188.5 -82.5zM512 1120q-52 0 -98.5 19t-81.5 53.5t-55.5 81.5t-20.5 104h143q0 -52 31.5 -86.5t81.5 -34.5q51 0 82 34.5t31 86.5h143q0 -57 -20.5 -104t-55.5 -81.5
t-81.5 -53.5t-98.5 -19z" />
    <glyph glyph-name="Ohungarumlaut" unicode="&#x150;" horiz-adv-x="1321" 
d="M662 1405q147 0 256 -56t181 -151.5t108 -222t36 -268.5q0 -164 -37 -299t-110.5 -232t-183.5 -150t-255 -53q-143 0 -251.5 52.5t-181 147.5t-109.5 229t-37 298q0 161 39.5 291.5t114.5 222.5t183.5 141.5t246.5 49.5zM657 1214q-92 0 -162 -34t-117 -99.5t-71 -161
t-24 -219.5q0 -128 24 -228t71 -168.5t117 -104t162 -35.5q97 0 168.5 36t118.5 105t70.5 169t23.5 228q0 111 -22.5 204.5t-69.5 162t-118.5 107t-170.5 38.5zM365 1497l194 264h211l-240 -264h-165zM688 1497l193 264h213l-242 -264h-164z" />
    <glyph glyph-name="ohungarumlaut" unicode="&#x151;" horiz-adv-x="1026" 
d="M516 1006q102 0 183 -38t138 -105t87 -159t30 -200q0 -122 -31.5 -217.5t-89 -162t-139.5 -101.5t-182 -35q-104 0 -185.5 35t-138 101.5t-86.5 162t-30 217.5q0 117 33 210.5t91.5 158t140 99t179.5 34.5zM514 162q124 0 187 82.5t63 257.5q0 76 -16 137t-47.5 103.5
t-78.5 65.5t-108 23q-58 0 -104.5 -20.5t-79.5 -61.5t-50.5 -102.5t-17.5 -144.5q0 -175 63.5 -257.5t188.5 -82.5zM217 1116l195 264h211l-240 -264h-166zM541 1116l192 264h213l-241 -264h-164z" />
    <glyph glyph-name="OE" unicode="&#x152;" horiz-adv-x="1901" 
d="M1817 1190h-664v-391h549v-191h-549v-418h664v-190h-865v49q-62 -37 -135 -56.5t-158 -19.5q-143 0 -251.5 52.5t-181.5 147.5t-110.5 229t-37.5 298q0 161 39 291.5t113.5 222.5t182.5 141.5t246 49.5q84 0 159 -21.5t134 -56.5v53h865v-190zM659 166q101 0 174 37.5
t119 109.5v752q-46 71 -119 110t-174 39q-92 0 -162 -34t-117 -99.5t-71 -161t-24 -219.5q0 -128 23.5 -227.5t70 -167.5t117 -103.5t163.5 -35.5z" />
    <glyph glyph-name="oe" unicode="&#x153;" horiz-adv-x="1694" 
d="M510 1006q121 0 205.5 -51.5t134.5 -139.5q51 93 137 142t207 49q111 0 191.5 -36t132.5 -100.5t77 -152.5t25 -193q0 -34 -1 -55.5t-3 -34.5h-664q5 -76 23.5 -128.5t49.5 -84.5t73.5 -46.5t95.5 -14.5q71 0 127.5 33.5t81.5 107.5h194q-43 -152 -142 -232.5t-261 -80.5
q-241 0 -344 186q-51 -91 -136 -138.5t-204 -47.5q-103 0 -184 35t-137 101.5t-85.5 162t-29.5 217.5q0 117 31.5 210.5t89 158t137.5 99t178 34.5zM510 162q124 0 185 82.5t61 257.5q0 76 -15.5 137.5t-46 104.5t-77 66.5t-107.5 23.5q-114 0 -181 -83t-67 -249
q0 -175 61.5 -257.5t186.5 -82.5zM1194 836q-100 0 -165 -63t-75 -177h471q-3 51 -16.5 94.5t-41 76t-70 51t-103.5 18.5z" />
    <glyph glyph-name="Racute" unicode="&#x154;" horiz-adv-x="1278" 
d="M737 1380q114 0 197 -38.5t136 -99t78.5 -134t25.5 -143.5q0 -54 -16.5 -111.5t-50.5 -110t-86.5 -95t-123.5 -66.5l338 -582h-231l-320 557h-330v-557h-202v1380h585zM354 1190v-442h383q62 0 106 21t72 53.5t41 70.5t13 72q0 35 -13 74.5t-41 73t-72 55.5t-106 22h-383
zM410 1499l198 264h223l-229 -264h-192z" />
    <glyph glyph-name="racute" unicode="&#x155;" horiz-adv-x="668" 
d="M135 0v991h189v-137q46 72 108 112t137 40q21 0 37.5 -2t28.5 -4q13 -3 24 -5v-188h-61q-60 0 -110.5 -15t-86.5 -52.5t-56.5 -100.5t-20.5 -158v-481h-189zM166 1116l199 264h223l-230 -264h-192z" />
    <glyph glyph-name="Rcommaaccent" unicode="&#x156;" horiz-adv-x="1278" 
d="M737 1380q114 0 197 -38.5t136 -99t78.5 -134t25.5 -143.5q0 -54 -16.5 -111.5t-50.5 -110t-86.5 -95t-123.5 -66.5l338 -582h-231l-320 557h-330v-557h-202v1380h585zM354 1190v-442h383q62 0 106 21t72 53.5t41 70.5t13 72q0 35 -13 74.5t-41 73t-72 55.5t-106 22h-383
zM473 -365q57 13 86 51t29 107v90h168v-59q0 -63 -16 -115.5t-50 -92.5t-88 -65t-129 -32v116z" />
    <glyph glyph-name="rcommaaccent" unicode="&#x157;" horiz-adv-x="668" 
d="M135 0v991h189v-137q46 72 108 112t137 40q21 0 37.5 -2t28.5 -4q13 -3 24 -5v-188h-61q-60 0 -110.5 -15t-86.5 -52.5t-56.5 -100.5t-20.5 -158v-481h-189zM29 -365q57 13 85.5 51t28.5 107v90h168v-59q0 -63 -16 -115.5t-50 -92.5t-87.5 -65t-128.5 -32v116z" />
    <glyph glyph-name="Rcaron" unicode="&#x158;" horiz-adv-x="1278" 
d="M737 1380q114 0 197 -38.5t136 -99t78.5 -134t25.5 -143.5q0 -54 -16.5 -111.5t-50.5 -110t-86.5 -95t-123.5 -66.5l338 -582h-231l-320 557h-330v-557h-202v1380h585zM354 1190v-442h383q62 0 106 21t72 53.5t41 70.5t13 72q0 35 -13 74.5t-41 73t-72 55.5t-106 22h-383
zM930 1761l-219 -264h-197l-219 264h188l127 -139l131 139h189z" />
    <glyph glyph-name="rcaron" unicode="&#x159;" horiz-adv-x="668" 
d="M135 0v991h189v-137q46 72 108 112t137 40q21 0 37.5 -2t28.5 -4q13 -3 24 -5v-188h-61q-60 0 -110.5 -15t-86.5 -52.5t-56.5 -100.5t-20.5 -158v-481h-189zM735 1384l-219 -264h-197l-219 264h189l127 -139l131 139h188z" />
    <glyph glyph-name="Sacute" unicode="&#x15a;" horiz-adv-x="1180" 
d="M872 987q-8 115 -85.5 173.5t-202.5 58.5q-62 0 -113 -14.5t-87 -40t-55.5 -61.5t-19.5 -79q0 -53 23.5 -85t76 -56.5t137.5 -48t208 -58.5q172 -49 259 -139.5t87 -241.5q0 -96 -36.5 -174t-103.5 -133t-162.5 -85t-213.5 -30q-119 0 -213.5 34.5t-162.5 94.5
t-107.5 141.5t-47.5 176.5h211q6 -59 29 -106.5t63 -81t96.5 -52t129.5 -18.5t131 16t98.5 45t62 71t21.5 93q0 59 -26 96t-82 64t-143 51t-208 57q-70 19 -130 51t-104.5 77t-70 105t-25.5 136q0 84 35.5 154t99 120.5t151 78.5t192.5 28q104 0 192.5 -27t153.5 -79.5
t104.5 -131t46.5 -180.5h-209zM401 1497l199 264h223l-229 -264h-193z" />
    <glyph glyph-name="sacute" unicode="&#x15b;" horiz-adv-x="924" 
d="M649 682q-6 72 -53 116t-145 44q-45 0 -76.5 -11.5t-52 -29t-30 -39t-9.5 -41.5q0 -32 15.5 -51t52 -34t96 -31t147.5 -44q55 -18 102.5 -39.5t82 -53t54 -75.5t19.5 -106q0 -65 -25.5 -119.5t-75 -94.5t-123 -62.5t-169.5 -22.5q-88 0 -158 24.5t-120 67.5t-78 102
t-31 127h190q5 -71 55 -112t146 -41q94 0 147.5 30.5t53.5 81.5q0 32 -16 53t-52.5 38t-96 35.5t-147.5 45.5q-55 18 -102 41.5t-81 56t-53.5 76t-19.5 101.5q0 51 21 103t65 94t112 68t163 26q90 0 160 -24.5t118 -68t74.5 -102.5t30.5 -129h-191zM250 1116l199 264h223
l-230 -264h-192z" />
    <glyph glyph-name="Scircumflex" unicode="&#x15c;" horiz-adv-x="1180" 
d="M872 987q-8 115 -85.5 173.5t-202.5 58.5q-62 0 -113 -14.5t-87 -40t-55.5 -61.5t-19.5 -79q0 -53 23.5 -85t76 -56.5t137.5 -48t208 -58.5q172 -49 259 -139.5t87 -241.5q0 -96 -36.5 -174t-103.5 -133t-162.5 -85t-213.5 -30q-119 0 -213.5 34.5t-162.5 94.5
t-107.5 141.5t-47.5 176.5h211q6 -59 29 -106.5t63 -81t96.5 -52t129.5 -18.5t131 16t98.5 45t62 71t21.5 93q0 59 -26 96t-82 64t-143 51t-208 57q-70 19 -130 51t-104.5 77t-70 105t-25.5 136q0 84 35.5 154t99 120.5t151 78.5t192.5 28q104 0 192.5 -27t153.5 -79.5
t104.5 -131t46.5 -180.5h-209zM719 1497l-131 139l-127 -139h-189l220 264h196l219 -264h-188z" />
    <glyph glyph-name="scircumflex" unicode="&#x15d;" horiz-adv-x="924" 
d="M649 682q-6 72 -53 116t-145 44q-45 0 -76.5 -11.5t-52 -29t-30 -39t-9.5 -41.5q0 -32 15.5 -51t52 -34t96 -31t147.5 -44q55 -18 102.5 -39.5t82 -53t54 -75.5t19.5 -106q0 -65 -25.5 -119.5t-75 -94.5t-123 -62.5t-169.5 -22.5q-88 0 -158 24.5t-120 67.5t-78 102
t-31 127h190q5 -71 55 -112t146 -41q94 0 147.5 30.5t53.5 81.5q0 32 -16 53t-52.5 38t-96 35.5t-147.5 45.5q-55 18 -102 41.5t-81 56t-53.5 76t-19.5 101.5q0 51 21 103t65 94t112 68t163 26q90 0 160 -24.5t118 -68t74.5 -102.5t30.5 -129h-191zM594 1118l-131 139
l-127 -139h-189l220 264h196l219 -264h-188z" />
    <glyph glyph-name="Scedilla" unicode="&#x15e;" horiz-adv-x="1180" 
d="M872 987q-8 115 -85.5 173.5t-202.5 58.5q-62 0 -113 -14.5t-87 -40t-55.5 -61.5t-19.5 -79q0 -53 23.5 -85t76 -56.5t137.5 -48t208 -58.5q172 -49 259 -139.5t87 -241.5q0 -96 -36.5 -174t-103.5 -133t-162.5 -85t-213.5 -30q-119 0 -213.5 34.5t-162.5 94.5
t-107.5 141.5t-47.5 176.5h211q6 -59 29 -106.5t63 -81t96.5 -52t129.5 -18.5t131 16t98.5 45t62 71t21.5 93q0 59 -26 96t-82 64t-143 51t-208 57q-70 19 -130 51t-104.5 77t-70 105t-25.5 136q0 84 35.5 154t99 120.5t151 78.5t192.5 28q104 0 192.5 -27t153.5 -79.5
t104.5 -131t46.5 -180.5h-209zM600 -256q0 42 -31.5 69.5t-87.5 30.5v82h33q55 0 99.5 -14.5t75 -41t47 -63t16.5 -79.5q0 -44 -15.5 -80t-43 -62t-66.5 -40.5t-86 -14.5q-21 0 -36.5 2t-26.5 4q-12 3 -21 6v125q38 -5 65 -1t44.5 14.5t25.5 27t8 35.5z" />
    <glyph glyph-name="scedilla" unicode="&#x15f;" horiz-adv-x="924" 
d="M649 682q-6 72 -53 116t-145 44q-45 0 -76.5 -11.5t-52 -29t-30 -39t-9.5 -41.5q0 -32 15.5 -51t52 -34t96 -31t147.5 -44q55 -18 102.5 -39.5t82 -53t54 -75.5t19.5 -106q0 -65 -25.5 -119.5t-75 -94.5t-123 -62.5t-169.5 -22.5q-88 0 -158 24.5t-120 67.5t-78 102
t-31 127h190q5 -71 55 -112t146 -41q94 0 147.5 30.5t53.5 81.5q0 32 -16 53t-52.5 38t-96 35.5t-147.5 45.5q-55 18 -102 41.5t-81 56t-53.5 76t-19.5 101.5q0 51 21 103t65 94t112 68t163 26q90 0 160 -24.5t118 -68t74.5 -102.5t30.5 -129h-191zM492 -256q0 42 -32 69.5
t-87 30.5v82h33q55 0 99 -14.5t74.5 -41t47 -63t16.5 -79.5q0 -44 -15.5 -80t-43 -62t-66.5 -40.5t-86 -14.5q-21 0 -36.5 2t-26.5 4q-12 3 -21 6v125q39 -5 66 -1t44.5 14.5t25.5 27t8 35.5z" />
    <glyph glyph-name="Scaron" unicode="&#x160;" horiz-adv-x="1180" 
d="M872 987q-8 115 -85.5 173.5t-202.5 58.5q-62 0 -113 -14.5t-87 -40t-55.5 -61.5t-19.5 -79q0 -53 23.5 -85t76 -56.5t137.5 -48t208 -58.5q172 -49 259 -139.5t87 -241.5q0 -96 -36.5 -174t-103.5 -133t-162.5 -85t-213.5 -30q-119 0 -213.5 34.5t-162.5 94.5
t-107.5 141.5t-47.5 176.5h211q6 -59 29 -106.5t63 -81t96.5 -52t129.5 -18.5t131 16t98.5 45t62 71t21.5 93q0 59 -26 96t-82 64t-143 51t-208 57q-70 19 -130 51t-104.5 77t-70 105t-25.5 136q0 84 35.5 154t99 120.5t151 78.5t192.5 28q104 0 192.5 -27t153.5 -79.5
t104.5 -131t46.5 -180.5h-209zM903 1761l-219 -264h-197l-219 264h189l127 -139l131 139h188z" />
    <glyph glyph-name="scaron" unicode="&#x161;" horiz-adv-x="924" 
d="M649 682q-6 72 -53 116t-145 44q-45 0 -76.5 -11.5t-52 -29t-30 -39t-9.5 -41.5q0 -32 15.5 -51t52 -34t96 -31t147.5 -44q55 -18 102.5 -39.5t82 -53t54 -75.5t19.5 -106q0 -65 -25.5 -119.5t-75 -94.5t-123 -62.5t-169.5 -22.5q-88 0 -158 24.5t-120 67.5t-78 102
t-31 127h190q5 -71 55 -112t146 -41q94 0 147.5 30.5t53.5 81.5q0 32 -16 53t-52.5 38t-96 35.5t-147.5 45.5q-55 18 -102 41.5t-81 56t-53.5 76t-19.5 101.5q0 51 21 103t65 94t112 68t163 26q90 0 160 -24.5t118 -68t74.5 -102.5t30.5 -129h-191zM776 1384l-219 -264h-197
l-219 264h189l127 -139l131 139h188z" />
    <glyph glyph-name="Tcommaaccent" unicode="&#x162;" horiz-adv-x="1087" 
d="M1053 1190h-406v-1190h-203v1190h-409v190h1018v-190zM561 -256q0 42 -31.5 69.5t-87.5 30.5v82h33q55 0 99.5 -14.5t75 -41t47 -63t16.5 -79.5q0 -44 -15.5 -80t-43 -62t-66.5 -40.5t-86 -14.5q-21 0 -36.5 2t-26.5 4q-12 3 -21 6v125q38 -5 65 -1t44.5 14.5t25.5 27
t8 35.5z" />
    <glyph glyph-name="tcommaaccent" unicode="&#x163;" horiz-adv-x="688" 
d="M389 991h213v-172h-213v-563q0 -29 7.5 -47t21.5 -28t33.5 -13.5t42.5 -3.5h67v-160q-15 -3 -33 -5q-15 -2 -33.5 -3.5t-37.5 -1.5q-48 0 -94 10t-82 39.5t-58 82t-22 136.5v557h-158v172h158v383h188v-383zM449 -256q0 42 -32 69.5t-87 30.5v82h32q55 0 99.5 -14.5
t75 -41t47 -63t16.5 -79.5q0 -44 -15.5 -80t-43 -62t-66.5 -40.5t-86 -14.5q-21 0 -36.5 2t-26.5 4q-12 3 -21 6v125q39 -5 66 -1t44.5 14.5t25.5 27t8 35.5z" />
    <glyph glyph-name="Tcaron" unicode="&#x164;" horiz-adv-x="1087" 
d="M1053 1190h-406v-1190h-203v1190h-409v190h1018v-190zM866 1761l-219 -264h-196l-220 264h189l127 -139l131 139h188z" />
    <glyph glyph-name="tcaron" unicode="&#x165;" horiz-adv-x="924" 
d="M389 991h213v-172h-213v-563q0 -29 7.5 -47t21.5 -28t33.5 -13.5t42.5 -3.5h67v-160q-15 -3 -33 -5q-15 -2 -33.5 -3.5t-37.5 -1.5q-48 0 -94 10t-82 39.5t-58 82t-22 136.5v557h-158v172h158v383h188v-383zM711 1098l-2 299h202l-45 -299h-155z" />
    <glyph glyph-name="Tbar" unicode="&#x166;" horiz-adv-x="1065" 
d="M215 776h217v414h-397v190h995v-190h-391v-414h207v-172h-207v-604h-207v604h-217v172z" />
    <glyph glyph-name="tbar" unicode="&#x167;" horiz-adv-x="668" 
d="M387 991h213v-172h-213v-153h213v-170h-213v-240q0 -29 7.5 -47t21.5 -28t33.5 -13.5t42.5 -3.5h67v-160q-15 -3 -33 -5q-15 -2 -33.5 -3.5t-37.5 -1.5q-48 0 -94 10t-82 39.5t-58 82t-22 136.5v234h-158v170h158v153h-158v172h158v383h188v-383z" />
    <glyph glyph-name="Utilde" unicode="&#x168;" horiz-adv-x="1300" 
d="M1161 518q0 -144 -39.5 -247.5t-109 -169.5t-163.5 -97t-202 -31t-200.5 30t-161 95.5t-107.5 169t-39 250.5v862h203v-856q0 -183 76.5 -270.5t228.5 -87.5q155 0 233 87.5t78 270.5v856h203v-862zM987 1751q-8 -50 -25 -93t-44 -74.5t-65 -49.5t-87 -18q-38 0 -74 13
t-69 28.5t-62 28.5t-51 13q-31 0 -47 -20.5t-23 -58.5h-151q10 48 27.5 90.5t44.5 73.5t64.5 49t88.5 18q35 0 70 -13t67 -29t61 -29t52 -13q34 0 49.5 24.5t22.5 59.5h151z" />
    <glyph glyph-name="utilde" unicode="&#x169;" 
d="M123 991h188v-608q0 -59 15.5 -101t42 -70t60.5 -41t71 -13q52 0 93.5 18t71 56t45 97t15.5 142v520h188v-991h-188v90q-50 -51 -116.5 -76.5t-143.5 -25.5q-84 0 -147.5 27.5t-107 78t-65.5 120.5t-22 155v622zM874 1378q-8 -50 -25 -93t-44 -74.5t-65 -49.5t-87 -18
q-38 0 -74 13t-69 29t-62 29t-51 13q-31 0 -47 -21t-22 -59h-152q11 48 28.5 90.5t44.5 73.5t64 49t88 18q36 0 70.5 -13t67 -29t61 -29t51.5 -13q34 0 50 24.5t22 59.5h151z" />
    <glyph glyph-name="Umacron" unicode="&#x16a;" horiz-adv-x="1300" 
d="M1161 518q0 -144 -39.5 -247.5t-109 -169.5t-163.5 -97t-202 -31t-200.5 30t-161 95.5t-107.5 169t-39 250.5v862h203v-856q0 -183 76.5 -270.5t228.5 -87.5q155 0 233 87.5t78 270.5v856h203v-862zM358 1710h590v-147h-590v147z" />
    <glyph glyph-name="umacron" unicode="&#x16b;" 
d="M123 991h188v-608q0 -59 15.5 -101t42 -70t60.5 -41t71 -13q52 0 93.5 18t71 56t45 97t15.5 142v520h188v-991h-188v90q-50 -51 -116.5 -76.5t-143.5 -25.5q-84 0 -147.5 27.5t-107 78t-65.5 120.5t-22 155v622zM227 1329h590v-147h-590v147z" />
    <glyph glyph-name="Ubreve" unicode="&#x16c;" horiz-adv-x="1296" 
d="M1161 518q0 -144 -39.5 -247.5t-109 -169.5t-163.5 -97t-202 -31t-200.5 30t-161 95.5t-107.5 169t-39 250.5v862h203v-856q0 -183 76.5 -270.5t228.5 -87.5q155 0 233 87.5t78 270.5v856h203v-862zM647 1491q-52 0 -98.5 19t-81.5 53t-55.5 81.5t-20.5 104.5h144
q0 -53 31.5 -87t80.5 -34q51 0 82 34t31 87h143q0 -57 -20.5 -104.5t-55.5 -81.5t-81.5 -53t-98.5 -19z" />
    <glyph glyph-name="ubreve" unicode="&#x16d;" 
d="M123 991h188v-608q0 -59 15.5 -101t42 -70t60.5 -41t71 -13q52 0 93.5 18t71 56t45 97t15.5 142v520h188v-991h-188v90q-50 -51 -116.5 -76.5t-143.5 -25.5q-84 0 -147.5 27.5t-107 78t-65.5 120.5t-22 155v622zM522 1120q-52 0 -98.5 19t-81.5 53.5t-55.5 81.5
t-20.5 104h144q0 -52 31.5 -86.5t80.5 -34.5q51 0 82 34.5t31 86.5h143q0 -57 -20.5 -104t-55 -81.5t-81.5 -53.5t-99 -19z" />
    <glyph glyph-name="Uring" unicode="&#x16e;" horiz-adv-x="1300" 
d="M1161 518q0 -144 -39.5 -247.5t-109 -169.5t-163.5 -97t-202 -31t-200.5 30t-161 95.5t-107.5 169t-39 250.5v862h203v-856q0 -183 76.5 -270.5t228.5 -87.5q155 0 233 87.5t78 270.5v856h203v-862zM649 1440q-44 0 -82 15.5t-66.5 42.5t-44.5 64.5t-16 82.5
q0 44 16 81.5t44.5 64.5t66.5 42.5t82 15.5t82 -15.5t66.5 -42.5t44.5 -64.5t16 -81.5q0 -45 -16 -82.5t-44.5 -64.5t-66.5 -42.5t-82 -15.5zM649 1544q45 0 73 28t28 73t-28 72.5t-73 27.5t-72.5 -27.5t-27.5 -72.5t27.5 -73t72.5 -28z" />
    <glyph glyph-name="uring" unicode="&#x16f;" 
d="M123 991h188v-608q0 -59 15.5 -101t42 -70t60.5 -41t71 -13q52 0 93.5 18t71 56t45 97t15.5 142v520h188v-991h-188v90q-50 -51 -116.5 -76.5t-143.5 -25.5q-84 0 -147.5 27.5t-107 78t-65.5 120.5t-22 155v622zM522 1098q-44 0 -82 15.5t-66 42.5t-44.5 64.5t-16.5 82.5
q0 44 16.5 81.5t44.5 64.5t66 42.5t82 15.5t82 -15.5t66.5 -42.5t44.5 -64.5t16 -81.5q0 -45 -16 -82.5t-44.5 -64.5t-66.5 -42.5t-82 -15.5zM522 1202q45 0 73 28t28 73t-28 72.5t-73 27.5t-72.5 -27.5t-27.5 -72.5t27.5 -73t72.5 -28z" />
    <glyph glyph-name="Uhungarumlaut" unicode="&#x170;" horiz-adv-x="1300" 
d="M1161 518q0 -144 -39.5 -247.5t-109 -169.5t-163.5 -97t-202 -31t-200.5 30t-161 95.5t-107.5 169t-39 250.5v862h203v-856q0 -183 76.5 -270.5t228.5 -87.5q155 0 233 87.5t78 270.5v856h203v-862zM342 1497l195 264h211l-240 -264h-166zM666 1497l192 264h213
l-242 -264h-163z" />
    <glyph glyph-name="uhungarumlaut" unicode="&#x171;" 
d="M123 991h188v-608q0 -59 15.5 -101t42 -70t60.5 -41t71 -13q52 0 93.5 18t71 56t45 97t15.5 142v520h188v-991h-188v90q-50 -51 -116.5 -76.5t-143.5 -25.5q-84 0 -147.5 27.5t-107 78t-65.5 120.5t-22 155v622zM227 1116l195 264h211l-240 -264h-166zM551 1116l192 264
h213l-241 -264h-164z" />
    <glyph glyph-name="Uogonek" unicode="&#x172;" horiz-adv-x="1300" 
d="M664 -135q0 -54 32.5 -84.5t87.5 -30.5h23v-106q-12 -4 -24 -7q-11 -2 -25 -4t-29 -2q-48 0 -87.5 13.5t-68.5 38t-45 60t-16 79.5q0 46 19 86t53 69q-96 8 -177.5 42.5t-141 100t-93 164t-33.5 234.5v862h203v-856q0 -183 76.5 -270.5t228.5 -87.5q155 0 233 87.5
t78 270.5v856h203v-862q0 -131 -32.5 -227.5t-90.5 -162.5t-137 -102t-172 -46q-65 -32 -65 -115z" />
    <glyph glyph-name="uogonek" unicode="&#x173;" 
d="M791 -137q0 -54 32.5 -84.5t87.5 -30.5h23v-106q-12 -4 -24 -7q-11 -2 -25 -4t-29 -2q-48 0 -87.5 13.5t-68.5 38t-45 60t-16 79.5q0 59 29 106.5t80 73.5h-23v90q-50 -51 -116.5 -76.5t-143.5 -25.5q-84 0 -147.5 27.5t-107 78t-65.5 120.5t-22 155v622h188v-608
q0 -59 15.5 -101t42 -70t60.5 -41t71 -13q52 0 93.5 18t71 56t45 97t15.5 142v520h188v-1001q-58 -3 -90 -36.5t-32 -90.5z" />
    <glyph glyph-name="Wcircumflex" unicode="&#x174;" horiz-adv-x="1640" 
d="M1284 0h-186l-277 1049l-284 -1049h-181l-356 1380h211l248 -1018l272 1018h178l275 -1015l248 1015h208zM950 1497l-131 139l-127 -139h-188l219 264h197l219 -264h-189z" />
    <glyph glyph-name="wcircumflex" unicode="&#x175;" horiz-adv-x="1358" 
d="M1049 0h-166l-205 686l-203 -686h-166l-291 991h205l174 -680l199 680h166l199 -680l176 680h202zM807 1118l-131 139l-127 -139h-189l220 264h196l219 -264h-188z" />
    <glyph glyph-name="Ycircumflex" unicode="&#x176;" horiz-adv-x="1102" 
d="M-4 1380h229l326 -616l330 616h225l-453 -825v-555h-202v555zM680 1497l-131 139l-127 -139h-189l220 264h196l219 -264h-188z" />
    <glyph glyph-name="ycircumflex" unicode="&#x177;" horiz-adv-x="907" 
d="M481 -199q-29 -86 -87.5 -130t-166.5 -44q-32 0 -51 3q-11 1 -20 3v168h71q21 0 35.5 5.5t25 16t17.5 25.5t14 35l41 113l-352 995h207l242 -729l237 729h205zM584 1118l-131 139l-127 -139h-189l219 264h197l219 -264h-188z" />
    <glyph glyph-name="Ydieresis" unicode="&#x178;" horiz-adv-x="1102" 
d="M-4 1380h229l326 -616l330 616h225l-453 -825v-555h-202v555zM453 1513h-179v222h179v-222zM823 1513h-180v222h180v-222z" />
    <glyph glyph-name="Zacute" unicode="&#x179;" horiz-adv-x="1108" 
d="M1030 1204l-719 -1014h719v-190h-958v174l719 1016h-687v190h926v-176zM371 1497l198 264h224l-230 -264h-192z" />
    <glyph glyph-name="zacute" unicode="&#x17a;" horiz-adv-x="920" 
d="M844 834l-537 -662h533v-172h-770v162l542 657h-520v172h752v-157zM303 1116l199 264h223l-229 -264h-193z" />
    <glyph glyph-name="Zdotaccent" unicode="&#x17b;" horiz-adv-x="1108" 
d="M1030 1204l-719 -1014h719v-190h-958v174l719 1016h-687v190h926v-176zM653 1520h-190v235h190v-235z" />
    <glyph glyph-name="zdotaccent" unicode="&#x17c;" horiz-adv-x="920" 
d="M844 834l-537 -662h533v-172h-770v162l542 657h-520v172h752v-157zM561 1145h-190v235h190v-235z" />
    <glyph glyph-name="Zcaron" unicode="&#x17d;" horiz-adv-x="1108" 
d="M1030 1204l-719 -1014h719v-190h-958v174l719 1016h-687v190h926v-176zM889 1761l-219 -264h-197l-219 264h188l127 -139l131 139h189z" />
    <glyph glyph-name="zcaron" unicode="&#x17e;" horiz-adv-x="920" 
d="M844 834l-537 -662h533v-172h-770v162l542 657h-520v172h752v-157zM788 1384l-219 -264h-196l-219 264h188l127 -139l131 139h188z" />
    <glyph glyph-name="longs" unicode="&#x17f;" horiz-adv-x="657" 
d="M608 1225h-106q-54 0 -78.5 -26.5t-24.5 -92.5v-1106h-188v819h-162v172h162v96q0 88 18 147.5t54 96t90.5 52.5t126.5 16q21 0 40.5 -1.5t34.5 -3.5q18 -3 33 -5v-164z" />
    <glyph glyph-name="uni018F" unicode="&#x18f;" horiz-adv-x="1315" 
d="M102 965q14 93 57 173t112.5 139.5t163.5 93.5t210 34q144 0 254.5 -50t185.5 -143t113.5 -225t38.5 -295q0 -164 -38.5 -296.5t-113.5 -226.5t-185.5 -145t-254.5 -51q-131 0 -233 42t-173 115.5t-108 173t-37 214.5v242h936q-12 218 -107 336t-278 118q-70 0 -126 -18
t-98.5 -50.5t-70.5 -78.5t-41 -102h-207zM297 520q0 -71 19 -135.5t60.5 -113.5t107 -78t157.5 -29q168 0 265 104t120 303h-729v-51z" />
    <glyph glyph-name="florin" unicode="&#x192;" horiz-adv-x="674" 
d="M614 1217h-106q-53 0 -75.5 -26t-22.5 -89v-111h198v-176h-198v-903q0 -88 -18 -147t-54 -95t-90 -51.5t-125 -15.5q-22 0 -41.5 1t-34.5 3q-18 2 -33 4v166h107q52 0 75 26t23 91v921h-162v176h162v90q0 88 18 147.5t54 96t89.5 52.5t125.5 16q21 0 40.5 -2t34.5 -4
q18 -3 33 -5v-165z" />
    <glyph glyph-name="uni01DD" unicode="&#x1dd;" horiz-adv-x="1018" 
d="M96 692q44 152 145.5 233t262.5 81q103 0 184.5 -34t138.5 -99t87 -159.5t30 -215.5q0 -122 -32.5 -217t-91 -160t-139 -99t-175.5 -34q-109 0 -190 38.5t-135 105.5t-80.5 158.5t-26.5 198.5q0 26 2 48t2 24h672q-6 76 -27 128t-53.5 83.5t-75 45t-90.5 13.5
q-79 0 -134.5 -32t-80.5 -107h-193zM508 160q48 0 89.5 17t73 48t50.5 75.5t24 98.5h-475q4 -51 19.5 -94.5t44.5 -75.5t72 -50.5t102 -18.5z" />
    <glyph glyph-name="AEacute" unicode="&#x1fc;" horiz-adv-x="1649" 
d="M719 340h-404l-125 -340h-206l524 1380h1057v-190h-643v-391h526v-191h-526v-418h643v-190h-846v340zM387 528h332v662h-86zM793 1501l198 264h223l-229 -264h-192z" />
    <glyph glyph-name="aeacute" unicode="&#x1fd;" horiz-adv-x="1616" 
d="M776 145q-54 -72 -142 -115.5t-222 -43.5q-52 0 -110.5 17t-108 54t-82.5 95t-33 139q0 75 27.5 129t78 89t120.5 52.5t155 20.5q47 2 88 2h72h67v51q0 43 -10 80.5t-33 65t-59.5 43.5t-89.5 16t-88.5 -9.5t-57.5 -26t-33.5 -39.5t-17.5 -50h-197q10 71 42 125.5t81.5 91
t116 55.5t145.5 19q116 0 193.5 -35t122.5 -97q59 63 137.5 97.5t175.5 34.5q109 0 189.5 -38t133.5 -105t79 -158.5t26 -198.5q0 -26 -2 -48t-2 -24h-666q6 -76 26.5 -128t52.5 -84t74.5 -46t90.5 -14q79 0 132.5 32.5t78.5 106.5h193q-44 -151 -144 -232t-260 -81
q-111 0 -197 40t-143 117zM442 150q74 0 121.5 23t74.5 59t37.5 80t10.5 87v35q-20 1 -49 1h-62t-88 -1q-60 -1 -102.5 -10.5t-68.5 -27t-38 -43t-12 -58.5q0 -35 13 -61.5t36.5 -45.5t56 -28.5t70.5 -9.5zM1112 834q-48 0 -89 -17t-72.5 -48.5t-51.5 -75t-25 -97.5h472
q-3 51 -17.5 94.5t-42.5 75.5t-71 50t-103 18zM610 1116l199 264h223l-229 -264h-193z" />
    <glyph glyph-name="Oslashacute" unicode="&#x1fe;" horiz-adv-x="1321" 
d="M487 1497l199 264h223l-229 -264h-193zM659 1405q73 0 137 -15t119 -42l56 106h162l-99 -188q52 -48 91.5 -109.5t65.5 -133.5t39 -152t13 -164q0 -164 -36.5 -299t-110 -232t-183 -150t-254.5 -53q-77 0 -143 15.5t-123 44.5l-59 -115h-162l102 199q-97 96 -146.5 245
t-49.5 338q0 161 39 291.5t113.5 222.5t182.5 141.5t246 49.5zM1038 702q0 116 -24.5 212t-75.5 165l-457 -874q37 -22 81 -31.5t95 -9.5q97 0 168.5 36t118.5 105t70.5 169t23.5 228zM657 1214q-92 0 -162 -34t-117 -99.5t-71 -161t-24 -219.5q0 -128 22.5 -226.5
t67.5 -166.5l452 869q-35 18 -77.5 28t-90.5 10z" />
    <glyph glyph-name="oslashacute" unicode="&#x1ff;" horiz-adv-x="1026" 
d="M305 1116l199 264h223l-229 -264h-193zM795 899q72 -66 110.5 -168t38.5 -227q0 -122 -30 -218t-86.5 -162.5t-137 -102t-180.5 -35.5q-54 0 -101.5 10t-89.5 27l-45 -84h-149l86 159q-68 66 -102.5 169t-34.5 237q0 117 31.5 210.5t89 158t137.5 99t178 34.5
q48 0 92 -10t82 -25l47 84h150zM510 162q124 0 185 82.5t61 257.5q0 69 -14 126t-40 99l-299 -547q46 -18 107 -18zM262 502q0 -75 11 -131.5t34 -98.5l293 543q-43 19 -90 19q-116 0 -182 -83t-66 -249z" />
    <glyph glyph-name="Scommaaccent" unicode="&#x218;" horiz-adv-x="1180" 
d="M872 987q-8 115 -85.5 173.5t-202.5 58.5q-62 0 -113 -14.5t-87 -40t-55.5 -61.5t-19.5 -79q0 -53 23.5 -85t76 -56.5t137.5 -48t208 -58.5q172 -49 259 -139.5t87 -241.5q0 -96 -36.5 -174t-103.5 -133t-162.5 -85t-213.5 -30q-119 0 -213.5 34.5t-162.5 94.5
t-107.5 141.5t-47.5 176.5h211q6 -59 29 -106.5t63 -81t96.5 -52t129.5 -18.5t131 16t98.5 45t62 71t21.5 93q0 59 -26 96t-82 64t-143 51t-208 57q-70 19 -130 51t-104.5 77t-70 105t-25.5 136q0 84 35.5 154t99 120.5t151 78.5t192.5 28q104 0 192.5 -27t153.5 -79.5
t104.5 -131t46.5 -180.5h-209zM420 -365q57 13 86 51t29 107v90h167v-59q0 -63 -16 -115.5t-50 -92.5t-87.5 -65t-128.5 -32v116z" />
    <glyph glyph-name="scommaaccent" unicode="&#x219;" horiz-adv-x="924" 
d="M649 682q-6 72 -53 116t-145 44q-45 0 -76.5 -11.5t-52 -29t-30 -39t-9.5 -41.5q0 -32 15.5 -51t52 -34t96 -31t147.5 -44q55 -18 102.5 -39.5t82 -53t54 -75.5t19.5 -106q0 -65 -25.5 -119.5t-75 -94.5t-123 -62.5t-169.5 -22.5q-88 0 -158 24.5t-120 67.5t-78 102
t-31 127h190q5 -71 55 -112t146 -41q94 0 147.5 30.5t53.5 81.5q0 32 -16 53t-52.5 38t-96 35.5t-147.5 45.5q-55 18 -102 41.5t-81 56t-53.5 76t-19.5 101.5q0 51 21 103t65 94t112 68t163 26q90 0 160 -24.5t118 -68t74.5 -102.5t30.5 -129h-191zM293 -365q57 13 86 51
t29 107v90h167v-59q0 -63 -16 -115.5t-50 -92.5t-87.5 -65t-128.5 -32v116z" />
    <glyph glyph-name="uni021A" unicode="&#x21a;" horiz-adv-x="1087" 
d="M1053 1190h-406v-1190h-203v1190h-409v190h1018v-190zM367 -365q57 13 85.5 51t28.5 107v90h168v-59q0 -63 -16 -115.5t-50 -92.5t-87.5 -65t-128.5 -32v116z" />
    <glyph glyph-name="uni021B" unicode="&#x21b;" horiz-adv-x="668" 
d="M387 991h213v-172h-213v-563q0 -29 7.5 -47t21.5 -28t33.5 -13.5t42.5 -3.5h67v-160q-15 -3 -33 -5q-15 -2 -33.5 -3.5t-37.5 -1.5q-48 0 -94 10t-82 39.5t-58 82t-22 136.5v557h-158v172h158v383h188v-383zM274 -365q57 13 86 51t29 107v90h168v-59q0 -63 -16 -115.5
t-50 -92.5t-88 -65t-129 -32v116z" />
    <glyph glyph-name="circumflex" unicode="&#x2c6;" horiz-adv-x="911" 
d="M586 1114l-131 139l-127 -139h-189l219 264h197l219 -264h-188z" />
    <glyph glyph-name="caron" unicode="&#x2c7;" horiz-adv-x="911" 
d="M774 1378l-219 -264h-197l-219 264h189l127 -139l131 139h188z" />
    <glyph glyph-name="breve" unicode="&#x2d8;" horiz-adv-x="721" 
d="M362 1108q-52 0 -98.5 19t-81.5 53t-55.5 81.5t-20.5 104.5h144q0 -53 31.5 -87t80.5 -34q51 0 82 34t31 87h143q0 -57 -20.5 -104.5t-55 -81.5t-81.5 -53t-99 -19z" />
    <glyph glyph-name="dotaccent" unicode="&#x2d9;" horiz-adv-x="545" 
d="M371 1145h-191v235h191v-235z" />
    <glyph glyph-name="ring" unicode="&#x2da;" horiz-adv-x="635" 
d="M319 1098q-44 0 -81.5 15.5t-66 42.5t-44.5 64.5t-16 82.5q0 44 16 81.5t44.5 64.5t66 42.5t81.5 15.5t82 -15.5t66.5 -42.5t44.5 -64.5t16 -81.5q0 -45 -16 -82.5t-44.5 -64.5t-66.5 -42.5t-82 -15.5zM319 1202q45 0 73 28t28 73t-28 72.5t-73 27.5t-72.5 -27.5
t-27.5 -72.5t27.5 -73t72.5 -28z" />
    <glyph glyph-name="ogonek" unicode="&#x2db;" horiz-adv-x="479" 
d="M211 -135q0 -54 32.5 -84.5t88.5 -30.5h22v-106q-12 -4 -24 -7q-11 -2 -25 -4t-29 -2q-47 0 -87 13.5t-69 38t-45 60t-16 79.5q0 42 16 79.5t44.5 65t67.5 44t85 16.5h62v-35q-59 -3 -91 -36.5t-32 -90.5z" />
    <glyph glyph-name="tilde" unicode="&#x2dc;" horiz-adv-x="1008" 
d="M848 1389q-8 -50 -25 -93.5t-44 -75t-65 -49.5t-87 -18q-38 0 -74.5 13t-69.5 29t-61.5 29t-50.5 13q-31 0 -47.5 -21t-22.5 -59h-151q10 48 27.5 90.5t44.5 74t64.5 49.5t88.5 18q35 0 70 -13t67 -29t61 -29t52 -13q34 0 49.5 24t21.5 60h152z" />
    <glyph glyph-name="hungarumlaut" unicode="&#x2dd;" horiz-adv-x="948" 
d="M117 1116l194 264h211l-239 -264h-166zM440 1116l193 264h213l-242 -264h-164z" />
    <glyph glyph-name="tonos" unicode="&#x384;" horiz-adv-x="463" 
d="M139 1098l-2 299h203l-45 -299h-156z" />
    <glyph glyph-name="dieresistonos" unicode="&#x385;" horiz-adv-x="887" 
d="M246 1159h-178v221h178v-221zM821 1159h-180v221h180v-221zM360 1239l-2 311h197l-45 -311h-150z" />
    <glyph glyph-name="Alphatonos" unicode="&#x386;" horiz-adv-x="1225" 
d="M897 344h-571l-127 -344h-207l524 1380h195l522 -1380h-207zM397 532h428l-215 574zM74 1098l-2 299h202l-45 -299h-155z" />
    <glyph glyph-name="Epsilontonos" unicode="&#x388;" horiz-adv-x="1436" 
d="M1352 1190h-742v-391h611v-191h-611v-418h742v-190h-944v1380h944v-190zM57 1098l-2 299h203l-45 -299h-156z" />
    <glyph glyph-name="Etatonos" unicode="&#x389;" horiz-adv-x="1575" 
d="M1423 0h-202v608h-611v-608h-202v1380h202v-581h611v581h202v-1380zM57 1098l-2 299h203l-45 -299h-156z" />
    <glyph glyph-name="Iotatonos" unicode="&#x38a;" horiz-adv-x="762" 
d="M610 0h-202v1380h202v-1380zM57 1098l-2 299h203l-45 -299h-156z" />
    <glyph glyph-name="Omicrontonos" unicode="&#x38c;" horiz-adv-x="1565" 
d="M903 1405q147 0 256.5 -56t182 -151.5t109 -222t36.5 -268.5q0 -164 -37 -299t-110 -232t-182.5 -150t-254.5 -53q-143 0 -251.5 52.5t-182 147.5t-110.5 229t-37 298q0 161 39 291.5t113.5 222.5t182.5 141.5t246 49.5zM901 1214q-92 0 -162.5 -34t-117.5 -99.5
t-71 -161t-24 -219.5q0 -128 23 -228t70 -168.5t117 -104t165 -35.5q97 0 168.5 36t118.5 105t70.5 169t23.5 228q0 111 -22.5 204.5t-69.5 162t-119 107t-170 38.5zM57 1098l-2 299h203l-45 -299h-156z" />
    <glyph glyph-name="Upsilontonos" unicode="&#x38e;" horiz-adv-x="1452" 
d="M346 1380h229l326 -616l330 616h225l-452 -825v-555h-203v555zM57 1098l-2 299h203l-45 -299h-156z" />
    <glyph glyph-name="Omegatonos" unicode="&#x38f;" horiz-adv-x="1581" 
d="M911 1212q-99 0 -172 -38t-121.5 -103.5t-72 -153t-23.5 -186.5q0 -117 23 -216.5t62.5 -173.5t92 -119.5t111.5 -53.5v-168h-473v178h172q-42 45 -77.5 107.5t-61 135t-40 153t-14.5 161.5q0 87 17 171t50.5 158.5t83 137t115.5 107.5t148 70.5t180 25.5t180 -25.5
t148 -70.5t116 -107.5t83 -137t50 -158.5t17 -171q0 -81 -14.5 -161.5t-40 -153t-60.5 -135t-77 -107.5h172v-178h-473v168q59 8 111.5 53.5t91.5 119.5t62 173.5t23 216.5q0 99 -23.5 186.5t-71.5 153t-121.5 103.5t-172.5 38zM57 1098l-2 299h203l-45 -299h-156z" />
    <glyph glyph-name="iotadieresistonos" unicode="&#x390;" horiz-adv-x="489" 
d="M352 -6q-50 0 -90 15t-67.5 43t-42.5 67.5t-15 87.5v784h189v-764q0 -37 20.5 -51t54.5 -14h25v-160q-9 -2 -20 -4q-10 -2 -23.5 -3t-30.5 -1zM33 1159h-178v221h178v-221zM608 1159h-180v221h180v-221zM147 1239l-2 311h197l-45 -311h-150z" />
    <glyph glyph-name="Alpha" unicode="&#x391;" horiz-adv-x="1225" 
d="M897 344h-571l-127 -344h-207l524 1380h195l522 -1380h-207zM397 532h428l-215 574z" />
    <glyph glyph-name="Beta" unicode="&#x392;" horiz-adv-x="1296" 
d="M748 1380q114 0 193 -32t129 -84.5t72.5 -119t22.5 -136.5q0 -40 -9 -80t-28.5 -77.5t-49.5 -71t-72 -60.5q51 -26 87 -61t59 -75.5t33.5 -84.5t10.5 -88q0 -69 -23 -142t-73 -132.5t-129.5 -97.5t-192.5 -38h-626v1380h596zM354 1190v-383h414q55 0 92.5 19t60 48.5
t32.5 65t10 68.5q0 38 -11 71.5t-36.5 58t-67.5 38.5t-103 14h-391zM354 621v-431h422q61 0 102 20.5t66 52.5t36 71t11 76q0 35 -11 72.5t-36 68t-66 50.5t-102 20h-422z" />
    <glyph glyph-name="Gamma" unicode="&#x393;" horiz-adv-x="1069" 
d="M1073 1190h-719v-1190h-202v1380h921v-190z" />
    <glyph glyph-name="uni0394" unicode="&#x394;" horiz-adv-x="1214" 
d="M1227 0h-1239l522 1380h195zM262 188h688l-344 924z" />
    <glyph glyph-name="Epsilon" unicode="&#x395;" horiz-adv-x="1180" 
d="M1096 1190h-742v-391h611v-191h-611v-418h742v-190h-944v1380h944v-190z" />
    <glyph glyph-name="Zeta" unicode="&#x396;" horiz-adv-x="1108" 
d="M1030 1204l-719 -1014h719v-190h-958v174l719 1016h-687v190h926v-176z" />
    <glyph glyph-name="Eta" unicode="&#x397;" horiz-adv-x="1319" 
d="M1167 0h-202v608h-611v-608h-202v1380h202v-581h611v581h202v-1380z" />
    <glyph glyph-name="Theta" unicode="&#x398;" horiz-adv-x="1321" 
d="M659 1405q147 0 256.5 -56t182.5 -151.5t109 -222t36 -268.5q0 -164 -36.5 -299t-110 -232t-183 -150t-254.5 -53q-143 0 -251.5 52.5t-181.5 147.5t-110.5 229t-37.5 298q0 161 39 291.5t113.5 222.5t182.5 141.5t246 49.5zM657 1214q-92 0 -162 -34t-117 -99.5
t-71 -161t-24 -219.5q0 -128 23 -228t69.5 -168.5t117 -104t164.5 -35.5q97 0 168.5 36t118.5 105t70.5 169t23.5 228q0 111 -22.5 204.5t-69.5 162t-118.5 107t-170.5 38.5zM414 608v191h491v-191h-491z" />
    <glyph glyph-name="Iota" unicode="&#x399;" horiz-adv-x="506" 
d="M354 0h-202v1380h202v-1380z" />
    <glyph glyph-name="Kappa" unicode="&#x39a;" horiz-adv-x="1257" 
d="M354 719l594 661h258l-504 -551l553 -829h-241l-449 680l-211 -231v-449h-202v1380h202v-661z" />
    <glyph glyph-name="Lambda" unicode="&#x39b;" horiz-adv-x="1225" 
d="M612 1106l-413 -1106h-207l524 1380h193l524 -1380h-207z" />
    <glyph glyph-name="Mu" unicode="&#x39c;" horiz-adv-x="1606" 
d="M1454 0h-203v969l-366 -830h-164l-367 830v-969h-202v1380h225l426 -1003l426 1003h225v-1380z" />
    <glyph glyph-name="Nu" unicode="&#x39d;" horiz-adv-x="1321" 
d="M1169 0h-202l-613 1016v-1016h-202v1380h202l613 -1011v1011h202v-1380z" />
    <glyph glyph-name="Xi" unicode="&#x39e;" horiz-adv-x="1149" 
d="M1047 190v-190h-945v190h945zM168 608v191h813v-191h-813zM102 1190v190h945v-190h-945z" />
    <glyph glyph-name="Omicron" unicode="&#x39f;" horiz-adv-x="1321" 
d="M659 1405q147 0 256.5 -56t182.5 -151.5t109 -222t36 -268.5q0 -164 -36.5 -299t-110 -232t-183 -150t-254.5 -53q-143 0 -251.5 52.5t-181.5 147.5t-110.5 229t-37.5 298q0 161 39 291.5t113.5 222.5t182.5 141.5t246 49.5zM657 1214q-92 0 -162 -34t-117 -99.5
t-71 -161t-24 -219.5q0 -128 23 -228t69.5 -168.5t117 -104t164.5 -35.5q97 0 168.5 36t118.5 105t70.5 169t23.5 228q0 111 -22.5 204.5t-69.5 162t-118.5 107t-170.5 38.5z" />
    <glyph glyph-name="Pi" unicode="&#x3a0;" horiz-adv-x="1319" 
d="M1167 0h-202v1190h-611v-1190h-202v1380h1015v-1380z" />
    <glyph glyph-name="Rho" unicode="&#x3a1;" horiz-adv-x="1231" 
d="M731 1380q114 0 196.5 -38.5t136 -99t78.5 -134t25 -143.5q0 -67 -25 -139t-78.5 -132t-136 -98.5t-196.5 -38.5h-377v-557h-202v1380h579zM354 1190v-442h377q62 0 106 21t72 53.5t41 70.5t13 72q0 35 -13 74.5t-41 73t-72 55.5t-106 22h-377z" />
    <glyph glyph-name="Sigma" unicode="&#x3a3;" horiz-adv-x="1094" 
d="M342 190h686v-190h-956v168l526 541l-500 503v168h918v-190h-637l473 -481z" />
    <glyph glyph-name="Tau" unicode="&#x3a4;" horiz-adv-x="1087" 
d="M1053 1190h-406v-1190h-203v1190h-409v190h1018v-190z" />
    <glyph glyph-name="Upsilon" unicode="&#x3a5;" horiz-adv-x="1102" 
d="M-4 1380h229l326 -616l330 616h225l-453 -825v-555h-202v555z" />
    <glyph glyph-name="Phi" unicode="&#x3a6;" horiz-adv-x="1462" 
d="M829 1303q129 -14 234.5 -63t180 -127.5t115 -183.5t40.5 -231t-41 -231t-116 -184t-180 -128t-233 -63v-194h-200v196q-128 14 -232 63t-178.5 128t-115 183.5t-40.5 229.5t40.5 230t114.5 183.5t178.5 127.5t232.5 64v186h200v-186zM1194 698q0 81 -24 151.5t-70 125
t-114.5 90.5t-156.5 49v-833q88 13 156.5 49t114.5 91t70 125.5t24 151.5zM268 698q0 -81 23.5 -151t69 -124t113 -90.5t155.5 -49.5v831q-88 -14 -155.5 -50.5t-113 -91t-69 -124t-23.5 -150.5z" />
    <glyph glyph-name="Chi" unicode="&#x3a7;" horiz-adv-x="1044" 
d="M528 877l297 503h232l-412 -684l428 -696h-229l-320 520l-317 -520h-230l433 705l-420 675h229z" />
    <glyph glyph-name="Psi" unicode="&#x3a8;" horiz-adv-x="1317" 
d="M557 567q-104 9 -192 43.5t-152 100t-99.5 164.5t-35.5 237v268h203v-262q0 -173 70 -261t206 -97v620h203v-620q136 9 206 97t70 261v262h203v-268q0 -138 -36 -237t-99.5 -164.5t-151.5 -100t-192 -43.5v-567h-203v567z" />
    <glyph glyph-name="uni03A9" unicode="&#x3a9;" horiz-adv-x="1337" 
d="M668 1212q-99 0 -172.5 -38t-121.5 -103.5t-71.5 -153t-23.5 -186.5q0 -117 23 -216.5t62 -173.5t91.5 -119.5t111.5 -53.5v-168h-473v178h172q-42 45 -77.5 107.5t-61 135t-39.5 153t-14 161.5q0 87 17 171t50 158.5t83 137t116 107.5t148 70.5t180 25.5t180 -25.5
t148 -70.5t115.5 -107.5t83 -137t50.5 -158.5t17 -171q0 -81 -14.5 -161.5t-40 -153t-61 -135t-77.5 -107.5h172v-178h-473v168q59 8 111.5 53.5t92 119.5t62.5 173.5t23 216.5q0 99 -23.5 186.5t-72 153t-121.5 103.5t-172 38z" />
    <glyph glyph-name="Iotadieresis" unicode="&#x3aa;" horiz-adv-x="506" 
d="M354 0h-202v1380h202v-1380zM156 1513h-179v222h179v-222zM526 1513h-180v222h180v-222z" />
    <glyph glyph-name="Upsilondieresis" unicode="&#x3ab;" horiz-adv-x="1102" 
d="M-4 1380h229l326 -616l330 616h225l-453 -825v-555h-202v555zM455 1516h-179v221h179v-221zM825 1516h-180v221h180v-221z" />
    <glyph glyph-name="alphatonos" unicode="&#x3ac;" horiz-adv-x="1081" 
d="M76 512q0 108 32.5 198.5t90.5 156t138 102.5t175 37q72 0 133.5 -24t106.5 -69v78h188v-768q0 -37 21 -51t55 -14h14v-156q-6 -2 -16 -4q-8 -2 -20 -3t-29 -1q-69 0 -117.5 26t-73.5 86q-48 -58 -118.5 -88t-151.5 -30q-103 0 -183 38t-134.5 107t-82.5 165.5t-28 213.5
zM266 508q0 -168 61 -257t189 -89q114 0 180 81.5t66 252.5t-61.5 253t-180.5 82q-58 0 -105 -21.5t-80 -63t-51 -101.5t-18 -137zM442 1110l-2 299h203l-45 -299h-156z" />
    <glyph glyph-name="epsilontonos" unicode="&#x3ad;" horiz-adv-x="954" 
d="M678 682q-9 37 -23.5 65.5t-38 48t-57 29t-78.5 9.5q-43 0 -76 -10.5t-55.5 -27.5t-34.5 -39t-12 -46q0 -51 41.5 -82t136.5 -31h29v-170h-35q-90 0 -143 -34.5t-53 -96.5q0 -34 15.5 -59.5t42.5 -43t63 -26t77 -8.5q90 0 151 43.5t77 118.5h192q-15 -78 -52.5 -140
t-92.5 -105t-125 -66t-150 -23q-87 0 -158.5 20.5t-122.5 59.5t-79.5 95t-28.5 126q0 71 39 129.5t109 93.5q-65 34 -95 83.5t-30 121.5q0 54 24 106t71.5 92.5t117 65.5t159.5 25q85 0 151.5 -23t115 -65.5t78.5 -102.5t42 -133h-192zM399 1110l-2 299h203l-45 -299h-156z
" />
    <glyph glyph-name="etatonos" unicode="&#x3ae;" 
d="M135 0v991h189v-86q99 101 262 101q84 0 147.5 -28t106 -78.5t64.5 -120.5t22 -154v-975h-189v960q0 46 -11.5 87t-35 72t-58.5 49t-83 18q-51 0 -92.5 -17.5t-71 -54t-45.5 -92.5t-16 -133v-539h-189zM485 1110l-2 299h203l-45 -299h-156z" />
    <glyph glyph-name="iotatonos" unicode="&#x3af;" horiz-adv-x="489" 
d="M352 -6q-50 0 -90 15t-67.5 43t-42.5 67.5t-15 87.5v784h189v-764q0 -37 20.5 -51t54.5 -14h25v-160q-9 -2 -20 -4q-10 -2 -23.5 -3t-30.5 -1zM137 1098l-2 299h203l-45 -299h-156z" />
    <glyph glyph-name="upsilondieresistonos" unicode="&#x3b0;" 
d="M518 -12q-87 0 -159.5 26t-125 75t-81.5 120.5t-29 163.5v618h188v-616q0 -59 16.5 -100t45 -67t66 -38t79.5 -12q44 0 82 12t65.5 38t43.5 67t16 100v616h188v-618q0 -89 -28.5 -160.5t-80 -121.5t-124.5 -76.5t-162 -26.5zM319 1159h-178v221h178v-221zM895 1159h-180
v221h180v-221zM434 1239l-2 311h197l-45 -311h-150z" />
    <glyph glyph-name="alpha" unicode="&#x3b1;" horiz-adv-x="1081" 
d="M76 512q0 108 32.5 198.5t90.5 156t138 102.5t175 37q72 0 133.5 -24t106.5 -69v78h188v-768q0 -37 21 -51t55 -14h14v-156q-6 -2 -16 -4q-8 -2 -20 -3t-29 -1q-69 0 -117.5 26t-73.5 86q-48 -58 -118.5 -88t-151.5 -30q-103 0 -183 38t-134.5 107t-82.5 165.5t-28 213.5
zM266 508q0 -168 61 -257t189 -89q114 0 180 81.5t66 252.5t-61.5 253t-180.5 82q-58 0 -105 -21.5t-80 -63t-51 -101.5t-18 -137z" />
    <glyph glyph-name="beta" unicode="&#x3b2;" horiz-adv-x="1098" 
d="M588 -12q-39 0 -76 8t-69.5 22.5t-59.5 33.5t-45 40v-454h-188v1343q0 108 31 188t85.5 133t129.5 79t163 26q78 0 145 -26.5t116 -72t76.5 -106.5t27.5 -129q0 -49 -11.5 -92.5t-32 -80t-48 -64t-58.5 -45.5q52 -21 96 -53.5t75.5 -78t49 -104t17.5 -131.5
q0 -99 -30.5 -179.5t-86 -137.5t-133.5 -88t-174 -31zM336 418q0 -63 17.5 -111t50.5 -80.5t79 -49t103 -17.5q64 1 109.5 21.5t73.5 56t41 84.5t13 108q0 56 -16.5 102.5t-49.5 79.5t-81 51.5t-111 18.5h-53v170h29q49 0 85.5 17t60.5 45.5t36 65t12 75.5q0 34 -10.5 67
t-32 58.5t-55 41t-78.5 15.5q-48 0 -88.5 -15t-70.5 -45.5t-47 -77t-17 -108.5v-573z" />
    <glyph glyph-name="gamma" unicode="&#x3b3;" horiz-adv-x="907" 
d="M8 991h205l242 -735l237 735h207l-360 -1020q4 -28 3 -60t-7.5 -72t-19.5 -89t-34 -112h-194q19 63 35.5 119.5t26 105t11 89t-9.5 71.5z" />
    <glyph glyph-name="delta" unicode="&#x3b4;" horiz-adv-x="1026" 
d="M618 989q86 -24 149 -69t104 -107.5t61 -140.5t20 -168q0 -122 -31 -217.5t-88 -162t-138 -101.5t-181 -35q-104 0 -185.5 35t-138 101.5t-86.5 162t-30 217.5q0 75 14.5 139t41.5 116t65 93t84 70q-28 13 -52 32.5t-42 45t-28 56.5t-10 68q0 52 21 102.5t65 90.5t112 65
t163 25q91 0 160.5 -24.5t118 -67.5t74.5 -102.5t30 -129.5h-191q-3 36 -14.5 65.5t-34.5 50.5t-58 32.5t-85 11.5q-44 0 -76.5 -9.5t-54.5 -24.5t-32.5 -34.5t-10.5 -39.5q0 -38 20 -60.5t70 -36.5q29 -8 52 -13.5t44.5 -10.5t44.5 -10.5t53 -14.5zM514 162q124 0 186 82.5
t62 257.5q0 76 -15.5 137t-47 103.5t-78 65.5t-107.5 23q-116 0 -183 -81.5t-67 -247.5q0 -175 62.5 -257.5t187.5 -82.5z" />
    <glyph glyph-name="epsilon" unicode="&#x3b5;" horiz-adv-x="954" 
d="M678 682q-9 37 -23.5 65.5t-38 48t-57 29t-78.5 9.5q-43 0 -76 -10.5t-55.5 -27.5t-34.5 -39t-12 -46q0 -51 41.5 -82t136.5 -31h29v-170h-35q-90 0 -143 -34.5t-53 -96.5q0 -34 15.5 -59.5t42.5 -43t63 -26t77 -8.5q90 0 151 43.5t77 118.5h192q-15 -78 -52.5 -140
t-92.5 -105t-125 -66t-150 -23q-87 0 -158.5 20.5t-122.5 59.5t-79.5 95t-28.5 126q0 71 39 129.5t109 93.5q-65 34 -95 83.5t-30 121.5q0 54 24 106t71.5 92.5t117 65.5t159.5 25q85 0 151.5 -23t115 -65.5t78.5 -102.5t42 -133h-192z" />
    <glyph glyph-name="zeta" unicode="&#x3b6;" horiz-adv-x="911" 
d="M586 -362q9 21 23 50.5t27 62t22.5 65t9.5 61.5q0 27 -5 46.5t-18.5 33t-36.5 21t-59 10.5q-91 8 -174.5 33t-147.5 72.5t-102.5 121t-38.5 180.5q0 83 23.5 159.5t64.5 147.5t97 136.5t121.5 128t137 122t144.5 117.5h-518v174h733v-180q-63 -52 -132.5 -111
t-138 -122.5t-131 -131.5t-110 -137t-75.5 -139.5t-28 -138.5q0 -69 19 -115.5t56.5 -76t94 -45.5t131.5 -23q78 -8 131.5 -29t87.5 -53.5t49 -74.5t15 -93q0 -29 -8 -64.5t-19.5 -72.5t-24.5 -72.5t-24 -62.5h-196z" />
    <glyph glyph-name="eta" unicode="&#x3b7;" 
d="M135 0v991h189v-86q99 101 262 101q84 0 147.5 -28t106 -78.5t64.5 -120.5t22 -154v-975h-189v960q0 46 -11.5 87t-35 72t-58.5 49t-83 18q-51 0 -92.5 -17.5t-71 -54t-45.5 -92.5t-16 -133v-539h-189z" />
    <glyph glyph-name="theta" unicode="&#x3b8;" horiz-adv-x="1102" 
d="M553 1397q93 0 164.5 -28.5t124.5 -79t88.5 -118t57 -146t31 -163t9.5 -168.5q0 -74 -8 -155t-28 -160t-54 -150.5t-87 -126t-126.5 -86.5t-171.5 -32q-94 0 -166.5 29t-125.5 79.5t-89 119t-57.5 147.5t-31 164.5t-9.5 170.5q0 73 8 153.5t28 159t54.5 149t88 124.5
t127.5 85.5t173 31.5zM553 158q72 0 123.5 33t85.5 93.5t52 147t22 193.5h-572q1 -49 6.5 -103t17 -106t31.5 -98.5t52 -82t76.5 -56.5t105.5 -21zM553 1223q-81 0 -134 -39t-85.5 -100.5t-47.5 -138t-20 -152.5h568q-3 47 -10 97.5t-20 98.5t-34 90.5t-51 74.5t-71 50.5
t-95 18.5z" />
    <glyph glyph-name="iota" unicode="&#x3b9;" horiz-adv-x="489" 
d="M352 -6q-50 0 -90 15t-67.5 43t-42.5 67.5t-15 87.5v784h189v-764q0 -37 20.5 -51t54.5 -14h25v-160q-9 -2 -20 -4q-10 -2 -23.5 -3t-30.5 -1z" />
    <glyph glyph-name="kappa" unicode="&#x3ba;" horiz-adv-x="965" 
d="M571 590l408 -590h-234l-307 457l-114 -119v-338h-189v991h189v-413l385 413h233z" />
    <glyph glyph-name="lambda" unicode="&#x3bb;" horiz-adv-x="907" 
d="M899 0h-205l-237 729l-242 -729h-207l352 993l-49 131q-8 20 -15 35t-17 25.5t-24.5 15.5t-35.5 6l-72 2v166l18 3q9 1 22.5 2t31.5 1q54 0 94.5 -11t71 -33t52 -54.5t36.5 -75.5z" />
    <glyph glyph-name="uni03BC" unicode="&#x3bc;" horiz-adv-x="1061" 
d="M926 0h-189v80q-45 -43 -98.5 -68.5t-116.5 -25.5q-29 0 -58.5 5.5t-56 14.5t-48.5 21t-35 26v-415h-189v1353h189v-614q0 -57 16.5 -98.5t44 -68t63.5 -39.5t74 -13q42 0 80.5 16.5t68.5 49.5t48 84t18 120v563h189v-991z" />
    <glyph glyph-name="nu" unicode="&#x3bd;" horiz-adv-x="907" 
d="M549 0h-191l-350 991h207l238 -735l241 735h205z" />
    <glyph glyph-name="xi" unicode="&#x3be;" horiz-adv-x="909" 
d="M573 -362q10 21 24 51t27 63.5t22 67.5t9 63q0 23 -4 42t-15.5 32.5t-31.5 21t-51 9.5q-86 4 -171 28.5t-152.5 76t-109.5 132.5t-42 197q0 67 17 124t46.5 102.5t70 79t87.5 54.5q-35 17 -64.5 45t-52 64t-35 79t-12.5 91q0 71 28 134t78.5 110t121.5 74.5t157 27.5
q84 0 150.5 -24.5t113.5 -67.5t73 -102.5t30 -129.5h-191q-3 36 -14 65.5t-32 50t-53 31.5t-77 11q-50 0 -87 -15t-61 -40.5t-36 -59.5t-12 -73q0 -36 12.5 -71.5t37 -64.5t62 -47t88.5 -18h43v-172h-57q-63 0 -109 -18t-76 -51t-44.5 -79t-14.5 -102q0 -61 21 -108.5
t59.5 -81t93.5 -53.5t123 -25q79 -6 133 -27t87.5 -53t48 -75.5t14.5 -94.5q0 -32 -7 -66.5t-18 -69t-24.5 -69.5t-26.5 -69h-197z" />
    <glyph glyph-name="omicron" unicode="&#x3bf;" horiz-adv-x="1026" 
d="M514 1006q103 0 184 -38t137.5 -105t86.5 -159t30 -200q0 -122 -31 -217.5t-88 -162t-138 -101.5t-181 -35q-103 0 -184.5 35t-138.5 101.5t-87 162t-30 217.5q0 117 32 210.5t90.5 158t139 99t178.5 34.5zM514 162q124 0 186 82.5t62 257.5q0 76 -15.5 137t-47 103.5
t-78 65.5t-107.5 23q-116 0 -183 -81.5t-67 -247.5q0 -175 62.5 -257.5t187.5 -82.5z" />
    <glyph glyph-name="pi" unicode="&#x3c0;" horiz-adv-x="1257" 
d="M997 817v-569q0 -29 6 -46t18 -25.5t30 -10.5t41 -2h36v-160q-10 -3 -23 -5q-25 -5 -61 -5q-49 0 -92 11.5t-74.5 41t-50 79.5t-18.5 128v563h-389v-817h-189v817h-161v172h1081v-172h-154z" />
    <glyph glyph-name="rho" unicode="&#x3c1;" horiz-adv-x="1038" 
d="M543 831q-116 0 -179 -84t-63 -245q0 -92 18.5 -156.5t51 -106t76 -60.5t94.5 -19q62 0 106.5 23.5t72.5 67.5t41 107.5t13 143.5q0 155 -57.5 242t-173.5 87zM119 504q0 117 30 210.5t85.5 158t135 99t177.5 34.5q99 0 176.5 -37.5t131.5 -104.5t82 -160.5t28 -205.5
q0 -111 -28 -205t-80.5 -161.5t-129.5 -105.5t-174 -38q-75 0 -137 29t-109 81v-460h-188v866z" />
    <glyph glyph-name="sigma1" unicode="&#x3c2;" horiz-adv-x="965" 
d="M582 -362q10 21 23.5 51t26 62t21.5 64.5t9 59.5t-4 47.5t-17 35t-37.5 24t-64.5 14.5q-94 12 -178.5 47t-148 96t-101 149.5t-37.5 207.5q0 120 32.5 215t91.5 160.5t141 100t181 34.5q86 0 155 -25t119.5 -69.5t82 -105.5t43.5 -134h-193q-17 74 -67.5 116.5
t-141.5 42.5q-117 0 -185.5 -82.5t-68.5 -252.5q0 -153 82 -234t256 -102q67 -9 114 -29.5t77 -53t44 -75t15 -94.5q0 -30 -7.5 -65t-18.5 -70.5t-25 -70t-27 -64.5h-192z" />
    <glyph glyph-name="sigma" unicode="&#x3c3;" horiz-adv-x="1047" 
d="M514 1006q31 0 60 -4.5t57 -10.5h362v-174h-139q50 -63 74 -142.5t24 -170.5q0 -122 -31 -217.5t-88 -162t-138 -101.5t-181 -35q-103 0 -184.5 35t-138.5 101.5t-87 162t-30 217.5q0 117 32 210.5t90.5 158t139 99t178.5 34.5zM514 162q124 0 186 82.5t62 257.5
q0 76 -15.5 137t-47 103.5t-78 65.5t-107.5 23q-116 0 -183 -81.5t-67 -247.5q0 -175 62.5 -257.5t187.5 -82.5z" />
    <glyph glyph-name="tau" unicode="&#x3c4;" horiz-adv-x="907" 
d="M559 819v-819h-188v819h-334v172h833v-172h-311z" />
    <glyph glyph-name="upsilon" unicode="&#x3c5;" horiz-adv-x="1036" 
d="M518 -12q-87 0 -159.5 26t-125 75t-81.5 120.5t-29 163.5v618h188v-616q0 -59 16.5 -100t45 -67t66 -38t79.5 -12q44 0 82 12t65.5 38t43.5 67t16 100v616h188v-618q0 -89 -28.5 -160.5t-80 -121.5t-124.5 -76.5t-162 -26.5z" />
    <glyph glyph-name="phi" unicode="&#x3c6;" horiz-adv-x="1278" 
d="M727 -362h-188v350q-99 4 -184.5 42t-147.5 106.5t-97.5 165t-35.5 216.5q0 112 29.5 202.5t85 154t133.5 97.5t176 34v-172q-116 0 -175 -79t-59 -237q0 -91 20.5 -157t57.5 -109.5t87.5 -65.5t109.5 -24v506q0 72 18 134t53 107t87 71t120 26q88 0 158.5 -35.5
t120.5 -99.5t77 -154t27 -199q0 -119 -37.5 -214.5t-101.5 -163.5t-150.5 -107t-183.5 -45v-350zM727 162q58 4 110 27t90 67t60.5 109.5t22.5 152.5q0 78 -14.5 137t-40 98.5t-59 60t-71.5 20.5q-51 0 -74.5 -44t-23.5 -116v-512z" />
    <glyph glyph-name="chi" unicode="&#x3c7;" horiz-adv-x="967" 
d="M2 -362l373 677l-373 676h221l260 -495l260 495h222l-373 -678l373 -675h-220l-262 495l-262 -495h-219z" />
    <glyph glyph-name="psi" unicode="&#x3c8;" horiz-adv-x="1282" 
d="M731 991v-827q53 7 97 31t76 65.5t49.5 101.5t17.5 138v491h188v-487q0 -114 -31.5 -206t-88.5 -158t-135.5 -104.5t-172.5 -45.5v-352h-188v352q-94 7 -172.5 45.5t-135.5 104.5t-88.5 158t-31.5 206v487h188v-491q0 -78 17.5 -138t49 -101.5t76 -65.5t97.5 -31v827h188
z" />
    <glyph glyph-name="omega" unicode="&#x3c9;" horiz-adv-x="1298" 
d="M825 1004q103 0 177 -36t122 -102.5t70.5 -160.5t22.5 -211q0 -139 -29 -236t-75.5 -157.5t-105 -87.5t-116.5 -27q-84 0 -147 35.5t-95 97.5q-32 -62 -95 -97.5t-146 -35.5q-59 0 -117 27t-104.5 87.5t-75.5 157.5t-29 236q0 117 22.5 211t70 160.5t121.5 102.5t177 36
v-175q-62 0 -101.5 -22.5t-61.5 -66.5t-30 -109.5t-8 -151.5q0 -89 11 -150t31.5 -99t50 -55t67.5 -17q57 0 90 40t33 105v367h188v-367q0 -65 33 -105t90 -40q38 0 67.5 17t50 55t31.5 99t11 150q0 86 -8 151.5t-30 109.5t-61.5 66.5t-101.5 22.5v175z" />
    <glyph glyph-name="iotadieresis" unicode="&#x3ca;" horiz-adv-x="489" 
d="M352 -6q-50 0 -90 15t-67.5 43t-42.5 67.5t-15 87.5v784h189v-764q0 -37 20.5 -51t54.5 -14h25v-160q-9 -2 -20 -4q-10 -2 -23.5 -3t-30.5 -1zM141 1159h-178v221h178v-221zM512 1159h-180v221h180v-221z" />
    <glyph glyph-name="upsilondieresis" unicode="&#x3cb;" 
d="M518 -12q-87 0 -159.5 26t-125 75t-81.5 120.5t-29 163.5v618h188v-616q0 -59 16.5 -100t45 -67t66 -38t79.5 -12q44 0 82 12t65.5 38t43.5 67t16 100v616h188v-618q0 -89 -28.5 -160.5t-80 -121.5t-124.5 -76.5t-162 -26.5zM428 1159h-178v221h178v-221zM799 1159h-181
v221h181v-221z" />
    <glyph glyph-name="omicrontonos" unicode="&#x3cc;" horiz-adv-x="1026" 
d="M514 1006q103 0 184 -38t137.5 -105t86.5 -159t30 -200q0 -122 -31 -217.5t-88 -162t-138 -101.5t-181 -35q-103 0 -184.5 35t-138.5 101.5t-87 162t-30 217.5q0 117 32 210.5t90.5 158t139 99t178.5 34.5zM514 162q124 0 186 82.5t62 257.5q0 76 -15.5 137t-47 103.5
t-78 65.5t-107.5 23q-116 0 -183 -81.5t-67 -247.5q0 -175 62.5 -257.5t187.5 -82.5zM424 1110l-2 299h203l-45 -299h-156z" />
    <glyph glyph-name="upsilontonos" unicode="&#x3cd;" 
d="M518 -12q-87 0 -159.5 26t-125 75t-81.5 120.5t-29 163.5v618h188v-616q0 -59 16.5 -100t45 -67t66 -38t79.5 -12q44 0 82 12t65.5 38t43.5 67t16 100v616h188v-618q0 -89 -28.5 -160.5t-80 -121.5t-124.5 -76.5t-162 -26.5zM444 1110l-2 299h203l-45 -299h-156z" />
    <glyph glyph-name="omegatonos" unicode="&#x3ce;" horiz-adv-x="1298" 
d="M825 1004q103 0 177 -36t122 -102.5t70.5 -160.5t22.5 -211q0 -139 -29 -236t-75.5 -157.5t-105 -87.5t-116.5 -27q-84 0 -147 35.5t-95 97.5q-32 -62 -95 -97.5t-146 -35.5q-59 0 -117 27t-104.5 87.5t-75.5 157.5t-29 236q0 117 22.5 211t70 160.5t121.5 102.5t177 36
v-175q-62 0 -101.5 -22.5t-61.5 -66.5t-30 -109.5t-8 -151.5q0 -89 11 -150t31.5 -99t50 -55t67.5 -17q57 0 90 40t33 105v367h188v-367q0 -65 33 -105t90 -40q38 0 67.5 17t50 55t31.5 99t11 150q0 86 -8 151.5t-30 109.5t-61.5 66.5t-101.5 22.5v175zM561 1110l-2 299h203
l-45 -299h-156z" />
    <glyph glyph-name="uni03D0" unicode="&#x3d0;" horiz-adv-x="1071" 
d="M311 412q0 -62 16.5 -109.5t45.5 -79.5t70 -48.5t89 -16.5q69 0 119 19.5t82.5 55.5t48 86t15.5 111q0 56 -16.5 102t-49.5 79t-81 51t-111 18h-54v170h29q49 0 85.5 17.5t61 46t36.5 64t12 71.5q0 37 -10.5 71t-32 59.5t-55 40.5t-79.5 15q-47 0 -87.5 -15t-70 -45
t-46.5 -76t-17 -108v-579zM123 981q0 108 31 188t85.5 133t129.5 79t163 26q82 0 149 -25t115 -72t74.5 -113.5t26.5 -149.5q0 -39 -10 -76t-28.5 -70.5t-45 -61.5t-59.5 -48q48 -20 90.5 -55t73.5 -81.5t49 -102.5t18 -118q0 -108 -35.5 -191.5t-97.5 -140.5t-145 -86.5
t-177 -29.5q-95 0 -170.5 28t-128 83.5t-80.5 138t-28 192.5v553z" />
    <glyph glyph-name="afii10023" unicode="&#x401;" horiz-adv-x="1180" 
d="M1096 1190h-742v-391h611v-191h-611v-418h742v-190h-944v1380h944v-190zM528 1516h-178v221h178v-221zM899 1516h-180v221h180v-221z" />
    <glyph glyph-name="afii10051" unicode="&#x402;" horiz-adv-x="1452" 
d="M893 821q-51 0 -95 -13t-77 -42.5t-53 -75.5t-21 -112v-578h-203v1190h-409v190h1018v-190h-406v-287q24 25 56.5 44t70 32t79.5 20t85 7q108 0 190 -40t136.5 -110t82 -164.5t27.5 -202.5q0 -122 -29 -218t-83.5 -162t-134 -101t-181.5 -35q-14 0 -25.5 0.5t-19.5 1.5
q-10 1 -18 2v173h20q61 0 111 18.5t85.5 59t55 105t19.5 156.5q0 99 -26.5 163.5t-67.5 102t-90.5 52t-96.5 14.5z" />
    <glyph glyph-name="afii10052" unicode="&#x403;" horiz-adv-x="1061" 
d="M354 0h-202v1380h913v-190h-711v-1190zM389 1497l199 264h223l-229 -264h-193z" />
    <glyph glyph-name="afii10053" unicode="&#x404;" horiz-adv-x="1272" 
d="M1004 965q-13 56 -41.5 102t-71.5 78.5t-100.5 50.5t-128.5 18q-171 0 -263 -108t-110 -307h596v-191h-598q15 -216 110.5 -330t264.5 -114q145 0 230.5 68.5t119.5 193.5h207q-16 -98 -61 -181t-117 -143.5t-170 -94.5t-220 -34q-137 0 -244 51t-180 145t-111 226.5
t-38 296.5q0 163 39 295t113.5 225t183 143t248.5 50q118 0 212.5 -33.5t164.5 -92t113.5 -139.5t59.5 -175h-208z" />
    <glyph glyph-name="afii10054" unicode="&#x405;" horiz-adv-x="1180" 
d="M872 987q-8 115 -85.5 173.5t-202.5 58.5q-62 0 -113 -14.5t-87 -40t-55.5 -61.5t-19.5 -79q0 -53 23.5 -85t76 -56.5t137.5 -48t208 -58.5q172 -49 259 -139.5t87 -241.5q0 -96 -36.5 -174t-103.5 -133t-162.5 -85t-213.5 -30q-119 0 -213.5 34.5t-162.5 94.5
t-107.5 141.5t-47.5 176.5h211q6 -59 29 -106.5t63 -81t96.5 -52t129.5 -18.5t131 16t98.5 45t62 71t21.5 93q0 59 -26 96t-82 64t-143 51t-208 57q-70 19 -130 51t-104.5 77t-70 105t-25.5 136q0 84 35.5 154t99 120.5t151 78.5t192.5 28q104 0 192.5 -27t153.5 -79.5
t104.5 -131t46.5 -180.5h-209z" />
    <glyph glyph-name="afii10055" unicode="&#x406;" horiz-adv-x="506" 
d="M354 0h-202v1380h202v-1380z" />
    <glyph glyph-name="afii10056" unicode="&#x407;" horiz-adv-x="506" 
d="M354 0h-202v1380h202v-1380zM158 1534h-178v221h178v-221zM528 1534h-180v221h180v-221z" />
    <glyph glyph-name="afii10057" unicode="&#x408;" horiz-adv-x="928" 
d="M193 369q1 -39 14.5 -75.5t38 -65.5t60 -46.5t81.5 -17.5q49 0 86 16.5t61.5 45.5t37 68.5t12.5 86.5v999h202v-999q0 -81 -24 -154.5t-73.5 -129.5t-124.5 -89t-177 -33q-98 0 -171 32.5t-122 87.5t-74.5 126t-29.5 148h203z" />
    <glyph glyph-name="afii10058" unicode="&#x409;" horiz-adv-x="1958" 
d="M899 0v1190h-453v-828q0 -81 -21 -150.5t-65 -121t-111.5 -81t-160.5 -29.5q-17 0 -30.5 1t-22.5 3q-11 2 -19 4v176h31q99 0 148 50.5t49 150.5v1015h858v-557h356q76 0 138 -18t110.5 -48t84 -70.5t58.5 -86t34 -93t11 -91.5q0 -70 -25 -144t-78.5 -134.5t-136 -99
t-196.5 -38.5h-559zM1458 190q62 0 106 20t72 52t41 72.5t13 81.5q0 40 -13 78.5t-41 69.5t-72 50t-106 19h-356v-443h356z" />
    <glyph glyph-name="afii10059" unicode="&#x40a;" horiz-adv-x="2003" 
d="M944 0v608h-590v-608h-202v1380h202v-581h590v581h203v-557h356q76 0 138 -18t110.5 -48t84 -70.5t58.5 -86t34 -93t11 -91.5q0 -70 -25 -144t-78.5 -134.5t-136 -99t-196.5 -38.5h-559zM1503 190q62 0 106 21t72 53.5t41 72.5t13 79q0 37 -13 76t-41 70t-72 51t-106 20
h-356v-443h356z" />
    <glyph glyph-name="afii10060" unicode="&#x40b;" horiz-adv-x="1423" 
d="M1053 1190h-406v-287q24 25 56.5 44t70 32t79.5 20t85 7q80 0 145 -29t111 -80t71 -121.5t25 -154.5v-621h-203v586q0 58 -15.5 102t-42.5 73.5t-64.5 44.5t-81.5 15q-47 0 -89 -13t-74.5 -42.5t-52 -75.5t-20.5 -112v-578h-203v1190h-409v190h1018v-190z" />
    <glyph glyph-name="afii10061" unicode="&#x40c;" horiz-adv-x="1257" 
d="M354 719l594 661h258l-504 -551l553 -829h-241l-449 680l-211 -231v-449h-202v1380h202v-661zM418 1497l198 264h224l-230 -264h-192z" />
    <glyph glyph-name="afii10062" unicode="&#x40e;" horiz-adv-x="1102" 
d="M274 -20q-17 0 -30 1t-22 3q-11 2 -19 4v176h39q47 0 80 10.5t56.5 29.5t40 43.5t30.5 53.5l-453 1079h219l338 -841l340 841h213l-461 -1095q-11 -26 -25.5 -58.5t-35 -66.5t-48.5 -66.5t-65.5 -57.5t-86 -40.5t-110.5 -15.5zM549 1497q-52 0 -98.5 19t-81.5 53.5
t-55.5 81.5t-20.5 104h143q0 -52 31.5 -86.5t81.5 -34.5q51 0 82 34.5t31 86.5h143q0 -57 -20.5 -104t-55.5 -81.5t-81.5 -53.5t-98.5 -19z" />
    <glyph glyph-name="afii10145" unicode="&#x40f;" horiz-adv-x="1319" 
d="M1167 0h-393v-229h-203v229h-419v1380h202v-1190h611v1190h202v-1380z" />
    <glyph glyph-name="afii10017" unicode="&#x410;" horiz-adv-x="1225" 
d="M897 344h-571l-127 -344h-207l524 1380h195l522 -1380h-207zM397 532h428l-215 574z" />
    <glyph glyph-name="afii10018" unicode="&#x411;" horiz-adv-x="1231" 
d="M152 0v1380h913v-190h-711v-367h377q76 0 138 -18t110.5 -48t84 -70.5t58.5 -86t34 -93t11 -91.5q0 -70 -25 -144t-78.5 -134.5t-136 -99t-196.5 -38.5h-579zM731 190q62 0 106 20t72 52t41 72.5t13 81.5q0 38 -13 77t-41 70t-72 50.5t-106 19.5h-377v-443h377z" />
    <glyph glyph-name="afii10019" unicode="&#x412;" horiz-adv-x="1296" 
d="M748 1380q114 0 193 -32t129 -84.5t72.5 -119t22.5 -136.5q0 -40 -9 -80t-28.5 -77.5t-49.5 -71t-72 -60.5q51 -26 87 -61t59 -75.5t33.5 -84.5t10.5 -88q0 -69 -23 -142t-73 -132.5t-129.5 -97.5t-192.5 -38h-626v1380h596zM354 1190v-383h414q55 0 92.5 19t60 48.5
t32.5 65t10 68.5q0 38 -11 71.5t-36.5 58t-67.5 38.5t-103 14h-391zM354 621v-431h422q61 0 102 20.5t66 52.5t36 71t11 76q0 35 -11 72.5t-36 68t-66 50.5t-102 20h-422z" />
    <glyph glyph-name="afii10020" unicode="&#x413;" horiz-adv-x="1061" 
d="M354 0h-202v1380h913v-190h-711v-1190z" />
    <glyph glyph-name="afii10021" unicode="&#x414;" horiz-adv-x="1356" 
d="M1331 -229h-203v229h-917v-229h-203v419h111q61 57 99.5 146t60.5 216.5t30 297.5t8 389v141h861v-1190h153v-419zM518 1192q0 -201 -8.5 -355t-28 -273.5t-51 -210t-78.5 -163.5h623v1002h-457z" />
    <glyph glyph-name="afii10022" unicode="&#x415;" horiz-adv-x="1180" 
d="M1096 1190h-742v-391h611v-191h-611v-418h742v-190h-944v1380h944v-190z" />
    <glyph glyph-name="afii10024" unicode="&#x416;" horiz-adv-x="2009" 
d="M903 449l-211 231l-448 -680h-242l553 829l-504 551h258l594 -661v661h203v-661l594 661h258l-504 -551l553 -829h-242l-448 680l-211 -231v-449h-203v449z" />
    <glyph glyph-name="afii10025" unicode="&#x417;" horiz-adv-x="1157" 
d="M565 1219q-60 0 -106 -16.5t-78.5 -46t-51.5 -70.5t-24 -91h-209q7 78 38.5 151.5t89 131t142.5 92.5t199 35q108 0 191.5 -30.5t139.5 -82t85 -118.5t29 -140q0 -54 -13.5 -99.5t-36 -83t-52.5 -66.5t-62 -50q42 -24 79.5 -55.5t66 -73t45 -93t16.5 -114.5
q0 -43 -12.5 -91t-38 -95t-65 -90.5t-94 -77t-124 -53t-156.5 -19.5q-120 0 -213.5 39t-158 102t-99.5 143t-39 163h211q6 -49 25 -96t54.5 -83.5t88.5 -58.5t127 -22q67 0 120.5 19t91 52.5t57.5 79.5t20 101q0 53 -20 95.5t-56 72.5t-87 46.5t-112 16.5h-88v168h80
q52 0 96.5 15.5t76 43t49.5 65t18 81.5q0 46 -16.5 83.5t-48 64t-76 41t-99.5 14.5z" />
    <glyph glyph-name="afii10026" unicode="&#x418;" horiz-adv-x="1321" 
d="M152 1380h202v-1011l613 1011h202v-1380h-202v1016l-613 -1016h-202v1380z" />
    <glyph glyph-name="afii10027" unicode="&#x419;" horiz-adv-x="1321" 
d="M152 1380h202v-1011l613 1011h202v-1380h-202v1016l-613 -1016h-202v1380zM659 1497q-52 0 -98.5 19t-81.5 53.5t-55.5 81.5t-20.5 104h144q0 -52 31.5 -86.5t80.5 -34.5q51 0 82 34.5t31 86.5h143q0 -57 -20.5 -104t-55 -81.5t-81.5 -53.5t-99 -19z" />
    <glyph glyph-name="afii10028" unicode="&#x41a;" horiz-adv-x="1257" 
d="M354 719l594 661h258l-504 -551l553 -829h-241l-449 680l-211 -231v-449h-202v1380h202v-661z" />
    <glyph glyph-name="afii10029" unicode="&#x41b;" horiz-adv-x="1274" 
d="M88 -20q-17 0 -30.5 1t-22.5 3q-11 2 -19 4v174h31q99 0 148 51.5t49 151.5v1015h878v-1380h-202v1190h-474v-828q0 -81 -21 -150.5t-65 -121t-111.5 -81t-160.5 -29.5z" />
    <glyph glyph-name="afii10030" unicode="&#x41c;" horiz-adv-x="1606" 
d="M1454 0h-203v969l-366 -830h-164l-367 830v-969h-202v1380h225l426 -1003l426 1003h225v-1380z" />
    <glyph glyph-name="afii10031" unicode="&#x41d;" horiz-adv-x="1319" 
d="M1167 0h-202v608h-611v-608h-202v1380h202v-581h611v581h202v-1380z" />
    <glyph glyph-name="afii10032" unicode="&#x41e;" horiz-adv-x="1321" 
d="M662 1405q147 0 256 -56t181 -151.5t108 -222t36 -268.5q0 -164 -37 -299t-110.5 -232t-183.5 -150t-255 -53q-143 0 -251.5 52.5t-181 147.5t-109.5 229t-37 298q0 161 39.5 291.5t114.5 222.5t183.5 141.5t246.5 49.5zM657 1214q-92 0 -162 -34t-117 -99.5t-71 -161
t-24 -219.5q0 -128 24 -228t71 -168.5t117 -104t162 -35.5q97 0 168.5 36t118.5 105t70.5 169t23.5 228q0 111 -22.5 204.5t-69.5 162t-118.5 107t-170.5 38.5z" />
    <glyph glyph-name="afii10033" unicode="&#x41f;" horiz-adv-x="1319" 
d="M1167 0h-202v1190h-611v-1190h-202v1380h1015v-1380z" />
    <glyph glyph-name="afii10034" unicode="&#x420;" horiz-adv-x="1231" 
d="M731 1380q114 0 196.5 -38.5t136 -99t78.5 -134t25 -143.5q0 -67 -25 -139t-78.5 -132t-136 -98.5t-196.5 -38.5h-377v-557h-202v1380h579zM354 1190v-442h377q62 0 106 21t72 53.5t41 70.5t13 72q0 35 -13 74.5t-41 73t-72 55.5t-106 22h-377z" />
    <glyph glyph-name="afii10035" unicode="&#x421;" horiz-adv-x="1272" 
d="M1004 965q-13 56 -41.5 102t-71.5 78.5t-100.5 50.5t-128.5 18q-96 0 -167 -34.5t-118.5 -101t-70.5 -164t-23 -222.5q0 -255 97 -391.5t282 -136.5q145 0 230.5 68.5t119.5 193.5h207q-16 -98 -61 -181t-116.5 -143.5t-168 -94.5t-214.5 -34q-141 0 -249.5 51t-182 145
t-111.5 226.5t-38 296.5q0 163 39 295t113.5 225t183 143t248.5 50q118 0 212.5 -33.5t164.5 -92t113.5 -139.5t59.5 -175h-208z" />
    <glyph glyph-name="afii10036" unicode="&#x422;" horiz-adv-x="1087" 
d="M1053 1190h-406v-1190h-203v1190h-409v190h1018v-190z" />
    <glyph glyph-name="afii10037" unicode="&#x423;" horiz-adv-x="1102" 
d="M274 -20q-17 0 -30 1t-22 3q-11 2 -19 4v176h39q47 0 80 10.5t56.5 29.5t40 43.5t30.5 53.5l-453 1079h219l338 -841l340 841h213l-461 -1095q-11 -26 -25.5 -58.5t-35 -66.5t-48.5 -66.5t-65.5 -57.5t-86 -40.5t-110.5 -15.5z" />
    <glyph glyph-name="afii10038" unicode="&#x424;" horiz-adv-x="1462" 
d="M829 1303q129 -14 234.5 -63t180 -127.5t115 -183.5t40.5 -231t-41 -231t-116 -184t-180 -128t-233 -63v-194h-200v196q-128 14 -232 63t-178.5 128t-115 183.5t-40.5 229.5t40.5 230t114.5 183.5t178.5 127.5t232.5 64v186h200v-186zM1194 698q0 81 -24 151.5t-70 125
t-114.5 90.5t-156.5 49v-833q88 13 156.5 49t114.5 91t70 125.5t24 151.5zM268 698q0 -81 23.5 -151t69 -124t113 -90.5t155.5 -49.5v831q-88 -14 -155.5 -50.5t-113 -91t-69 -124t-23.5 -150.5z" />
    <glyph glyph-name="afii10039" unicode="&#x425;" horiz-adv-x="1044" 
d="M528 877l297 503h232l-412 -684l428 -696h-229l-320 520l-317 -520h-230l433 705l-420 675h229z" />
    <glyph glyph-name="afii10040" unicode="&#x426;" horiz-adv-x="1356" 
d="M1331 -229h-203v229h-976v1380h202v-1190h611v1190h202v-1190h164v-419z" />
    <glyph glyph-name="afii10041" unicode="&#x427;" horiz-adv-x="1251" 
d="M104 1380h203v-399q0 -54 16.5 -97t48 -73t75.5 -46.5t100 -16.5h350v632h203v-1380h-203v557h-350q-92 0 -173 29t-141 84t-94.5 133.5t-34.5 177.5v399z" />
    <glyph glyph-name="afii10042" unicode="&#x428;" horiz-adv-x="1688" 
d="M944 190h389v1190h203v-1380h-1384v1380h202v-1190h389v1190h201v-1190z" />
    <glyph glyph-name="afii10043" unicode="&#x429;" horiz-adv-x="1722" 
d="M1698 -229h-203v229h-1343v1380h202v-1190h389v1190h201v-1190h389v1190h203v-1190h162v-419z" />
    <glyph glyph-name="afii10044" unicode="&#x42a;" horiz-adv-x="1329" 
d="M-25 1380h478v-557h376q76 0 138.5 -18t111 -48t84 -70.5t58.5 -86t34 -93t11 -91.5q0 -70 -25.5 -144t-78.5 -134.5t-135.5 -99t-197.5 -38.5h-579v1190h-275v190zM829 190q62 0 106 20.5t72 53t41 73t13 79.5q0 38 -13 77t-41 70t-72 50.5t-106 19.5h-376v-443h376z
" />
    <glyph glyph-name="afii10045" unicode="&#x42b;" horiz-adv-x="1737" 
d="M152 0v1380h202v-557h377q76 0 138 -18t110.5 -48t84 -70.5t58.5 -86t34 -93t11 -91.5q0 -70 -25 -144t-78.5 -134.5t-136 -99t-196.5 -38.5h-579zM731 190q62 0 106 20.5t72 53t41 73t13 79.5q0 37 -13 75.5t-41 70t-72 51.5t-106 20h-377v-443h377zM1585 0h-203v1380
h203v-1380z" />
    <glyph glyph-name="afii10046" unicode="&#x42c;" horiz-adv-x="1231" 
d="M152 0v1380h202v-557h377q76 0 138 -18t110.5 -48t84 -70.5t58.5 -86t34 -93t11 -91.5q0 -70 -25 -144t-78.5 -134.5t-136 -99t-196.5 -38.5h-579zM731 190q62 0 106 20.5t72 53t41 73t13 79.5q0 37 -13 75.5t-41 70t-72 51.5t-106 20h-377v-443h377z" />
    <glyph glyph-name="afii10047" unicode="&#x42d;" horiz-adv-x="1272" 
d="M59 965q16 94 60 175t113.5 139.5t164.5 92t213 33.5q140 0 248.5 -50t183 -143t113.5 -225t39 -295q0 -164 -38 -296.5t-111 -226.5t-180 -145t-244 -51q-122 0 -220 34t-170 94.5t-117 143.5t-61 181h207q34 -125 119.5 -193.5t230.5 -68.5q169 0 264.5 114t110.5 330
h-598v191h596q-9 100 -36.5 177t-74 130t-112 80.5t-150.5 27.5q-71 0 -128.5 -18t-100.5 -50.5t-71.5 -78.5t-41.5 -102h-209z" />
    <glyph glyph-name="afii10048" unicode="&#x42e;" horiz-adv-x="1810" 
d="M354 799h219q12 139 56 251.5t118 191t176 121t230 42.5q147 0 256 -56t181.5 -151.5t108.5 -222t36 -268.5q0 -164 -37 -299t-110.5 -232t-183.5 -150t-255 -53q-133 0 -236 45t-175.5 128t-114.5 200.5t-52 261.5h-217v-608h-202v1380h202v-581zM1149 1214
q-92 0 -162.5 -34t-117.5 -99.5t-71 -161t-24 -219.5q0 -128 24 -228t71 -168.5t117.5 -104t162.5 -35.5q97 0 168.5 36t118.5 105t70.5 169t23.5 228q0 111 -22.5 204.5t-69.5 162t-119 107t-170 38.5z" />
    <glyph glyph-name="afii10049" unicode="&#x42f;" horiz-adv-x="1278" 
d="M1126 1380v-1380h-202v557h-330l-320 -557h-231l338 582q-72 24 -124 66.5t-86 95t-50.5 110t-16.5 111.5q0 70 25.5 143.5t78.5 134t136 99t197 38.5h585zM541 1190q-62 0 -106 -20.5t-72 -53t-41 -72.5t-13 -79q0 -37 13 -75.5t41.5 -70t73 -51.5t106.5 -20h381v442
h-383z" />
    <glyph glyph-name="afii10065" unicode="&#x430;" horiz-adv-x="1081" 
d="M76 512q0 108 32.5 198.5t90.5 156t138 102.5t175 37q72 0 133.5 -24t106.5 -69v78h188v-768q0 -37 21 -51t55 -14h14v-156q-6 -2 -16 -4q-8 -2 -20 -3t-29 -1q-69 0 -117.5 26t-73.5 86q-48 -58 -118.5 -88t-151.5 -30q-103 0 -183 38t-134.5 107t-82.5 165.5t-28 213.5
zM266 508q0 -168 61 -257t189 -89q114 0 180 81.5t66 252.5t-61.5 253t-180.5 82q-58 0 -105 -21.5t-80 -63t-51 -101.5t-18 -137z" />
    <glyph glyph-name="afii10066" unicode="&#x431;" horiz-adv-x="1026" 
d="M852 1401v-19q0 -26 -12.5 -61t-42.5 -67.5t-80 -56t-125 -26.5q-15 -1 -26.5 -1.5t-22 -0.5t-21 -0.5t-24.5 -1.5q-59 -3 -98.5 -29.5t-64.5 -65t-36.5 -84t-15.5 -87.5q13 14 34.5 32t52.5 34.5t71.5 27.5t93.5 11q88 0 164 -35t132.5 -100t88.5 -158t32 -209
q0 -121 -31.5 -216.5t-89.5 -162t-139 -102t-180 -35.5q-115 0 -197.5 41t-135.5 114.5t-78 176t-25 225.5q0 220 28 369t81.5 240.5t131.5 133t179 47.5q12 1 20.5 1.5t17.5 0.5t20.5 0.5t29.5 1.5q26 1 41.5 7.5t23.5 16t11 20t4 18.5h188zM514 162q124 0 186 82.5
t62 257.5q0 76 -15.5 137t-47 103.5t-78 65.5t-107.5 23q-116 0 -183 -81.5t-67 -247.5q0 -170 68 -255t182 -85z" />
    <glyph glyph-name="afii10067" unicode="&#x432;" horiz-adv-x="1044" 
d="M938 725q0 -69 -35 -125t-106 -88q74 -37 116.5 -97t42.5 -134q0 -65 -25 -116.5t-72.5 -88.5t-115.5 -56.5t-155 -19.5h-453v991h449q90 0 157 -21.5t110.5 -58.5t65 -85t21.5 -101zM324 426v-252h264q38 0 70.5 7.5t56.5 23.5t37.5 39t13.5 55q0 26 -10 49t-31.5 40.5
t-55 27.5t-79.5 10h-266zM324 819v-221h266q84 0 119.5 34t35.5 85q0 49 -41 75.5t-124 26.5h-256z" />
    <glyph glyph-name="afii10068" unicode="&#x433;" horiz-adv-x="852" 
d="M324 819v-819h-189v991h709v-172h-520z" />
    <glyph glyph-name="afii10069" unicode="&#x434;" horiz-adv-x="1145" 
d="M967 172h137v-401h-186v231h-719v-231h-187v401h119q43 47 65 115t31.5 159t10 204.5t0.5 250.5v90h729v-819zM424 819q0 -142 -3.5 -243t-13 -175t-27.5 -127.5t-46 -101.5h444v647h-354z" />
    <glyph glyph-name="afii10070" unicode="&#x435;" horiz-adv-x="1018" 
d="M922 301q-44 -152 -145.5 -232.5t-262.5 -80.5q-103 0 -184.5 34t-138.5 98.5t-87 159t-30 216.5t32.5 217t91 160t139 99t175.5 34q109 0 190 -38.5t135 -106t80.5 -159.5t26.5 -198q0 -26 -2 -48t-2 -24h-672q6 -76 27 -128t53.5 -83.5t75 -45t90.5 -13.5
q78 0 134 32.5t81 106.5h193zM510 834q-48 0 -89.5 -17t-73 -48.5t-51 -76t-24.5 -98.5h476q-4 51 -19.5 94.5t-44.5 76t-72 51t-102 18.5z" />
    <glyph glyph-name="afii10072" unicode="&#x436;" horiz-adv-x="1473" 
d="M1079 590l408 -590h-234l-307 457l-115 -119v-338h-190v338l-115 119l-307 -457h-233l407 590l-370 401h233l385 -413v413h190v-413l386 413h233z" />
    <glyph glyph-name="afii10073" unicode="&#x437;" horiz-adv-x="958" 
d="M88 682q12 73 42.5 133t79 102.5t115 65.5t150.5 23q91 0 160.5 -25t116.5 -65.5t71.5 -92.5t24.5 -106q0 -72 -30 -121.5t-95 -83.5q69 -35 108 -93.5t39 -129.5q0 -70 -28 -126t-79.5 -95t-123 -59.5t-158.5 -20.5q-80 0 -150 23t-125 66t-92.5 105t-52.5 140h193
q15 -75 76 -118.5t151 -43.5q42 0 78 8.5t63 26t42.5 43t15.5 59.5q0 62 -53.5 96.5t-143.5 34.5h-34v170h28q95 0 136.5 31t41.5 82q0 24 -11.5 46t-34 39t-56 27.5t-76.5 10.5q-45 0 -78.5 -9.5t-56.5 -29t-38 -48t-23 -65.5h-193z" />
    <glyph glyph-name="afii10074" unicode="&#x438;" horiz-adv-x="1081" 
d="M324 991v-692l434 692h188v-991h-188v678l-434 -678h-189v991h189z" />
    <glyph glyph-name="afii10075" unicode="&#x439;" horiz-adv-x="1081" 
d="M324 991v-692l434 692h188v-991h-188v678l-434 -678h-189v991h189zM541 1120q-53 0 -99.5 19t-81 53.5t-55 81.5t-20.5 104h143q0 -52 31.5 -86.5t81.5 -34.5q51 0 81.5 34.5t30.5 86.5h144q0 -57 -20.5 -104t-55.5 -81.5t-81.5 -53.5t-98.5 -19z" />
    <glyph glyph-name="afii10076" unicode="&#x43a;" horiz-adv-x="965" 
d="M571 590l408 -590h-234l-307 457l-114 -119v-338h-189v991h189v-413l385 413h233z" />
    <glyph glyph-name="afii10077" unicode="&#x43b;" horiz-adv-x="1090" 
d="M954 991v-991h-188v819h-373v-538q0 -84 -23 -139.5t-60.5 -88t-85.5 -46t-99 -13.5q-17 0 -29 1.5t-21 3.5q-11 2 -18 5v160h33q54 0 84.5 24.5t30.5 81.5v721h749z" />
    <glyph glyph-name="afii10078" unicode="&#x43c;" horiz-adv-x="1305" 
d="M336 991l317 -678l316 678h200v-991h-188v657l-258 -557h-141l-258 553v-653h-189v991h201z" />
    <glyph glyph-name="afii10079" unicode="&#x43d;" horiz-adv-x="1081" 
d="M324 991v-377h434v377h188v-991h-188v442h-434v-442h-189v991h189z" />
    <glyph glyph-name="afii10080" unicode="&#x43e;" horiz-adv-x="1026" 
d="M516 1006q102 0 183 -38t138 -105t87 -159t30 -200q0 -122 -31.5 -217.5t-89 -162t-139.5 -101.5t-182 -35q-104 0 -185.5 35t-138 101.5t-86.5 162t-30 217.5q0 117 33 210.5t91.5 158t140 99t179.5 34.5zM514 162q124 0 187 82.5t63 257.5q0 76 -16 137t-47.5 103.5
t-78.5 65.5t-108 23q-58 0 -104.5 -20.5t-79.5 -61.5t-50.5 -102.5t-17.5 -144.5q0 -175 63.5 -257.5t188.5 -82.5z" />
    <glyph glyph-name="afii10081" unicode="&#x43f;" horiz-adv-x="1061" 
d="M926 991v-991h-189v819h-413v-819h-189v991h791z" />
    <glyph glyph-name="afii10082" unicode="&#x440;" horiz-adv-x="1055" 
d="M573 -12q-75 0 -139 29t-110 81v-460h-189v1353h189v-94q46 53 110 81t139 28q95 0 171 -37.5t128.5 -104.5t80.5 -160.5t28 -205.5q0 -111 -27 -205t-79 -161.5t-128 -105.5t-174 -38zM559 831q-124 0 -183 -81t-59 -248q0 -171 61.5 -256.5t180.5 -85.5q62 0 106 23.5
t72 67.5t41 107.5t13 143.5q0 155 -57.5 242t-174.5 87z" />
    <glyph glyph-name="afii10083" unicode="&#x441;" horiz-adv-x="985" 
d="M522 162q90 0 142 42.5t67 117.5h193q-15 -78 -49 -140t-85.5 -105t-118.5 -66t-147 -23q-104 0 -187 34.5t-141.5 99.5t-90 159.5t-31.5 214.5t32.5 215t91.5 160.5t141 100t181 34.5q86 0 155 -25t119.5 -69.5t82 -105.5t43.5 -134h-193q-17 74 -67.5 116.5
t-141.5 42.5q-117 0 -185.5 -82.5t-68.5 -252.5q0 -172 65.5 -253t192.5 -81z" />
    <glyph glyph-name="afii10084" unicode="&#x442;" horiz-adv-x="907" 
d="M559 819v-819h-188v819h-334v172h833v-172h-311z" />
    <glyph glyph-name="afii10085" unicode="&#x443;" horiz-adv-x="907" 
d="M481 -199q-29 -86 -87.5 -130t-166.5 -44q-32 0 -51 3q-11 1 -20 3v168h71q21 0 35.5 5.5t25 16t17.5 25.5t14 35l41 113l-352 995h207l242 -729l237 729h205z" />
    <glyph glyph-name="afii10086" unicode="&#x444;" horiz-adv-x="1655" 
d="M489 1006q73 0 135.5 -26t110.5 -77v477h189v-483q46 53 110 81t140 28q95 0 170.5 -37.5t128 -104.5t80.5 -160.5t28 -205.5q0 -111 -27 -205t-79 -161.5t-128 -105.5t-173 -38q-76 0 -140 29t-110 81v-460h-189v456q-48 -51 -110.5 -78.5t-135.5 -27.5q-99 0 -176 37.5
t-130.5 106.5t-81 165.5t-27.5 214.5q0 105 28.5 195t82 156.5t130.5 104.5t174 38zM506 162q121 0 179 83t58 251q0 171 -61 253t-176 82q-60 0 -105.5 -23.5t-75.5 -66t-45.5 -102t-15.5 -131.5q0 -166 58.5 -256t183.5 -90zM1159 831q-124 0 -182.5 -81t-58.5 -248
q0 -171 61 -256.5t180 -85.5q62 0 106 23.5t72 67.5t41 107.5t13 143.5q0 155 -57.5 242t-174.5 87z" />
    <glyph glyph-name="afii10087" unicode="&#x445;" horiz-adv-x="913" 
d="M31 991h221l207 -315l217 315h219l-330 -475l348 -516h-219l-235 358l-244 -358h-215l348 514z" />
    <glyph glyph-name="afii10088" unicode="&#x446;" horiz-adv-x="1083" 
d="M1063 -229h-186v229h-742v991h189v-819h413v819h189v-819h137v-401z" />
    <glyph glyph-name="afii10089" unicode="&#x447;" horiz-adv-x="1018" 
d="M459 399q-84 0 -151.5 25.5t-115.5 73t-74 115.5t-26 153v225h189v-215q0 -99 50.5 -152t147.5 -53h215v420h189v-991h-189v399h-235z" />
    <glyph glyph-name="afii10090" unicode="&#x448;" horiz-adv-x="1520" 
d="M860 991v-819h336v819h188v-991h-1249v991h189v-819h348v819h188z" />
    <glyph glyph-name="afii10091" unicode="&#x449;" horiz-adv-x="1542" 
d="M1522 -229h-187v229h-1200v991h189v-819h348v819h188v-819h336v819h188v-819h138v-401z" />
    <glyph glyph-name="afii10092" unicode="&#x44a;" horiz-adv-x="1090" 
d="M-25 819v172h394v-348h260q87 0 156 -24.5t118 -67.5t75 -102t26 -127q0 -69 -26 -127.5t-75 -102t-118 -68t-156 -24.5h-449v823l-2 -4h-203zM639 172q84 0 129 40.5t45 109.5q0 71 -45 110t-141 39h-258v-299h270z" />
    <glyph glyph-name="afii10093" unicode="&#x44b;" horiz-adv-x="1458" 
d="M135 0v991h189v-348h260q87 0 156 -24.5t117.5 -67.5t74.5 -102t26 -127q0 -69 -26 -127.5t-74.5 -102t-117.5 -68t-156 -24.5h-449zM594 172q84 0 129 40.5t45 109.5q0 71 -45 110t-141 39h-258v-299h270zM1323 991v-991h-188v991h188z" />
    <glyph glyph-name="afii10094" unicode="&#x44c;" horiz-adv-x="1024" 
d="M135 0v991h189v-348h260q87 0 156 -24.5t117.5 -67.5t74.5 -102t26 -127q0 -69 -26 -127.5t-74.5 -102t-117.5 -68t-156 -24.5h-449zM594 172q84 0 129 40.5t45 109.5q0 71 -45 110t-141 39h-258v-299h270z" />
    <glyph glyph-name="afii10095" unicode="&#x44d;" horiz-adv-x="985" 
d="M463 162q111 0 175.5 62.5t78.5 193.5h-328v176h326q-20 120 -85 178.5t-163 58.5q-91 0 -141.5 -42.5t-67.5 -116.5h-192q11 73 42.5 134t82 105.5t119.5 69.5t155 25q99 0 181 -34.5t141 -100t91.5 -160.5t32.5 -215t-31.5 -214.5t-90 -159.5t-142 -99.5t-186.5 -34.5
q-80 0 -147 23t-118.5 66t-85.5 105t-49 140h193q15 -75 67 -117.5t142 -42.5z" />
    <glyph glyph-name="afii10096" unicode="&#x44e;" horiz-adv-x="1450" 
d="M326 614h178q14 92 51.5 165t93.5 123.5t129.5 77t159.5 26.5q103 0 184.5 -38t138.5 -105t87 -159t30 -200q0 -122 -31 -217.5t-88.5 -162t-139 -101.5t-181.5 -35q-97 0 -175 30.5t-134.5 89t-90 143t-40.5 191.5h-172v-442h-189v991h189v-377zM938 162q124 0 187 82.5
t63 257.5q0 76 -16 137t-47.5 103.5t-78.5 65.5t-108 23q-58 0 -104.5 -20.5t-79.5 -61.5t-50.5 -102.5t-17.5 -144.5q0 -175 63.5 -257.5t188.5 -82.5z" />
    <glyph glyph-name="afii10097" unicode="&#x44f;" horiz-adv-x="1024" 
d="M920 991v-991h-189v348h-252l-203 -348h-210l233 381q-96 40 -149.5 116t-53.5 173q0 68 27.5 127t78 102t121.5 67.5t158 24.5h439zM461 819q-84 0 -129 -40.5t-45 -108.5q0 -72 45 -112t141 -40h258v301h-270z" />
    <glyph glyph-name="afii10071" unicode="&#x451;" horiz-adv-x="1018" 
d="M922 301q-44 -152 -145.5 -232.5t-262.5 -80.5q-103 0 -184.5 34t-138.5 98.5t-87 159t-30 216.5t32.5 217t91 160t139 99t175.5 34q109 0 190 -38.5t135 -106t80.5 -159.5t26.5 -198q0 -26 -2 -48t-2 -24h-672q6 -76 27 -128t53.5 -83.5t75 -45t90.5 -13.5
q78 0 134 32.5t81 106.5h193zM510 834q-48 0 -89.5 -17t-73 -48.5t-51 -76t-24.5 -98.5h476q-4 51 -19.5 94.5t-44.5 76t-72 51t-102 18.5zM412 1159h-179v221h179v-221zM782 1159h-180v221h180v-221z" />
    <glyph glyph-name="afii10099" unicode="&#x452;" horiz-adv-x="1071" 
d="M606 1092h-276v-195q46 51 112.5 80t165.5 29q87 0 157.5 -38t120.5 -104.5t77.5 -156.5t29.5 -195q1 -120 -26.5 -216.5t-80.5 -165t-128.5 -105.5t-169.5 -37q-11 0 -19 0.5t-14 1.5q-7 1 -12 2v170h20q125 0 182.5 88t57.5 258q0 72 -15.5 132t-45.5 103t-75.5 67
t-105.5 24q-119 0 -176 -83.5t-57 -254.5l2 -496h-189v1092h-135v147h135v141h189v-141h276v-147z" />
    <glyph glyph-name="afii10100" unicode="&#x453;" horiz-adv-x="852" 
d="M324 819v-819h-189v991h709v-172h-520zM322 1116l198 264h223l-229 -264h-192z" />
    <glyph glyph-name="afii10101" unicode="&#x454;" horiz-adv-x="985" 
d="M522 162q90 0 142 42.5t67 117.5h193q-15 -78 -49 -140t-85.5 -105t-118.5 -66t-147 -23q-104 0 -187 34.5t-141.5 99.5t-90 159.5t-31.5 214.5t32.5 215t91.5 160.5t141 100t181 34.5q86 0 155 -25t119.5 -69.5t82 -105.5t43.5 -134h-193q-17 74 -67.5 116.5
t-141.5 42.5q-98 0 -163 -58.5t-85 -178.5h326v-176h-328q14 -131 78.5 -193.5t175.5 -62.5z" />
    <glyph glyph-name="afii10102" unicode="&#x455;" horiz-adv-x="924" 
d="M649 682q-6 72 -53 116t-145 44q-45 0 -76.5 -11.5t-52 -29t-30 -39t-9.5 -41.5q0 -32 15.5 -51t52 -34t96 -31t147.5 -44q55 -18 102.5 -39.5t82 -53t54 -75.5t19.5 -106q0 -65 -25.5 -119.5t-75 -94.5t-123 -62.5t-169.5 -22.5q-88 0 -158 24.5t-120 67.5t-78 102
t-31 127h190q5 -71 55 -112t146 -41q94 0 147.5 30.5t53.5 81.5q0 32 -16 53t-52.5 38t-96 35.5t-147.5 45.5q-55 18 -102 41.5t-81 56t-53.5 76t-19.5 101.5q0 51 21 103t65 94t112 68t163 26q90 0 160 -24.5t118 -68t74.5 -102.5t30.5 -129h-191z" />
    <glyph glyph-name="afii10103" unicode="&#x456;" horiz-adv-x="465" 
d="M326 0h-189v991h189v-991zM328 1145h-193v235h193v-235z" />
    <glyph glyph-name="afii10104" unicode="&#x457;" horiz-adv-x="459" 
d="M135 1159h-178v221h178v-221zM506 1159h-180v221h180v-221zM328 0h-189v991h189v-991z" />
    <glyph glyph-name="afii10105" unicode="&#x458;" horiz-adv-x="465" 
d="M330 1145h-193v235h193v-235zM328 -88q0 -84 -23 -139t-60.5 -88t-86 -46.5t-99.5 -13.5q-39 0 -64 5q-13 2 -24 5v160h54q54 0 84 25t30 82v1089h189v-1079z" />
    <glyph glyph-name="afii10106" unicode="&#x459;" horiz-adv-x="1655" 
d="M766 0v819h-373v-538q0 -84 -23 -139.5t-60.5 -88t-85.5 -46t-99 -13.5q-28 0 -48 5q-11 2 -20 5v160h33q54 0 84.5 24.5t30.5 81.5v721h749v-348h250q87 0 158 -24.5t121.5 -67.5t78 -102t27.5 -127q0 -69 -27.5 -127.5t-78 -102t-121.5 -68t-158 -24.5h-438zM1225 172
q83 0 128.5 40.5t45.5 109.5q0 71 -45.5 110t-141.5 39h-258v-299h271z" />
    <glyph glyph-name="afii10107" unicode="&#x45a;" horiz-adv-x="1649" 
d="M758 0v442h-434v-442h-189v991h189v-377h434v377h190v-348h250q87 0 158 -24.5t121.5 -67.5t78 -102t27.5 -127q0 -69 -27.5 -127.5t-78 -102t-121.5 -68t-158 -24.5h-440zM1225 172q83 0 128.5 40.5t45.5 109.5q0 71 -45.5 110t-141.5 39h-258v-299h271z" />
    <glyph glyph-name="afii10108" unicode="&#x45b;" horiz-adv-x="1044" 
d="M6 1239h135v141h189v-141h276v-147h-276v-189q96 101 256 101q84 0 147 -28t105 -78.5t63 -120.5t21 -154v-623h-189v608q0 58 -14.5 101t-39.5 70.5t-58 41t-70 13.5q-103 0 -162 -71.5t-59 -225.5v-537h-189v1092h-135v147z" />
    <glyph glyph-name="afii10109" unicode="&#x45c;" horiz-adv-x="965" 
d="M571 590l408 -590h-234l-307 457l-114 -119v-338h-189v991h189v-413l385 413h233zM332 1116l198 264h224l-230 -264h-192z" />
    <glyph glyph-name="afii10110" unicode="&#x45e;" horiz-adv-x="907" 
d="M481 -199q-29 -86 -87.5 -130t-166.5 -44q-32 0 -51 3q-11 1 -20 3v168h71q21 0 35.5 5.5t25 16t17.5 25.5t14 35l41 113l-352 995h207l242 -729l237 729h205zM457 1120q-53 0 -99.5 19t-81 53.5t-55 81.5t-20.5 104h143q0 -52 31.5 -86.5t81.5 -34.5q51 0 81.5 34.5
t30.5 86.5h144q0 -57 -20.5 -104t-55.5 -81.5t-81.5 -53.5t-98.5 -19z" />
    <glyph glyph-name="afii10193" unicode="&#x45f;" horiz-adv-x="1061" 
d="M324 991v-819h413v819h189v-991h-293v-229h-189v229h-309v991h189z" />
    <glyph glyph-name="afii10050" unicode="&#x490;" horiz-adv-x="1061" 
d="M1065 1190h-711v-1190h-202v1380h710v230h203v-420z" />
    <glyph glyph-name="afii10098" unicode="&#x491;" horiz-adv-x="852" 
d="M844 819h-520v-819h-189v991h520v230h189v-402z" />
    <glyph glyph-name="afii10846" unicode="&#x4d9;" horiz-adv-x="1018" 
d="M96 692q44 152 145.5 233t262.5 81q103 0 184.5 -34t138.5 -99t87 -159.5t30 -215.5q0 -122 -32.5 -217t-91 -160t-139 -99t-175.5 -34q-109 0 -190 38.5t-135 105.5t-80.5 158.5t-26.5 198.5q0 26 2 48t2 24h672q-6 76 -27 128t-53.5 83.5t-75 45t-90.5 13.5
q-79 0 -134.5 -32t-80.5 -107h-193zM508 160q48 0 89.5 17t73 48t50.5 75.5t24 98.5h-475q4 -51 19.5 -94.5t44.5 -75.5t72 -50.5t102 -18.5z" />
    <glyph glyph-name="Wgrave" unicode="&#x1e80;" horiz-adv-x="1640" 
d="M1284 0h-186l-277 1049l-284 -1049h-181l-356 1380h211l248 -1018l272 1018h178l275 -1015l248 1015h208zM836 1497l-228 264h221l201 -264h-194z" />
    <glyph glyph-name="wgrave" unicode="&#x1e81;" horiz-adv-x="1358" 
d="M1049 0h-166l-205 686l-203 -686h-166l-291 991h205l174 -680l199 680h166l199 -680l176 680h202zM694 1116l-227 264h221l201 -264h-195z" />
    <glyph glyph-name="Wacute" unicode="&#x1e82;" horiz-adv-x="1640" 
d="M1284 0h-186l-277 1049l-284 -1049h-181l-356 1380h211l248 -1018l272 1018h178l275 -1015l248 1015h208zM608 1499l199 264h223l-229 -264h-193z" />
    <glyph glyph-name="wacute" unicode="&#x1e83;" horiz-adv-x="1358" 
d="M1049 0h-166l-205 686l-203 -686h-166l-291 991h205l174 -680l199 680h166l199 -680l176 680h202zM467 1116l199 264h223l-230 -264h-192z" />
    <glyph glyph-name="Wdieresis" unicode="&#x1e84;" horiz-adv-x="1640" 
d="M1284 0h-186l-277 1049l-284 -1049h-181l-356 1380h211l248 -1018l272 1018h178l275 -1015l248 1015h208zM723 1513h-178v222h178v-222zM1094 1513h-181v222h181v-222z" />
    <glyph glyph-name="wdieresis" unicode="&#x1e85;" horiz-adv-x="1358" 
d="M1049 0h-166l-205 686l-203 -686h-166l-291 991h205l174 -680l199 680h166l199 -680l176 680h202zM582 1159h-179v221h179v-221zM952 1159h-180v221h180v-221z" />
    <glyph glyph-name="Ygrave" unicode="&#x1ef2;" horiz-adv-x="1102" 
d="M-4 1380h229l326 -616l330 616h225l-453 -825v-555h-202v555zM567 1497l-227 264h221l201 -264h-195z" />
    <glyph glyph-name="ygrave" unicode="&#x1ef3;" horiz-adv-x="907" 
d="M481 -199q-29 -86 -87.5 -130t-166.5 -44q-32 0 -51 3q-11 1 -20 3v168h71q21 0 35.5 5.5t25 16t17.5 25.5t14 35l41 113l-352 995h207l242 -729l237 729h205zM469 1116l-227 264h221l201 -264h-195z" />
    <glyph glyph-name="endash" unicode="&#x2013;" horiz-adv-x="1202" 
d="M106 643h986v-174h-986v174z" />
    <glyph glyph-name="emdash" unicode="&#x2014;" horiz-adv-x="1550" 
d="M0 645h1550v-174h-1550v174z" />
    <glyph glyph-name="quoteleft" unicode="&#x2018;" horiz-adv-x="510" 
d="M322 952h-162v144q0 76 14.5 132t45.5 93t80.5 56.5t119.5 23.5v-113q-53 -5 -75.5 -39t-22.5 -102v-195z" />
    <glyph glyph-name="quoteright" unicode="&#x2019;" horiz-adv-x="510" 
d="M178 1380h162v-143q0 -77 -12.5 -132t-42.5 -92t-80 -56.5t-125 -24.5v112q53 5 75.5 39.5t22.5 102.5v194z" />
    <glyph glyph-name="quotesinglbase" unicode="&#x201a;" horiz-adv-x="510" 
d="M188 231h162v-143q0 -77 -13 -132.5t-43 -92.5t-80 -57t-124 -25v113q53 5 75.5 40t22.5 103v194z" />
    <glyph glyph-name="quotedblleft" unicode="&#x201c;" horiz-adv-x="848" 
d="M322 952h-162v144q0 76 14.5 132t45.5 93t80.5 56.5t119.5 23.5v-113q-53 -5 -75.5 -39t-22.5 -102v-195zM659 952h-161v144q0 76 14.5 132t45.5 93t80.5 56.5t119.5 23.5v-113q-53 -5 -76 -39t-23 -102v-195z" />
    <glyph glyph-name="quotedblright" unicode="&#x201d;" horiz-adv-x="850" 
d="M178 1380h162v-143q0 -77 -12.5 -132t-42.5 -92t-80 -56.5t-125 -24.5v112q53 5 75.5 39.5t22.5 102.5v194zM518 1380h162v-143q0 -77 -12.5 -132t-42.5 -92t-80 -56.5t-125 -24.5v112q52 5 75 39.5t23 102.5v194z" />
    <glyph glyph-name="quotedblbase" unicode="&#x201e;" horiz-adv-x="850" 
d="M188 231h162v-143q0 -77 -13 -132.5t-43 -92.5t-80 -57t-124 -25v113q53 5 75.5 40t22.5 103v194zM528 231h162v-143q0 -77 -13 -132.5t-43 -92.5t-80 -57t-124 -25v113q53 5 75.5 40t22.5 103v194z" />
    <glyph glyph-name="dagger" unicode="&#x2020;" horiz-adv-x="977" 
d="M578 -158h-181v1026h-297v181h297v452h181v-452h299v-181h-299v-1026z" />
    <glyph glyph-name="daggerdbl" unicode="&#x2021;" horiz-adv-x="1233" 
d="M1071 309h-366v-469h-183v469h-360v191h360v368h-360v191h360v461h183v-461h366v-191h-366v-368h366v-191z" />
    <glyph glyph-name="bullet" unicode="&#x2022;" horiz-adv-x="672" 
d="M162 692q0 36 14 68t38 56t56 38t68 14q37 0 69.5 -14t56.5 -38t38 -56t14 -68q0 -37 -14 -69t-38 -56t-56.5 -37.5t-69.5 -13.5q-36 0 -68 13.5t-56 37.5t-38 56t-14 69z" />
    <glyph glyph-name="ellipsis" unicode="&#x2026;" horiz-adv-x="1475" 
d="M360 272v-272h-194v272h194zM834 272v-272h-195v272h195zM1305 272v-272h-195v272h195z" />
    <glyph glyph-name="perthousand" unicode="&#x2030;" horiz-adv-x="2320" 
d="M397 1403q83 0 138 -35.5t88 -92t47 -127t14 -140.5q0 -41 -5 -86t-17 -89t-33 -84.5t-53 -71.5t-76 -49t-103 -18q-85 0 -141.5 36t-90 93t-47.5 128t-14 141q0 41 5 86t17.5 89t34 84t54 70t77.5 48t105 18zM397 1262q-43 0 -68.5 -25t-39.5 -63t-18.5 -82.5
t-4.5 -83.5q0 -36 3 -80.5t16 -83t39.5 -64.5t72.5 -26q34 0 58 17.5t39 50.5t21.5 80t6.5 106q0 36 -3.5 80t-16 83t-37.5 65t-68 26zM549 0h-158l699 1380h155zM1929 766q83 0 138 -35.5t88 -92t47 -127t14 -140.5q0 -41 -5 -86t-17 -89t-33 -84.5t-53 -71.5t-76 -49
t-103 -18q-85 0 -141.5 36t-90 93t-47.5 128t-14 141q0 41 5 86t17.5 89t34 84t54 70t77.5 48t105 18zM1929 625q-43 0 -68.5 -25t-39.5 -63t-18.5 -82.5t-4.5 -83.5q0 -36 3 -80.5t16 -83t39.5 -64.5t72.5 -26q34 0 58 17.5t39 50.5t21.5 80t6.5 106q0 36 -3.5 80t-16 83
t-37.5 65t-68 26zM1245 766q83 0 138 -35.5t88 -92t47 -127t14 -140.5q0 -41 -5 -86t-17 -89t-33 -84.5t-53 -71.5t-76 -49t-103 -18q-85 0 -141.5 36t-90 93t-47.5 128t-14 141q0 41 5 86t17.5 89t34 84t54 70t77.5 48t105 18zM1245 625q-43 0 -69 -25t-39.5 -63t-18 -82.5
t-4.5 -83.5q0 -36 3 -80.5t16 -83t39.5 -64.5t72.5 -26q34 0 58 17.5t39 50.5t21.5 80t6.5 106q0 36 -3.5 80t-16 83t-37.5 65t-68 26z" />
    <glyph glyph-name="guilsinglleft" unicode="&#x2039;" horiz-adv-x="639" 
d="M383 123l-338 442l338 420h209l-344 -418l342 -444h-207z" />
    <glyph glyph-name="guilsinglright" unicode="&#x203a;" horiz-adv-x="641" 
d="M53 123l340 436l-346 426h211l338 -426l-338 -436h-205z" />
    <glyph glyph-name="fraction" unicode="&#x2044;" horiz-adv-x="430" 
d="M-66 0h-141l705 1380h139z" />
    <glyph glyph-name="zero.superior" unicode="&#x2070;" horiz-adv-x="711" 
d="M358 1614q81 0 134 -35.5t85 -91.5t45 -126t13 -140q0 -41 -4.5 -86t-16 -89t-31.5 -84t-51 -70.5t-74 -48.5t-100 -18q-83 0 -137.5 35.5t-86.5 92t-45 127t-13 141.5q0 40 4.5 85t16.5 88.5t32.5 83.5t52 70t75 48t101.5 18zM358 1489q-48 0 -77 -26.5t-44 -66.5
t-19.5 -87t-4.5 -88q0 -38 3 -85.5t17.5 -89t43.5 -70t81 -28.5q39 0 66 19.5t43.5 55t23.5 86t7 112.5q0 37 -3.5 84t-18 87.5t-42.5 68.5t-76 28z" />
    <glyph glyph-name="four.superior" unicode="&#x2074;" horiz-adv-x="651" 
d="M508 1597v-479h104v-121h-104v-159h-133v159h-352v107l342 493h143zM375 1118v314l-215 -314h215z" />
    <glyph glyph-name="five.superior" unicode="&#x2075;" horiz-adv-x="668" 
d="M211 1026q17 -40 51.5 -60t69.5 -20q62 0 95.5 41.5t33.5 110.5q0 72 -31.5 110.5t-93.5 38.5q-42 0 -73 -16.5t-48 -56.5h-121l47 423h412v-124h-303q-3 -32 -5 -61t-7 -66q27 15 51.5 20.5t58.5 5.5q58 0 104.5 -19.5t79.5 -55.5t50.5 -86t17.5 -111q0 -59 -19.5 -110
t-54.5 -88t-84.5 -58t-109.5 -21q-44 0 -85 12.5t-75 38t-60 63.5t-40 89h139z" />
    <glyph glyph-name="six.superior" unicode="&#x2076;" horiz-adv-x="684" 
d="M463 1413q-21 76 -101 76q-28 0 -53 -15.5t-44 -43t-31.5 -65t-16.5 -81.5q37 32 72.5 48t79.5 16q55 0 100 -20t77.5 -54.5t50 -82t17.5 -101.5q0 -59 -20 -108t-55 -84t-83.5 -54t-105.5 -19q-70 0 -121.5 27t-85.5 74t-50.5 110t-16.5 135q0 98 17.5 179.5t53.5 140
t89.5 91t125.5 32.5q49 0 89 -14.5t70 -41t50 -63.5t29 -82h-137zM350 948q56 0 91.5 35.5t35.5 103.5q0 60 -33.5 100t-93.5 40q-19 0 -41.5 -7t-42 -23t-32.5 -43t-13 -67q0 -27 9 -52t26 -44.5t41 -31t53 -11.5z" />
    <glyph glyph-name="seven.superior" unicode="&#x2077;" horiz-adv-x="586" 
d="M555 1597v-106l-311 -653h-152l322 630h-379v129h520z" />
    <glyph glyph-name="eight.superior" unicode="&#x2078;" horiz-adv-x="702" 
d="M606 1395q0 -47 -20.5 -87t-61.5 -69q48 -32 75.5 -78t27.5 -102q0 -59 -22 -102.5t-60 -73t-88 -44t-105 -14.5q-56 0 -106 14.5t-88 44t-60 73t-22 102.5q0 52 29 100t75 80q-38 29 -60 69t-22 87q0 51 19.5 92t54 69t80.5 43t100 15q53 0 99.5 -15t81 -43t54 -69
t19.5 -92zM354 946q28 0 52 7.5t42 22t28.5 36t10.5 49.5q0 49 -34 82t-99 33q-66 0 -102.5 -33t-36.5 -82q0 -28 11 -49.5t30 -36t44.5 -22t53.5 -7.5zM352 1493q-50 0 -84.5 -26t-34.5 -76q0 -45 33.5 -75t85.5 -30q51 0 83 30t32 75q0 51 -33.5 76.5t-81.5 25.5z" />
    <glyph glyph-name="nine.superior" unicode="&#x2079;" horiz-adv-x="684" 
d="M221 1026q22 -76 101 -76q28 0 53 15.5t44 43t31.5 65t16.5 81.5q-37 -32 -72.5 -47.5t-79.5 -15.5q-55 0 -100 20t-77.5 54.5t-50 81.5t-17.5 102q0 59 20 107.5t55 83.5t83.5 54t105.5 19q70 0 121.5 -27t85.5 -74t50.5 -110t16.5 -135q0 -98 -17.5 -179t-53.5 -140
t-89.5 -91.5t-125.5 -32.5q-50 0 -89.5 14.5t-69.5 41t-50 63.5t-29 82h137zM334 1491q-56 0 -91.5 -35.5t-35.5 -103.5q0 -60 33.5 -100t93.5 -40q19 0 41.5 7t42 23t32.5 43t13 67q0 27 -9 52t-26 44.5t-41 31t-53 11.5z" />
    <glyph glyph-name="parenleft.superior" unicode="&#x207d;" horiz-adv-x="524" 
d="M127 1214q0 112 25 203t56 157q35 77 81 138h145q-49 -67 -88 -146q-17 -34 -32.5 -74t-28 -84.5t-20 -93.5t-7.5 -100t7.5 -100t20 -93.5t28 -84t32.5 -73.5q39 -79 88 -146h-145q-46 59 -81 136q-31 66 -56 157t-25 204z" />
    <glyph glyph-name="parenright.superior" unicode="&#x207e;" horiz-adv-x="524" 
d="M397 1214q0 -113 -25.5 -204t-55.5 -157q-35 -77 -80 -136h-146q49 67 88 146q16 34 32 73.5t28.5 84t20 93.5t7.5 100t-7.5 100t-20 93.5t-28.5 84.5t-32 74q-39 79 -88 146h146q45 -61 80 -138q30 -66 55.5 -157t25.5 -203z" />
    <glyph glyph-name="zero.inferior" unicode="&#x2080;" horiz-adv-x="711" 
d="M358 532q81 0 134 -35t85 -91.5t45 -126.5t13 -140q0 -41 -4.5 -86t-16 -88.5t-31.5 -83.5t-51 -70.5t-74 -48.5t-100 -18q-83 0 -137.5 35.5t-86.5 91.5t-45 126.5t-13 141.5q0 40 4.5 85t16.5 89t32.5 83.5t52 69.5t75 48t101.5 18zM358 408q-48 0 -77 -26.5t-44 -66.5
t-19.5 -87t-4.5 -89q0 -38 3 -85t17.5 -88.5t43.5 -70t81 -28.5q39 0 66 19t43.5 54.5t23.5 86t7 112.5q0 38 -3.5 84.5t-18 87.5t-42.5 69t-76 28z" />
    <glyph glyph-name="one.inferior" unicode="&#x2081;" horiz-adv-x="446" 
d="M205 -244v600l-168 -102v143l192 119h109v-760h-133z" />
    <glyph glyph-name="two.inferior" unicode="&#x2082;" horiz-adv-x="653" 
d="M246 -121h346v-123h-500v119q49 45 97 89q20 19 42 39.5l44 41t42 40.5t37 38q42 43 66 85t24 87q0 49 -26.5 80t-85.5 31q-48 0 -81 -26.5t-38 -76.5h-141q4 50 24.5 92t54.5 72.5t79.5 47.5t101.5 17q62 0 109.5 -18.5t79 -50.5t47.5 -75t16 -91q0 -42 -13.5 -78.5
t-35 -69t-48.5 -61.5t-55 -55z" />
    <glyph glyph-name="three.inferior" unicode="&#x2083;" horiz-adv-x="682" 
d="M207 -39q12 -46 47 -70t80 -24q60 0 96.5 34t36.5 93q0 49 -35 79.5t-92 30.5h-90v111h76q51 0 84.5 26.5t33.5 71.5q0 25 -9 43t-24.5 29.5t-36 17t-44.5 5.5q-38 0 -67.5 -20t-39.5 -60h-139q7 48 29.5 86t55 64.5t74 40t87.5 13.5q53 0 99 -14.5t80 -42t53.5 -69
t19.5 -95.5q0 -46 -20.5 -83.5t-55.5 -63.5q43 -28 71.5 -71t28.5 -99q0 -58 -22 -104t-59 -78.5t-86.5 -50t-104.5 -17.5q-109 0 -178.5 58.5t-92.5 158.5h144z" />
    <glyph glyph-name="four.inferior" unicode="&#x2084;" horiz-adv-x="651" 
d="M508 516v-479h104v-121h-104v-160h-133v160h-352v107l342 493h143zM375 37v313l-215 -313h215z" />
    <glyph glyph-name="five.inferior" unicode="&#x2085;" horiz-adv-x="668" 
d="M211 -55q17 -41 51.5 -60.5t69.5 -19.5q62 0 95.5 41t33.5 110q0 73 -31.5 111.5t-93.5 38.5q-42 0 -73 -17t-48 -57h-121l47 424h412v-125h-303q-3 -32 -5 -61t-7 -66q27 16 51.5 21.5t58.5 5.5q58 0 104.5 -20t79.5 -56t50.5 -86t17.5 -111q0 -59 -19.5 -109.5
t-54.5 -87.5t-84.5 -58t-109.5 -21q-44 0 -85 12.5t-75 38t-60 63.5t-40 89h139z" />
    <glyph glyph-name="six.inferior" unicode="&#x2086;" horiz-adv-x="684" 
d="M463 332q-21 76 -101 76q-28 0 -53 -15.5t-44 -43.5t-31.5 -65.5t-16.5 -80.5q37 32 72.5 47.5t79.5 15.5q55 0 100 -20t77.5 -54.5t50 -81.5t17.5 -102q0 -59 -20 -108t-55 -83.5t-83.5 -53.5t-105.5 -19q-70 0 -121.5 27t-85.5 74t-50.5 110t-16.5 135q0 97 17.5 178.5
t53.5 140t89.5 91t125.5 32.5q49 0 89 -14.5t70 -41t50 -63t29 -81.5h-137zM350 -133q56 0 91.5 35.5t35.5 103.5q0 60 -33.5 99.5t-93.5 39.5q-19 0 -41.5 -6.5t-42 -22.5t-32.5 -43t-13 -67q0 -27 9 -52t26 -44.5t41 -31t53 -11.5z" />
    <glyph glyph-name="seven.inferior" unicode="&#x2087;" horiz-adv-x="586" 
d="M555 516v-106l-311 -654h-152l322 631h-379v129h520z" />
    <glyph glyph-name="eight.inferior" unicode="&#x2088;" horiz-adv-x="702" 
d="M606 313q0 -46 -20.5 -86t-61.5 -69q48 -32 75.5 -78.5t27.5 -102.5q0 -58 -22 -101.5t-60 -73t-88 -44t-105 -14.5q-56 0 -106 14.5t-88 44t-60 73t-22 101.5q0 53 29 101t75 80q-38 29 -60 69t-22 86q0 52 19.5 92.5t54 68.5t80.5 43t100 15q53 0 99.5 -15t81 -43
t54 -68.5t19.5 -92.5zM354 -135q28 0 52 7.5t42 22t28.5 36t10.5 49.5q0 49 -34 81.5t-99 32.5q-66 0 -102.5 -32.5t-36.5 -81.5q0 -28 11 -49.5t30 -36t44.5 -22t53.5 -7.5zM352 412q-51 0 -85 -26t-34 -77q0 -45 33.5 -74.5t85.5 -29.5q51 0 83 29.5t32 74.5
q0 51 -33.5 77t-81.5 26z" />
    <glyph glyph-name="nine.inferior" unicode="&#x2089;" horiz-adv-x="684" 
d="M221 -55q22 -76 101 -76q28 0 53 15.5t44 43t31.5 65t16.5 81.5q-37 -32 -72.5 -48t-79.5 -16q-55 0 -100 20t-77.5 54.5t-50 82t-17.5 101.5q0 59 20 108t55 83.5t83.5 53.5t105.5 19q70 0 121.5 -27t85.5 -73.5t50.5 -110t16.5 -135.5q0 -98 -17.5 -179t-53.5 -139.5
t-89.5 -91t-125.5 -32.5q-50 0 -89.5 14.5t-69.5 41t-50 63.5t-29 82h137zM334 410q-56 0 -91.5 -36t-35.5 -104q0 -60 33.5 -99.5t93.5 -39.5q19 0 41.5 7t42 23t32.5 42.5t13 66.5q0 27 -9 52t-26 44.5t-41 31.5t-53 12z" />
    <glyph glyph-name="parenleft.inferior" unicode="&#x208d;" horiz-adv-x="545" 
d="M156 133q0 112 25 203t55 157q35 77 81 138h146q-49 -67 -88 -146q-17 -34 -32.5 -74t-28 -84.5t-20 -93.5t-7.5 -100t7.5 -100t20 -93.5t28 -84.5t32.5 -74q39 -79 88 -146h-146q-46 60 -81 137q-30 66 -55 157t-25 204z" />
    <glyph glyph-name="parenright.inferior" unicode="&#x208e;" horiz-adv-x="545" 
d="M373 133q0 -113 -25.5 -204t-55.5 -157q-36 -77 -81 -137h-145q49 67 88 146q16 34 32 74t28.5 84.5t20 93.5t7.5 100t-7.5 100t-20 93.5t-28.5 84.5t-32 74q-39 79 -88 146h145q45 -61 81 -138q30 -66 55.5 -157t25.5 -203z" />
    <glyph glyph-name="Euro" unicode="&#x20ac;" horiz-adv-x="1333" 
d="M319 911q19 106 60 196.5t102.5 156.5t145 103.5t188.5 37.5q91 0 165 -27t130 -75t92 -113t51 -141h-198q-17 80 -79.5 126t-158.5 46q-51 0 -98 -16.5t-86 -53.5t-69 -96t-46 -144h414v-133h-428q-5 -42 -4 -83t4 -85h428v-133h-414q15 -95 44 -156t68 -96t86.5 -49
t100.5 -14q94 0 156.5 49t81.5 131h200q-14 -76 -49.5 -142.5t-91 -116t-131 -78t-168.5 -28.5q-111 0 -195.5 33.5t-146 97.5t-100 157t-56.5 212h-231v133h219q-6 83 0 168h-219v133h233z" />
    <glyph glyph-name="afii61352" unicode="&#x2116;" horiz-adv-x="2044" 
d="M1169 0h-202l-613 1016v-1016h-202v1380h202l613 -1011v1011h202v-1380zM1659 1389q73 0 130.5 -26t97.5 -71.5t61.5 -108.5t21.5 -136q0 -84 -22 -149.5t-62.5 -111t-98 -69t-128.5 -23.5q-73 0 -131.5 23.5t-99.5 69t-63 111t-22 149.5q0 81 23 144.5t65 107.5t100 67
t128 23zM1659 825q80 0 121 53.5t41 165.5q0 101 -41 157t-121 56q-75 0 -119.5 -52t-44.5 -161q0 -112 41 -165.5t123 -53.5z" />
    <glyph glyph-name="soundcopyright" unicode="&#x2117;" horiz-adv-x="1597" 
d="M858 1087q66 0 115 -22.5t82 -58t49 -79t16 -85.5q0 -19 -5 -44.5t-17 -53t-31.5 -54t-48.5 -47.5t-68.5 -34t-91.5 -13h-160v-289h-155v780h315zM698 938v-195h160q28 0 48 8.5t32 22.5t17.5 32t5.5 36q0 16 -5.5 33t-17.5 31t-32 23t-48 9h-160zM80 688
q0 99 25.5 190.5t72.5 171t112.5 145t145.5 112.5t172 72.5t191 25.5t191 -25.5t172 -72.5t145.5 -112.5t112.5 -145t72.5 -171t25.5 -190.5t-25.5 -190.5t-72.5 -171t-112.5 -145t-145.5 -112.5t-172 -72.5t-191 -25.5q-100 0 -191.5 25.5t-171.5 72.5t-145.5 112.5
t-112.5 145t-72.5 171t-25.5 190.5zM217 688q0 -120 45.5 -226.5t124.5 -186t185 -125.5t227 -46q120 0 226.5 46t185.5 125.5t125 186t46 226.5q0 121 -46 227t-125 185.5t-185.5 125.5t-226.5 46q-121 0 -227 -46t-185 -125.5t-124.5 -185.5t-45.5 -227z" />
    <glyph glyph-name="trademark" unicode="&#x2122;" horiz-adv-x="1354" 
d="M1106 702v334l-100 -217h-119l-101 221v-338h-151v676h137l174 -379l172 379h135v-676h-147zM371 1237v-535h-152v535h-180v141h512v-141h-180z" />
    <glyph glyph-name="Omega" unicode="&#x2126;" horiz-adv-x="1337" 
d="M668 1212q-99 0 -172.5 -38t-121.5 -103.5t-71.5 -153t-23.5 -186.5q0 -117 23 -216.5t62 -173.5t91.5 -119.5t111.5 -53.5v-168h-473v178h172q-42 45 -77.5 107.5t-61 135t-39.5 153t-14 161.5q0 87 17 171t50 158.5t83 137t116 107.5t148 70.5t180 25.5t180 -25.5
t148 -70.5t115.5 -107.5t83 -137t50.5 -158.5t17 -171q0 -81 -14.5 -161.5t-40 -153t-61 -135t-77.5 -107.5h172v-178h-473v168q59 8 111.5 53.5t92 119.5t62.5 173.5t23 216.5q0 99 -23.5 186.5t-72 153t-121.5 103.5t-172 38z" />
    <glyph glyph-name="partialdiff" unicode="&#x2202;" horiz-adv-x="1026" 
d="M213 1399q12 1 26 3q12 1 29 2t37 1q113 0 204.5 -33t162.5 -93t122.5 -142.5t85 -182t49.5 -211.5t17 -231q0 -124 -30 -221.5t-86 -165t-136 -103.5t-180 -36q-101 0 -181.5 35.5t-136.5 102.5t-86 163t-30 217q0 115 31.5 207t88.5 156.5t137 99t177 34.5
q43 0 87.5 -10t78.5 -30q-21 60 -55 110t-81 85.5t-107.5 55t-133.5 19.5h-90v168zM514 166q118 0 181 83t63 253q0 73 -16 132.5t-47 102.5t-76.5 66.5t-104.5 23.5q-56 0 -101.5 -20.5t-77.5 -61.5t-49.5 -101.5t-17.5 -141.5q0 -170 63 -253t183 -83z" />
    <glyph glyph-name="Delta" unicode="&#x2206;" horiz-adv-x="1214" 
d="M1227 0h-1239l522 1380h195zM262 188h688l-344 918z" />
    <glyph glyph-name="product" unicode="&#x220f;" horiz-adv-x="1305" 
d="M938 2v1186h-573v-1186h-203v1378h981v-1378h-205z" />
    <glyph glyph-name="summation" unicode="&#x2211;" horiz-adv-x="1094" 
d="M342 190h686v-190h-956v168l526 541l-500 503v168h918v-190h-637l473 -481z" />
    <glyph glyph-name="minus" unicode="&#x2212;" horiz-adv-x="1090" 
d="M1026 469h-948v176h948v-176z" />
    <glyph glyph-name="radical" unicode="&#x221a;" horiz-adv-x="1335" 
d="M1106 1370l-479 -1370h-191l-350 991h207l237 -737l433 1284h423v-168h-280z" />
    <glyph glyph-name="infinity" unicode="&#x221e;" horiz-adv-x="1649" 
d="M158 565q0 91 30.5 157t78.5 109t106 63.5t112 20.5q52 0 97.5 -18t85.5 -48.5t76 -70t71 -82.5q42 55 81.5 99.5t80.5 76t84.5 49t93.5 17.5q62 0 122 -25t106.5 -72.5t75 -117t28.5 -158.5t-28.5 -158t-75 -116t-106.5 -71.5t-122 -24.5q-49 0 -92.5 17t-84.5 48
t-80.5 75.5t-80.5 98.5q-37 -48 -73 -88.5t-75.5 -69.5t-84.5 -45t-99 -16t-112 21t-106 64t-78.5 109t-30.5 156zM1157 756q-40 0 -75 -18.5t-66.5 -46.5t-58.5 -61.5t-50 -64.5q22 -32 50 -65.5t59.5 -61t67 -45.5t73.5 -18q21 0 46.5 11.5t47.5 35t37 59.5t15 84t-15 84
t-37 60t-47.5 35.5t-46.5 11.5zM485 395q38 0 72 15.5t64.5 39.5t56.5 54.5t47 60.5q-36 45 -67 77.5t-59.5 53.5t-56 31t-57.5 10q-22 0 -47.5 -10.5t-47 -31.5t-36 -53.5t-14.5 -76.5t14.5 -76t36 -53t47 -31t47.5 -10z" />
    <glyph glyph-name="integral" unicode="&#x222b;" horiz-adv-x="694" 
d="M14 -223h107q52 0 75 26t23 91v1187q0 88 18 147.5t54 96t89.5 52.5t125.5 16q25 0 45 -2t34 -4q17 -3 29 -5v-165h-106q-53 0 -75.5 -26t-22.5 -89v-1190q0 -88 -18 -147t-54 -95t-90 -51.5t-125 -15.5q-21 0 -40.5 1t-34.5 3q-18 2 -34 4v166z" />
    <glyph glyph-name="approxequal" unicode="&#x2248;" horiz-adv-x="1251" 
d="M1067 881q-6 -53 -26.5 -99.5t-54 -81t-79 -55t-100.5 -20.5q-41 0 -89.5 14.5t-97 32.5t-93 32.5t-76.5 14.5q-29 0 -57 -20t-36 -66h-176q9 54 33 100t59.5 79.5t80.5 52t96 18.5q41 0 89.5 -15t97 -32.5t93 -32.5t78.5 -15q37 0 60 25.5t28 67.5h170zM1067 520
q-6 -52 -26.5 -98.5t-54 -81.5t-79 -55.5t-100.5 -20.5q-41 0 -89.5 14.5t-97 32.5t-93 32.5t-76.5 14.5q-29 0 -57 -20t-36 -66h-176q9 55 33 101t59.5 79t80.5 51.5t96 18.5q41 0 89.5 -14.5t97 -32.5t93 -32.5t78.5 -14.5q37 0 60 25t28 67h170z" />
    <glyph glyph-name="notequal" unicode="&#x2260;" horiz-adv-x="1272" 
d="M1085 436h-448l-201 -436h-186l201 436h-267v176h346l91 197h-437v176h518l175 379h188l-176 -379h196v-176h-276l-90 -197h366v-176z" />
    <glyph glyph-name="lessequal" unicode="&#x2264;" horiz-adv-x="1090" 
d="M993 0h-899v174h899v-174zM993 248l-899 397v170l899 379v-188l-696 -277l696 -293v-188z" />
    <glyph glyph-name="greaterequal" unicode="&#x2265;" horiz-adv-x="1090" 
d="M98 174h901v-174h-901v174zM96 436l697 293l-697 277v188l899 -379v-170l-899 -397v188z" />
    <glyph glyph-name="lozenge" unicode="&#x25ca;" horiz-adv-x="1110" 
d="M635 -391h-176l-373 887l391 884h174l373 -884zM561 1141l-285 -645l275 -648l283 648z" />
    <glyph glyph-name="a.alt" unicode="&#xe000;" horiz-adv-x="1020" 
d="M104 715q10 71 41.5 125.5t81 91t115.5 55.5t145 19q105 0 178.5 -29t119.5 -80.5t66.5 -121.5t20.5 -152v-398q0 -37 22.5 -53t57.5 -16h29v-154q-11 -2 -23 -4q-11 -2 -24.5 -3t-28.5 -1q-30 0 -60 7.5t-56 22t-46 36t-30 49.5q-18 -18 -42 -39.5t-59 -40t-83.5 -31
t-114.5 -12.5q-53 0 -111.5 17t-107.5 54t-81 95t-32 139q0 75 27.5 129t77.5 89t120 52.5t154 20.5q47 2 87.5 2h71.5h66v51q0 43 -9.5 80.5t-32 65t-60 43.5t-92.5 16q-50 0 -84.5 -9.5t-56 -26t-33.5 -39.5t-17 -50h-197zM442 147q74 0 121.5 23.5t74.5 60t37.5 81
t10.5 87.5v35q-20 1 -48 1h-61.5t-87.5 -1q-60 -1 -102 -10.5t-68 -27t-37.5 -43t-11.5 -58.5q0 -35 13 -62t36 -46.5t54.5 -29.5t68.5 -10z" />
    <glyph glyph-name="aacute.alt" unicode="&#xe001;" horiz-adv-x="1020" 
d="M104 715q10 71 41.5 125.5t81 91t115.5 55.5t145 19q105 0 178.5 -29t119.5 -80.5t66.5 -121.5t20.5 -152v-398q0 -37 22.5 -53t57.5 -16h29v-154q-11 -2 -23 -4q-11 -2 -24.5 -3t-28.5 -1q-30 0 -60 7.5t-56 22t-46 36t-30 49.5q-18 -18 -42 -39.5t-59 -40t-83.5 -31
t-114.5 -12.5q-53 0 -111.5 17t-107.5 54t-81 95t-32 139q0 75 27.5 129t77.5 89t120 52.5t154 20.5q47 2 87.5 2h71.5h66v51q0 43 -9.5 80.5t-32 65t-60 43.5t-92.5 16q-50 0 -84.5 -9.5t-56 -26t-33.5 -39.5t-17 -50h-197zM442 147q74 0 121.5 23.5t74.5 60t37.5 81
t10.5 87.5v35q-20 1 -48 1h-61.5t-87.5 -1q-60 -1 -102 -10.5t-68 -27t-37.5 -43t-11.5 -58.5q0 -35 13 -62t36 -46.5t54.5 -29.5t68.5 -10zM362 1116l199 264h223l-229 -264h-193z" />
    <glyph glyph-name="agrave.alt" unicode="&#xe002;" horiz-adv-x="1020" 
d="M104 715q10 71 41.5 125.5t81 91t115.5 55.5t145 19q105 0 178.5 -29t119.5 -80.5t66.5 -121.5t20.5 -152v-398q0 -37 22.5 -53t57.5 -16h29v-154q-11 -2 -23 -4q-11 -2 -24.5 -3t-28.5 -1q-30 0 -60 7.5t-56 22t-46 36t-30 49.5q-18 -18 -42 -39.5t-59 -40t-83.5 -31
t-114.5 -12.5q-53 0 -111.5 17t-107.5 54t-81 95t-32 139q0 75 27.5 129t77.5 89t120 52.5t154 20.5q47 2 87.5 2h71.5h66v51q0 43 -9.5 80.5t-32 65t-60 43.5t-92.5 16q-50 0 -84.5 -9.5t-56 -26t-33.5 -39.5t-17 -50h-197zM442 147q74 0 121.5 23.5t74.5 60t37.5 81
t10.5 87.5v35q-20 1 -48 1h-61.5t-87.5 -1q-60 -1 -102 -10.5t-68 -27t-37.5 -43t-11.5 -58.5q0 -35 13 -62t36 -46.5t54.5 -29.5t68.5 -10zM483 1116l-227 264h221l201 -264h-195z" />
    <glyph glyph-name="acircumflex.alt" unicode="&#xe003;" horiz-adv-x="1020" 
d="M104 715q10 71 41.5 125.5t81 91t115.5 55.5t145 19q105 0 178.5 -29t119.5 -80.5t66.5 -121.5t20.5 -152v-398q0 -37 22.5 -53t57.5 -16h29v-154q-11 -2 -23 -4q-11 -2 -24.5 -3t-28.5 -1q-30 0 -60 7.5t-56 22t-46 36t-30 49.5q-18 -18 -42 -39.5t-59 -40t-83.5 -31
t-114.5 -12.5q-53 0 -111.5 17t-107.5 54t-81 95t-32 139q0 75 27.5 129t77.5 89t120 52.5t154 20.5q47 2 87.5 2h71.5h66v51q0 43 -9.5 80.5t-32 65t-60 43.5t-92.5 16q-50 0 -84.5 -9.5t-56 -26t-33.5 -39.5t-17 -50h-197zM442 147q74 0 121.5 23.5t74.5 60t37.5 81
t10.5 87.5v35q-20 1 -48 1h-61.5t-87.5 -1q-60 -1 -102 -10.5t-68 -27t-37.5 -43t-11.5 -58.5q0 -35 13 -62t36 -46.5t54.5 -29.5t68.5 -10zM637 1118l-131 139l-127 -139h-189l220 264h196l219 -264h-188z" />
    <glyph glyph-name="adieresis.alt" unicode="&#xe004;" horiz-adv-x="1020" 
d="M104 715q10 71 41.5 125.5t81 91t115.5 55.5t145 19q105 0 178.5 -29t119.5 -80.5t66.5 -121.5t20.5 -152v-398q0 -37 22.5 -53t57.5 -16h29v-154q-11 -2 -23 -4q-11 -2 -24.5 -3t-28.5 -1q-30 0 -60 7.5t-56 22t-46 36t-30 49.5q-18 -18 -42 -39.5t-59 -40t-83.5 -31
t-114.5 -12.5q-53 0 -111.5 17t-107.5 54t-81 95t-32 139q0 75 27.5 129t77.5 89t120 52.5t154 20.5q47 2 87.5 2h71.5h66v51q0 43 -9.5 80.5t-32 65t-60 43.5t-92.5 16q-50 0 -84.5 -9.5t-56 -26t-33.5 -39.5t-17 -50h-197zM442 147q74 0 121.5 23.5t74.5 60t37.5 81
t10.5 87.5v35q-20 1 -48 1h-61.5t-87.5 -1q-60 -1 -102 -10.5t-68 -27t-37.5 -43t-11.5 -58.5q0 -35 13 -62t36 -46.5t54.5 -29.5t68.5 -10zM401 1159h-178v221h178v-221zM772 1159h-180v221h180v-221z" />
    <glyph glyph-name="atilde.alt" unicode="&#xe005;" horiz-adv-x="1020" 
d="M104 715q10 71 41.5 125.5t81 91t115.5 55.5t145 19q105 0 178.5 -29t119.5 -80.5t66.5 -121.5t20.5 -152v-398q0 -37 22.5 -53t57.5 -16h29v-154q-11 -2 -23 -4q-11 -2 -24.5 -3t-28.5 -1q-30 0 -60 7.5t-56 22t-46 36t-30 49.5q-18 -18 -42 -39.5t-59 -40t-83.5 -31
t-114.5 -12.5q-53 0 -111.5 17t-107.5 54t-81 95t-32 139q0 75 27.5 129t77.5 89t120 52.5t154 20.5q47 2 87.5 2h71.5h66v51q0 43 -9.5 80.5t-32 65t-60 43.5t-92.5 16q-50 0 -84.5 -9.5t-56 -26t-33.5 -39.5t-17 -50h-197zM442 147q74 0 121.5 23.5t74.5 60t37.5 81
t10.5 87.5v35q-20 1 -48 1h-61.5t-87.5 -1q-60 -1 -102 -10.5t-68 -27t-37.5 -43t-11.5 -58.5q0 -35 13 -62t36 -46.5t54.5 -29.5t68.5 -10zM844 1378q-8 -50 -25 -93t-44 -74.5t-65 -49.5t-87 -18q-38 0 -74.5 13t-69.5 29t-61.5 29t-50.5 13q-31 0 -47.5 -21t-22.5 -59
h-152q11 48 28.5 90.5t44.5 73.5t64.5 49t88.5 18q35 0 70 -13t67 -29t61 -29t52 -13q34 0 49.5 24.5t21.5 59.5h152z" />
    <glyph glyph-name="aring.alt" unicode="&#xe006;" horiz-adv-x="1020" 
d="M104 715q10 71 41.5 125.5t81 91t115.5 55.5t145 19q105 0 178.5 -29t119.5 -80.5t66.5 -121.5t20.5 -152v-398q0 -37 22.5 -53t57.5 -16h29v-154q-11 -2 -23 -4q-11 -2 -24.5 -3t-28.5 -1q-30 0 -60 7.5t-56 22t-46 36t-30 49.5q-18 -18 -42 -39.5t-59 -40t-83.5 -31
t-114.5 -12.5q-53 0 -111.5 17t-107.5 54t-81 95t-32 139q0 75 27.5 129t77.5 89t120 52.5t154 20.5q47 2 87.5 2h71.5h66v51q0 43 -9.5 80.5t-32 65t-60 43.5t-92.5 16q-50 0 -84.5 -9.5t-56 -26t-33.5 -39.5t-17 -50h-197zM442 147q74 0 121.5 23.5t74.5 60t37.5 81
t10.5 87.5v35q-20 1 -48 1h-61.5t-87.5 -1q-60 -1 -102 -10.5t-68 -27t-37.5 -43t-11.5 -58.5q0 -35 13 -62t36 -46.5t54.5 -29.5t68.5 -10zM487 1098q-44 0 -81.5 15.5t-66 42.5t-44.5 64.5t-16 82.5q0 44 16 81.5t44.5 64.5t66 42.5t81.5 15.5t82 -15.5t66.5 -42.5
t44.5 -64.5t16 -81.5q0 -45 -16 -82.5t-44.5 -64.5t-66.5 -42.5t-82 -15.5zM487 1202q45 0 73 28t28 73t-28 72.5t-73 27.5t-72.5 -27.5t-27.5 -72.5t27.5 -73t72.5 -28z" />
    <glyph glyph-name="amacron.alt" unicode="&#xe007;" horiz-adv-x="1020" 
d="M104 715q10 71 41.5 125.5t81 91t115.5 55.5t145 19q105 0 178.5 -29t119.5 -80.5t66.5 -121.5t20.5 -152v-398q0 -37 22.5 -53t57.5 -16h29v-154q-11 -2 -23 -4q-11 -2 -24.5 -3t-28.5 -1q-30 0 -60 7.5t-56 22t-46 36t-30 49.5q-18 -18 -42 -39.5t-59 -40t-83.5 -31
t-114.5 -12.5q-53 0 -111.5 17t-107.5 54t-81 95t-32 139q0 75 27.5 129t77.5 89t120 52.5t154 20.5q47 2 87.5 2h71.5h66v51q0 43 -9.5 80.5t-32 65t-60 43.5t-92.5 16q-50 0 -84.5 -9.5t-56 -26t-33.5 -39.5t-17 -50h-197zM442 147q74 0 121.5 23.5t74.5 60t37.5 81
t10.5 87.5v35q-20 1 -48 1h-61.5t-87.5 -1q-60 -1 -102 -10.5t-68 -27t-37.5 -43t-11.5 -58.5q0 -35 13 -62t36 -46.5t54.5 -29.5t68.5 -10zM223 1327h590v-147h-590v147z" />
    <glyph glyph-name="aogonek.alt" unicode="&#xe008;" horiz-adv-x="1020" 
d="M856 -137q0 -54 32.5 -84.5t88.5 -30.5h22v-106q-11 -4 -23 -7q-11 -2 -25 -4t-29 -2q-48 0 -87.5 13.5t-68.5 38t-45 60t-16 79.5q0 63 32.5 113t89.5 73q-40 13 -70 38.5t-44 64.5q-18 -18 -42 -39.5t-59 -40t-83.5 -31t-114.5 -12.5q-53 0 -111.5 17t-107.5 54t-81 95
t-32 139q0 75 27.5 129t77.5 89t120 52.5t154 20.5q47 2 87.5 2h71.5h66v51q0 43 -9.5 80.5t-32 65t-60 43.5t-92.5 16q-50 0 -84.5 -9.5t-56 -26t-33.5 -39.5t-17 -50h-197q10 71 41.5 125.5t81 91t115.5 55.5t145 19q105 0 178.5 -29t119.5 -80.5t66.5 -121.5t20.5 -152
v-398q0 -37 22.5 -53t57.5 -16h29v-154l-2 -2v-10q-59 -3 -91 -36.5t-32 -90.5zM442 147q74 0 121.5 23.5t74.5 60t37.5 81t10.5 87.5v35q-20 1 -48 1h-61.5t-87.5 -1q-60 -1 -102 -10.5t-68 -27t-37.5 -43t-11.5 -58.5q0 -35 13 -62t36 -46.5t54.5 -29.5t68.5 -10z" />
    <glyph glyph-name="abreve.alt" unicode="&#xe009;" horiz-adv-x="1020" 
d="M104 715q10 71 41.5 125.5t81 91t115.5 55.5t145 19q105 0 178.5 -29t119.5 -80.5t66.5 -121.5t20.5 -152v-398q0 -37 22.5 -53t57.5 -16h29v-154q-11 -2 -23 -4q-11 -2 -24.5 -3t-28.5 -1q-30 0 -60 7.5t-56 22t-46 36t-30 49.5q-18 -18 -42 -39.5t-59 -40t-83.5 -31
t-114.5 -12.5q-53 0 -111.5 17t-107.5 54t-81 95t-32 139q0 75 27.5 129t77.5 89t120 52.5t154 20.5q47 2 87.5 2h71.5h66v51q0 43 -9.5 80.5t-32 65t-60 43.5t-92.5 16q-50 0 -84.5 -9.5t-56 -26t-33.5 -39.5t-17 -50h-197zM442 147q74 0 121.5 23.5t74.5 60t37.5 81
t10.5 87.5v35q-20 1 -48 1h-61.5t-87.5 -1q-60 -1 -102 -10.5t-68 -27t-37.5 -43t-11.5 -58.5q0 -35 13 -62t36 -46.5t54.5 -29.5t68.5 -10zM518 1120q-52 0 -98.5 19t-81.5 53.5t-55.5 81.5t-20.5 104h144q0 -52 31.5 -86.5t80.5 -34.5q51 0 82 34.5t31 86.5h143
q0 -57 -20.5 -104t-55.5 -81.5t-81.5 -53.5t-98.5 -19z" />
    <glyph glyph-name="ordfeminine.alt" unicode="&#xe010;" horiz-adv-x="750" 
d="M86 1180q15 103 87.5 156t186.5 53q76 0 129 -20t86 -55.5t47.5 -84t14.5 -105.5v-266q0 -18 12.5 -27.5t32.5 -9.5h29v-116q-8 -3 -19 -5q-9 -2 -20.5 -3t-22.5 -1q-43 0 -80.5 17t-56.5 51q-13 -12 -30.5 -24.5t-41.5 -23t-55 -17.5t-72 -7q-37 0 -79 11.5t-78 37
t-60 65.5t-24 97q0 53 19.5 90.5t55.5 62t85.5 36.5t109.5 14h145v27q0 27 -6 51t-20.5 41t-38 27t-57.5 10q-32 0 -54 -6t-36 -17t-21.5 -26t-11.5 -33h-156zM330 817q48 0 78.5 14.5t48 37.5t24 51.5t6.5 56.5v14h-125q-77 0 -109 -23t-32 -63q0 -42 31 -65t78 -23z" />
    <glyph glyph-name="afii10065.alt" unicode="&#xe011;" horiz-adv-x="1020" 
d="M104 715q10 71 41.5 125.5t81 91t115.5 55.5t145 19q105 0 178.5 -29t119.5 -80.5t66.5 -121.5t20.5 -152v-398q0 -37 22.5 -53t57.5 -16h29v-154q-11 -2 -23 -4q-11 -2 -24.5 -3t-28.5 -1q-30 0 -60 7.5t-56 22t-46 36t-30 49.5q-18 -18 -42 -39.5t-59 -40t-83.5 -31
t-114.5 -12.5q-53 0 -111.5 17t-107.5 54t-81 95t-32 139q0 75 27.5 129t77.5 89t120 52.5t154 20.5q47 2 87.5 2h71.5h66v51q0 43 -9.5 80.5t-32 65t-60 43.5t-92.5 16q-50 0 -84.5 -9.5t-56 -26t-33.5 -39.5t-17 -50h-197zM442 147q74 0 121.5 23.5t74.5 60t37.5 81
t10.5 87.5v35q-20 1 -48 1h-61.5t-87.5 -1q-60 -1 -102 -10.5t-68 -27t-37.5 -43t-11.5 -58.5q0 -35 13 -62t36 -46.5t54.5 -29.5t68.5 -10z" />
    <glyph glyph-name="hyphen.denominator" unicode="&#xf62b;" horiz-adv-x="557" 
d="M76 428h405v-127h-405v127z" />
    <glyph glyph-name="parenleft.denominator" unicode="&#xf62c;" horiz-adv-x="545" 
d="M156 377q0 112 25 203t55 157q35 77 81 137h146q-49 -67 -88 -146q-17 -34 -32.5 -73.5t-28 -84t-20 -93.5t-7.5 -100q0 -52 7.5 -100.5t20 -93.5t28 -84.5t32.5 -73.5q39 -79 88 -146h-146q-46 60 -81 137q-30 66 -55 157t-25 204z" />
    <glyph glyph-name="parenright.denominator" unicode="&#xf62d;" horiz-adv-x="545" 
d="M373 377q0 -113 -25.5 -204t-55.5 -157q-36 -77 -81 -137h-145q49 67 88 146q16 34 32 73.5t28.5 84.5t20 93.5t7.5 100.5q0 51 -7.5 100t-20 93.5t-28.5 84t-32 73.5q-39 79 -88 146h145q45 -60 81 -137q30 -66 55.5 -157t25.5 -203z" />
    <glyph glyph-name="hyphen.numerator" unicode="&#xf630;" horiz-adv-x="557" 
d="M76 1047h405v-127h-405v127z" />
    <glyph glyph-name="parenleft.numerator" unicode="&#xf631;" horiz-adv-x="545" 
d="M156 995q0 112 25 203t55 157q35 77 81 138h146q-49 -67 -88 -146q-17 -34 -32.5 -74t-28 -84.5t-20 -93.5t-7.5 -100t7.5 -100t20 -93.5t28 -84t32.5 -73.5q39 -79 88 -146h-146q-46 59 -81 136q-30 66 -55 157t-25 204z" />
    <glyph glyph-name="parenright.numerator" unicode="&#xf632;" horiz-adv-x="545" 
d="M373 995q0 -113 -25.5 -204t-55.5 -157q-36 -77 -81 -136h-145q49 67 88 146q16 34 32 73.5t28.5 84t20 93.5t7.5 100t-7.5 100t-20 93.5t-28.5 84.5t-32 74q-39 79 -88 146h145q45 -61 81 -138q30 -66 55.5 -157t25.5 -203z" />
    <glyph glyph-name="zeroslash.plf" unicode="&#xf638;" horiz-adv-x="1110" 
d="M557 1397q93 0 164.5 -29t124.5 -80t88.5 -119.5t57 -147.5t31 -164t9.5 -169q0 -74 -8 -155.5t-28 -161t-54 -151.5t-87 -127t-126.5 -87.5t-171.5 -32.5q-94 0 -166.5 29.5t-125.5 80.5t-89 120t-57.5 148.5t-31 165.5t-9.5 171q0 73 8 154t28 160t54.5 150.5t88 126
t127.5 86.5t173 32zM836 686q0 35 -1.5 75.5t-6 83.5t-12.5 86t-21 83l-410 -789q31 -31 73 -48t99 -17q78 0 131.5 36.5t86.5 105t47 165.5t14 219zM557 1210q-63 0 -108 -23.5t-76.5 -63.5t-51 -92.5t-30 -110.5t-14 -118.5t-3.5 -115.5q0 -33 0.5 -70.5t3.5 -77.5t9 -80
t16 -77l404 776q-28 25 -65 39t-85 14z" />
    <glyph glyph-name="zero.plf" unicode="&#xf639;" horiz-adv-x="1139" 
d="M571 1397q93 0 164.5 -29t124.5 -80t89 -119.5t57.5 -147.5t31 -164t9.5 -169q0 -74 -8 -155.5t-28 -161t-54.5 -151.5t-87 -127t-126.5 -87.5t-172 -32.5q-94 0 -166 29.5t-125.5 80.5t-89 120t-57.5 148.5t-31.5 165.5t-9.5 171q0 73 8 154t28 160t54.5 150.5t88 126
t127.5 86.5t173 32zM571 1210q-62 0 -107 -23.5t-76.5 -63.5t-51 -92.5t-30 -110.5t-14 -118.5t-3.5 -115.5q0 -48 2 -105.5t10.5 -116t26.5 -113.5t49 -97.5t78.5 -68t115.5 -25.5q78 0 131.5 36.5t86.5 105t47 165.5t14 219q0 49 -3 106.5t-12.5 116t-28 113t-49.5 96
t-76.5 67t-109.5 25.5z" />
    <glyph glyph-name="two.plf" unicode="&#xf63a;" horiz-adv-x="1018" 
d="M930 182v-182h-848v188q87 78 171 156q36 33 75 70t77 74.5t74 73.5t66 69q78 86 126 171t48 175q0 51 -14.5 94t-43.5 74t-73 48t-103 17q-49 0 -90 -13t-72 -38t-50 -61.5t-23 -83.5h-199q8 84 41.5 154t91 121t137.5 79.5t181 28.5q98 0 175.5 -33t131.5 -89.5
t82.5 -132t28.5 -161.5q0 -75 -23.5 -143t-62 -128.5t-87 -114t-98.5 -99.5l-340 -314h621z" />
    <glyph glyph-name="three.plf" unicode="&#xf63b;" horiz-adv-x="1090" 
d="M270 334q12 -44 35.5 -76.5t56 -54.5t72.5 -32.5t84 -10.5q60 0 109.5 18t84.5 51.5t54.5 80.5t19.5 106q0 51 -20 92.5t-56 71.5t-86.5 46.5t-111.5 16.5h-88v168h80q52 0 96 14.5t75.5 41t49.5 63t18 80.5q0 52 -17.5 90t-48 62.5t-71.5 36t-88 11.5q-41 0 -77 -9.5
t-64 -28t-47.5 -46t-28.5 -63.5h-203q12 78 49.5 139.5t94 105t130 66.5t158.5 23q84 0 159 -25t131 -72.5t89 -115.5t33 -154q0 -54 -12.5 -98.5t-34 -81.5t-50.5 -65.5t-61 -49.5q42 -24 79 -56t64 -72.5t42.5 -89.5t15.5 -107q0 -99 -36.5 -180t-99.5 -138t-148.5 -88
t-182.5 -31q-92 0 -167 25.5t-132.5 73t-96 114t-56.5 148.5h204z" />
    <glyph glyph-name="four.plf" unicode="&#xf63c;" horiz-adv-x="1133" 
d="M885 1370v-893h186v-178h-186v-299h-195v299h-629v168l603 903h221zM690 477v653l-432 -653h432z" />
    </font>
</defs>
</svg>
