<?xml version="1.0" standalone="no"?>
<!DOCTYPE svg PUBLIC "-//W3C//DTD SVG 1.1//EN" "http://www.w3.org/Graphics/SVG/1.1/DTD/svg11.dtd" >
<svg xmlns="http://www.w3.org/2000/svg" xmlns:xlink="http://www.w3.org/1999/xlink" version="1.1">
<metadata>
Created by FontForge 20170731 at Mon Jun 15 18:24:56 2015
 By Aleksey,,,
Copyright (c) by Binnenland, 2007. All rights reserved. This software may not be reproduced, used, displayed, modified, disclosed or transferred without the express written approval of (Binnenland). 
</metadata>
<defs>
<font id="MINISansSerif-Bold" horiz-adv-x="1067" >
  <font-face 
    font-family="MINI Sans Serif"
    font-weight="700"
    font-stretch="normal"
    units-per-em="2048"
    panose-1="2 0 10 6 3 0 0 2 0 4"
    ascent="1536"
    descent="-512"
    x-height="1004"
    cap-height="1380"
    bbox="-197 -481 2552 1870"
    underline-thickness="102"
    underline-position="-307"
    unicode-range="U+000D-FB02"
  />
<missing-glyph horiz-adv-x="614" 
 />
    <glyph glyph-name=".notdef" horiz-adv-x="614" 
 />
    <glyph glyph-name=".null" horiz-adv-x="0" 
 />
    <glyph glyph-name=".null" horiz-adv-x="0" 
 />
    <glyph glyph-name="nonmarkingreturn" unicode="&#xd;" horiz-adv-x="532" 
 />
    <glyph glyph-name="space" unicode=" " horiz-adv-x="524" 
 />
    <glyph glyph-name="exclam" unicode="!" horiz-adv-x="537" 
d="M385 389h-231l-27 997h285zM397 299v-299h-256v299h256z" />
    <glyph glyph-name="quotedbl" unicode="&#x22;" horiz-adv-x="934" 
d="M555 942v438h252v-438h-252zM123 942v438h254v-438h-254z" />
    <glyph glyph-name="numbersign" unicode="#" horiz-adv-x="1440" 
d="M1135 1044h202v-227h-239l-39 -248h192v-227h-229l-53 -342h-234l56 342h-230l-53 -342h-234l56 342h-209v227h244l41 248h-199v227h235l54 336h231l-53 -336h229l53 336h232zM598 569h227l41 248h-229z" />
    <glyph glyph-name="dollar" unicode="$" horiz-adv-x="1300" 
d="M733 1403q111 -10 192.5 -46t137 -91.5t86.5 -128t43 -156.5h-295q-21 145 -164 172v-313q37 -7 77 -16t89 -21q167 -45 246.5 -140t79.5 -249q0 -87 -32.5 -162.5t-95.5 -133.5t-154.5 -95.5t-209.5 -47.5v-147h-155v145q-122 9 -214.5 46t-157 97.5t-100.5 141.5
t-45 178h299q6 -45 20 -80.5t39.5 -62t64 -43.5t94.5 -23v361l-70 14q-77 16 -149.5 45.5t-128.5 77t-90 114.5t-34 158q0 85 30 156t89.5 124t148 85.5t204.5 40.5v147h155v-147zM733 563v-336q103 14 153 61t50 113q0 35 -13.5 61.5t-36 45.5t-52 31t-62.5 18zM578 864
v291q-87 -12 -134 -52.5t-47 -92.5q0 -32 10 -54.5t28 -38t43.5 -26t56.5 -17.5z" />
    <glyph glyph-name="percent" unicode="%" horiz-adv-x="1935" 
d="M754 0h-226l641 1380h224zM1477 588q-35 0 -58.5 -20t-38 -52t-20.5 -71t-6 -76q0 -31 4 -69t17 -71.5t37.5 -56t64.5 -22.5q57 0 87.5 56t30.5 163q0 33 -5.5 71.5t-19 71t-36.5 54.5t-57 22zM1477 772q86 0 147.5 -35t101 -91.5t58 -129t18.5 -147.5q0 -43 -7 -89.5
t-23 -91.5t-41.5 -85.5t-61.5 -71t-83.5 -48.5t-108.5 -18q-89 0 -151.5 35t-102 92t-58 129.5t-18.5 147.5q0 66 16.5 137t55.5 130.5t102 97.5t156 38zM463 1217q-35 0 -58.5 -20t-37.5 -52t-20.5 -71t-6.5 -77q0 -31 4 -69t17 -71.5t37.5 -56t64.5 -22.5q57 0 88 56.5
t31 162.5q0 33 -5.5 71.5t-19.5 71.5t-37 55t-57 22zM463 1401q86 0 147.5 -35t101 -92t58 -129.5t18.5 -147.5q0 -43 -7 -89.5t-23 -91.5t-41 -85t-61 -70.5t-84 -48.5t-109 -18q-89 0 -151.5 35t-102 91.5t-58 129t-18.5 147.5q0 44 7 91.5t23 92t42 84.5t62.5 70.5t85 48
t110.5 17.5z" />
    <glyph glyph-name="ampersand" unicode="&#x26;" horiz-adv-x="1298" 
d="M1169 725q-5 -134 -35 -247t-75 -193l266 -285h-328l-96 100q-63 -49 -149 -82.5t-203 -33.5t-204.5 31.5t-146 85.5t-87.5 125t-29 149q0 64 17.5 117t48.5 97.5t73.5 82t93.5 71.5q-26 30 -53 64.5t-49.5 74t-36.5 85t-14 96.5q0 64 28.5 124t80 106.5t122.5 74
t156 27.5t154.5 -28.5t119 -75.5t76.5 -108.5t27 -127.5q0 -61 -19.5 -112.5t-53 -96t-77.5 -82.5t-92 -72l186 -200q8 18 14.5 45.5t11 59t7 65t2.5 63.5h264zM549 215q45 0 80.5 10t59.5 23q28 14 50 33l-266 284q-29 -18 -51 -37t-37 -41t-23 -48t-8 -58
q0 -35 13.5 -65.5t39 -53t61.5 -35t81 -12.5zM424 1051q0 -24 8 -45.5t22.5 -44t35 -47.5t45.5 -56q143 89 143 186q0 25 -9.5 47.5t-26.5 38.5t-41 25.5t-52 9.5q-27 0 -50 -9t-39.5 -25t-26 -36.5t-9.5 -43.5z" />
    <glyph glyph-name="quotesingle" unicode="'" horiz-adv-x="502" 
d="M123 942v438h252v-438h-252z" />
    <glyph glyph-name="parenleft" unicode="(" horiz-adv-x="664" 
d="M98 592q0 117 17 229.5t44 215t59.5 191.5t63 158t56 115.5t37.5 63.5h284q-15 -23 -43.5 -72.5t-62 -120t-68 -159t-63 -189t-46.5 -210t-18 -222.5q0 -105 18.5 -211.5t47.5 -207.5t64.5 -192t69 -164.5t62 -125t42.5 -72.5h-289q-77 144 -138 305q-26 69 -50.5 147.5
t-44 164t-31 175.5t-11.5 181z" />
    <glyph glyph-name="parenright" unicode=")" horiz-adv-x="662" 
d="M563 592q0 -118 -18.5 -233t-47 -220t-62.5 -196t-64.5 -160t-53 -112t-28.5 -52h-291q15 21 43 72.5t62 125t69.5 164.5t64.5 192t47.5 208t18.5 211q0 109 -17.5 216t-45 206t-61.5 187.5t-67.5 160.5t-63.5 124t-48 79h287q7 -10 30.5 -52t54.5 -109.5t64.5 -156.5
t61.5 -193.5t46.5 -221.5t18.5 -240z" />
    <glyph glyph-name="asterisk" unicode="*" horiz-adv-x="1081" 
d="M641 1229l225 86l70 -174l-240 -86l142 -195l-154 -119l-141 199l-137 -195l-170 115l139 197l-234 88l68 170l225 -84v237h207v-239z" />
    <glyph glyph-name="plus" unicode="+" horiz-adv-x="1122" 
d="M432 61v383h-369v236h369v381h260v-381h367v-236h-367v-383h-260z" />
    <glyph glyph-name="comma" unicode="," horiz-adv-x="518" 
d="M143 272h242v-180q0 -89 -28 -152.5t-75.5 -104.5t-110 -61t-130.5 -22v174q17 4 35 12t33 22.5t24.5 37t9.5 55.5v219z" />
    <glyph glyph-name="hyphen" unicode="-" horiz-adv-x="885" 
d="M123 680h641v-236h-641v236z" />
    <glyph glyph-name="period" unicode="." horiz-adv-x="516" 
d="M391 313v-313h-266v313h266z" />
    <glyph glyph-name="slash" unicode="/" horiz-adv-x="915" 
d="M260 -49h-268l678 1470h262z" />
    <glyph glyph-name="zero" unicode="0" horiz-adv-x="1122" 
d="M563 1120q-45 0 -79 -19.5t-58.5 -53t-40.5 -78t-25.5 -94t-13.5 -101t-4 -98.5q0 -41 2 -89.5t9.5 -98.5t22 -96.5t39 -82.5t61 -58t87.5 -22q58 0 99.5 31t68 88.5t39 140.5t12.5 187q0 42 -3.5 91t-12.5 98.5t-24.5 95.5t-39.5 81.5t-58.5 56.5t-80.5 21zM563 1374
q97 0 172 -28.5t131 -78t94.5 -116.5t62 -144.5t34 -162t10.5 -168.5q0 -72 -9 -152t-31 -158t-59 -149t-93 -124.5t-133 -85.5t-179 -32q-98 0 -173.5 28.5t-131.5 79t-94.5 118t-62 145.5t-34 162.5t-10.5 167.5q0 73 9 153.5t30.5 158t58.5 147.5t93 123t134 84.5
t181 31.5z" />
    <glyph glyph-name="one" unicode="1" horiz-adv-x="1122" 
d="M981 0h-811v254h283v774l-236 -119v281l303 160h209v-1096h252v-254z" />
    <glyph glyph-name="two" unicode="2" horiz-adv-x="1122" 
d="M989 0h-885v252q94 75 181 150q37 32 76.5 66.5t77 69.5t71.5 68.5t61 63.5q62 69 93.5 134.5t31.5 133.5q0 39 -9.5 72t-28.5 57t-48 37.5t-67 13.5q-74 0 -123.5 -43.5t-57.5 -132.5h-282q9 92 43 171t92.5 137t140 91t185.5 33q108 0 190 -35t137.5 -94t84 -137.5
t28.5 -165.5q0 -88 -33 -167t-84 -148.5t-114 -128.5t-123.5 -106t-111 -81.5t-77.5 -56.5h551v-254z" />
    <glyph glyph-name="three" unicode="3" horiz-adv-x="1122" 
d="M981 977q0 -51 -12.5 -91t-33.5 -72.5t-49.5 -58t-60.5 -46.5q42 -17 78 -48.5t62.5 -72t41.5 -87.5t15 -95q0 -104 -39 -184.5t-106 -135t-157.5 -83t-193.5 -28.5q-93 0 -175 27t-146.5 78t-107 124t-56.5 165h285q11 -65 61.5 -102.5t138.5 -37.5q42 0 80.5 11
t67.5 33t46 56t17 79q0 39 -14.5 70t-41.5 53t-64 34t-82 13l-127 2v225l118 2q81 2 125.5 44.5t44.5 111.5q0 36 -14.5 65.5t-38.5 50t-55.5 32t-65.5 11.5q-35 0 -65 -9.5t-53.5 -26.5t-39 -42.5t-20.5 -56.5h-285q7 83 48 153.5t104 122t143.5 81t167.5 30.5
q98 1 182 -29t145.5 -83t96.5 -126t35 -159z" />
    <glyph glyph-name="four" unicode="4" horiz-adv-x="1122" 
d="M907 1350v-844h170v-238h-170v-268h-272v268h-602v215l585 867h289zM635 1030l-348 -524h348v524z" />
    <glyph glyph-name="five" unicode="5" horiz-adv-x="1122" 
d="M547 -25q-90 0 -169.5 28.5t-141 80t-102.5 123.5t-54 160h276q20 -70 69.5 -104t121.5 -34q45 0 82.5 15t64.5 45t41.5 73.5t14.5 100.5q0 55 -14.5 97t-41.5 70.5t-64.5 43t-82.5 14.5q-60 0 -108.5 -28.5t-76.5 -84.5h-243l69 775h766v-254h-542l-21 -219
q47 26 96 40.5t111 14.5q94 0 173 -34t136 -96t89 -148.5t32 -190.5q0 -108 -35.5 -198t-99.5 -154.5t-152 -100t-194 -35.5z" />
    <glyph glyph-name="six" unicode="6" horiz-adv-x="1122" 
d="M584 1374q81 0 154 -25.5t130.5 -74t97 -117.5t54.5 -156h-277q-20 65 -63 94t-94 29q-31 0 -64.5 -15t-62.5 -50t-51 -93t-29 -143q46 34 104.5 53t112.5 19q100 0 183.5 -33.5t142.5 -92.5t92 -140.5t33 -177.5q0 -107 -36.5 -194.5t-100.5 -150t-151 -97t-188 -34.5
q-60 0 -120 14t-115 46t-102 82.5t-81.5 124t-54.5 171t-20 222.5q0 145 23.5 256t63.5 193t91.5 137.5t108 89.5t113 48.5t106.5 14.5zM571 227q43 0 79 16t61.5 44.5t40 68.5t14.5 88q0 51 -15 91.5t-41.5 69t-62 44t-76.5 15.5t-76.5 -15.5t-61.5 -44t-41 -69t-15 -91.5
q0 -47 14.5 -86.5t40 -68.5t61 -45.5t78.5 -16.5z" />
    <glyph glyph-name="seven" unicode="7" horiz-adv-x="1122" 
d="M995 1350v-228l-518 -1122h-299l522 1092h-624v258h919z" />
    <glyph glyph-name="eight" unicode="8" horiz-adv-x="1122" 
d="M561 -27q-100 0 -189 28.5t-155.5 82t-105.5 130.5t-39 175q0 55 14.5 103.5t39.5 90t59 75t73 57.5q-30 24 -56.5 52t-47 62.5t-32 77.5t-11.5 97q0 84 35 152.5t95.5 117t142.5 75.5t177 27q94 0 176.5 -27t143.5 -75.5t96 -117t35 -152.5q0 -54 -12 -97t-32 -77.5
t-47 -62.5t-57 -52q39 -24 73.5 -57.5t59.5 -75t39.5 -90t14.5 -103.5q0 -98 -39.5 -175t-106.5 -130.5t-156 -82t-188 -28.5zM561 594q-47 0 -85 -14t-64.5 -39.5t-41 -61.5t-14.5 -80q0 -41 15 -75.5t42.5 -59t65.5 -38t84 -13.5q48 0 85.5 13.5t63.5 38t40 59t14 75.5
q0 44 -14.5 80t-41 61.5t-64.5 39.5t-85 14zM561 1141q-36 0 -67 -11t-54 -32t-36 -51t-13 -68q0 -37 13 -67t36 -51.5t54 -33.5t67 -12t67 12t54 33.5t36 51.5t13 67q0 38 -13 68t-36 51t-54 32t-67 11z" />
    <glyph glyph-name="nine" unicode="9" horiz-adv-x="1122" 
d="M541 -25q-81 0 -154 26t-131 74t-97.5 117t-54.5 156h277q20 -65 63.5 -94t94.5 -29q31 0 64.5 15t63 50.5t51.5 93t30 142.5q-47 -34 -106.5 -52.5t-113.5 -18.5q-101 0 -183.5 33.5t-142 92.5t-92 140.5t-32.5 177.5q0 107 36.5 194.5t100.5 150t150.5 96.5t187.5 34
q91 0 179.5 -33t158.5 -109.5t113 -203t43 -313.5q0 -145 -23.5 -256t-63.5 -193t-92 -138t-108 -90t-113 -48.5t-106 -14.5zM553 1122q-43 0 -79 -16t-61.5 -44.5t-40 -68.5t-14.5 -88q0 -51 15 -91.5t41.5 -69t62 -43.5t76.5 -15q42 0 77.5 15t61.5 43.5t41 69t15 91.5
q0 47 -14.5 86.5t-40 68.5t-61.5 45.5t-79 16.5z" />
    <glyph glyph-name="colon" unicode=":" horiz-adv-x="545" 
d="M397 1006v-314h-250v314h250zM397 313v-313h-250v313h250z" />
    <glyph glyph-name="semicolon" unicode=";" horiz-adv-x="545" 
d="M401 1006v-314h-249v314h249zM154 272h241v-180q0 -89 -28 -152.5t-75.5 -104.5t-110 -61t-130.5 -22v174q17 4 35 12t33 22.5t25 37t10 55.5v219z" />
    <glyph glyph-name="less" unicode="&#x3c;" horiz-adv-x="1122" 
d="M1024 63l-930 404v192l930 402v-254l-627 -242l627 -248v-254z" />
    <glyph glyph-name="equal" unicode="=" horiz-adv-x="1122" 
d="M1028 647h-934v232h934v-232zM1028 248h-934v231h934v-231z" />
    <glyph glyph-name="greater" unicode="&#x3e;" horiz-adv-x="1122" 
d="M98 317l627 246l-627 244v254l930 -402v-192l-930 -404v254z" />
    <glyph glyph-name="question" unicode="?" horiz-adv-x="932" 
d="M35 991q7 89 38.5 165t85.5 131.5t128.5 86.5t167.5 31q98 0 175 -30.5t130.5 -83.5t81.5 -123.5t28 -151.5q0 -62 -19.5 -117t-50.5 -105.5t-69.5 -95.5t-75.5 -86q-45 -48 -76.5 -93t-31.5 -91v-33h-252v64q0 71 35 141t106 148q30 31 58 64t50 67.5t35 70.5t13 74
q0 28 -9 53.5t-26 45t-43.5 31t-60.5 11.5q-33 0 -59.5 -12.5t-45 -35.5t-29.5 -55t-12 -71h-272zM549 299v-299h-256v299h256z" />
    <glyph glyph-name="at" unicode="@" horiz-adv-x="2015" 
d="M905 168q52 0 94.5 22t75.5 58.5t57 84t39.5 99.5t23 104.5t7.5 98.5q0 37 -6.5 69.5t-23 56.5t-44.5 38t-71 14q-48 0 -88.5 -19t-74 -51.5t-59 -75.5t-42.5 -91t-26 -98.5t-9 -96.5q0 -97 34.5 -155t112.5 -58zM1731 -100q-75 -78 -158 -139.5t-172.5 -105
t-184.5 -66.5t-192 -23q-136 0 -258 32t-225.5 90.5t-186 142t-140.5 186.5t-89 223t-31 252q0 127 33 245t93.5 220t145.5 186t188.5 144t222 93t247.5 33q127 0 243.5 -30t216 -84t180.5 -129t138 -164t88 -190.5t31 -207.5q0 -163 -43.5 -284t-114.5 -201.5t-162.5 -120
t-187.5 -39.5q-49 0 -87.5 11.5t-67 30t-48.5 41.5t-32 46q-28 -25 -61.5 -48t-72.5 -40.5t-84 -28t-96 -10.5q-74 0 -135 31t-104 86.5t-66.5 133.5t-23.5 173q0 72 16 145.5t46.5 142.5t75 129t102 105t127.5 71t151 26q62 0 114 -21t84 -55l13 61h227l-150 -741
q-8 -42 9 -67t69 -25q57 0 110 28t93.5 83.5t65 139.5t24.5 195q0 121 -51.5 229.5t-143 191t-217.5 131t-276 48.5q-148 0 -277.5 -55.5t-225.5 -152.5t-151 -227t-55 -279q0 -100 24 -191.5t69 -171.5t108.5 -145.5t142.5 -112.5t171 -72.5t194 -25.5q116 0 215.5 32
t187.5 95h304z" />
    <glyph glyph-name="A" unicode="A" horiz-adv-x="1264" 
d="M877 309h-490l-111 -309h-301l527 1380h262l524 -1380h-299zM479 569h303l-151 418z" />
    <glyph glyph-name="B" unicode="B" horiz-adv-x="1286" 
d="M731 1380q123 0 208 -33.5t138.5 -88t77 -124t23.5 -141.5t-35 -145.5t-103 -132.5q78 -59 123 -138t45 -171q0 -66 -24.5 -137.5t-77.5 -131t-138 -98.5t-206 -39h-633v1380h602zM418 1130v-301h321q42 0 71 13t47 34t26 49t8 58q0 65 -41.5 106t-132.5 41h-299z
M418 586v-336h332q43 0 75 16t52.5 41.5t30.5 56.5t10 60q0 28 -10 56.5t-30.5 52t-52.5 38.5t-75 15h-332z" />
    <glyph glyph-name="C" unicode="C" horiz-adv-x="1319" 
d="M1262 463q-18 -103 -61 -192t-112.5 -155t-167.5 -103.5t-225 -37.5q-149 0 -265 50.5t-196 144.5t-121.5 226t-41.5 296q0 163 41 295t120 225t193 143t260 50q123 0 219.5 -36t166 -99.5t112.5 -150t59 -187.5h-295q-20 105 -87 160t-173 55q-156 0 -241 -115.5
t-85 -339.5q0 -113 23 -199t66.5 -143.5t105 -87t139.5 -29.5q109 0 178 57t91 173h297z" />
    <glyph glyph-name="D" unicode="D" horiz-adv-x="1341" 
d="M662 1380q150 0 264 -51t190.5 -141t115 -212t38.5 -263q0 -163 -38.5 -294.5t-115 -224.5t-190.5 -143.5t-264 -50.5h-533v1380h533zM418 1122v-864h244q317 0 317 451q0 95 -20 171.5t-60 130t-99 82.5t-138 29h-244z" />
    <glyph glyph-name="E" unicode="E" horiz-adv-x="1204" 
d="M1114 1116h-696v-285h588v-264h-588v-303h696v-264h-985v1380h985v-264z" />
    <glyph glyph-name="F" unicode="F" horiz-adv-x="1135" 
d="M1098 1114h-680v-280h571v-265h-571v-569h-287v1380h967v-266z" />
    <glyph glyph-name="G" unicode="G" horiz-adv-x="1337" 
d="M948 942q-8 49 -30.5 87.5t-57.5 65t-80.5 40.5t-97.5 14q-159 0 -239.5 -116.5t-80.5 -340.5q0 -227 78.5 -344t237.5 -117q73 0 127 20.5t89 53.5t52 75.5t17 86.5v70h-371v251h659v-266q0 -111 -33 -210t-103 -174t-178.5 -119t-258.5 -44q-149 0 -262 50.5
t-189.5 144.5t-115.5 226t-39 296q0 163 40 295t117.5 225t191.5 143t261 50q121 0 218.5 -36.5t168.5 -99t115 -147t57 -180.5h-293z" />
    <glyph glyph-name="H" unicode="H" horiz-adv-x="1325" 
d="M1196 0h-289v569h-489v-569h-289v1380h289v-542h489v542h289v-1380z" />
    <glyph glyph-name="I" unicode="I" horiz-adv-x="551" 
d="M420 0h-289v1380h289v-1380z" />
    <glyph glyph-name="J" unicode="J" horiz-adv-x="1008" 
d="M311 383q3 -72 36.5 -114t105.5 -42q69 0 104 43.5t35 118.5v991h289v-991q0 -72 -24.5 -145.5t-76.5 -133.5t-133 -97.5t-194 -37.5q-102 0 -180 33t-131 89.5t-81 130.5t-30 155h280z" />
    <glyph glyph-name="K" unicode="K" horiz-adv-x="1317" 
d="M813 827l504 -827h-338l-356 604l-205 -239v-365h-289v1380h289v-608l510 608h360z" />
    <glyph glyph-name="L" unicode="L" horiz-adv-x="1073" 
d="M418 268h639v-268h-928v1380h289v-1112z" />
    <glyph glyph-name="M" unicode="M" horiz-adv-x="1575" 
d="M1446 0h-287v762l-268 -621h-203l-272 621v-762h-287v1380h295l367 -874l360 874h295v-1380z" />
    <glyph glyph-name="N" unicode="N" horiz-adv-x="1327" 
d="M1198 0h-278l-502 844v-844h-289v1380h277l503 -845v845h289v-1380z" />
    <glyph glyph-name="O" unicode="O" horiz-adv-x="1352" 
d="M676 1405q153 0 266.5 -56t188.5 -152t112 -222.5t37 -267.5q0 -163 -38.5 -298t-114.5 -231.5t-190 -149.5t-265 -53q-147 0 -259.5 52t-188 147t-114 228.5t-38.5 297.5q0 161 41 291.5t119 222.5t190 141.5t254 49.5zM676 1147q-150 0 -232 -113t-82 -334
q0 -230 77.5 -348.5t232.5 -118.5q160 0 238.5 120t78.5 349q0 98 -18.5 179.5t-56.5 140.5t-97.5 92t-140.5 33z" />
    <glyph glyph-name="P" unicode="P" horiz-adv-x="1251" 
d="M750 1380q82 0 148 -19.5t117.5 -52.5t88 -77.5t60.5 -94t35 -101.5t11 -101q0 -70 -25.5 -146.5t-81 -141t-143 -106.5t-210.5 -42h-332v-498h-289v1380h621zM418 1116v-354h330q44 0 76.5 15.5t53.5 40t31.5 55.5t10.5 63q0 31 -10.5 63.5t-31.5 58t-53.5 42
t-76.5 16.5h-330z" />
    <glyph glyph-name="Q" unicode="Q" horiz-adv-x="1352" 
d="M672 1405q153 0 267 -56t189.5 -152t113.5 -222.5t38 -267.5q0 -144 -30 -266.5t-89 -215.5t-148 -154t-206 -83q0 -60 21.5 -82.5t66.5 -22.5h158v-219q-28 -5 -58 -9q-26 -4 -56 -6.5t-56 -2.5q-101 0 -170 21t-112.5 64t-64 108.5t-24.5 154.5q-108 25 -190.5 86
t-138 152.5t-83.5 209.5t-28 258q0 161 40.5 291.5t117.5 222.5t188.5 141.5t253.5 49.5zM672 1147q-150 0 -228.5 -113t-78.5 -334q0 -230 76 -347t231 -117q160 0 237.5 118.5t77.5 347.5q0 98 -18.5 179.5t-57.5 140.5t-98.5 92t-140.5 33z" />
    <glyph glyph-name="R" unicode="R" horiz-adv-x="1319" 
d="M760 1380q82 0 148.5 -19.5t117.5 -52.5t88 -77.5t61 -94t35 -101.5t11 -101q0 -51 -15 -107t-45 -108.5t-76.5 -98t-109.5 -75.5l323 -545h-333l-283 500h-264v-500h-289v1380h631zM418 1116v-354h340q45 0 77.5 15t53.5 39.5t31 56t10 63.5t-10 64.5t-31 58t-53.5 41.5
t-77.5 16h-340z" />
    <glyph glyph-name="S" unicode="S" horiz-adv-x="1239" 
d="M836 981q-6 36 -22 68t-43.5 56t-66.5 38t-90 14q-46 0 -85.5 -10.5t-69 -30.5t-46 -49t-16.5 -66q0 -48 30.5 -75t86 -45.5t132.5 -34t171 -39.5q88 -23 153 -58t108 -83t64 -110.5t21 -141.5q0 -97 -40 -177.5t-112.5 -138.5t-175 -90.5t-227.5 -32.5t-222.5 38
t-166 101.5t-108.5 147t-50 174.5h299q6 -42 24 -80t49.5 -66.5t76 -45.5t102.5 -17q60 0 108.5 12.5t82.5 36t52.5 57t18.5 75.5q0 52 -27 81.5t-80.5 49t-133 36t-184.5 43.5q-59 15 -120 43.5t-110.5 74t-81 110t-31.5 151.5q0 92 36.5 167.5t103.5 129t161 82.5t209 29
t206 -33t155.5 -90t103 -134.5t49.5 -166.5h-294z" />
    <glyph glyph-name="T" unicode="T" horiz-adv-x="1108" 
d="M1087 1112h-387v-1112h-288v1112h-392v268h1067v-268z" />
    <glyph glyph-name="U" unicode="U" horiz-adv-x="1315" 
d="M1190 528q0 -152 -41 -257.5t-113 -171t-169.5 -95t-209.5 -29.5t-209 29.5t-169 95t-113 171t-41 257.5v852h289v-854q0 -84 16.5 -140t48 -90t76.5 -48.5t102 -14.5t102 14.5t76.5 48.5t48.5 90t17 140v854h289v-852z" />
    <glyph glyph-name="V" unicode="V" horiz-adv-x="1202" 
d="M604 401l311 979h302l-484 -1380h-264l-483 1380h299z" />
    <glyph glyph-name="W" unicode="W" horiz-adv-x="1665" 
d="M1313 0h-260l-219 877l-232 -877h-252l-350 1380h295l205 -876l209 876h243l215 -876l207 876h291z" />
    <glyph glyph-name="X" unicode="X" horiz-adv-x="1145" 
d="M-47 0l446 719l-411 661h325l258 -422l258 422h322l-408 -657l449 -723h-324l-297 479l-292 -479h-326z" />
    <glyph glyph-name="Y" unicode="Y" horiz-adv-x="1188" 
d="M739 561v-561h-290v563l-465 817h315l297 -534l293 534h315z" />
    <glyph glyph-name="Z" unicode="Z" horiz-adv-x="1112" 
d="M1055 1176l-641 -910h657v-266h-1022v205l647 911h-604v264h963v-204z" />
    <glyph glyph-name="bracketleft" unicode="[" horiz-adv-x="707" 
d="M649 1339h-260v-1411h260v-217h-518v1845h518v-217z" />
    <glyph glyph-name="backslash" unicode="\" horiz-adv-x="930" 
d="M8 1376h273l649 -1376h-273z" />
    <glyph glyph-name="bracketright" unicode="]" horiz-adv-x="707" 
d="M575 -289h-518v217h256v1411h-256v217h518v-1845z" />
    <glyph glyph-name="asciicircum" unicode="^" horiz-adv-x="1108" 
d="M100 655l361 811h196l347 -811h-238l-211 484l-215 -484h-240z" />
    <glyph glyph-name="underscore" unicode="_" horiz-adv-x="920" 
d="M-31 -49h977v-219h-977v219z" />
    <glyph glyph-name="grave" unicode="`" horiz-adv-x="719" 
d="M315 1118l-215 291h285l164 -291h-234z" />
    <glyph glyph-name="a" unicode="a" horiz-adv-x="1106" 
d="M61 516q0 108 33 200.5t90.5 160t137 105.5t172.5 38q63 0 112 -20t86 -54l4 58h260v-728q0 -24 13.5 -40.5t36.5 -16.5h47v-207q-23 -8 -49 -13t-70 -5q-62 0 -107 19t-79 63q-56 -47 -117 -68.5t-127 -21.5q-105 0 -187.5 37.5t-139.5 107t-86.5 167.5t-29.5 218z
M328 510q0 -150 46 -220.5t146 -70.5q94 0 139.5 68.5t45.5 216.5q0 147 -45.5 214.5t-139.5 67.5q-49 0 -85 -19t-60 -55t-35.5 -87t-11.5 -115z" />
    <glyph glyph-name="b" unicode="b" horiz-adv-x="1069" 
d="M1008 514q0 -138 -35.5 -237.5t-92.5 -164t-129.5 -95.5t-146.5 -31q-41 0 -74.5 7.5t-61.5 19t-50 25.5t-39 28l-4 -66h-260v1384h264v-440q21 16 42.5 30t48 24t60 16t78.5 6q90 0 163.5 -40t126 -109t81.5 -161t29 -196zM553 219q100 0 144 71.5t44 217.5
q0 61 -10.5 112.5t-33 88t-57.5 57t-83 20.5q-91 0 -139.5 -68.5t-48.5 -217.5q0 -144 42.5 -212.5t141.5 -68.5z" />
    <glyph glyph-name="c" unicode="c" horiz-adv-x="1008" 
d="M684 657q-17 70 -57.5 99.5t-100.5 29.5q-97 0 -147.5 -68.5t-50.5 -213.5q0 -143 52.5 -214t149.5 -71q69 0 107.5 30t56.5 95h267q-17 -81 -54 -147.5t-92 -113t-128 -72t-163 -25.5q-105 0 -190.5 35.5t-146 102t-93.5 162.5t-33 218q0 120 33 216t93.5 162.5
t146.5 102t192 35.5q91 0 164.5 -27t127.5 -75t88 -114.5t46 -146.5h-268z" />
    <glyph glyph-name="d" unicode="d" horiz-adv-x="1069" 
d="M61 514q0 104 28.5 196t81 161t126.5 109t164 40q45 0 78.5 -6t60 -16t48 -24t42.5 -30v440h264v-1384h-260l-4 66q-17 -14 -39 -28t-50 -25.5t-62 -19t-74 -7.5q-74 0 -146.5 31t-129.5 95.5t-92.5 164t-35.5 237.5zM516 219q99 0 141.5 68.5t42.5 212.5
q0 149 -48.5 217.5t-139.5 68.5q-48 0 -83 -20.5t-57.5 -57t-33 -88t-10.5 -112.5q0 -146 44 -217.5t144 -71.5z" />
    <glyph glyph-name="e" unicode="e" horiz-adv-x="1038" 
d="M952 322q-23 -77 -60.5 -139t-91 -106t-123 -67.5t-155.5 -23.5q-106 0 -191 35t-145 101.5t-92.5 163t-32.5 218.5q0 119 32 214.5t92 162.5t146 103t193 36q109 0 193.5 -39.5t142 -107.5t87.5 -159t30 -194q0 -40 -4 -73t-6 -41h-635q6 -55 24 -91t43.5 -57.5
t57.5 -30t67 -8.5q24 0 47.5 4.5t44.5 16.5t38.5 32t29.5 52zM522 791q-81 0 -127 -49t-61 -140h371q-3 41 -16.5 75.5t-36 60t-55.5 39.5t-75 14z" />
    <glyph glyph-name="f" unicode="f" horiz-adv-x="684" 
d="M651 1163h-108q-47 0 -66.5 -18.5t-19.5 -69.5v-71h194v-230h-194v-774h-264v774h-156v230h156v53q0 94 21 159t62 105.5t101.5 58t138.5 17.5q43 0 76.5 -5t58.5 -12v-217z" />
    <glyph glyph-name="g" unicode="g" horiz-adv-x="1069" 
d="M356 -78q6 -21 19 -39.5t33 -33t46 -23t58 -8.5q49 0 83 13t55 43t30.5 78t9.5 118q-32 -28 -82 -49t-125 -21q-101 0 -179.5 37.5t-132.5 105.5t-82 163.5t-28 211.5q0 105 30.5 197t86 159.5t134 106.5t173.5 39q63 0 114 -23.5t91 -60.5l4 68h260v-916
q0 -131 -34.5 -224.5t-94.5 -152.5t-140.5 -86.5t-172.5 -27.5t-163.5 25t-123.5 68.5t-85.5 103t-49.5 128.5h266zM328 510q0 -146 45.5 -214.5t142.5 -68.5q92 0 137 67t45 212t-44.5 211.5t-137.5 66.5q-48 0 -83.5 -19t-59 -54.5t-34.5 -86t-11 -114.5z" />
    <glyph glyph-name="h" unicode="h" 
d="M115 0v1384h264v-452q53 38 116 61t123 23q82 0 146.5 -29t109 -81t68 -125t23.5 -160v-621h-265v604q0 51 -13.5 85t-34.5 54.5t-46.5 29.5t-50.5 9q-42 0 -75 -13t-55.5 -44t-34 -83t-11.5 -130v-512h-264z" />
    <glyph glyph-name="i" unicode="i" horiz-adv-x="506" 
d="M385 0h-264v1004h264v-1004zM387 1122h-268v283h268v-283z" />
    <glyph glyph-name="j" unicode="j" horiz-adv-x="516" 
d="M399 1122h-268v283h268v-283zM-47 -162h100q45 0 62.5 19.5t17.5 70.5v1076h264v-1057q0 -95 -21 -159.5t-62 -105t-101.5 -58t-138.5 -17.5q-44 0 -70 5t-51 11v215z" />
    <glyph glyph-name="k" unicode="k" horiz-adv-x="1034" 
d="M672 596l387 -596h-307l-265 412l-108 -119v-293h-264v1384h264v-766l340 386h305z" />
    <glyph glyph-name="l" unicode="l" horiz-adv-x="537" 
d="M369 287q0 -38 24 -54t51 -16h48v-199q-16 -7 -34 -12q-16 -5 -37.5 -8.5t-45.5 -3.5q-51 0 -99.5 11t-86.5 42.5t-61.5 88t-23.5 147.5v1101h265v-1097z" />
    <glyph glyph-name="m" unicode="m" horiz-adv-x="1544" 
d="M115 0v1004h260l4 -70q18 17 42 32t51 26t56 17.5t56 6.5q83 0 151.5 -30t110.5 -83q47 48 109 80.5t151 32.5q91 0 154.5 -29t104 -81t59 -124t18.5 -159v-623h-264v610q0 92 -31.5 132t-85.5 40q-42 0 -70 -16.5t-45.5 -52.5t-25 -92.5t-7.5 -135.5v-485h-262v610
q0 92 -32 132t-84 40q-80 0 -118 -62.5t-38 -205.5v-514h-264z" />
    <glyph glyph-name="n" unicode="n" 
d="M115 0v1004h260l4 -70q53 38 113.5 60t125.5 22q82 0 146.5 -29t109 -81t68 -125t23.5 -160v-621h-265v604q0 52 -14 86.5t-35.5 54.5t-47.5 28.5t-50 8.5q-42 0 -74.5 -13t-54.5 -44t-33.5 -83t-11.5 -130v-512h-264z" />
    <glyph glyph-name="o" unicode="o" horiz-adv-x="1036" 
d="M518 -14q-108 0 -192.5 35.5t-143.5 103t-90 165t-31 222.5q0 111 30 204t88.5 160.5t143.5 105.5t195 38t195 -38t143.5 -105.5t88.5 -160.5t30 -204q0 -125 -31 -222.5t-90 -165t-143.5 -103t-192.5 -35.5zM518 219q98 0 144.5 69t46.5 220q0 65 -11.5 116.5t-35 87.5
t-59.5 55t-85 19t-85 -19t-59 -55t-34.5 -87.5t-11.5 -116.5q0 -151 46 -220t144 -69z" />
    <glyph glyph-name="p" unicode="p" horiz-adv-x="1069" 
d="M1008 489q0 -104 -29 -195.5t-81.5 -160.5t-126 -109t-163.5 -40q-45 0 -78.5 5.5t-60 15.5t-48 24t-42.5 30v-440h-264v1385h264v-66q17 14 39 28t50 25.5t61.5 19t74.5 7.5q74 0 146.5 -31t129.5 -96t92.5 -164.5t35.5 -237.5zM553 784q-99 0 -141.5 -68.5
t-42.5 -211.5q0 -150 48.5 -218.5t139.5 -68.5q48 0 83 20.5t57.5 57.5t33 88t10.5 113q0 145 -44 216.5t-144 71.5z" />
    <glyph glyph-name="q" unicode="q" horiz-adv-x="1069" 
d="M61 489q0 138 35.5 237.5t92.5 164.5t129.5 96t146.5 31q40 0 74 -7.5t62 -19t50 -25.5t39 -28v66h264v-1385h-264v440q-21 -16 -42.5 -30t-48 -24t-60 -15.5t-78.5 -5.5q-90 0 -164 40t-126.5 109t-81 160.5t-28.5 195.5zM516 784q-100 0 -144 -71.5t-44 -216.5
q0 -62 10.5 -113t33 -88t57.5 -57.5t83 -20.5q91 0 139.5 68.5t48.5 218.5q0 143 -42.5 211.5t-141.5 68.5z" />
    <glyph glyph-name="r" unicode="r" horiz-adv-x="729" 
d="M117 0v1004h260l4 -103q21 30 48 52t55.5 36.5t56.5 21.5t53 7q34 0 56.5 -2.5t43.5 -11.5v-236h-110q-45 0 -82.5 -15.5t-64.5 -50t-41.5 -90t-14.5 -135.5v-477h-264z" />
    <glyph glyph-name="s" unicode="s" horiz-adv-x="963" 
d="M319 324q11 -56 49.5 -85.5t116.5 -29.5t116 25t38 67q0 29 -16 45.5t-49 27.5t-84 21t-121 27q-57 14 -107.5 35.5t-89 54.5t-60.5 79t-22 109q0 59 24 116t72.5 102t123.5 72.5t177 27.5q94 0 165 -26t120 -70t76 -102.5t33 -123.5h-256q-8 48 -40 77.5t-98 29.5
t-99.5 -25t-33.5 -59q0 -30 13.5 -45t46.5 -24.5t88 -19.5t137 -30q53 -13 100.5 -36t83.5 -58t57 -83t21 -112q0 -69 -27 -128t-80 -102.5t-130.5 -68t-178.5 -24.5q-90 0 -164 24t-128.5 68.5t-89 106.5t-44.5 137h260z" />
    <glyph glyph-name="t" unicode="t" horiz-adv-x="715" 
d="M449 1004h204v-230h-204v-479q0 -19 7 -33t17.5 -23t23.5 -13.5t25 -4.5h103v-203q-22 -7 -47 -12q-22 -5 -49.5 -8.5t-57.5 -3.5q-54 0 -105.5 12.5t-92 45.5t-65 90.5t-24.5 148.5v483h-151v230h151v366h265v-366z" />
    <glyph glyph-name="u" unicode="u" 
d="M952 1004v-1004h-260l-4 70q-53 -39 -116 -60.5t-123 -21.5q-82 0 -146.5 29t-109 81t-68 125t-23.5 160v621h265v-603q0 -51 14 -85.5t35.5 -55.5t47.5 -30t50 -9q42 0 74.5 14t54.5 46t33.5 84t11.5 129v510h264z" />
    <glyph glyph-name="v" unicode="v" horiz-adv-x="954" 
d="M598 0h-248l-354 1004h278l203 -642l209 642h272z" />
    <glyph glyph-name="w" unicode="w" horiz-adv-x="1378" 
d="M1083 0h-219l-178 602l-176 -602h-217l-291 1004h272l146 -590l160 590h219l157 -592l150 592h270z" />
    <glyph glyph-name="x" unicode="x" horiz-adv-x="997" 
d="M18 1004h301l179 -273l182 273h299l-336 -484l358 -520h-303l-198 311l-205 -311h-299l358 520z" />
    <glyph glyph-name="y" unicode="y" horiz-adv-x="954" 
d="M537 -180q-34 -97 -109.5 -153t-187.5 -56q-22 0 -58.5 1.5t-70.5 6.5v223h106q42 0 62.5 16t29.5 36q11 21 22 46.5t19 47.5l-354 1016h276l205 -650l209 650h272z" />
    <glyph glyph-name="z" unicode="z" horiz-adv-x="911" 
d="M844 811l-447 -578h453v-233h-801v197l461 573h-457v234h791v-193z" />
    <glyph glyph-name="braceleft" unicode="{" horiz-adv-x="614" 
d="M598 1300q-61 -2 -102.5 -20t-67 -47t-36.5 -66.5t-11 -79.5v-315q0 -37 -9.5 -81t-41.5 -89q15 -19 24.5 -41t15.5 -43.5t8.5 -42.5t2.5 -39v-323q0 -42 11 -79t36.5 -65.5t67 -46.5t102.5 -20v-209q-119 2 -209 35.5t-150.5 89.5t-91 130.5t-30.5 160.5v329
q0 37 -22.5 56.5t-76.5 21.5v174q54 2 76.5 22t22.5 58v322q0 87 30.5 161.5t91 129.5t150.5 87.5t209 34.5v-205z" />
    <glyph glyph-name="bar" unicode="|" horiz-adv-x="510" 
d="M385 -172h-260v1638h260v-1638z" />
    <glyph glyph-name="braceright" unicode="}" horiz-adv-x="600" 
d="M586 516q-53 -2 -75 -21.5t-22 -56.5v-329q0 -86 -30.5 -160.5t-91 -130.5t-150 -89.5t-207.5 -35.5v209q59 2 99 20t64.5 46.5t35 65.5t10.5 79v323q0 18 2.5 39t8.5 42.5t16.5 43.5t25.5 41q-32 43 -42.5 87.5t-10.5 82.5v315q0 42 -10.5 79.5t-35 66.5t-64.5 47
t-99 20v205q118 -2 207.5 -34.5t150 -87.5t91 -129.5t30.5 -161.5v-322q0 -38 22 -58t75 -22v-174z" />
    <glyph glyph-name="asciitilde" unicode="~" horiz-adv-x="1047" 
d="M987 715q-5 -62 -27.5 -118t-59.5 -98t-86.5 -66.5t-108.5 -24.5q-45 0 -91 12.5t-88.5 27t-79.5 27t-65 12.5q-31 0 -53 -15t-27 -58h-231q9 67 33 123t60 96t83 62t102 22q45 0 93 -12.5t93 -27.5t84 -27.5t66 -12.5q38 0 56.5 20t21.5 58h225z" />
    <glyph glyph-name="exclamdown" unicode="&#xa1;" horiz-adv-x="537" 
d="M152 649h231l27 -997h-285zM139 739v299h256v-299h-256z" />
    <glyph glyph-name="cent" unicode="&#xa2;" horiz-adv-x="1096" 
d="M641 1018q81 -7 149 -36.5t119.5 -76.5t84.5 -110t44 -138h-268q-14 54 -49 84t-80 39v-559q48 8 85 36.5t52 82.5h266q-16 -77 -52 -139.5t-88 -108t-118.5 -72.5t-144.5 -32v-160h-156v162q-95 10 -173.5 50t-134 105.5t-86 156t-30.5 202.5q0 111 31 201.5t87.5 156
t134.5 105t171 49.5v158h156v-156zM328 504q0 -118 42.5 -186.5t114.5 -90.5v551q-71 -18 -114 -86t-43 -188z" />
    <glyph glyph-name="sterling" unicode="&#xa3;" horiz-adv-x="1014" 
d="M127 788v191q0 86 28.5 161.5t82.5 131.5t133 88.5t180 32.5q91 0 164.5 -32t127 -88.5t85.5 -132.5t39 -163h-273q-5 78 -41.5 126t-101.5 48q-77 0 -113.5 -48t-36.5 -128v-187h412v-155h-412v-297q0 -22 -3.5 -44.5t-18.5 -51.5h573v-238h-921v238q48 3 72 20t24 55
v318h-68v155h68z" />
    <glyph glyph-name="yen" unicode="&#xa5;" horiz-adv-x="1174" 
d="M313 791l-336 589h316l297 -534l293 534h313l-334 -589h217v-156h-305l-41 -72v-78h346v-155h-346v-330h-291v330h-362v155h362v78l-41 72h-321v156h233z" />
    <glyph glyph-name="brokenbar" unicode="&#xa6;" horiz-adv-x="508" 
d="M383 721h-258v745h258v-745zM383 -147h-258v743h258v-743z" />
    <glyph glyph-name="section" unicode="&#xa7;" horiz-adv-x="1112" 
d="M1026 584q0 -88 -46.5 -153t-131.5 -107q38 -44 62 -97t24 -116q0 -70 -27.5 -129.5t-78 -102.5t-120.5 -67.5t-155 -24.5q-84 0 -153 27t-118.5 73.5t-77 107t-26.5 128.5h260q0 -23 6 -44t19.5 -37t35.5 -25t54 -9q28 0 50.5 8t37.5 21t23 30.5t8 36.5q0 31 -17 58.5
t-59 46.5q-40 18 -73 32t-64 27.5t-61.5 26t-65.5 27.5q-51 21 -96 47.5t-78.5 62.5t-53.5 83t-20 108q0 40 12.5 80.5t37 77t62 67t87.5 51.5q-38 38 -61 85.5t-23 109.5q0 57 20.5 113t64 100.5t112.5 72t167 27.5q81 0 147 -25.5t113.5 -69.5t72.5 -102.5t24 -124.5h-256
q1 21 -6 40.5t-20.5 34t-33 23.5t-43.5 9q-43 0 -70.5 -25t-27.5 -63q0 -29 14 -51t51 -39q57 -26 129 -53t138 -56q44 -20 85.5 -49.5t74 -69.5t52 -90.5t19.5 -111.5zM696 686q-32 15 -56 25.5t-48.5 20.5t-53 21.5t-69.5 28.5q-51 -20 -87 -54.5t-36 -82.5
q0 -42 18 -63.5t39 -30.5q27 -13 67.5 -30t78.5 -33q44 -18 92 -39q27 7 49.5 21t39 31.5t25.5 38t9 40.5q0 34 -15.5 61.5t-52.5 44.5z" />
    <glyph glyph-name="dieresis" unicode="&#xa8;" horiz-adv-x="899" 
d="M387 1122h-237v252h237v-252zM754 1122h-238v252h238v-252z" />
    <glyph glyph-name="copyright" unicode="&#xa9;" horiz-adv-x="1622" 
d="M1126 616q-8 -66 -31.5 -121.5t-62 -96t-91 -63t-116.5 -22.5q-78 0 -140 24.5t-105 71t-65.5 114.5t-22.5 155q0 89 22.5 159t65.5 118.5t105 74t140 25.5q64 0 116 -23t90.5 -62.5t62.5 -94t32 -117.5h-208q-11 49 -33 74.5t-64 25.5q-55 0 -82.5 -41t-27.5 -139
q0 -91 27.5 -129.5t82.5 -38.5q44 0 65 26.5t32 77.5zM94 678q0 147 56 276t153.5 226t228 153t279.5 56t279 -56t226.5 -153t152 -226t55.5 -276q0 -96 -25 -185t-71.5 -167.5t-111 -143t-144 -110.5t-171 -71.5t-190.5 -25.5q-149 0 -279.5 56t-228 152t-153.5 223.5
t-56 271.5zM295 678q0 -108 40.5 -203t110.5 -166t164 -112t201 -41q105 0 199 41t164.5 112t111.5 166t41 203q0 110 -41 205t-111.5 165.5t-164.5 111t-199 40.5q-107 0 -201 -40.5t-164 -111t-110.5 -165.5t-40.5 -205z" />
    <glyph glyph-name="ordfeminine" unicode="&#xaa;" horiz-adv-x="809" 
d="M61 1047q0 72 22.5 134t62.5 107.5t94.5 71.5t119.5 26q39 0 71 -10.5t56 -25.5l2 24h197v-487q0 -16 7.5 -22.5t17.5 -6.5h43v-149q-19 -7 -39.5 -11t-52.5 -4q-42 0 -73.5 12.5t-56.5 36.5q-37 -24 -78.5 -39.5t-84.5 -15.5q-74 0 -131.5 25.5t-96.5 73t-59.5 113.5
t-20.5 147zM262 1042q0 -94 27.5 -139t89.5 -45q59 0 87 43.5t28 136.5t-28 136t-87 43q-62 0 -89.5 -47t-27.5 -128z" />
    <glyph glyph-name="guillemotleft" unicode="&#xab;" horiz-adv-x="1270" 
d="M1196 1004l-350 -443l348 -452h-293l-346 454l352 441h289zM686 1004l-350 -443l348 -452h-293l-346 454l352 441h289z" />
    <glyph glyph-name="logicalnot" unicode="&#xac;" horiz-adv-x="1151" 
d="M807 442h-733v236h999v-531h-266v295z" />
    <glyph glyph-name="registered" unicode="&#xae;" horiz-adv-x="1622" 
d="M94 678q0 147 56 276t153.5 226t228 153t279.5 56t279 -56t226.5 -153t152 -226t55.5 -276q0 -96 -25 -185t-71.5 -167.5t-111 -143t-144 -110.5t-171 -71.5t-190.5 -25.5q-149 0 -279.5 56t-228 152t-153.5 223.5t-56 271.5zM295 678q0 -108 40.5 -203t110.5 -166
t164 -112t201 -41q105 0 199 41t164.5 112t111.5 166t41 203q0 110 -41 205t-111.5 165.5t-164.5 111t-199 40.5q-107 0 -201 -40.5t-164 -111t-110.5 -165.5t-40.5 -205zM854 1026q64 0 112 -22.5t80 -57.5t48 -78t16 -84q0 -49 -26 -99.5t-80 -84.5l114 -254h-223l-86 217
h-49v-217h-207v680h301zM756 846v-139h86q32 0 48.5 21.5t16.5 47.5q0 12 -4 24t-12.5 22.5t-20.5 17t-28 6.5h-86z" />
    <glyph glyph-name="macron" unicode="&#xaf;" horiz-adv-x="815" 
d="M115 1356h594v-193h-594v193z" />
    <glyph glyph-name="degree" unicode="&#xb0;" horiz-adv-x="762" 
d="M276 1126q0 -23 9 -43.5t24.5 -35.5t36 -24t43.5 -9t43.5 9t36 24t24.5 35.5t9 43.5t-9 43.5t-24.5 36t-36 24.5t-43.5 9t-43.5 -9t-36 -24.5t-24.5 -36t-9 -43.5zM98 1126q0 60 23 112t62.5 90.5t92.5 60.5t113 22t113 -22t92.5 -60.5t62.5 -90.5t23 -112t-23 -111.5
t-62.5 -90t-92.5 -60.5t-113 -22t-113 22t-92.5 60.5t-62.5 90t-23 111.5z" />
    <glyph glyph-name="plusminus" unicode="&#xb1;" horiz-adv-x="1122" 
d="M63 231h996v-231h-996v231zM432 348v240h-369v235h369v238h260v-238h367v-235h-367v-240h-260z" />
    <glyph glyph-name="two.superior" unicode="&#xb2;" horiz-adv-x="692" 
d="M606 840h-526v159q54 43 104 85q21 18 43.5 37t44 38t40.5 37t34 33q68 68 68 135q0 35 -19.5 59.5t-54.5 24.5t-60 -24.5t-30 -73.5h-187q5 57 25.5 106t55.5 84.5t84.5 55.5t111.5 20q64 0 113 -20.5t81.5 -55t49 -79.5t16.5 -95q0 -62 -27.5 -111.5t-69.5 -91.5
t-93 -79t-99 -74h295v-170z" />
    <glyph glyph-name="three.superior" unicode="&#xb3;" horiz-adv-x="725" 
d="M621 1389q0 -26 -7 -48.5t-18 -41t-25 -33.5t-28 -25q19 -11 37 -27.5t32 -38t22.5 -47t8.5 -53.5q0 -59 -24 -105.5t-64.5 -78.5t-93.5 -49t-111 -17q-51 0 -98.5 17t-86 48.5t-65.5 77.5t-37 103h187q8 -37 34 -57.5t66 -20.5q45 0 76 20t31 62q0 35 -26 57.5t-79 24.5
l-59 2v141l59 3q38 2 59 23t21 50q0 17 -7 30.5t-19 22.5t-27 14t-31 5q-31 0 -55.5 -19.5t-32.5 -54.5h-188q6 57 31 102t63 76t85 47.5t97 16.5q58 0 107.5 -16t86.5 -46t58 -72t21 -93z" />
    <glyph glyph-name="acute" unicode="&#xb4;" horiz-adv-x="719" 
d="M188 1118l164 291h285l-215 -291h-234z" />
    <glyph glyph-name="mu" unicode="&#xb5;" horiz-adv-x="1090" 
d="M975 1004v-1004h-264v68q-15 -21 -35.5 -36t-43 -25t-45.5 -14.5t-42 -4.5q-44 0 -88 19t-78 61v-433h-264v1369h264v-592q0 -96 44 -143.5t122 -47.5q80 0 123 50.5t43 138.5v594h264z" />
    <glyph glyph-name="paragraph" unicode="&#xb6;" horiz-adv-x="1409" 
d="M1104 1137v-1137h-283v1137h-137v-1137h-283l-2 582q-75 10 -139.5 45.5t-112.5 89t-75 120.5t-27 142q0 84 33 158t89.5 129t132 86.5t161.5 31.5h872v-247h-229z" />
    <glyph glyph-name="periodcentered" unicode="&#xb7;" horiz-adv-x="586" 
d="M412 770v-313h-238v313h238z" />
    <glyph glyph-name="cedilla" unicode="&#xb8;" horiz-adv-x="512" 
d="M242 -260q0 25 -26 43.5t-79 21.5v121h78q49 0 92 -15t74.5 -42t49.5 -64t18 -81q0 -49 -20.5 -86t-53.5 -61.5t-74.5 -37t-83.5 -12.5q-26 0 -45.5 2.5t-33.5 5.5q-16 4 -27 8v150q8 -2 22 -3t27 -1q38 0 60 14t22 37z" />
    <glyph glyph-name="one.superior" unicode="&#xb9;" horiz-adv-x="565" 
d="M414 1604v-764h-183v557l-133 -70v184l183 93h133z" />
    <glyph glyph-name="ordmasculine" unicode="&#xba;" horiz-adv-x="762" 
d="M381 688q-75 0 -134.5 24t-101 69.5t-63 112t-21.5 150.5q0 74 21 136.5t62 108.5t100.5 71.5t136.5 25.5t136.5 -25.5t100 -71.5t61.5 -108.5t21 -136.5q0 -84 -21.5 -150.5t-62.5 -112t-100.5 -69.5t-134.5 -24zM381 858q62 0 90.5 44t28.5 138q0 82 -28.5 129.5
t-90.5 47.5t-90.5 -47.5t-28.5 -129.5q0 -94 28.5 -138t90.5 -44z" />
    <glyph glyph-name="guillemotright" unicode="&#xbb;" horiz-adv-x="1268" 
d="M870 1004l353 -439l-346 -456h-293l344 450l-348 445h290zM362 1004l353 -439l-346 -456h-293l344 450l-348 445h290z" />
    <glyph glyph-name="onequarter" unicode="&#xbc;" horiz-adv-x="1591" 
d="M541 0h-209l643 1380h205zM414 1380v-764h-183v558l-133 -70v184l183 92h133zM1427 764v-457h97v-162h-97v-145h-180v145h-338v142l334 477h184zM1247 553l-174 -246h174v246z" />
    <glyph glyph-name="onehalf" unicode="&#xbd;" horiz-adv-x="1702" 
d="M541 0h-209l643 1380h205zM414 1380v-764h-183v558l-133 -70v184l183 92h133zM1571 0h-527v160q54 43 104 84q21 18 44 37t44.5 38t40.5 37t34 33q67 67 67 135q0 35 -19 59.5t-54 24.5q-36 0 -61 -24.5t-30 -73.5h-186q4 58 24.5 106.5t56 84t85 55.5t111.5 20
q64 0 113 -20.5t81.5 -55t49 -79.5t16.5 -95q0 -62 -27.5 -111.5t-69.5 -91.5t-93 -79t-99 -74h295v-170z" />
    <glyph glyph-name="threequarters" unicode="&#xbe;" horiz-adv-x="1739" 
d="M688 0h-209l643 1380h205zM1575 762v-457h96v-162h-96v-145h-180v145h-338v142l334 477h184zM1395 551l-174 -246h174v246zM641 1169q0 -25 -7 -47.5t-18 -41t-25 -33.5t-28 -25q19 -11 37 -27.5t32.5 -38t23 -47t8.5 -53.5q0 -59 -24.5 -105.5t-65 -78.5t-93.5 -49
t-110 -17q-52 0 -99.5 17t-85.5 48.5t-65 77t-37 103.5h186q8 -37 34 -57.5t67 -20.5q45 0 75.5 20t30.5 62q0 35 -26 57.5t-78 24.5l-60 2v141l60 2q38 2 59 23.5t21 50.5q0 17 -7 30.5t-19 22.5t-27 14t-31 5q-31 0 -55.5 -19.5t-32.5 -54.5h-189q6 57 31.5 102t63.5 76
t85 47.5t97 16.5q57 0 107 -16t86.5 -46t57.5 -72t21 -94z" />
    <glyph glyph-name="questiondown" unicode="&#xbf;" horiz-adv-x="932" 
d="M870 31q-7 -89 -38.5 -165t-85 -131.5t-128 -86.5t-167.5 -31q-99 0 -176 30.5t-130.5 83.5t-81.5 123.5t-28 151.5q0 61 20 116.5t51 106t69 95.5t75 86q44 47 76 92t32 92v33h252v-64q0 -71 -35 -141t-106 -148q-30 -32 -58 -65t-50 -67.5t-35 -70.5t-13 -73
q0 -28 9 -53.5t26.5 -45t43.5 -31t61 -11.5q36 0 62.5 12.5t44.5 35.5t27 55t11 71h272zM356 723v299h256v-299h-256z" />
    <glyph glyph-name="Agrave" unicode="&#xc0;" horiz-adv-x="1264" 
d="M877 309h-490l-111 -309h-301l527 1380h262l524 -1380h-299zM479 569h303l-151 418zM551 1479l-215 290h285l163 -290h-233z" />
    <glyph glyph-name="Aacute" unicode="&#xc1;" horiz-adv-x="1264" 
d="M877 309h-490l-111 -309h-301l527 1380h262l524 -1380h-299zM479 569h303l-151 418zM487 1477l164 290h285l-215 -290h-234z" />
    <glyph glyph-name="Acircumflex" unicode="&#xc2;" horiz-adv-x="1264" 
d="M877 309h-490l-111 -309h-301l527 1380h262l524 -1380h-299zM479 569h303l-151 418zM297 1479l211 290h235l215 -290h-245l-86 129l-86 -129h-244z" />
    <glyph glyph-name="Atilde" unicode="&#xc3;" horiz-adv-x="1264" 
d="M877 309h-490l-111 -309h-301l527 1380h262l524 -1380h-299zM479 569h303l-151 418zM981 1759q-5 -57 -21 -106.5t-43 -86t-64 -58t-83 -21.5q-24 0 -48.5 5t-47.5 13t-44.5 17.5t-39.5 17.5q-20 9 -36 16t-36 7q-22 0 -30 -19.5t-13 -50.5h-192q7 56 23 105t44 85
t68.5 57t95.5 21q34 0 68.5 -12t72.5 -31q35 -17 57.5 -23.5t39.5 -6.5q23 0 30 21t11 50h188z" />
    <glyph glyph-name="Adieresis" unicode="&#xc4;" horiz-adv-x="1264" 
d="M877 309h-490l-111 -309h-301l527 1380h262l524 -1380h-299zM479 569h303l-151 418zM567 1489h-237v252h237v-252zM934 1489h-238v252h238v-252z" />
    <glyph glyph-name="Aring" unicode="&#xc5;" horiz-adv-x="1264" 
d="M877 309h-490l-111 -309h-301l527 1380h262l524 -1380h-299zM479 569h303l-151 418zM545 1657q0 -40 25.5 -63t60.5 -23t60.5 23t25.5 63t-25.5 63t-60.5 23t-60.5 -23t-25.5 -63zM412 1657q0 45 17 84t47 67.5t70 45t85 16.5t85 -16.5t70 -45t47 -67.5t17 -84t-17 -84
t-47 -67.5t-70 -45t-85 -16.5t-85 16.5t-70 45t-47 67.5t-17 84z" />
    <glyph glyph-name="AE" unicode="&#xc6;" horiz-adv-x="1686" 
d="M1595 1116h-600v-282h492v-265h-492v-305h600v-264h-888v346h-301l-130 -346h-301l527 1380h1093v-264zM707 1133l-211 -539h211v539z" />
    <glyph glyph-name="Ccedilla" unicode="&#xc7;" horiz-adv-x="1319" 
d="M1262 463q-18 -103 -61 -192t-112.5 -155t-167.5 -103.5t-225 -37.5q-149 0 -265 50.5t-196 144.5t-121.5 226t-41.5 296q0 163 41 295t120 225t193 143t260 50q123 0 219.5 -36t166 -99.5t112.5 -150t59 -187.5h-295q-20 105 -87 160t-173 55q-156 0 -241 -115.5
t-85 -339.5q0 -113 23 -199t66.5 -143.5t105 -87t139.5 -29.5q109 0 178 57t91 173h297zM676 -260q0 25 -26 43.5t-79 21.5v121h78q49 0 92 -15t74.5 -42t49.5 -64t18 -81q0 -49 -20.5 -86t-53.5 -61.5t-74.5 -37t-83.5 -12.5q-26 0 -45.5 2.5t-33.5 5.5q-16 4 -27 8v150
q8 -2 22.5 -3t26.5 -1q38 0 60 14t22 37z" />
    <glyph glyph-name="Egrave" unicode="&#xc8;" horiz-adv-x="1204" 
d="M1114 1116h-696v-285h588v-264h-588v-303h696v-264h-985v1380h985v-264zM575 1479l-215 290h285l164 -290h-234z" />
    <glyph glyph-name="Eacute" unicode="&#xc9;" horiz-adv-x="1204" 
d="M1114 1116h-696v-285h588v-264h-588v-303h696v-264h-985v1380h985v-264zM438 1479l164 290h285l-215 -290h-234z" />
    <glyph glyph-name="Ecircumflex" unicode="&#xca;" horiz-adv-x="1204" 
d="M1114 1116h-696v-285h588v-264h-588v-303h696v-264h-985v1380h985v-264zM301 1477l211 290h236l215 -290h-246l-86 129l-86 -129h-244z" />
    <glyph glyph-name="Edieresis" unicode="&#xcb;" horiz-adv-x="1204" 
d="M1114 1116h-696v-285h588v-264h-588v-303h696v-264h-985v1380h985v-264zM557 1487h-238v252h238v-252zM924 1487h-238v252h238v-252z" />
    <glyph glyph-name="Igrave" unicode="&#xcc;" horiz-adv-x="551" 
d="M420 0h-289v1380h289v-1380zM184 1479l-215 290h285l164 -290h-234z" />
    <glyph glyph-name="Iacute" unicode="&#xcd;" horiz-adv-x="551" 
d="M420 0h-289v1380h289v-1380zM137 1479l164 290h285l-215 -290h-234z" />
    <glyph glyph-name="Icircumflex" unicode="&#xce;" horiz-adv-x="551" 
d="M420 0h-289v1380h289v-1380zM-53 1479l211 290h235l215 -290h-246l-86 129l-86 -129h-243z" />
    <glyph glyph-name="Idieresis" unicode="&#xcf;" horiz-adv-x="551" 
d="M420 0h-289v1380h289v-1380zM211 1491h-238v252h238v-252zM578 1491h-238v252h238v-252z" />
    <glyph glyph-name="Eth" unicode="&#xd0;" horiz-adv-x="1395" 
d="M715 1380q150 0 264 -51t190.5 -141t115 -212t38.5 -263q0 -163 -38.5 -294.5t-115 -224.5t-190.5 -143.5t-264 -50.5h-533v592h-151v225h151v563h533zM471 1122v-305h256v-225h-256v-334h244q317 0 317 451q0 95 -20 171.5t-59.5 130t-99 82.5t-138.5 29h-244z" />
    <glyph glyph-name="Ntilde" unicode="&#xd1;" horiz-adv-x="1327" 
d="M1198 0h-278l-502 844v-844h-289v1380h277l503 -845v845h289v-1380zM1004 1761q-5 -57 -21.5 -106.5t-43.5 -86t-63.5 -58t-82.5 -21.5q-24 0 -48.5 5t-48 13t-45 17.5t-39.5 17.5q-20 9 -35.5 16t-35.5 7q-22 0 -30 -19.5t-13 -50.5h-193q7 56 23.5 105t44 85t68 57
t96.5 21q34 0 68.5 -12t72.5 -31q35 -17 57 -23.5t39 -6.5q23 0 30.5 21t10.5 50h189z" />
    <glyph glyph-name="Ograve" unicode="&#xd2;" horiz-adv-x="1352" 
d="M676 1405q153 0 266.5 -56t188.5 -152t112 -222.5t37 -267.5q0 -163 -38.5 -298t-114.5 -231.5t-190 -149.5t-265 -53q-147 0 -259.5 52t-188 147t-114 228.5t-38.5 297.5q0 161 41 291.5t119 222.5t190 141.5t254 49.5zM676 1147q-150 0 -232 -113t-82 -334
q0 -230 77.5 -348.5t232.5 -118.5q160 0 238.5 120t78.5 349q0 98 -18.5 179.5t-56.5 140.5t-97.5 92t-140.5 33zM631 1479l-215 290h284l164 -290h-233z" />
    <glyph glyph-name="Oacute" unicode="&#xd3;" horiz-adv-x="1352" 
d="M676 1405q153 0 266.5 -56t188.5 -152t112 -222.5t37 -267.5q0 -163 -38.5 -298t-114.5 -231.5t-190 -149.5t-265 -53q-147 0 -259.5 52t-188 147t-114 228.5t-38.5 297.5q0 161 41 291.5t119 222.5t190 141.5t254 49.5zM676 1147q-150 0 -232 -113t-82 -334
q0 -230 77.5 -348.5t232.5 -118.5q160 0 238.5 120t78.5 349q0 98 -18.5 179.5t-56.5 140.5t-97.5 92t-140.5 33zM483 1479l164 290h285l-215 -290h-234z" />
    <glyph glyph-name="Ocircumflex" unicode="&#xd4;" horiz-adv-x="1352" 
d="M676 1405q153 0 266.5 -56t188.5 -152t112 -222.5t37 -267.5q0 -163 -38.5 -298t-114.5 -231.5t-190 -149.5t-265 -53q-147 0 -259.5 52t-188 147t-114 228.5t-38.5 297.5q0 161 41 291.5t119 222.5t190 141.5t254 49.5zM676 1147q-150 0 -232 -113t-82 -334
q0 -230 77.5 -348.5t232.5 -118.5q160 0 238.5 120t78.5 349q0 98 -18.5 179.5t-56.5 140.5t-97.5 92t-140.5 33zM352 1475l211 290h236l215 -290h-246l-86 129l-86 -129h-244z" />
    <glyph glyph-name="Otilde" unicode="&#xd5;" horiz-adv-x="1352" 
d="M676 1405q153 0 266.5 -56t188.5 -152t112 -222.5t37 -267.5q0 -163 -38.5 -298t-114.5 -231.5t-190 -149.5t-265 -53q-147 0 -259.5 52t-188 147t-114 228.5t-38.5 297.5q0 161 41 291.5t119 222.5t190 141.5t254 49.5zM676 1147q-150 0 -232 -113t-82 -334
q0 -230 77.5 -348.5t232.5 -118.5q160 0 238.5 120t78.5 349q0 98 -18.5 179.5t-56.5 140.5t-97.5 92t-140.5 33zM1024 1761q-5 -57 -21 -106.5t-43 -86t-64 -58t-83 -21.5q-24 0 -48.5 5t-47.5 13t-44.5 17.5t-39.5 17.5q-20 9 -36 16t-36 7q-22 0 -30 -19.5t-13 -50.5
h-192q7 56 23 105t44 85t68.5 57t95.5 21q34 0 68.5 -12t72.5 -31q35 -17 57.5 -23.5t39.5 -6.5q23 0 30 21t11 50h188z" />
    <glyph glyph-name="Odieresis" unicode="&#xd6;" horiz-adv-x="1352" 
d="M676 1405q153 0 266.5 -56t188.5 -152t112 -222.5t37 -267.5q0 -163 -38.5 -298t-114.5 -231.5t-190 -149.5t-265 -53q-147 0 -259.5 52t-188 147t-114 228.5t-38.5 297.5q0 161 41 291.5t119 222.5t190 141.5t254 49.5zM676 1147q-150 0 -232 -113t-82 -334
q0 -230 77.5 -348.5t232.5 -118.5q160 0 238.5 120t78.5 349q0 98 -18.5 179.5t-56.5 140.5t-97.5 92t-140.5 33zM614 1493h-237v252h237v-252zM981 1493h-238v252h238v-252z" />
    <glyph glyph-name="multiply" unicode="&#xd7;" horiz-adv-x="1122" 
d="M866 43l-311 311l-317 -315q-38 34 -83.5 81.5t-88.5 90.5l311 317l-309 318l170 176l317 -317l315 315l172 -172l-315 -318l317 -319z" />
    <glyph glyph-name="Oslash" unicode="&#xd8;" horiz-adv-x="1352" 
d="M672 1405q72 0 135 -13.5t119 -37.5l51 94h178l-94 -180q52 -48 93 -111t69 -135.5t42.5 -152.5t14.5 -162q0 -163 -38.5 -298t-114.5 -231.5t-190 -149.5t-265 -53q-76 0 -140.5 14.5t-121.5 39.5l-45 -82h-179l90 170q-97 96 -150.5 246.5t-53.5 336.5
q0 161 40.5 291.5t117.5 222.5t188.5 141.5t253.5 49.5zM987 702q0 90 -15.5 165.5t-47.5 133.5l-394 -737q28 -15 64.5 -24t77.5 -9q160 0 237.5 121t77.5 350zM672 1149q-150 0 -228.5 -114t-78.5 -335q0 -96 12.5 -172t40.5 -135l387 727h-2q-60 29 -131 29z" />
    <glyph glyph-name="Ugrave" unicode="&#xd9;" horiz-adv-x="1315" 
d="M1190 528q0 -152 -41 -257.5t-113 -171t-169.5 -95t-209.5 -29.5t-209 29.5t-169 95t-113 171t-41 257.5v852h289v-854q0 -84 16.5 -140t48 -90t76.5 -48.5t102 -14.5t102 14.5t76.5 48.5t48.5 90t17 140v854h289v-852zM651 1479l-215 290h285l164 -290h-234z" />
    <glyph glyph-name="Uacute" unicode="&#xda;" horiz-adv-x="1315" 
d="M1190 528q0 -152 -41 -257.5t-113 -171t-169.5 -95t-209.5 -29.5t-209 29.5t-169 95t-113 171t-41 257.5v852h289v-854q0 -84 16.5 -140t48 -90t76.5 -48.5t102 -14.5t102 14.5t76.5 48.5t48.5 90t17 140v854h289v-852zM444 1479l164 290h285l-215 -290h-234z" />
    <glyph glyph-name="Ucircumflex" unicode="&#xdb;" horiz-adv-x="1315" 
d="M1190 528q0 -152 -41 -257.5t-113 -171t-169.5 -95t-209.5 -29.5t-209 29.5t-169 95t-113 171t-41 257.5v852h289v-854q0 -84 16.5 -140t48 -90t76.5 -48.5t102 -14.5t102 14.5t76.5 48.5t48.5 90t17 140v854h289v-852zM326 1479l211 290h235l215 -290h-246l-86 129
l-86 -129h-243z" />
    <glyph glyph-name="Udieresis" unicode="&#xdc;" horiz-adv-x="1315" 
d="M1190 528q0 -152 -41 -257.5t-113 -171t-169.5 -95t-209.5 -29.5t-209 29.5t-169 95t-113 171t-41 257.5v852h289v-854q0 -84 16.5 -140t48 -90t76.5 -48.5t102 -14.5t102 14.5t76.5 48.5t48.5 90t17 140v854h289v-852zM594 1489h-238v252h238v-252zM961 1489h-238v252
h238v-252z" />
    <glyph glyph-name="Yacute" unicode="&#xdd;" horiz-adv-x="1188" 
d="M739 561v-561h-290v563l-465 817h315l297 -534l293 534h315zM356 1479l164 290h285l-215 -290h-234z" />
    <glyph glyph-name="Thorn" unicode="&#xde;" horiz-adv-x="1239" 
d="M125 1380h291v-225h323q82 0 147.5 -19t116.5 -51.5t87.5 -76t60 -92.5t34.5 -100.5t11 -100.5q0 -70 -25.5 -146t-80 -139t-141.5 -104t-210 -41h-323v-285h-289zM416 897v-354h315q45 0 78 13.5t54.5 36.5t32.5 55t11 69t-11 69.5t-32.5 57t-54.5 39t-78 14.5h-315z
" />
    <glyph glyph-name="germandbls" unicode="&#xdf;" horiz-adv-x="1118" 
d="M580 -8q-21 0 -42.5 1.5t-38.5 3.5q-20 2 -38 5v217h102q112 0 166.5 57.5t54.5 157.5t-54.5 153.5t-147.5 55.5l-80 2v219l61 2q36 1 63.5 15.5t46.5 36t28.5 48.5t9.5 54q0 29 -10 54t-29.5 43.5t-47 29t-61.5 10.5q-35 0 -67.5 -8.5t-58 -30t-41 -59t-15.5 -94.5v-965
h-260v956q0 108 35 189t95.5 136t141 82.5t170.5 27.5q91 0 165.5 -27.5t127.5 -75.5t82 -113.5t29 -140.5q0 -41 -9.5 -78.5t-26.5 -71t-39.5 -62t-49.5 -50.5q43 -23 81 -57t66 -79t44 -99.5t16 -118.5q0 -98 -33 -177t-93.5 -134.5t-147.5 -85t-195 -29.5z" />
    <glyph glyph-name="agrave" unicode="&#xe0;" horiz-adv-x="1106" 
d="M61 516q0 108 33 200.5t90.5 160t137 105.5t172.5 38q63 0 112 -20t86 -54l4 58h260v-728q0 -24 13.5 -40.5t36.5 -16.5h47v-207q-23 -8 -49 -13t-70 -5q-62 0 -107 19t-79 63q-56 -47 -117 -68.5t-127 -21.5q-105 0 -187.5 37.5t-139.5 107t-86.5 167.5t-29.5 218z
M328 510q0 -150 46 -220.5t146 -70.5q94 0 139.5 68.5t45.5 216.5q0 147 -45.5 214.5t-139.5 67.5q-49 0 -85 -19t-60 -55t-35.5 -87t-11.5 -115zM506 1114l-215 291h284l164 -291h-233z" />
    <glyph glyph-name="aacute" unicode="&#xe1;" horiz-adv-x="1106" 
d="M61 516q0 108 33 200.5t90.5 160t137 105.5t172.5 38q63 0 112 -20t86 -54l4 58h260v-728q0 -24 13.5 -40.5t36.5 -16.5h47v-207q-23 -8 -49 -13t-70 -5q-62 0 -107 19t-79 63q-56 -47 -117 -68.5t-127 -21.5q-105 0 -187.5 37.5t-139.5 107t-86.5 167.5t-29.5 218z
M328 510q0 -150 46 -220.5t146 -70.5q94 0 139.5 68.5t45.5 216.5q0 147 -45.5 214.5t-139.5 67.5q-49 0 -85 -19t-60 -55t-35.5 -87t-11.5 -115zM358 1114l164 291h285l-215 -291h-234z" />
    <glyph glyph-name="acircumflex" unicode="&#xe2;" horiz-adv-x="1106" 
d="M61 516q0 108 33 200.5t90.5 160t137 105.5t172.5 38q63 0 112 -20t86 -54l4 58h260v-728q0 -24 13.5 -40.5t36.5 -16.5h47v-207q-23 -8 -49 -13t-70 -5q-62 0 -107 19t-79 63q-56 -47 -117 -68.5t-127 -21.5q-105 0 -187.5 37.5t-139.5 107t-86.5 167.5t-29.5 218z
M328 510q0 -150 46 -220.5t146 -70.5q94 0 139.5 68.5t45.5 216.5q0 147 -45.5 214.5t-139.5 67.5q-49 0 -85 -19t-60 -55t-35.5 -87t-11.5 -115zM225 1128l211 291h236l215 -291h-246l-86 129l-86 -129h-244z" />
    <glyph glyph-name="atilde" unicode="&#xe3;" horiz-adv-x="1106" 
d="M61 516q0 108 33 200.5t90.5 160t137 105.5t172.5 38q63 0 112 -20t86 -54l4 58h260v-728q0 -24 13.5 -40.5t36.5 -16.5h47v-207q-23 -8 -49 -13t-70 -5q-62 0 -107 19t-79 63q-56 -47 -117 -68.5t-127 -21.5q-105 0 -187.5 37.5t-139.5 107t-86.5 167.5t-29.5 218z
M328 510q0 -150 46 -220.5t146 -70.5q94 0 139.5 68.5t45.5 216.5q0 147 -45.5 214.5t-139.5 67.5q-49 0 -85 -19t-60 -55t-35.5 -87t-11.5 -115zM905 1384q-5 -57 -21 -106.5t-43 -86t-64 -58t-83 -21.5q-24 0 -48.5 5t-47.5 13t-44.5 17.5t-39.5 17.5q-20 10 -36 16.5
t-36 6.5q-21 0 -29.5 -19.5t-13.5 -50.5h-192q7 56 23 105t44 85t68.5 57t95.5 21q34 0 68.5 -12t73.5 -31q35 -17 57 -23.5t39 -6.5q23 0 30.5 21t10.5 50h188z" />
    <glyph glyph-name="adieresis" unicode="&#xe4;" horiz-adv-x="1106" 
d="M61 516q0 108 33 200.5t90.5 160t137 105.5t172.5 38q63 0 112 -20t86 -54l4 58h260v-728q0 -24 13.5 -40.5t36.5 -16.5h47v-207q-23 -8 -49 -13t-70 -5q-62 0 -107 19t-79 63q-56 -47 -117 -68.5t-127 -21.5q-105 0 -187.5 37.5t-139.5 107t-86.5 167.5t-29.5 218z
M328 510q0 -150 46 -220.5t146 -70.5q94 0 139.5 68.5t45.5 216.5q0 147 -45.5 214.5t-139.5 67.5q-49 0 -85 -19t-60 -55t-35.5 -87t-11.5 -115zM510 1126h-238v252h238v-252zM877 1126h-238v252h238v-252z" />
    <glyph glyph-name="aring" unicode="&#xe5;" horiz-adv-x="1106" 
d="M61 516q0 108 33 200.5t90.5 160t137 105.5t172.5 38q63 0 112 -20t86 -54l4 58h260v-728q0 -24 13.5 -40.5t36.5 -16.5h47v-207q-23 -8 -49 -13t-70 -5q-62 0 -107 19t-79 63q-56 -47 -117 -68.5t-127 -21.5q-105 0 -187.5 37.5t-139.5 107t-86.5 167.5t-29.5 218z
M328 510q0 -150 46 -220.5t146 -70.5q94 0 139.5 68.5t45.5 216.5q0 147 -45.5 214.5t-139.5 67.5q-49 0 -85 -19t-60 -55t-35.5 -87t-11.5 -115zM451 1319q0 -40 25 -63t61 -23q35 0 60.5 23t25.5 63t-25.5 63t-60.5 23q-36 0 -61 -23t-25 -63zM317 1319q0 45 17.5 84
t47.5 67.5t70 45t85 16.5t85 -16.5t69.5 -45t47 -67.5t17.5 -84t-17.5 -84t-47 -67.5t-69.5 -45t-85 -16.5t-85 16.5t-70 45t-47.5 67.5t-17.5 84z" />
    <glyph glyph-name="ae" unicode="&#xe6;" horiz-adv-x="1626" 
d="M788 113q-58 -59 -144.5 -93t-199.5 -34q-69 0 -136 17t-119.5 54.5t-84.5 96.5t-32 143q0 85 34 144.5t93.5 96.5t139 53.5t171.5 16.5q38 0 67.5 -0.5t50.5 -0.5q25 -1 44 -1q0 40 -7.5 75.5t-26 62t-49.5 42t-79 15.5q-41 0 -67.5 -10t-43 -25.5t-24 -34t-10.5 -35.5
h-265q11 90 49.5 152t95.5 100t127 55t144 17t129 -18.5t92 -40.5q43 -26 74 -58q38 32 86 58q41 22 96 40.5t121 18.5q109 0 193 -40t141.5 -108t87 -159.5t29.5 -194.5q0 -40 -4.5 -70t-6.5 -38h-630q4 -52 22 -88.5t44.5 -60t58.5 -34t65 -10.5q24 0 47.5 5t44.5 17
t38.5 32.5t29.5 52.5h268q-23 -77 -61.5 -139.5t-92.5 -106.5t-123 -68t-153 -24q-106 0 -185 34t-139 93zM1112 788q-39 0 -71.5 -13.5t-57 -38t-40 -59.5t-19.5 -77h368q-3 41 -15.5 75.5t-35 59.5t-55 39t-74.5 14zM461 203q33 0 70 7.5t68.5 30.5t52 65.5t20.5 111.5
q-21 0 -45 1q-21 0 -48 0.5t-57 0.5q-98 0 -141 -30t-43 -81q0 -48 33 -77t90 -29z" />
    <glyph glyph-name="ccedilla" unicode="&#xe7;" horiz-adv-x="1008" 
d="M684 657q-17 70 -57.5 99.5t-100.5 29.5q-97 0 -147.5 -68.5t-50.5 -213.5q0 -143 52.5 -214t149.5 -71q69 0 107.5 30t56.5 95h267q-17 -81 -54 -147.5t-92 -113t-128 -72t-163 -25.5q-105 0 -190.5 35.5t-146 102t-93.5 162.5t-33 218q0 120 33 216t93.5 162.5
t146.5 102t192 35.5q91 0 164.5 -27t127.5 -75t88 -114.5t46 -146.5h-268zM512 -260q0 25 -26 43.5t-78 21.5v121h77q49 0 92 -15t74.5 -42t49.5 -64t18 -81q0 -49 -20.5 -86t-53.5 -61.5t-74.5 -37t-83.5 -12.5q-26 0 -45.5 2.5t-33.5 5.5q-16 4 -27 8v150q8 -2 22.5 -3
t26.5 -1q38 0 60 14t22 37z" />
    <glyph glyph-name="egrave" unicode="&#xe8;" horiz-adv-x="1038" 
d="M952 322q-23 -77 -60.5 -139t-91 -106t-123 -67.5t-155.5 -23.5q-106 0 -191 35t-145 101.5t-92.5 163t-32.5 218.5q0 119 32 214.5t92 162.5t146 103t193 36q109 0 193.5 -39.5t142 -107.5t87.5 -159t30 -194q0 -40 -4 -73t-6 -41h-635q6 -55 24 -91t43.5 -57.5
t57.5 -30t67 -8.5q24 0 47.5 4.5t44.5 16.5t38.5 32t29.5 52zM522 791q-81 0 -127 -49t-61 -140h371q-3 41 -16.5 75.5t-36 60t-55.5 39.5t-75 14zM463 1114l-215 291h284l164 -291h-233z" />
    <glyph glyph-name="eacute" unicode="&#xe9;" horiz-adv-x="1038" 
d="M952 322q-23 -77 -60.5 -139t-91 -106t-123 -67.5t-155.5 -23.5q-106 0 -191 35t-145 101.5t-92.5 163t-32.5 218.5q0 119 32 214.5t92 162.5t146 103t193 36q109 0 193.5 -39.5t142 -107.5t87.5 -159t30 -194q0 -40 -4 -73t-6 -41h-635q6 -55 24 -91t43.5 -57.5
t57.5 -30t67 -8.5q24 0 47.5 4.5t44.5 16.5t38.5 32t29.5 52zM522 791q-81 0 -127 -49t-61 -140h371q-3 41 -16.5 75.5t-36 60t-55.5 39.5t-75 14zM336 1114l164 291h284l-215 -291h-233z" />
    <glyph glyph-name="ecircumflex" unicode="&#xea;" horiz-adv-x="1038" 
d="M952 322q-23 -77 -60.5 -139t-91 -106t-123 -67.5t-155.5 -23.5q-106 0 -191 35t-145 101.5t-92.5 163t-32.5 218.5q0 119 32 214.5t92 162.5t146 103t193 36q109 0 193.5 -39.5t142 -107.5t87.5 -159t30 -194q0 -40 -4 -73t-6 -41h-635q6 -55 24 -91t43.5 -57.5
t57.5 -30t67 -8.5q24 0 47.5 4.5t44.5 16.5t38.5 32t29.5 52zM522 791q-81 0 -127 -49t-61 -140h371q-3 41 -16.5 75.5t-36 60t-55.5 39.5t-75 14zM195 1110l211 291h235l215 -291h-246l-86 129l-86 -129h-243z" />
    <glyph glyph-name="edieresis" unicode="&#xeb;" horiz-adv-x="1038" 
d="M952 322q-23 -77 -60.5 -139t-91 -106t-123 -67.5t-155.5 -23.5q-106 0 -191 35t-145 101.5t-92.5 163t-32.5 218.5q0 119 32 214.5t92 162.5t146 103t193 36q109 0 193.5 -39.5t142 -107.5t87.5 -159t30 -194q0 -40 -4 -73t-6 -41h-635q6 -55 24 -91t43.5 -57.5
t57.5 -30t67 -8.5q24 0 47.5 4.5t44.5 16.5t38.5 32t29.5 52zM522 791q-81 0 -127 -49t-61 -140h371q-3 41 -16.5 75.5t-36 60t-55.5 39.5t-75 14zM469 1126h-238v252h238v-252zM836 1126h-238v252h238v-252z" />
    <glyph glyph-name="igrave" unicode="&#xec;" horiz-adv-x="502" 
d="M383 0h-264v1004h264v-1004zM133 1118l-215 291h285l164 -291h-234z" />
    <glyph glyph-name="iacute" unicode="&#xed;" horiz-adv-x="502" 
d="M383 0h-264v1004h264v-1004zM133 1118l164 291h285l-215 -291h-234z" />
    <glyph glyph-name="icircumflex" unicode="&#xee;" horiz-adv-x="502" 
d="M383 0h-264v1004h264v-1004zM-82 1110l211 291h236l215 -291h-246l-86 129l-86 -129h-244z" />
    <glyph glyph-name="idieresis" unicode="&#xef;" horiz-adv-x="502" 
d="M383 0h-264v1004h264v-1004zM188 1126h-237v252h237v-252zM555 1126h-238v252h238v-252z" />
    <glyph glyph-name="eth" unicode="&#xf0;" horiz-adv-x="1042" 
d="M178 1384q17 6 37 9.5t41 5.5t41.5 3t38.5 1q69 0 132.5 -19t123.5 -51l190 113l72 -117l-139 -84q60 -60 108 -137.5t82.5 -168.5t53 -193.5t18.5 -213.5q0 -132 -31 -233.5t-89.5 -170.5t-142.5 -104.5t-190 -35.5q-110 0 -195.5 35t-144.5 102.5t-90 164.5t-31 222
q0 120 33.5 213t93 156.5t140 97t174.5 33.5q15 0 41.5 -3.5t52.5 -11.5q-22 41 -50 71.5t-63 41.5l-88 -53l-63 104h-156v223zM524 223q95 0 141 68t46 219q0 65 -11.5 116.5t-34.5 87.5t-58 55t-83 19q-93 0 -143.5 -67.5t-50.5 -210.5q0 -151 47 -219t147 -68z" />
    <glyph glyph-name="ntilde" unicode="&#xf1;" 
d="M115 0v1004h260l4 -70q53 38 113.5 60t125.5 22q82 0 146.5 -29t109 -81t68 -125t23.5 -160v-621h-265v604q0 52 -14 86.5t-35.5 54.5t-47.5 28.5t-50 8.5q-42 0 -74.5 -13t-54.5 -44t-33.5 -83t-11.5 -130v-512h-264zM887 1384q-5 -57 -21 -106.5t-43 -86t-64 -58
t-83 -21.5q-24 0 -48.5 5t-48 13t-44.5 17.5t-39 17.5q-20 10 -36 16.5t-36 6.5q-22 0 -30 -19.5t-13 -50.5h-193q7 56 23.5 105t44 85t68 57t96.5 21q34 0 68.5 -12t72.5 -31q35 -17 57 -23.5t39 -6.5q23 0 30.5 21t10.5 50h189z" />
    <glyph glyph-name="ograve" unicode="&#xf2;" horiz-adv-x="1036" 
d="M518 -14q-108 0 -192.5 35.5t-143.5 103t-90 165t-31 222.5q0 111 30 204t88.5 160.5t143.5 105.5t195 38t195 -38t143.5 -105.5t88.5 -160.5t30 -204q0 -125 -31 -222.5t-90 -165t-143.5 -103t-192.5 -35.5zM518 219q98 0 144.5 69t46.5 220q0 65 -11.5 116.5t-35 87.5
t-59.5 55t-85 19t-85 -19t-59 -55t-34.5 -87.5t-11.5 -116.5q0 -151 46 -220t144 -69zM473 1114l-215 291h285l164 -291h-234z" />
    <glyph glyph-name="oacute" unicode="&#xf3;" horiz-adv-x="1036" 
d="M518 -14q-108 0 -192.5 35.5t-143.5 103t-90 165t-31 222.5q0 111 30 204t88.5 160.5t143.5 105.5t195 38t195 -38t143.5 -105.5t88.5 -160.5t30 -204q0 -125 -31 -222.5t-90 -165t-143.5 -103t-192.5 -35.5zM518 219q98 0 144.5 69t46.5 220q0 65 -11.5 116.5t-35 87.5
t-59.5 55t-85 19t-85 -19t-59 -55t-34.5 -87.5t-11.5 -116.5q0 -151 46 -220t144 -69zM346 1114l164 291h285l-215 -291h-234z" />
    <glyph glyph-name="ocircumflex" unicode="&#xf4;" horiz-adv-x="1036" 
d="M518 -14q-108 0 -192.5 35.5t-143.5 103t-90 165t-31 222.5q0 111 30 204t88.5 160.5t143.5 105.5t195 38t195 -38t143.5 -105.5t88.5 -160.5t30 -204q0 -125 -31 -222.5t-90 -165t-143.5 -103t-192.5 -35.5zM518 219q98 0 144.5 69t46.5 220q0 65 -11.5 116.5t-35 87.5
t-59.5 55t-85 19t-85 -19t-59 -55t-34.5 -87.5t-11.5 -116.5q0 -151 46 -220t144 -69zM184 1110l211 291h236l215 -291h-246l-86 129l-86 -129h-244z" />
    <glyph glyph-name="otilde" unicode="&#xf5;" horiz-adv-x="1036" 
d="M518 -14q-108 0 -192.5 35.5t-143.5 103t-90 165t-31 222.5q0 111 30 204t88.5 160.5t143.5 105.5t195 38t195 -38t143.5 -105.5t88.5 -160.5t30 -204q0 -125 -31 -222.5t-90 -165t-143.5 -103t-192.5 -35.5zM518 219q98 0 144.5 69t46.5 220q0 65 -11.5 116.5t-35 87.5
t-59.5 55t-85 19t-85 -19t-59 -55t-34.5 -87.5t-11.5 -116.5q0 -151 46 -220t144 -69zM868 1384q-5 -57 -21 -106.5t-43 -86t-64 -58t-83 -21.5q-24 0 -48.5 5t-47.5 13t-44.5 17.5t-39.5 17.5q-20 10 -35.5 16.5t-35.5 6.5q-22 0 -30.5 -19.5t-13.5 -50.5h-192q7 56 23 105
t44 85t68.5 57t95.5 21q34 0 69 -12t73 -31q35 -17 57 -23.5t39 -6.5q23 0 30.5 21t10.5 50h188z" />
    <glyph glyph-name="odieresis" unicode="&#xf6;" horiz-adv-x="1036" 
d="M518 -14q-108 0 -192.5 35.5t-143.5 103t-90 165t-31 222.5q0 111 30 204t88.5 160.5t143.5 105.5t195 38t195 -38t143.5 -105.5t88.5 -160.5t30 -204q0 -125 -31 -222.5t-90 -165t-143.5 -103t-192.5 -35.5zM518 219q98 0 144.5 69t46.5 220q0 65 -11.5 116.5t-35 87.5
t-59.5 55t-85 19t-85 -19t-59 -55t-34.5 -87.5t-11.5 -116.5q0 -151 46 -220t144 -69zM455 1126h-238v252h238v-252zM821 1126h-237v252h237v-252z" />
    <glyph glyph-name="divide" unicode="&#xf7;" horiz-adv-x="1149" 
d="M1100 434h-1037v232h1037v-232zM719 1047v-314h-250v314h250zM719 354v-313h-250v313h250z" />
    <glyph glyph-name="oslash" unicode="&#xf8;" horiz-adv-x="1036" 
d="M821 913q75 -69 114.5 -172.5t39.5 -228.5t-31 -222t-89.5 -164.5t-142.5 -102.5t-190 -35q-95 0 -186 30l-51 -90h-160l90 160q-74 69 -114 175.5t-40 248.5q0 120 33 214t94 159t145.5 99t188.5 34q48 0 94 -9.5t86 -25.5l43 80h162zM328 510q0 -51 4 -93.5t16 -80.5
l244 444q-37 13 -70 13q-93 0 -143.5 -70t-50.5 -213zM522 217q95 0 141 71t46 222q0 40 -4 80t-17 76l-237 -439q18 -6 35.5 -8t35.5 -2z" />
    <glyph glyph-name="ugrave" unicode="&#xf9;" 
d="M952 1004v-1004h-260l-4 70q-53 -39 -116 -60.5t-123 -21.5q-82 0 -146.5 29t-109 81t-68 125t-23.5 160v621h265v-603q0 -51 14 -85.5t35.5 -55.5t47.5 -30t50 -9q42 0 74.5 14t54.5 46t33.5 84t11.5 129v510h264zM522 1114l-215 291h285l164 -291h-234z" />
    <glyph glyph-name="uacute" unicode="&#xfa;" 
d="M952 1004v-1004h-260l-4 70q-53 -39 -116 -60.5t-123 -21.5q-82 0 -146.5 29t-109 81t-68 125t-23.5 160v621h265v-603q0 -51 14 -85.5t35.5 -55.5t47.5 -30t50 -9q42 0 74.5 14t54.5 46t33.5 84t11.5 129v510h264zM299 1114l164 291h285l-216 -291h-233z" />
    <glyph glyph-name="ucircumflex" unicode="&#xfb;" 
d="M952 1004v-1004h-260l-4 70q-53 -39 -116 -60.5t-123 -21.5q-82 0 -146.5 29t-109 81t-68 125t-23.5 160v621h265v-603q0 -51 14 -85.5t35.5 -55.5t47.5 -30t50 -9q42 0 74.5 14t54.5 46t33.5 84t11.5 129v510h264zM193 1110l210 291h236l215 -291h-246l-86 129l-86 -129
h-243z" />
    <glyph glyph-name="udieresis" unicode="&#xfc;" 
d="M952 1004v-1004h-260l-4 70q-53 -39 -116 -60.5t-123 -21.5q-82 0 -146.5 29t-109 81t-68 125t-23.5 160v621h265v-603q0 -51 14 -85.5t35.5 -55.5t47.5 -30t50 -9q42 0 74.5 14t54.5 46t33.5 84t11.5 129v510h264zM465 1126h-238v252h238v-252zM831 1126h-237v252h237
v-252z" />
    <glyph glyph-name="yacute" unicode="&#xfd;" horiz-adv-x="954" 
d="M537 -180q-34 -97 -109.5 -153t-187.5 -56q-22 0 -58.5 1.5t-70.5 6.5v223h106q42 0 62.5 16t29.5 36q11 21 22 46.5t19 47.5l-354 1016h276l205 -650l209 650h272zM307 1114l164 291h285l-215 -291h-234z" />
    <glyph glyph-name="thorn" unicode="&#xfe;" horiz-adv-x="1018" 
d="M954 489q0 -104 -29 -195.5t-81.5 -160.5t-126 -109t-162.5 -40q-45 0 -78.5 5.5t-60 15.5t-48 24t-42.5 30v-440h-265v1765h265v-446q17 14 39 28t49.5 25.5t61.5 19t75 7.5q71 0 143 -31t129.5 -96t94 -164.5t36.5 -237.5zM502 786q-99 0 -143 -69.5t-44 -212.5
q0 -149 50 -218t141 -69q48 0 82.5 20.5t56.5 57.5t32.5 88t10.5 113q0 142 -46.5 216t-139.5 74z" />
    <glyph glyph-name="ydieresis" unicode="&#xff;" horiz-adv-x="954" 
d="M537 -180q-34 -97 -109.5 -153t-187.5 -56q-22 0 -58.5 1.5t-70.5 6.5v223h106q42 0 62.5 16t29.5 36q11 21 22 46.5t19 47.5l-354 1016h276l205 -650l209 650h272zM416 1126h-238v252h238v-252zM782 1126h-237v252h237v-252z" />
    <glyph glyph-name="Amacron" unicode="&#x100;" horiz-adv-x="1264" 
d="M877 309h-490l-111 -309h-301l527 1380h262l524 -1380h-299zM479 569h303l-151 418zM334 1712h594v-192h-594v192z" />
    <glyph glyph-name="amacron" unicode="&#x101;" horiz-adv-x="1106" 
d="M61 516q0 108 33 200.5t90.5 160t137 105.5t172.5 38q63 0 112 -20t86 -54l4 58h260v-728q0 -24 13.5 -40.5t36.5 -16.5h47v-207q-23 -8 -49 -13t-70 -5q-62 0 -107 19t-79 63q-56 -47 -117 -68.5t-127 -21.5q-105 0 -187.5 37.5t-139.5 107t-86.5 167.5t-29.5 218z
M328 510q0 -150 46 -220.5t146 -70.5q94 0 139.5 68.5t45.5 216.5q0 147 -45.5 214.5t-139.5 67.5q-49 0 -85 -19t-60 -55t-35.5 -87t-11.5 -115zM260 1356h594v-193h-594v193z" />
    <glyph glyph-name="Abreve" unicode="&#x102;" horiz-adv-x="1264" 
d="M877 309h-490l-111 -309h-301l527 1380h262l524 -1380h-299zM479 569h303l-151 418zM920 1755q-1 -68 -24.5 -123t-63.5 -93t-92.5 -58.5t-110.5 -20.5q-60 0 -112 20.5t-90.5 58.5t-61 93t-23.5 123h188q0 -52 28.5 -79t70.5 -27t69 27t27 79h195z" />
    <glyph glyph-name="abreve" unicode="&#x103;" horiz-adv-x="1106" 
d="M61 516q0 108 33 200.5t90.5 160t137 105.5t172.5 38q63 0 112 -20t86 -54l4 58h260v-728q0 -24 13.5 -40.5t36.5 -16.5h47v-207q-23 -8 -49 -13t-70 -5q-62 0 -107 19t-79 63q-56 -47 -117 -68.5t-127 -21.5q-105 0 -187.5 37.5t-139.5 107t-86.5 167.5t-29.5 218z
M328 510q0 -150 46 -220.5t146 -70.5q94 0 139.5 68.5t45.5 216.5q0 147 -45.5 214.5t-139.5 67.5q-49 0 -85 -19t-60 -55t-35.5 -87t-11.5 -115zM842 1393q-1 -69 -24.5 -123.5t-63.5 -92.5t-92.5 -58.5t-110.5 -20.5q-60 0 -112 20.5t-90.5 58.5t-61 92.5t-23.5 123.5h189
q0 -53 28 -80t70 -27t69 27t27 80h195z" />
    <glyph glyph-name="Aogonek" unicode="&#x104;" horiz-adv-x="1264" 
d="M877 309h-490l-111 -309h-301l527 1380h262l524 -1380l-6 -10q-34 -2 -56.5 -10t-36.5 -20.5t-20 -28t-6 -33.5q0 -36 23.5 -56t60.5 -20q22 0 37 3q9 1 16 3v-162q-14 -7 -32 -11q-15 -5 -35.5 -8t-44.5 -3q-48 0 -89 15t-72 42t-48.5 63t-17.5 78q0 53 21.5 93t61.5 65
h-55zM479 569h303l-151 418z" />
    <glyph glyph-name="aogonek" unicode="&#x105;" horiz-adv-x="1106" 
d="M934 -102q0 -36 23.5 -56t60.5 -20q22 0 37 3q9 1 16 3v-162q-14 -7 -32 -11q-15 -5 -35.5 -8t-45.5 -3q-48 0 -89 15t-72 42t-48.5 63t-17.5 78q0 59 27.5 101t75.5 67q-26 10 -47 26.5t-39 39.5q-56 -47 -117 -68.5t-127 -21.5q-105 0 -187.5 37.5t-139.5 107
t-86.5 167.5t-29.5 218q0 108 33 200.5t90.5 160t137 105.5t172.5 38q63 0 112 -20t86 -54l4 58h260v-728q0 -24 13.5 -40.5t36.5 -16.5h47v-229q-34 -2 -56.5 -10t-36.5 -20.5t-20 -28t-6 -33.5zM328 510q0 -150 46 -220.5t146 -70.5q94 0 139.5 68.5t45.5 216.5
q0 147 -45.5 214.5t-139.5 67.5q-49 0 -85 -19t-60 -55t-35.5 -87t-11.5 -115z" />
    <glyph glyph-name="Cacute" unicode="&#x106;" horiz-adv-x="1319" 
d="M1262 463q-18 -103 -61 -192t-112.5 -155t-167.5 -103.5t-225 -37.5q-149 0 -265 50.5t-196 144.5t-121.5 226t-41.5 296q0 163 41 295t120 225t193 143t260 50q123 0 219.5 -36t166 -99.5t112.5 -150t59 -187.5h-295q-20 105 -87 160t-173 55q-156 0 -241 -115.5
t-85 -339.5q0 -113 23 -199t66.5 -143.5t105 -87t139.5 -29.5q109 0 178 57t91 173h297zM481 1479l164 290h285l-215 -290h-234z" />
    <glyph glyph-name="cacute" unicode="&#x107;" horiz-adv-x="1008" 
d="M684 657q-17 70 -57.5 99.5t-100.5 29.5q-97 0 -147.5 -68.5t-50.5 -213.5q0 -143 52.5 -214t149.5 -71q69 0 107.5 30t56.5 95h267q-17 -81 -54 -147.5t-92 -113t-128 -72t-163 -25.5q-105 0 -190.5 35.5t-146 102t-93.5 162.5t-33 218q0 120 33 216t93.5 162.5
t146.5 102t192 35.5q91 0 164.5 -27t127.5 -75t88 -114.5t46 -146.5h-268zM342 1114l164 291h285l-216 -291h-233z" />
    <glyph glyph-name="Ccircumflex" unicode="&#x108;" horiz-adv-x="1319" 
d="M1262 463q-18 -103 -61 -192t-112.5 -155t-167.5 -103.5t-225 -37.5q-149 0 -265 50.5t-196 144.5t-121.5 226t-41.5 296q0 163 41 295t120 225t193 143t260 50q123 0 219.5 -36t166 -99.5t112.5 -150t59 -187.5h-295q-20 105 -87 160t-173 55q-156 0 -241 -115.5
t-85 -339.5q0 -113 23 -199t66.5 -143.5t105 -87t139.5 -29.5q109 0 178 57t91 173h297zM365 1479l210 290h236l215 -290h-246l-86 129l-86 -129h-243z" />
    <glyph glyph-name="ccircumflex" unicode="&#x109;" horiz-adv-x="1008" 
d="M684 657q-17 70 -57.5 99.5t-100.5 29.5q-97 0 -147.5 -68.5t-50.5 -213.5q0 -143 52.5 -214t149.5 -71q69 0 107.5 30t56.5 95h267q-17 -81 -54 -147.5t-92 -113t-128 -72t-163 -25.5q-105 0 -190.5 35.5t-146 102t-93.5 162.5t-33 218q0 120 33 216t93.5 162.5
t146.5 102t192 35.5q91 0 164.5 -27t127.5 -75t88 -114.5t46 -146.5h-268zM190 1114l211 291h236l215 -291h-246l-86 129l-86 -129h-244z" />
    <glyph glyph-name="Cdotaccent" unicode="&#x10a;" horiz-adv-x="1319" 
d="M1262 463q-18 -103 -61 -192t-112.5 -155t-167.5 -103.5t-225 -37.5q-149 0 -265 50.5t-196 144.5t-121.5 226t-41.5 296q0 163 41 295t120 225t193 143t260 50q123 0 219.5 -36t166 -99.5t112.5 -150t59 -187.5h-295q-20 105 -87 160t-173 55q-156 0 -241 -115.5
t-85 -339.5q0 -113 23 -199t66.5 -143.5t105 -87t139.5 -29.5q109 0 178 57t91 173h297zM821 1487h-268v282h268v-282z" />
    <glyph glyph-name="cdotaccent" unicode="&#x10b;" horiz-adv-x="1008" 
d="M684 657q-17 70 -57.5 99.5t-100.5 29.5q-97 0 -147.5 -68.5t-50.5 -213.5q0 -143 52.5 -214t149.5 -71q69 0 107.5 30t56.5 95h267q-17 -81 -54 -147.5t-92 -113t-128 -72t-163 -25.5q-105 0 -190.5 35.5t-146 102t-93.5 162.5t-33 218q0 120 33 216t93.5 162.5
t146.5 102t192 35.5q91 0 164.5 -27t127.5 -75t88 -114.5t46 -146.5h-268zM662 1118h-269v283h269v-283z" />
    <glyph glyph-name="Ccaron" unicode="&#x10c;" horiz-adv-x="1319" 
d="M1262 463q-18 -103 -61 -192t-112.5 -155t-167.5 -103.5t-225 -37.5q-149 0 -265 50.5t-196 144.5t-121.5 226t-41.5 296q0 163 41 295t120 225t193 143t260 50q123 0 219.5 -36t166 -99.5t112.5 -150t59 -187.5h-295q-20 105 -87 160t-173 55q-156 0 -241 -115.5
t-85 -339.5q0 -113 23 -199t66.5 -143.5t105 -87t139.5 -29.5q109 0 178 57t91 173h297zM608 1769l86 -129l86 129h246l-215 -290h-236l-210 290h243z" />
    <glyph glyph-name="ccaron" unicode="&#x10d;" horiz-adv-x="1008" 
d="M684 657q-17 70 -57.5 99.5t-100.5 29.5q-97 0 -147.5 -68.5t-50.5 -213.5q0 -143 52.5 -214t149.5 -71q69 0 107.5 30t56.5 95h267q-17 -81 -54 -147.5t-92 -113t-128 -72t-163 -25.5q-105 0 -190.5 35.5t-146 102t-93.5 162.5t-33 218q0 120 33 216t93.5 162.5
t146.5 102t192 35.5q91 0 164.5 -27t127.5 -75t88 -114.5t46 -146.5h-268zM446 1401l86 -129l86 129h246l-215 -291h-235l-211 291h243z" />
    <glyph glyph-name="Dcaron" unicode="&#x10e;" horiz-adv-x="1341" 
d="M662 1380q150 0 264 -51t190.5 -141t115 -212t38.5 -263q0 -163 -38.5 -294.5t-115 -224.5t-190.5 -143.5t-264 -50.5h-533v1380h533zM418 1122v-864h244q317 0 317 451q0 95 -20 171.5t-60 130t-99 82.5t-138 29h-244zM535 1767l86 -129l86 129h245l-215 -290h-235
l-211 290h244z" />
    <glyph glyph-name="dcaron" unicode="&#x10f;" horiz-adv-x="1436" 
d="M61 514q0 104 28.5 196t81 161t126.5 109t164 40q45 0 78.5 -6t60 -16t48 -24t42.5 -30v440h264v-1384h-260l-4 66q-17 -14 -39 -28t-50 -25.5t-62 -19t-74 -7.5q-74 0 -146.5 31t-129.5 95.5t-92.5 164t-35.5 237.5zM516 219q99 0 141.5 68.5t42.5 212.5
q0 149 -48.5 217.5t-139.5 68.5q-48 0 -83 -20.5t-57.5 -57t-33 -88t-10.5 -112.5q0 -146 44 -217.5t144 -71.5zM1155 1114v326h240l-49 -326h-191z" />
    <glyph glyph-name="Dcroat" unicode="&#x110;" horiz-adv-x="1395" 
d="M715 1380q150 0 264 -51t190.5 -141t115 -212t38.5 -263q0 -163 -38.5 -294.5t-115 -224.5t-190.5 -143.5t-264 -50.5h-533v592h-151v225h151v563h533zM471 1122v-305h256v-225h-256v-334h244q317 0 317 451q0 95 -20 171.5t-59.5 130t-99 82.5t-138.5 29h-244z" />
    <glyph glyph-name="dcroat" unicode="&#x111;" horiz-adv-x="1069" 
d="M381 1284h309v100h264v-100h80v-182h-80v-1102h-264v66q-16 -14 -38 -28t-50 -25.5t-62.5 -19t-74.5 -7.5q-81 0 -154 37.5t-128.5 106.5t-88.5 166.5t-33 217.5q0 106 31.5 198.5t85.5 160.5t127 107.5t156 39.5q45 0 79 -6t61 -16t48 -24t41 -30v158h-309v182zM514 213
q100 0 143 71.5t43 215.5q0 149 -49.5 220t-140.5 71q-46 0 -80.5 -21t-57 -59t-33.5 -90t-11 -113q0 -143 47.5 -219t138.5 -76z" />
    <glyph glyph-name="Emacron" unicode="&#x112;" horiz-adv-x="1204" 
d="M1114 1116h-696v-285h588v-264h-588v-303h696v-264h-985v1380h985v-264zM311 1712h594v-192h-594v192z" />
    <glyph glyph-name="emacron" unicode="&#x113;" horiz-adv-x="1038" 
d="M952 322q-23 -77 -60.5 -139t-91 -106t-123 -67.5t-155.5 -23.5q-106 0 -191 35t-145 101.5t-92.5 163t-32.5 218.5q0 119 32 214.5t92 162.5t146 103t193 36q109 0 193.5 -39.5t142 -107.5t87.5 -159t30 -194q0 -40 -4 -73t-6 -41h-635q6 -55 24 -91t43.5 -57.5
t57.5 -30t67 -8.5q24 0 47.5 4.5t44.5 16.5t38.5 32t29.5 52zM522 791q-81 0 -127 -49t-61 -140h371q-3 41 -16.5 75.5t-36 60t-55.5 39.5t-75 14zM229 1356h594v-193h-594v193z" />
    <glyph glyph-name="Ebreve" unicode="&#x114;" horiz-adv-x="1204" 
d="M1114 1116h-696v-285h588v-264h-588v-303h696v-264h-985v1380h985v-264zM918 1753q-1 -68 -25 -123t-63.5 -93t-92 -58.5t-110.5 -20.5q-60 0 -112 20.5t-90.5 58.5t-61 93t-23.5 123h188q0 -53 28.5 -79.5t70.5 -26.5t69 26.5t27 79.5h195z" />
    <glyph glyph-name="ebreve" unicode="&#x115;" horiz-adv-x="1038" 
d="M952 322q-23 -77 -60.5 -139t-91 -106t-123 -67.5t-155.5 -23.5q-106 0 -191 35t-145 101.5t-92.5 163t-32.5 218.5q0 119 32 214.5t92 162.5t146 103t193 36q109 0 193.5 -39.5t142 -107.5t87.5 -159t30 -194q0 -40 -4 -73t-6 -41h-635q6 -55 24 -91t43.5 -57.5
t57.5 -30t67 -8.5q24 0 47.5 4.5t44.5 16.5t38.5 32t29.5 52zM522 791q-81 0 -127 -49t-61 -140h371q-3 41 -16.5 75.5t-36 60t-55.5 39.5t-75 14zM809 1393q-1 -69 -24.5 -123.5t-63.5 -92.5t-92.5 -58.5t-110.5 -20.5q-60 0 -112 20.5t-90.5 58.5t-61 92.5t-23.5 123.5
h189q0 -53 28 -80t70 -27t69 27t27 80h195z" />
    <glyph glyph-name="Edotaccent" unicode="&#x116;" horiz-adv-x="1204" 
d="M1114 1116h-696v-285h588v-264h-588v-303h696v-264h-985v1380h985v-264zM752 1483h-269v282h269v-282z" />
    <glyph glyph-name="edotaccent" unicode="&#x117;" horiz-adv-x="1038" 
d="M952 322q-23 -77 -60.5 -139t-91 -106t-123 -67.5t-155.5 -23.5q-106 0 -191 35t-145 101.5t-92.5 163t-32.5 218.5q0 119 32 214.5t92 162.5t146 103t193 36q109 0 193.5 -39.5t142 -107.5t87.5 -159t30 -194q0 -40 -4 -73t-6 -41h-635q6 -55 24 -91t43.5 -57.5
t57.5 -30t67 -8.5q24 0 47.5 4.5t44.5 16.5t38.5 32t29.5 52zM522 791q-81 0 -127 -49t-61 -140h371q-3 41 -16.5 75.5t-36 60t-55.5 39.5t-75 14zM662 1118h-269v283h269v-283z" />
    <glyph glyph-name="Eogonek" unicode="&#x118;" horiz-adv-x="1204" 
d="M995 -98q0 -35 23.5 -55.5t60.5 -20.5q23 0 38 3q9 1 16 3v-162q-14 -7 -32 -11q-15 -5 -36 -8t-45 -3q-48 0 -89 15t-72 42t-48.5 63t-17.5 78q0 51 20 90t55 64h-739v1380h985v-264h-696v-285h588v-264h-588v-303h696v-270q-34 -2 -56.5 -10t-36.5 -20.5t-20 -28
t-6 -33.5z" />
    <glyph glyph-name="eogonek" unicode="&#x119;" horiz-adv-x="1038" 
d="M952 322q-35 -119 -104.5 -200.5t-177.5 -115.5q-62 -18 -89.5 -45.5t-27.5 -62.5q0 -36 23.5 -56t60.5 -20q22 0 37 3q9 1 16 3v-162q-14 -7 -32 -11q-15 -5 -35.5 -8t-44.5 -3q-48 0 -89.5 15t-72 42t-48.5 63t-18 78q0 50 19.5 88.5t54.5 63.5q-84 15 -151.5 56
t-114.5 106t-72 152.5t-25 195.5q0 119 32 214.5t92 162.5t146 103t193 36q109 0 193.5 -39.5t142 -107.5t87.5 -159t30 -194q0 -40 -4 -73t-6 -41h-635q6 -55 24 -91t43.5 -57.5t57.5 -30t67 -8.5q24 0 47.5 4.5t44.5 16.5t38.5 32t29.5 52zM522 791q-81 0 -127 -49
t-61 -140h371q-3 41 -16.5 75.5t-36 60t-55.5 39.5t-75 14z" />
    <glyph glyph-name="Ecaron" unicode="&#x11a;" horiz-adv-x="1204" 
d="M1114 1116h-696v-285h588v-264h-588v-303h696v-264h-985v1380h985v-264zM545 1767l86 -129l86 129h246l-215 -290h-236l-211 290h244z" />
    <glyph glyph-name="ecaron" unicode="&#x11b;" horiz-adv-x="1038" 
d="M952 322q-23 -77 -60.5 -139t-91 -106t-123 -67.5t-155.5 -23.5q-106 0 -191 35t-145 101.5t-92.5 163t-32.5 218.5q0 119 32 214.5t92 162.5t146 103t193 36q109 0 193.5 -39.5t142 -107.5t87.5 -159t30 -194q0 -40 -4 -73t-6 -41h-635q6 -55 24 -91t43.5 -57.5
t57.5 -30t67 -8.5q24 0 47.5 4.5t44.5 16.5t38.5 32t29.5 52zM522 791q-81 0 -127 -49t-61 -140h371q-3 41 -16.5 75.5t-36 60t-55.5 39.5t-75 14zM436 1401l86 -129l86 129h246l-215 -291h-236l-210 291h243z" />
    <glyph glyph-name="Gcircumflex" unicode="&#x11c;" horiz-adv-x="1337" 
d="M948 942q-8 49 -30.5 87.5t-57.5 65t-80.5 40.5t-97.5 14q-159 0 -239.5 -116.5t-80.5 -340.5q0 -227 78.5 -344t237.5 -117q73 0 127 20.5t89 53.5t52 75.5t17 86.5v70h-371v251h659v-266q0 -111 -33 -210t-103 -174t-178.5 -119t-258.5 -44q-149 0 -262 50.5
t-189.5 144.5t-115.5 226t-39 296q0 163 40 295t117.5 225t191.5 143t261 50q121 0 218.5 -36.5t168.5 -99t115 -147t57 -180.5h-293zM346 1479l211 290h236l215 -290h-246l-86 129l-86 -129h-244z" />
    <glyph glyph-name="gcircumflex" unicode="&#x11d;" horiz-adv-x="1069" 
d="M356 -78q6 -21 19 -39.5t33 -33t46 -23t58 -8.5q49 0 83 13t55 43t30.5 78t9.5 118q-32 -28 -82 -49t-125 -21q-101 0 -179.5 37.5t-132.5 105.5t-82 163.5t-28 211.5q0 105 30.5 197t86 159.5t134 106.5t173.5 39q63 0 114 -23.5t91 -60.5l4 68h260v-916
q0 -131 -34.5 -224.5t-94.5 -152.5t-140.5 -86.5t-172.5 -27.5t-163.5 25t-123.5 68.5t-85.5 103t-49.5 128.5h266zM328 510q0 -146 45.5 -214.5t142.5 -68.5q92 0 137 67t45 212t-44.5 211.5t-137.5 66.5q-48 0 -83.5 -19t-59 -54.5t-34.5 -86t-11 -114.5zM229 1118
l211 291h236l215 -291h-246l-86 129l-86 -129h-244z" />
    <glyph glyph-name="Gbreve" unicode="&#x11e;" horiz-adv-x="1337" 
d="M948 942q-8 49 -30.5 87.5t-57.5 65t-80.5 40.5t-97.5 14q-159 0 -239.5 -116.5t-80.5 -340.5q0 -227 78.5 -344t237.5 -117q73 0 127 20.5t89 53.5t52 75.5t17 86.5v70h-371v251h659v-266q0 -111 -33 -210t-103 -174t-178.5 -119t-258.5 -44q-149 0 -262 50.5
t-189.5 144.5t-115.5 226t-39 296q0 163 40 295t117.5 225t191.5 143t261 50q121 0 218.5 -36.5t168.5 -99t115 -147t57 -180.5h-293zM981 1755q-1 -68 -24.5 -123t-63.5 -93t-92.5 -58.5t-110.5 -20.5q-60 0 -112 20.5t-90.5 58.5t-61 93t-23.5 123h189q0 -52 28 -79
t70 -27t69 27t27 79h195z" />
    <glyph glyph-name="gbreve" unicode="&#x11f;" horiz-adv-x="1069" 
d="M356 -78q6 -21 19 -39.5t33 -33t46 -23t58 -8.5q49 0 83 13t55 43t30.5 78t9.5 118q-32 -28 -82 -49t-125 -21q-101 0 -179.5 37.5t-132.5 105.5t-82 163.5t-28 211.5q0 105 30.5 197t86 159.5t134 106.5t173.5 39q63 0 114 -23.5t91 -60.5l4 68h260v-916
q0 -131 -34.5 -224.5t-94.5 -152.5t-140.5 -86.5t-172.5 -27.5t-163.5 25t-123.5 68.5t-85.5 103t-49.5 128.5h266zM328 510q0 -146 45.5 -214.5t142.5 -68.5q92 0 137 67t45 212t-44.5 211.5t-137.5 66.5q-48 0 -83.5 -19t-59 -54.5t-34.5 -86t-11 -114.5zM862 1393
q-1 -69 -24.5 -123.5t-63.5 -92.5t-92.5 -58.5t-110.5 -20.5q-60 0 -111.5 20.5t-90 58.5t-61 92.5t-23.5 123.5h188q0 -53 28 -80t70 -27t69.5 27t27.5 80h194z" />
    <glyph glyph-name="Gdotaccent" unicode="&#x120;" horiz-adv-x="1337" 
d="M948 942q-8 49 -30.5 87.5t-57.5 65t-80.5 40.5t-97.5 14q-159 0 -239.5 -116.5t-80.5 -340.5q0 -227 78.5 -344t237.5 -117q73 0 127 20.5t89 53.5t52 75.5t17 86.5v70h-371v251h659v-266q0 -111 -33 -210t-103 -174t-178.5 -119t-258.5 -44q-149 0 -262 50.5
t-189.5 144.5t-115.5 226t-39 296q0 163 40 295t117.5 225t191.5 143t261 50q121 0 218.5 -36.5t168.5 -99t115 -147t57 -180.5h-293zM819 1487h-268v282h268v-282z" />
    <glyph glyph-name="gdotaccent" unicode="&#x121;" horiz-adv-x="1069" 
d="M356 -78q6 -21 19 -39.5t33 -33t46 -23t58 -8.5q49 0 83 13t55 43t30.5 78t9.5 118q-32 -28 -82 -49t-125 -21q-101 0 -179.5 37.5t-132.5 105.5t-82 163.5t-28 211.5q0 105 30.5 197t86 159.5t134 106.5t173.5 39q63 0 114 -23.5t91 -60.5l4 68h260v-916
q0 -131 -34.5 -224.5t-94.5 -152.5t-140.5 -86.5t-172.5 -27.5t-163.5 25t-123.5 68.5t-85.5 103t-49.5 128.5h266zM328 510q0 -146 45.5 -214.5t142.5 -68.5q92 0 137 67t45 212t-44.5 211.5t-137.5 66.5q-48 0 -83.5 -19t-59 -54.5t-34.5 -86t-11 -114.5zM705 1133h-269
v282h269v-282z" />
    <glyph glyph-name="Gcommaaccent" unicode="&#x122;" horiz-adv-x="1337" 
d="M948 942q-8 49 -30.5 87.5t-57.5 65t-80.5 40.5t-97.5 14q-159 0 -239.5 -116.5t-80.5 -340.5q0 -227 78.5 -344t237.5 -117q73 0 127 20.5t89 53.5t52 75.5t17 86.5v70h-371v251h659v-266q0 -111 -33 -210t-103 -174t-178.5 -119t-258.5 -44q-149 0 -262 50.5
t-189.5 144.5t-115.5 226t-39 296q0 163 40 295t117.5 225t191.5 143t261 50q121 0 218.5 -36.5t168.5 -99t115 -147t57 -180.5h-293zM578 -86h225v-111q0 -58 -17 -101.5t-44.5 -75t-62.5 -52t-70 -33t-67 -17.5t-55 -5v164q18 0 34.5 7.5t29 20.5t20 30t7.5 36v137z" />
    <glyph glyph-name="gcommaaccent" unicode="&#x123;" horiz-adv-x="1069" 
d="M356 -78q6 -21 19 -39.5t33 -33t46 -23t58 -8.5q49 0 83 13t55 43t30.5 78t9.5 118q-32 -28 -82 -49t-125 -21q-101 0 -179.5 37.5t-132.5 105.5t-82 163.5t-28 211.5q0 105 30.5 197t86 159.5t134 106.5t173.5 39q63 0 114 -23.5t91 -60.5l4 68h260v-916
q0 -131 -34.5 -224.5t-94.5 -152.5t-140.5 -86.5t-172.5 -27.5t-163.5 25t-123.5 68.5t-85.5 103t-49.5 128.5h266zM328 510q0 -146 45.5 -214.5t142.5 -68.5q92 0 137 67t45 212t-44.5 211.5t-137.5 66.5q-48 0 -83.5 -19t-59 -54.5t-34.5 -86t-11 -114.5zM449 1114v326
h239l-49 -326h-190z" />
    <glyph glyph-name="Hcircumflex" unicode="&#x124;" horiz-adv-x="1325" 
d="M1196 0h-289v569h-489v-569h-289v1380h289v-542h489v542h289v-1380zM328 1477l211 290h235l215 -290h-246l-86 129l-86 -129h-243z" />
    <glyph glyph-name="hcircumflex" unicode="&#x125;" horiz-adv-x="1073" 
d="M121 0v1384h264v-452q53 38 116.5 61t123.5 23q81 0 145.5 -29t109 -81t68 -125t23.5 -160v-621h-264v604q0 51 -13.5 85t-34.5 54.5t-47 29.5t-51 9q-42 0 -75 -13t-55.5 -44t-34 -83t-11.5 -130v-512h-264zM231 1493l211 291h236l215 -291h-246l-86 129l-86 -129h-244z
" />
    <glyph glyph-name="Hbar" unicode="&#x126;" horiz-adv-x="1323" 
d="M1196 1284h94v-223h-94v-1061h-289v580h-489v-580h-289v1061h-96v223h96v96h289v-96h489v96h289v-96zM907 1061h-489v-234h489v234z" />
    <glyph glyph-name="hbar" unicode="&#x127;" 
d="M37 1284h78v100h266v-100h309v-182h-309v-166q53 42 115 61t122 19q82 0 146.5 -29t109 -81t68 -125t23.5 -160v-621h-265v602q0 51 -13 85.5t-34 55.5t-47 30t-51 9q-42 0 -74.5 -13t-54.5 -44t-33.5 -82.5t-11.5 -128.5v-514h-266v1102h-78v182z" />
    <glyph glyph-name="Itilde" unicode="&#x128;" horiz-adv-x="551" 
d="M420 0h-289v1380h289v-1380zM625 1759q-5 -57 -21 -106.5t-43 -86t-64 -58t-83 -21.5q-24 0 -48.5 5t-48 13t-45 17.5t-39.5 17.5q-20 9 -35.5 16t-35.5 7q-22 0 -30 -19.5t-13 -50.5h-193q7 56 23.5 105t44 85t68 57t96.5 21q34 0 68.5 -12t72.5 -31q35 -17 57 -23.5
t39 -6.5q23 0 30.5 21t10.5 50h189z" />
    <glyph glyph-name="itilde" unicode="&#x129;" horiz-adv-x="502" 
d="M383 0h-264v1004h264v-1004zM600 1384q-5 -57 -21 -106.5t-43 -86t-64 -58t-83 -21.5q-24 0 -48.5 5t-47.5 13t-44.5 17.5t-39.5 17.5q-20 10 -36 16.5t-36 6.5q-21 0 -29.5 -19.5t-13.5 -50.5h-192q7 56 23 105t44 85t68.5 57t95.5 21q34 0 68.5 -12t72.5 -31
q36 -17 58 -23.5t39 -6.5q23 0 30.5 21t10.5 50h188z" />
    <glyph glyph-name="Imacron" unicode="&#x12a;" horiz-adv-x="551" 
d="M420 0h-289v1380h289v-1380zM-23 1710h594v-192h-594v192z" />
    <glyph glyph-name="imacron" unicode="&#x12b;" horiz-adv-x="502" 
d="M383 0h-264v1004h264v-1004zM-45 1356h594v-193h-594v193z" />
    <glyph glyph-name="Ibreve" unicode="&#x12c;" horiz-adv-x="551" 
d="M420 0h-289v1380h289v-1380zM565 1757q-1 -68 -24.5 -123t-63.5 -93t-92.5 -58.5t-110.5 -20.5q-60 0 -111.5 20.5t-90 58.5t-61 93t-23.5 123h188q0 -52 28 -79t70 -27t69.5 27t27.5 79h194z" />
    <glyph glyph-name="ibreve" unicode="&#x12d;" horiz-adv-x="504" 
d="M383 0h-264v1004h264v-1004zM541 1393q-1 -69 -24.5 -123.5t-63.5 -92.5t-92.5 -58.5t-110.5 -20.5q-60 0 -112 20.5t-90.5 58.5t-61 92.5t-23.5 123.5h189q0 -53 28 -80t70 -27t69 27t27 80h195z" />
    <glyph glyph-name="Iogonek" unicode="&#x12e;" horiz-adv-x="551" 
d="M301 -98q0 -35 23.5 -55.5t60.5 -20.5q22 0 37 3q9 1 16 3v-162q-14 -7 -32 -11q-15 -5 -35.5 -8t-44.5 -3q-48 0 -89.5 15t-72 42t-48.5 63t-18 78q0 51 20.5 90t55.5 64h-43v1380h289v-1386q-34 -2 -56.5 -10t-36.5 -20.5t-20 -28t-6 -33.5z" />
    <glyph glyph-name="iogonek" unicode="&#x12f;" horiz-adv-x="518" 
d="M266 -100q0 -35 23.5 -55.5t60.5 -20.5q22 0 37 3q9 1 16 3v-162q-14 -7 -32 -11q-15 -5 -35.5 -8t-44.5 -3q-48 0 -89.5 15t-72 42t-48.5 63t-18 78q0 51 21 91t59 65h-22v1004h264v-1012q-34 -2 -56.5 -10t-36.5 -20.5t-20 -28t-6 -33.5zM387 1122h-268v283h268v-283z
" />
    <glyph glyph-name="Idotaccent" unicode="&#x130;" horiz-adv-x="551" 
d="M420 0h-289v1380h289v-1380zM410 1485h-269v282h269v-282z" />
    <glyph glyph-name="dotlessi" unicode="&#x131;" horiz-adv-x="502" 
d="M383 0h-264v1004h264v-1004z" />
    <glyph glyph-name="IJ" unicode="&#x132;" horiz-adv-x="1497" 
d="M420 0h-289v1380h289v-1380zM801 383q3 -72 36.5 -114t104.5 -42q69 0 104 43.5t35 118.5v991h289v-991q0 -72 -24.5 -145.5t-76.5 -133.5t-133 -97.5t-194 -37.5q-102 0 -180 33t-131 89.5t-81 130.5t-30 155h281z" />
    <glyph glyph-name="ij" unicode="&#x133;" horiz-adv-x="1014" 
d="M383 0h-264v1004h264v-1004zM385 1122h-268v283h268v-283zM897 1122h-268v283h268v-283zM451 -162h100q45 0 62.5 19.5t17.5 70.5v1076h264v-1057q0 -95 -21 -159.5t-62.5 -105t-102 -58t-138.5 -17.5q-43 0 -69.5 5t-50.5 11v215z" />
    <glyph glyph-name="Jcircumflex" unicode="&#x134;" horiz-adv-x="973" 
d="M270 383q3 -72 36.5 -114t105.5 -42q69 0 104 43.5t35 118.5v991h289v-991q0 -72 -24.5 -145.5t-76.5 -133.5t-133 -97.5t-194 -37.5q-102 0 -180 33t-131 89.5t-81 130.5t-30 155h280zM369 1479l211 290h235l215 -290h-246l-86 129l-86 -129h-243z" />
    <glyph glyph-name="jcircumflex" unicode="&#x135;" horiz-adv-x="518" 
d="M-45 -162h100q45 0 62.5 19.5t17.5 70.5v1076h264v-1057q0 -95 -21 -159.5t-62 -105t-101.5 -58t-138.5 -17.5q-44 0 -70 5t-51 11v215zM-68 1145l211 291h236l215 -291h-246l-86 129l-86 -129h-244z" />
    <glyph glyph-name="Kcommaaccent" unicode="&#x136;" horiz-adv-x="1317" 
d="M813 827l504 -827h-338l-356 604l-205 -239v-365h-289v1380h289v-608l510 608h360zM584 -86h225v-111q0 -58 -17 -101.5t-44.5 -75t-62 -52t-69.5 -33t-67.5 -17.5t-54.5 -5v164q18 0 34 7.5t28.5 20.5t20 30t7.5 36v137z" />
    <glyph glyph-name="kcommaaccent" unicode="&#x137;" horiz-adv-x="1034" 
d="M672 596l387 -596h-307l-265 412l-108 -119v-293h-264v1384h264v-766l340 386h305zM449 -86h225v-111q0 -58 -17 -101.5t-44.5 -75t-62.5 -52t-70 -33t-67 -17.5t-55 -5v164q18 0 34.5 7.5t29 20.5t20 30t7.5 36v137z" />
    <glyph glyph-name="kgreenlandic" unicode="&#x138;" horiz-adv-x="1026" 
d="M645 944q31 32 82.5 57t120.5 25q34 0 60 -2.5t45 -5.5q21 -4 38 -8v-219h-121q-29 0 -49 -13.5t-43 -38.5l-145 -159l418 -580h-316l-278 401l-78 -77v-324h-264v1004h264v-342z" />
    <glyph glyph-name="Lacute" unicode="&#x139;" horiz-adv-x="1073" 
d="M418 268h639v-268h-928v1380h289v-1112zM129 1479l164 290h285l-216 -290h-233z" />
    <glyph glyph-name="lacute" unicode="&#x13a;" horiz-adv-x="537" 
d="M369 287q0 -38 24 -54t51 -16h48v-199q-16 -7 -34 -12q-16 -5 -37.5 -8.5t-45.5 -3.5q-51 0 -99.5 11t-86.5 42.5t-61.5 88t-23.5 147.5v1101h265v-1097zM109 1477l163 290h285l-215 -290h-233z" />
    <glyph glyph-name="Lcommaaccent" unicode="&#x13b;" horiz-adv-x="1073" 
d="M418 268h639v-268h-928v1380h289v-1112zM510 -86h225v-111q0 -58 -17 -101.5t-44.5 -75t-62 -52t-69.5 -33t-67.5 -17.5t-54.5 -5v164q18 0 34 7.5t28.5 20.5t20 30t7.5 36v137z" />
    <glyph glyph-name="lcommaaccent" unicode="&#x13c;" horiz-adv-x="537" 
d="M369 287q0 -38 24 -54t51 -16h48v-199q-16 -7 -34 -12q-16 -5 -37.5 -8.5t-45.5 -3.5q-51 0 -99.5 11t-86.5 42.5t-61.5 88t-23.5 147.5v1101h265v-1097zM256 -86h225v-111q0 -58 -17 -101.5t-44.5 -75t-62 -52t-69.5 -33t-67.5 -17.5t-54.5 -5v164q18 0 34 7.5
t28.5 20.5t20 30t7.5 36v137z" />
    <glyph glyph-name="Lcaron" unicode="&#x13d;" horiz-adv-x="1073" 
d="M418 268h639v-268h-928v1380h289v-1112zM664 1053v325h239l-49 -325h-190z" />
    <glyph glyph-name="lcaron" unicode="&#x13e;" horiz-adv-x="868" 
d="M369 287q0 -38 24 -54t51 -16h48v-199q-16 -7 -34 -12q-16 -5 -37.5 -8.5t-45.5 -3.5q-51 0 -99.5 11t-86.5 42.5t-61.5 88t-23.5 147.5v1101h265v-1097zM569 1114v326h240l-49 -326h-191z" />
    <glyph glyph-name="Ldot" unicode="&#x13f;" horiz-adv-x="1073" 
d="M418 268h639v-268h-928v1380h289v-1112zM844 803v-314h-238v314h238z" />
    <glyph glyph-name="ldot" unicode="&#x140;" horiz-adv-x="834" 
d="M369 287q0 -38 24 -54t51 -16h48v-199q-16 -7 -34 -12q-16 -5 -37.5 -8.5t-45.5 -3.5q-51 0 -99.5 11t-86.5 42.5t-61.5 88t-23.5 147.5v1101h265v-1097zM793 764v-313h-238v313h238z" />
    <glyph glyph-name="Lslash" unicode="&#x141;" horiz-adv-x="1135" 
d="M479 850l363 156v-267l-363 -155v-316h639v-268h-928v457l-135 -58v267l135 57v657h289v-530z" />
    <glyph glyph-name="lslash" unicode="&#x142;" horiz-adv-x="690" 
d="M463 817l151 68v-262l-151 -66v-276q0 -39 18 -51.5t39 -12.5h90v-199q-23 -7 -47 -12q-20 -5 -44 -8.5t-44 -3.5q-53 0 -102.5 11t-88 42.5t-62 88t-23.5 147.5v155l-146 -65v262l146 63v686h264v-567z" />
    <glyph glyph-name="Nacute" unicode="&#x143;" horiz-adv-x="1327" 
d="M1198 0h-278l-502 844v-844h-289v1380h277l503 -845v845h289v-1380zM438 1479l164 290h285l-215 -290h-234z" />
    <glyph glyph-name="nacute" unicode="&#x144;" 
d="M115 0v1004h260l4 -70q53 38 113.5 60t125.5 22q82 0 146.5 -29t109 -81t68 -125t23.5 -160v-621h-265v604q0 52 -14 86.5t-35.5 54.5t-47.5 28.5t-50 8.5q-42 0 -74.5 -13t-54.5 -44t-33.5 -83t-11.5 -130v-512h-264zM362 1118l164 291h285l-215 -291h-234z" />
    <glyph glyph-name="Ncommaaccent" unicode="&#x145;" horiz-adv-x="1327" 
d="M1198 0h-278l-502 844v-844h-289v1380h277l503 -845v845h289v-1380zM571 -86h226v-111q0 -58 -17 -101.5t-45 -75t-62.5 -52t-69.5 -33t-67.5 -17.5t-54.5 -5v164q18 0 34 7.5t28.5 20.5t20 30t7.5 36v137z" />
    <glyph glyph-name="ncommaaccent" unicode="&#x146;" 
d="M115 0v1004h260l4 -70q53 38 113.5 60t125.5 22q82 0 146.5 -29t109 -81t68 -125t23.5 -160v-621h-265v604q0 52 -14 86.5t-35.5 54.5t-47.5 28.5t-50 8.5q-42 0 -74.5 -13t-54.5 -44t-33.5 -83t-11.5 -130v-512h-264zM428 -86h225v-111q0 -58 -17 -101.5t-44.5 -75
t-62 -52t-69.5 -33t-67.5 -17.5t-54.5 -5v164q18 0 34 7.5t28.5 20.5t20 30t7.5 36v137z" />
    <glyph glyph-name="Ncaron" unicode="&#x147;" horiz-adv-x="1327" 
d="M1198 0h-278l-502 844v-844h-289v1380h277l503 -845v845h289v-1380zM582 1769l86 -129l86 129h245l-215 -290h-235l-211 290h244z" />
    <glyph glyph-name="ncaron" unicode="&#x148;" 
d="M115 0v1004h260l4 -70q53 38 113.5 60t125.5 22q82 0 146.5 -29t109 -81t68 -125t23.5 -160v-621h-265v604q0 52 -14 86.5t-35.5 54.5t-47.5 28.5t-50 8.5q-42 0 -74.5 -13t-54.5 -44t-33.5 -83t-11.5 -130v-512h-264zM465 1405l86 -129l86 129h246l-215 -291h-236
l-211 291h244z" />
    <glyph glyph-name="napostrophe" unicode="&#x149;" horiz-adv-x="1323" 
d="M371 0v1004h260l4 -70q53 38 113.5 60t125.5 22q82 0 146.5 -29t109 -81t68 -125t23.5 -160v-621h-265v604q0 52 -14 86.5t-35.5 54.5t-47.5 28.5t-50 8.5q-42 0 -74.5 -13t-54.5 -44t-33.5 -83t-11.5 -130v-512h-264zM8 1075v326h240l-49 -326h-191z" />
    <glyph glyph-name="Eng" unicode="&#x14a;" horiz-adv-x="1305" 
d="M1178 -104q0 -92 -27.5 -148.5t-71.5 -87.5t-99.5 -41t-111.5 -10q-31 0 -67 5t-62 11v209h95q29 0 49 14t20 56v94l-485 842v-840h-289v1380h277l485 -841v841h287v-1484z" />
    <glyph glyph-name="eng" unicode="&#x14b;" horiz-adv-x="1069" 
d="M115 0v1004h264v-68q54 37 114.5 58.5t120.5 21.5q84 0 149.5 -29t111 -81t69 -125t23.5 -160v-725q0 -90 -27 -146.5t-69.5 -88t-95.5 -43t-105 -11.5q-31 0 -67 5t-62 13v207h92q29 0 49 17t20 55v700q0 51 -14 85.5t-35.5 55t-46.5 29t-47 8.5q-42 0 -75.5 -12
t-57 -42.5t-35.5 -82t-12 -129.5v-516h-264z" />
    <glyph glyph-name="Omacron" unicode="&#x14c;" horiz-adv-x="1352" 
d="M676 1405q153 0 266.5 -56t188.5 -152t112 -222.5t37 -267.5q0 -163 -38.5 -298t-114.5 -231.5t-190 -149.5t-265 -53q-147 0 -259.5 52t-188 147t-114 228.5t-38.5 297.5q0 161 41 291.5t119 222.5t190 141.5t254 49.5zM676 1147q-150 0 -232 -113t-82 -334
q0 -230 77.5 -348.5t232.5 -118.5q160 0 238.5 120t78.5 349q0 98 -18.5 179.5t-56.5 140.5t-97.5 92t-140.5 33zM381 1712h594v-192h-594v192z" />
    <glyph glyph-name="omacron" unicode="&#x14d;" horiz-adv-x="1036" 
d="M518 -14q-108 0 -192.5 35.5t-143.5 103t-90 165t-31 222.5q0 111 30 204t88.5 160.5t143.5 105.5t195 38t195 -38t143.5 -105.5t88.5 -160.5t30 -204q0 -125 -31 -222.5t-90 -165t-143.5 -103t-192.5 -35.5zM518 219q98 0 144.5 69t46.5 220q0 65 -11.5 116.5t-35 87.5
t-59.5 55t-85 19t-85 -19t-59 -55t-34.5 -87.5t-11.5 -116.5q0 -151 46 -220t144 -69zM225 1356h594v-193h-594v193z" />
    <glyph glyph-name="Obreve" unicode="&#x14e;" horiz-adv-x="1352" 
d="M676 1405q153 0 266.5 -56t188.5 -152t112 -222.5t37 -267.5q0 -163 -38.5 -298t-114.5 -231.5t-190 -149.5t-265 -53q-147 0 -259.5 52t-188 147t-114 228.5t-38.5 297.5q0 161 41 291.5t119 222.5t190 141.5t254 49.5zM676 1147q-150 0 -232 -113t-82 -334
q0 -230 77.5 -348.5t232.5 -118.5q160 0 238.5 120t78.5 349q0 98 -18.5 179.5t-56.5 140.5t-97.5 92t-140.5 33zM969 1755q-1 -68 -24.5 -123t-63.5 -93t-92.5 -58.5t-110.5 -20.5q-60 0 -112 20.5t-90.5 58.5t-61 93t-23.5 123h189q0 -52 28 -79t70 -27t69 27t27 79h195z
" />
    <glyph glyph-name="obreve" unicode="&#x14f;" horiz-adv-x="1036" 
d="M518 -14q-108 0 -192.5 35.5t-143.5 103t-90 165t-31 222.5q0 111 30 204t88.5 160.5t143.5 105.5t195 38t195 -38t143.5 -105.5t88.5 -160.5t30 -204q0 -125 -31 -222.5t-90 -165t-143.5 -103t-192.5 -35.5zM518 219q98 0 144.5 69t46.5 220q0 65 -11.5 116.5t-35 87.5
t-59.5 55t-85 19t-85 -19t-59 -55t-34.5 -87.5t-11.5 -116.5q0 -151 46 -220t144 -69zM807 1393q-1 -69 -24.5 -123.5t-63.5 -92.5t-92.5 -58.5t-110.5 -20.5q-60 0 -112 20.5t-90.5 58.5t-61 92.5t-23.5 123.5h189q0 -53 28 -80t70 -27t69 27t27 80h195z" />
    <glyph glyph-name="Ohungarumlaut" unicode="&#x150;" horiz-adv-x="1352" 
d="M676 1405q153 0 266.5 -56t188.5 -152t112 -222.5t37 -267.5q0 -163 -38.5 -298t-114.5 -231.5t-190 -149.5t-265 -53q-147 0 -259.5 52t-188 147t-114 228.5t-38.5 297.5q0 161 41 291.5t119 222.5t190 141.5t254 49.5zM676 1147q-150 0 -232 -113t-82 -334
q0 -230 77.5 -348.5t232.5 -118.5q160 0 238.5 120t78.5 349q0 98 -18.5 179.5t-56.5 140.5t-97.5 92t-140.5 33zM702 1481l218 284h235l-254 -284h-199zM371 1481l211 284h235l-254 -284h-192z" />
    <glyph glyph-name="ohungarumlaut" unicode="&#x151;" horiz-adv-x="1036" 
d="M518 -14q-108 0 -192.5 35.5t-143.5 103t-90 165t-31 222.5q0 111 30 204t88.5 160.5t143.5 105.5t195 38t195 -38t143.5 -105.5t88.5 -160.5t30 -204q0 -125 -31 -222.5t-90 -165t-143.5 -103t-192.5 -35.5zM518 219q98 0 144.5 69t46.5 220q0 65 -11.5 116.5t-35 87.5
t-59.5 55t-85 19t-85 -19t-59 -55t-34.5 -87.5t-11.5 -116.5q0 -151 46 -220t144 -69zM514 1118l217 285h236l-254 -285h-199zM182 1118l211 285h236l-254 -285h-193z" />
    <glyph glyph-name="OE" unicode="&#x152;" horiz-adv-x="1911" 
d="M1841 1116h-635v-282h527v-265h-527v-305h635v-264h-923v20q-57 -21 -118.5 -33t-127.5 -12q-149 0 -261 52t-187.5 147t-113.5 228.5t-38 297.5q0 161 40 291.5t117 222.5t188.5 141.5t254.5 49.5q66 0 127.5 -13t118.5 -36v24h923v-264zM672 1155q-150 0 -228.5 -117
t-78.5 -338q0 -229 76.5 -352t230.5 -123q167 0 246 133v666q-20 28 -46 52t-57.5 41.5t-67.5 27.5t-75 10z" />
    <glyph glyph-name="oe" unicode="&#x153;" horiz-adv-x="1671" 
d="M1585 324q-24 -77 -62.5 -139.5t-91.5 -106.5t-121.5 -68t-152.5 -24q-99 0 -178 30.5t-141 87.5q-60 -57 -140.5 -87.5t-177.5 -30.5q-110 0 -195.5 35.5t-144 103t-89 165t-30.5 222.5q0 120 33 214t93 159.5t144.5 100t188.5 34.5q99 0 179 -33t139 -90q62 59 141 91
t178 32q109 0 193.5 -39.5t142 -107.5t87.5 -159t30 -194q0 -40 -4.5 -70t-6.5 -38h-632q6 -56 23 -94t42.5 -61t57.5 -33.5t69 -10.5q45 0 87.5 27t68.5 84h270zM520 215q95 0 141 71t46 222q0 65 -11.5 117.5t-34.5 89t-58 56.5t-83 20q-93 0 -142.5 -70t-49.5 -213
q0 -151 46 -222t146 -71zM1157 793q-39 0 -71 -14t-56 -39t-39 -60.5t-20 -77.5h364q-3 41 -15.5 76t-35 60.5t-54 40t-73.5 14.5z" />
    <glyph glyph-name="Racute" unicode="&#x154;" horiz-adv-x="1319" 
d="M760 1380q82 0 148.5 -19.5t117.5 -52.5t88 -77.5t61 -94t35 -101.5t11 -101q0 -51 -15 -107t-45 -108.5t-76.5 -98t-109.5 -75.5l323 -545h-333l-283 500h-264v-500h-289v1380h631zM418 1116v-354h340q45 0 77.5 15t53.5 39.5t31 56t10 63.5t-10 64.5t-31 58t-53.5 41.5
t-77.5 16h-340zM432 1479l164 290h285l-215 -290h-234z" />
    <glyph glyph-name="racute" unicode="&#x155;" horiz-adv-x="729" 
d="M117 0v1004h260l4 -103q21 30 48 52t55.5 36.5t56.5 21.5t53 7q34 0 56.5 -2.5t43.5 -11.5v-236h-110q-45 0 -82.5 -15.5t-64.5 -50t-41.5 -90t-14.5 -135.5v-477h-264zM197 1114l163 291h285l-215 -291h-233z" />
    <glyph glyph-name="Rcommaaccent" unicode="&#x156;" horiz-adv-x="1319" 
d="M760 1380q82 0 148.5 -19.5t117.5 -52.5t88 -77.5t61 -94t35 -101.5t11 -101q0 -51 -15 -107t-45 -108.5t-76.5 -98t-109.5 -75.5l323 -545h-333l-283 500h-264v-500h-289v1380h631zM418 1116v-354h340q45 0 77.5 15t53.5 39.5t31 56t10 63.5t-10 64.5t-31 58t-53.5 41.5
t-77.5 16h-340zM569 -86h226v-111q0 -58 -17 -101.5t-45 -75t-62.5 -52t-69.5 -33t-67.5 -17.5t-54.5 -5v164q18 0 34 7.5t28.5 20.5t20 30t7.5 36v137z" />
    <glyph glyph-name="rcommaaccent" unicode="&#x157;" horiz-adv-x="729" 
d="M117 0v1004h260l4 -103q21 30 48 52t55.5 36.5t56.5 21.5t53 7q34 0 56.5 -2.5t43.5 -11.5v-236h-110q-45 0 -82.5 -15.5t-64.5 -50t-41.5 -90t-14.5 -135.5v-477h-264zM133 -86h225v-111q0 -58 -17 -101.5t-44.5 -75t-62 -52t-69.5 -33t-67.5 -17.5t-54.5 -5v164
q18 0 34 7.5t28.5 20.5t20 30t7.5 36v137z" />
    <glyph glyph-name="Rcaron" unicode="&#x158;" horiz-adv-x="1319" 
d="M760 1380q82 0 148.5 -19.5t117.5 -52.5t88 -77.5t61 -94t35 -101.5t11 -101q0 -51 -15 -107t-45 -108.5t-76.5 -98t-109.5 -75.5l323 -545h-333l-283 500h-264v-500h-289v1380h631zM418 1116v-354h340q45 0 77.5 15t53.5 39.5t31 56t10 63.5t-10 64.5t-31 58t-53.5 41.5
t-77.5 16h-340zM528 1767l86 -129l86 129h246l-215 -290h-235l-211 290h243z" />
    <glyph glyph-name="rcaron" unicode="&#x159;" horiz-adv-x="729" 
d="M117 0v1004h260l4 -103q21 30 48 52t55.5 36.5t56.5 21.5t53 7q34 0 56.5 -2.5t43.5 -11.5v-236h-110q-45 0 -82.5 -15.5t-64.5 -50t-41.5 -90t-14.5 -135.5v-477h-264zM326 1401l86 -129l86 129h245l-215 -291h-235l-211 291h244z" />
    <glyph glyph-name="Sacute" unicode="&#x15a;" horiz-adv-x="1239" 
d="M836 981q-6 36 -22 68t-43.5 56t-66.5 38t-90 14q-46 0 -85.5 -10.5t-69 -30.5t-46 -49t-16.5 -66q0 -48 30.5 -75t86 -45.5t132.5 -34t171 -39.5q88 -23 153 -58t108 -83t64 -110.5t21 -141.5q0 -97 -40 -177.5t-112.5 -138.5t-175 -90.5t-227.5 -32.5t-222.5 38
t-166 101.5t-108.5 147t-50 174.5h299q6 -42 24 -80t49.5 -66.5t76 -45.5t102.5 -17q60 0 108.5 12.5t82.5 36t52.5 57t18.5 75.5q0 52 -27 81.5t-80.5 49t-133 36t-184.5 43.5q-59 15 -120 43.5t-110.5 74t-81 110t-31.5 151.5q0 92 36.5 167.5t103.5 129t161 82.5t209 29
t206 -33t155.5 -90t103 -134.5t49.5 -166.5h-294zM453 1479l163 290h285l-215 -290h-233z" />
    <glyph glyph-name="sacute" unicode="&#x15b;" horiz-adv-x="963" 
d="M319 324q11 -56 49.5 -85.5t116.5 -29.5t116 25t38 67q0 29 -16 45.5t-49 27.5t-84 21t-121 27q-57 14 -107.5 35.5t-89 54.5t-60.5 79t-22 109q0 59 24 116t72.5 102t123.5 72.5t177 27.5q94 0 165 -26t120 -70t76 -102.5t33 -123.5h-256q-8 48 -40 77.5t-98 29.5
t-99.5 -25t-33.5 -59q0 -30 13.5 -45t46.5 -24.5t88 -19.5t137 -30q53 -13 100.5 -36t83.5 -58t57 -83t21 -112q0 -69 -27 -128t-80 -102.5t-130.5 -68t-178.5 -24.5q-90 0 -164 24t-128.5 68.5t-89 106.5t-44.5 137h260zM311 1114l164 291h285l-215 -291h-234z" />
    <glyph glyph-name="Scircumflex" unicode="&#x15c;" horiz-adv-x="1239" 
d="M836 981q-6 36 -22 68t-43.5 56t-66.5 38t-90 14q-46 0 -85.5 -10.5t-69 -30.5t-46 -49t-16.5 -66q0 -48 30.5 -75t86 -45.5t132.5 -34t171 -39.5q88 -23 153 -58t108 -83t64 -110.5t21 -141.5q0 -97 -40 -177.5t-112.5 -138.5t-175 -90.5t-227.5 -32.5t-222.5 38
t-166 101.5t-108.5 147t-50 174.5h299q6 -42 24 -80t49.5 -66.5t76 -45.5t102.5 -17q60 0 108.5 12.5t82.5 36t52.5 57t18.5 75.5q0 52 -27 81.5t-80.5 49t-133 36t-184.5 43.5q-59 15 -120 43.5t-110.5 74t-81 110t-31.5 151.5q0 92 36.5 167.5t103.5 129t161 82.5t209 29
t206 -33t155.5 -90t103 -134.5t49.5 -166.5h-294zM289 1477l211 290h235l215 -290h-245l-87 129l-86 -129h-243z" />
    <glyph glyph-name="scircumflex" unicode="&#x15d;" horiz-adv-x="963" 
d="M319 324q11 -56 49.5 -85.5t116.5 -29.5t116 25t38 67q0 29 -16 45.5t-49 27.5t-84 21t-121 27q-57 14 -107.5 35.5t-89 54.5t-60.5 79t-22 109q0 59 24 116t72.5 102t123.5 72.5t177 27.5q94 0 165 -26t120 -70t76 -102.5t33 -123.5h-256q-8 48 -40 77.5t-98 29.5
t-99.5 -25t-33.5 -59q0 -30 13.5 -45t46.5 -24.5t88 -19.5t137 -30q53 -13 100.5 -36t83.5 -58t57 -83t21 -112q0 -69 -27 -128t-80 -102.5t-130.5 -68t-178.5 -24.5q-90 0 -164 24t-128.5 68.5t-89 106.5t-44.5 137h260zM160 1114l211 291h235l215 -291h-246l-86 129
l-86 -129h-243z" />
    <glyph glyph-name="Scedilla" unicode="&#x15e;" horiz-adv-x="1239" 
d="M836 981q-6 36 -22 68t-43.5 56t-66.5 38t-90 14q-46 0 -85.5 -10.5t-69 -30.5t-46 -49t-16.5 -66q0 -48 30.5 -75t86 -45.5t132.5 -34t171 -39.5q88 -23 153 -58t108 -83t64 -110.5t21 -141.5q0 -97 -40 -177.5t-112.5 -138.5t-175 -90.5t-227.5 -32.5t-222.5 38
t-166 101.5t-108.5 147t-50 174.5h299q6 -42 24 -80t49.5 -66.5t76 -45.5t102.5 -17q60 0 108.5 12.5t82.5 36t52.5 57t18.5 75.5q0 52 -27 81.5t-80.5 49t-133 36t-184.5 43.5q-59 15 -120 43.5t-110.5 74t-81 110t-31.5 151.5q0 92 36.5 167.5t103.5 129t161 82.5t209 29
t206 -33t155.5 -90t103 -134.5t49.5 -166.5h-294zM610 -260q0 25 -26 43.5t-78 21.5v121h78q49 0 91.5 -15t74 -42t49.5 -64t18 -81q0 -49 -20.5 -86t-53.5 -61.5t-74.5 -37t-82.5 -12.5q-26 0 -46 2.5t-34 5.5q-16 4 -27 8v150q8 -2 22.5 -3t26.5 -1q39 0 60.5 14t21.5 37z
" />
    <glyph glyph-name="scedilla" unicode="&#x15f;" horiz-adv-x="963" 
d="M319 324q11 -56 49.5 -85.5t116.5 -29.5t116 25t38 67q0 29 -16 45.5t-49 27.5t-84 21t-121 27q-57 14 -107.5 35.5t-89 54.5t-60.5 79t-22 109q0 59 24 116t72.5 102t123.5 72.5t177 27.5q94 0 165 -26t120 -70t76 -102.5t33 -123.5h-256q-8 48 -40 77.5t-98 29.5
t-99.5 -25t-33.5 -59q0 -30 13.5 -45t46.5 -24.5t88 -19.5t137 -30q53 -13 100.5 -36t83.5 -58t57 -83t21 -112q0 -69 -27 -128t-80 -102.5t-130.5 -68t-178.5 -24.5q-90 0 -164 24t-128.5 68.5t-89 106.5t-44.5 137h260zM496 -260q0 25 -26 43.5t-79 21.5v121h78
q49 0 91.5 -15t74 -42t49.5 -64t18 -81q0 -49 -20.5 -86t-53.5 -61.5t-74 -37t-83 -12.5q-26 0 -45.5 2.5t-33.5 5.5q-16 4 -27 8v150q8 -2 22 -3t27 -1q38 0 60 14t22 37z" />
    <glyph glyph-name="Scaron" unicode="&#x160;" horiz-adv-x="1239" 
d="M836 981q-6 36 -22 68t-43.5 56t-66.5 38t-90 14q-46 0 -85.5 -10.5t-69 -30.5t-46 -49t-16.5 -66q0 -48 30.5 -75t86 -45.5t132.5 -34t171 -39.5q88 -23 153 -58t108 -83t64 -110.5t21 -141.5q0 -97 -40 -177.5t-112.5 -138.5t-175 -90.5t-227.5 -32.5t-222.5 38
t-166 101.5t-108.5 147t-50 174.5h299q6 -42 24 -80t49.5 -66.5t76 -45.5t102.5 -17q60 0 108.5 12.5t82.5 36t52.5 57t18.5 75.5q0 52 -27 81.5t-80.5 49t-133 36t-184.5 43.5q-59 15 -120 43.5t-110.5 74t-81 110t-31.5 151.5q0 92 36.5 167.5t103.5 129t161 82.5t209 29
t206 -33t155.5 -90t103 -134.5t49.5 -166.5h-294zM535 1767l86 -129l86 129h245l-215 -290h-235l-211 290h244z" />
    <glyph glyph-name="scaron" unicode="&#x161;" horiz-adv-x="963" 
d="M319 324q11 -56 49.5 -85.5t116.5 -29.5t116 25t38 67q0 29 -16 45.5t-49 27.5t-84 21t-121 27q-57 14 -107.5 35.5t-89 54.5t-60.5 79t-22 109q0 59 24 116t72.5 102t123.5 72.5t177 27.5q94 0 165 -26t120 -70t76 -102.5t33 -123.5h-256q-8 48 -40 77.5t-98 29.5
t-99.5 -25t-33.5 -59q0 -30 13.5 -45t46.5 -24.5t88 -19.5t137 -30q53 -13 100.5 -36t83.5 -58t57 -83t21 -112q0 -69 -27 -128t-80 -102.5t-130.5 -68t-178.5 -24.5q-90 0 -164 24t-128.5 68.5t-89 106.5t-44.5 137h260zM399 1401l86 -129l86 129h246l-215 -291h-235
l-211 291h243z" />
    <glyph glyph-name="Tcommaaccent" unicode="&#x162;" horiz-adv-x="1108" 
d="M1087 1112h-387v-1112h-288v1112h-392v268h1067v-268zM520 -260q0 25 -26 43.5t-78 21.5v121h78q49 0 91.5 -15t74 -42t49.5 -64t18 -81q0 -49 -20.5 -86t-53.5 -61.5t-74.5 -37t-82.5 -12.5q-26 0 -46 2.5t-34 5.5q-16 4 -27 8v150q8 -2 22.5 -3t26.5 -1q38 0 60 14
t22 37z" />
    <glyph glyph-name="tcommaaccent" unicode="&#x163;" horiz-adv-x="715" 
d="M449 1004h204v-230h-204v-479q0 -19 7 -33t17.5 -23t23.5 -13.5t25 -4.5h103v-203q-22 -7 -47 -12q-22 -5 -49.5 -8.5t-57.5 -3.5q-54 0 -105.5 12.5t-92 45.5t-65 90.5t-24.5 148.5v483h-151v230h151v366h265v-366zM406 -260q0 25 -26 43.5t-79 21.5v121h78
q49 0 91.5 -15t74 -42t49.5 -64t18 -81q0 -49 -20.5 -86t-53.5 -61.5t-74 -37t-83 -12.5q-26 0 -46 2.5t-34 5.5q-16 4 -27 8v150q8 -2 22.5 -3t27.5 -1q38 0 60 14t22 37z" />
    <glyph glyph-name="Tcaron" unicode="&#x164;" horiz-adv-x="1108" 
d="M1087 1112h-387v-1112h-288v1112h-392v268h1067v-268zM473 1767l86 -129l86 129h246l-215 -290h-236l-211 290h244z" />
    <glyph glyph-name="tcaron" unicode="&#x165;" horiz-adv-x="1040" 
d="M449 1004h204v-230h-204v-479q0 -19 7 -33t17.5 -23t23.5 -13.5t25 -4.5h103v-203q-22 -7 -47 -12q-22 -5 -49.5 -8.5t-57.5 -3.5q-54 0 -105.5 12.5t-92 45.5t-65 90.5t-24.5 148.5v483h-151v230h151v366h265v-366zM784 1114v326h240l-49 -326h-191z" />
    <glyph glyph-name="Tbar" unicode="&#x166;" horiz-adv-x="1087" 
d="M1067 1126h-377v-299h182v-221h-182v-606h-289v606h-196v221h196v299h-381v254h1047v-254z" />
    <glyph glyph-name="tbar" unicode="&#x167;" horiz-adv-x="715" 
d="M449 1004h204v-226h-204v-90h202v-219h-202v-174q0 -19 7 -33t17.5 -23t23.5 -13.5t25 -4.5h103v-203q-22 -7 -47 -12q-22 -5 -49.5 -8.5t-57.5 -3.5q-54 0 -105.5 12.5t-92 45.5t-65 90.5t-24.5 148.5v178h-151v219h151v90h-151v226h151v366h265v-366z" />
    <glyph glyph-name="Utilde" unicode="&#x168;" horiz-adv-x="1315" 
d="M1190 528q0 -152 -41 -257.5t-113 -171t-169.5 -95t-209.5 -29.5t-209 29.5t-169 95t-113 171t-41 257.5v852h289v-854q0 -84 16.5 -140t48 -90t76.5 -48.5t102 -14.5t102 14.5t76.5 48.5t48.5 90t17 140v854h289v-852zM999 1759q-5 -57 -21 -106.5t-43 -86t-64 -58
t-83 -21.5q-24 0 -48.5 5t-47.5 13t-44.5 17.5t-39.5 17.5q-20 9 -35.5 16t-35.5 7q-22 0 -30 -19.5t-13 -50.5h-193q7 56 23 105t44 85t68.5 57t95.5 21q35 0 69.5 -12t72.5 -31q35 -17 57 -23.5t39 -6.5q23 0 30.5 21t10.5 50h188z" />
    <glyph glyph-name="utilde" unicode="&#x169;" 
d="M952 1004v-1004h-260l-4 70q-53 -39 -116 -60.5t-123 -21.5q-82 0 -146.5 29t-109 81t-68 125t-23.5 160v621h265v-603q0 -51 14 -85.5t35.5 -55.5t47.5 -30t50 -9q42 0 74.5 14t54.5 46t33.5 84t11.5 129v510h264zM899 1384q-5 -57 -21 -106.5t-43 -86t-64 -58
t-83 -21.5q-24 0 -48.5 5t-47.5 13t-44.5 17.5t-39.5 17.5q-20 10 -36 16.5t-36 6.5q-21 0 -29.5 -19.5t-13.5 -50.5h-192q7 56 23 105t44 85t68.5 57t95.5 21q34 0 68.5 -12t72.5 -31q36 -17 58 -23.5t39 -6.5q23 0 30.5 21t10.5 50h188z" />
    <glyph glyph-name="Umacron" unicode="&#x16a;" horiz-adv-x="1315" 
d="M1190 528q0 -152 -41 -257.5t-113 -171t-169.5 -95t-209.5 -29.5t-209 29.5t-169 95t-113 171t-41 257.5v852h289v-854q0 -84 16.5 -140t48 -90t76.5 -48.5t102 -14.5t102 14.5t76.5 48.5t48.5 90t17 140v854h289v-852zM360 1712h594v-192h-594v192z" />
    <glyph glyph-name="umacron" unicode="&#x16b;" 
d="M952 1004v-1004h-260l-4 70q-53 -39 -116 -60.5t-123 -21.5q-82 0 -146.5 29t-109 81t-68 125t-23.5 160v621h265v-603q0 -51 14 -85.5t35.5 -55.5t47.5 -30t50 -9q42 0 74.5 14t54.5 46t33.5 84t11.5 129v510h264zM246 1356h594v-193h-594v193z" />
    <glyph glyph-name="Ubreve" unicode="&#x16c;" horiz-adv-x="1315" 
d="M1190 528q0 -152 -41 -257.5t-113 -171t-169.5 -95t-209.5 -29.5t-209 29.5t-169 95t-113 171t-41 257.5v852h289v-854q0 -84 16.5 -140t48 -90t76.5 -48.5t102 -14.5t102 14.5t76.5 48.5t48.5 90t17 140v854h289v-852zM952 1755q-1 -68 -24.5 -123t-63 -93t-92 -58.5
t-110.5 -20.5q-60 0 -112 20.5t-90.5 58.5t-61 93t-23.5 123h188q0 -52 28.5 -79t70.5 -27t69 27t27 79h194z" />
    <glyph glyph-name="ubreve" unicode="&#x16d;" 
d="M952 1004v-1004h-260l-4 70q-53 -39 -116 -60.5t-123 -21.5q-82 0 -146.5 29t-109 81t-68 125t-23.5 160v621h265v-603q0 -51 14 -85.5t35.5 -55.5t47.5 -30t50 -9q42 0 74.5 14t54.5 46t33.5 84t11.5 129v510h264zM815 1393q-1 -69 -24.5 -123.5t-63.5 -92.5
t-92.5 -58.5t-110.5 -20.5q-60 0 -111.5 20.5t-90 58.5t-61 92.5t-23.5 123.5h188q0 -53 28 -80t70 -27t69.5 27t27.5 80h194z" />
    <glyph glyph-name="Uring" unicode="&#x16e;" horiz-adv-x="1315" 
d="M1190 528q0 -152 -41 -257.5t-113 -171t-169.5 -95t-209.5 -29.5t-209 29.5t-169 95t-113 171t-41 257.5v852h289v-854q0 -84 16.5 -140t48 -90t76.5 -48.5t102 -14.5t102 14.5t76.5 48.5t48.5 90t17 140v854h289v-852zM573 1657q0 -40 25.5 -63t60.5 -23q36 0 61 23
t25 63t-25 63t-61 23q-35 0 -60.5 -23t-25.5 -63zM440 1657q0 45 17.5 84t47 67.5t69.5 45t85 16.5t85 -16.5t70 -45t47.5 -67.5t17.5 -84t-17.5 -84t-47.5 -67.5t-70 -45t-85 -16.5t-85 16.5t-69.5 45t-47 67.5t-17.5 84z" />
    <glyph glyph-name="uring" unicode="&#x16f;" 
d="M952 1004v-1004h-260l-4 70q-53 -39 -116 -60.5t-123 -21.5q-82 0 -146.5 29t-109 81t-68 125t-23.5 160v621h265v-603q0 -51 14 -85.5t35.5 -55.5t47.5 -30t50 -9q42 0 74.5 14t54.5 46t33.5 84t11.5 129v510h264zM457 1319q0 -40 25.5 -63t60.5 -23t60.5 23t25.5 63
t-25.5 63t-60.5 23t-60.5 -23t-25.5 -63zM324 1319q0 45 17 84t47 67.5t70 45t85 16.5t85 -16.5t70 -45t47 -67.5t17 -84t-17 -84t-47 -67.5t-70 -45t-85 -16.5t-85 16.5t-70 45t-47 67.5t-17 84z" />
    <glyph glyph-name="Uhungarumlaut" unicode="&#x170;" horiz-adv-x="1315" 
d="M1190 528q0 -152 -41 -257.5t-113 -171t-169.5 -95t-209.5 -29.5t-209 29.5t-169 95t-113 171t-41 257.5v852h289v-854q0 -84 16.5 -140t48 -90t76.5 -48.5t102 -14.5t102 14.5t76.5 48.5t48.5 90t17 140v854h289v-852zM618 1475l218 284h235l-254 -284h-199zM287 1475
l211 284h235l-254 -284h-192z" />
    <glyph glyph-name="uhungarumlaut" unicode="&#x171;" 
d="M952 1004v-1004h-260l-4 70q-53 -39 -116 -60.5t-123 -21.5q-82 0 -146.5 29t-109 81t-68 125t-23.5 160v621h265v-603q0 -51 14 -85.5t35.5 -55.5t47.5 -30t50 -9q42 0 74.5 14t54.5 46t33.5 84t11.5 129v510h264zM496 1120l217 285h235l-254 -285h-198zM164 1120
l211 285h235l-254 -285h-192z" />
    <glyph glyph-name="Uogonek" unicode="&#x172;" horiz-adv-x="1315" 
d="M1190 528q0 -127 -29 -220.5t-80.5 -159t-122.5 -104t-155 -54.5q-56 -14 -76 -36t-20 -54q0 -35 23 -55.5t61 -20.5q22 0 37 3q9 1 16 3v-162q-14 -7 -32 -11q-15 -5 -35.5 -8t-45.5 -3q-48 0 -89 15t-72 42t-48.5 63t-17.5 78q0 44 14.5 78t40.5 60q-94 10 -173.5 46
t-137.5 102t-90.5 164.5t-32.5 233.5v852h289v-854q0 -84 16.5 -140t48 -90t76.5 -48.5t102 -14.5t102 14.5t76.5 48.5t48.5 90t17 140v854h289v-852z" />
    <glyph glyph-name="uogonek" unicode="&#x173;" 
d="M834 -102q0 -36 23 -56t61 -20q22 0 37 3q9 1 16 3v-162q-14 -7 -32 -11q-15 -5 -35.5 -8t-45.5 -3q-48 0 -89 15t-72 42t-48.5 63t-17.5 78q0 53 22 93t62 65h-23l-4 70q-53 -39 -116 -60.5t-123 -21.5q-82 0 -146.5 29t-109 81t-68 125t-23.5 160v621h265v-603
q0 -51 14 -85.5t35.5 -55.5t47.5 -30t50 -9q42 0 74.5 14t54.5 46t33.5 84t11.5 129v510h264v-1014q-34 -2 -56.5 -10t-36 -20.5t-19.5 -28t-6 -33.5z" />
    <glyph glyph-name="Wcircumflex" unicode="&#x174;" horiz-adv-x="1665" 
d="M1313 0h-260l-219 877l-232 -877h-252l-350 1380h295l205 -876l209 876h243l215 -876l207 876h291zM506 1477l211 290h235l215 -290h-245l-86 129l-86 -129h-244z" />
    <glyph glyph-name="wcircumflex" unicode="&#x175;" horiz-adv-x="1378" 
d="M1083 0h-219l-178 602l-176 -602h-217l-291 1004h272l146 -590l160 590h219l157 -592l150 592h270zM350 1114l211 291h236l215 -291h-246l-86 129l-86 -129h-244z" />
    <glyph glyph-name="Ycircumflex" unicode="&#x176;" horiz-adv-x="1188" 
d="M739 561v-561h-290v563l-465 817h315l297 -534l293 534h315zM262 1477l211 290h236l215 -290h-246l-86 129l-86 -129h-244z" />
    <glyph glyph-name="ycircumflex" unicode="&#x177;" horiz-adv-x="954" 
d="M537 -180q-34 -97 -109.5 -153t-187.5 -56q-22 0 -58.5 1.5t-70.5 6.5v223h106q42 0 62.5 16t29.5 36q11 21 22 46.5t19 47.5l-354 1016h276l205 -650l209 650h272zM147 1114l211 291h236l215 -291h-246l-86 129l-86 -129h-244z" />
    <glyph glyph-name="Ydieresis" unicode="&#x178;" horiz-adv-x="1188" 
d="M739 561v-561h-290v563l-465 817h315l297 -534l293 534h315zM532 1489h-237v252h237v-252zM899 1489h-237v252h237v-252z" />
    <glyph glyph-name="Zacute" unicode="&#x179;" horiz-adv-x="1112" 
d="M1055 1176l-641 -910h657v-266h-1022v205l647 911h-604v264h963v-204zM371 1479l164 290h284l-215 -290h-233z" />
    <glyph glyph-name="zacute" unicode="&#x17a;" horiz-adv-x="911" 
d="M844 811l-447 -578h453v-233h-801v197l461 573h-457v234h791v-193zM266 1114l164 291h285l-215 -291h-234z" />
    <glyph glyph-name="Zdotaccent" unicode="&#x17b;" horiz-adv-x="1112" 
d="M1055 1176l-641 -910h657v-266h-1022v205l647 911h-604v264h963v-204zM702 1479h-268v282h268v-282z" />
    <glyph glyph-name="zdotaccent" unicode="&#x17c;" horiz-adv-x="911" 
d="M844 811l-447 -578h453v-233h-801v197l461 573h-457v234h791v-193zM600 1118h-268v283h268v-283z" />
    <glyph glyph-name="Zcaron" unicode="&#x17d;" horiz-adv-x="1112" 
d="M1055 1176l-641 -910h657v-266h-1022v205l647 911h-604v264h963v-204zM504 1767l86 -129l86 129h246l-215 -290h-236l-211 290h244z" />
    <glyph glyph-name="zcaron" unicode="&#x17e;" horiz-adv-x="911" 
d="M844 811l-447 -578h453v-233h-801v197l461 573h-457v234h791v-193zM391 1401l86 -129l86 129h246l-215 -291h-236l-211 291h244z" />
    <glyph glyph-name="longs" unicode="&#x17f;" horiz-adv-x="606" 
d="M655 1159h-133q-32 0 -48.5 -17.5t-16.5 -62.5v-1079h-283v774h-154v230h154v57q0 93 20.5 157t61.5 103t102 56.5t142 17.5q25 0 49.5 -3t45 -7t36.5 -8.5t24 -6.5v-211z" />
    <glyph glyph-name="uni018F" unicode="&#x18f;" horiz-adv-x="1337" 
d="M96 942q13 96 57 180.5t115.5 147t169 99t217.5 36.5q148 0 262 -50t191.5 -143t117.5 -225t40 -295q0 -164 -39 -296t-115.5 -226t-190 -144.5t-262.5 -50.5q-150 0 -258.5 44t-178.5 119t-103 174t-33 210v266h885q-17 177 -96 269t-220 92q-52 0 -97 -14t-80 -40.5
t-58 -65t-31 -87.5h-293zM659 231q127 0 203 75.5t101 223.5h-588v-63q0 -44 17 -86.5t51.5 -75.5t88 -53.5t127.5 -20.5z" />
    <glyph glyph-name="florin" unicode="&#x192;" horiz-adv-x="711" 
d="M664 1147h-127q-38 0 -52 -18t-14 -58v-70h186v-233h-186v-815q0 -93 -20.5 -155.5t-60 -100.5t-99 -54t-137.5 -16q-26 0 -63 2t-85 9v221h125q35 0 51.5 16t16.5 59v834h-150v233h150v52q0 92 20 155t59.5 101.5t98.5 55.5t137 17q51 0 150 -18v-217z" />
    <glyph glyph-name="uni01DD" unicode="&#x1dd;" horiz-adv-x="1038" 
d="M86 684q23 77 61 139t91 106t122.5 67.5t155.5 23.5q106 0 191.5 -35t145.5 -102t92 -163t32 -218q0 -119 -32 -214.5t-92 -162.5t-145.5 -103t-193.5 -36q-109 0 -193.5 39.5t-142 107.5t-87.5 158.5t-30 193.5q0 41 4.5 74t6.5 41h635q-6 54 -24 90t-44 57.5t-58.5 30
t-66.5 8.5q-24 0 -47 -4.5t-44 -16t-39 -32t-30 -51.5zM516 215q82 0 127.5 48.5t61.5 139.5h-371q3 -41 16 -75t35.5 -59.5t55.5 -39.5t75 -14z" />
    <glyph glyph-name="AEacute" unicode="&#x1fc;" horiz-adv-x="1686" 
d="M1595 1116h-600v-282h492v-265h-492v-305h600v-264h-888v346h-301l-130 -346h-301l527 1380h1093v-264zM707 1133l-211 -539h211v539zM815 1479l164 290h285l-215 -290h-234z" />
    <glyph glyph-name="aeacute" unicode="&#x1fd;" horiz-adv-x="1626" 
d="M788 113q-58 -59 -144.5 -93t-199.5 -34q-69 0 -136 17t-119.5 54.5t-84.5 96.5t-32 143q0 85 34 144.5t93.5 96.5t139 53.5t171.5 16.5q38 0 67.5 -0.5t50.5 -0.5q25 -1 44 -1q0 40 -7.5 75.5t-26 62t-49.5 42t-79 15.5q-41 0 -67.5 -10t-43 -25.5t-24 -34t-10.5 -35.5
h-265q11 90 49.5 152t95.5 100t127 55t144 17t129 -18.5t92 -40.5q43 -26 74 -58q38 32 86 58q41 22 96 40.5t121 18.5q109 0 193 -40t141.5 -108t87 -159.5t29.5 -194.5q0 -40 -4.5 -70t-6.5 -38h-630q4 -52 22 -88.5t44.5 -60t58.5 -34t65 -10.5q24 0 47.5 5t44.5 17
t38.5 32.5t29.5 52.5h268q-23 -77 -61.5 -139.5t-92.5 -106.5t-123 -68t-153 -24q-106 0 -185 34t-139 93zM1112 788q-39 0 -71.5 -13.5t-57 -38t-40 -59.5t-19.5 -77h368q-3 41 -15.5 75.5t-35 59.5t-55 39t-74.5 14zM461 203q33 0 70 7.5t68.5 30.5t52 65.5t20.5 111.5
q-21 0 -45 1q-21 0 -48 0.5t-57 0.5q-98 0 -141 -30t-43 -81q0 -48 33 -77t90 -29zM573 1114l164 291h285l-215 -291h-234z" />
    <glyph glyph-name="Oslashacute" unicode="&#x1fe;" horiz-adv-x="1352" 
d="M496 1479l163 290h285l-215 -290h-233zM672 1405q72 0 135 -13.5t119 -37.5l51 94h178l-94 -180q52 -48 93 -111t69 -135.5t42.5 -152.5t14.5 -162q0 -163 -38.5 -298t-114.5 -231.5t-190 -149.5t-265 -53q-76 0 -140.5 14.5t-121.5 39.5l-45 -82h-179l90 170
q-97 96 -150.5 246.5t-53.5 336.5q0 161 40.5 291.5t117.5 222.5t188.5 141.5t253.5 49.5zM987 702q0 90 -15.5 165.5t-47.5 133.5l-394 -737q28 -15 64.5 -24t77.5 -9q160 0 237.5 121t77.5 350zM672 1149q-150 0 -228.5 -114t-78.5 -335q0 -96 12.5 -172t40.5 -135
l387 727h-2q-60 29 -131 29z" />
    <glyph glyph-name="oslashacute" unicode="&#x1ff;" horiz-adv-x="1036" 
d="M322 1114l163 291h285l-215 -291h-233zM821 913q75 -69 114.5 -172.5t39.5 -228.5t-31 -222t-89.5 -164.5t-142.5 -102.5t-190 -35q-95 0 -186 30l-51 -90h-160l90 160q-74 69 -114 175.5t-40 248.5q0 120 33 214t94 159t145.5 99t188.5 34q48 0 94 -9.5t86 -25.5l43 80
h162zM328 510q0 -51 4 -93.5t16 -80.5l244 444q-37 13 -70 13q-93 0 -143.5 -70t-50.5 -213zM522 217q95 0 141 71t46 222q0 40 -4 80t-17 76l-237 -439q18 -6 35.5 -8t35.5 -2z" />
    <glyph glyph-name="Scommaaccent" unicode="&#x218;" horiz-adv-x="1239" 
d="M836 981q-6 36 -22 68t-43.5 56t-66.5 38t-90 14q-46 0 -85.5 -10.5t-69 -30.5t-46 -49t-16.5 -66q0 -48 30.5 -75t86 -45.5t132.5 -34t171 -39.5q88 -23 153 -58t108 -83t64 -110.5t21 -141.5q0 -97 -40 -177.5t-112.5 -138.5t-175 -90.5t-227.5 -32.5t-222.5 38
t-166 101.5t-108.5 147t-50 174.5h299q6 -42 24 -80t49.5 -66.5t76 -45.5t102.5 -17q60 0 108.5 12.5t82.5 36t52.5 57t18.5 75.5q0 52 -27 81.5t-80.5 49t-133 36t-184.5 43.5q-59 15 -120 43.5t-110.5 74t-81 110t-31.5 151.5q0 92 36.5 167.5t103.5 129t161 82.5t209 29
t206 -33t155.5 -90t103 -134.5t49.5 -166.5h-294zM551 -86h225v-111q0 -58 -17 -101.5t-44.5 -75t-62 -52t-69.5 -33t-67.5 -17.5t-54.5 -5v164q18 0 34 7.5t28.5 20.5t20 30t7.5 36v137z" />
    <glyph glyph-name="scommaaccent" unicode="&#x219;" horiz-adv-x="963" 
d="M319 324q11 -56 49.5 -85.5t116.5 -29.5t116 25t38 67q0 29 -16 45.5t-49 27.5t-84 21t-121 27q-57 14 -107.5 35.5t-89 54.5t-60.5 79t-22 109q0 59 24 116t72.5 102t123.5 72.5t177 27.5q94 0 165 -26t120 -70t76 -102.5t33 -123.5h-256q-8 48 -40 77.5t-98 29.5
t-99.5 -25t-33.5 -59q0 -30 13.5 -45t46.5 -24.5t88 -19.5t137 -30q53 -13 100.5 -36t83.5 -58t57 -83t21 -112q0 -69 -27 -128t-80 -102.5t-130.5 -68t-178.5 -24.5q-90 0 -164 24t-128.5 68.5t-89 106.5t-44.5 137h260zM395 -86h226v-111q0 -58 -17 -101.5t-45 -75
t-62.5 -52t-69.5 -33t-67.5 -17.5t-54.5 -5v164q18 0 34 7.5t28.5 20.5t20 30t7.5 36v137z" />
    <glyph glyph-name="uni021A" unicode="&#x21a;" horiz-adv-x="1108" 
d="M1087 1112h-387v-1112h-288v1112h-392v268h1067v-268zM475 -86h225v-111q0 -58 -17 -101.5t-44.5 -75t-62 -52t-69.5 -33t-67.5 -17.5t-54.5 -5v164q18 0 34 7.5t28.5 20.5t20 30t7.5 36v137z" />
    <glyph glyph-name="uni021B" unicode="&#x21b;" horiz-adv-x="719" 
d="M449 1004h204v-230h-204v-479q0 -19 7 -33t17.5 -23t23.5 -13.5t25 -4.5h103v-203q-22 -7 -47 -12q-22 -5 -49.5 -8.5t-57.5 -3.5q-54 0 -105.5 12.5t-92 45.5t-65 90.5t-24.5 148.5v483h-151v230h151v366h265v-366zM395 -86h226v-111q0 -58 -17 -101.5t-45 -75
t-62.5 -52t-69.5 -33t-67.5 -17.5t-54.5 -5v164q18 0 34 7.5t28.5 20.5t20 30t7.5 36v137z" />
    <glyph glyph-name="circumflex" unicode="&#x2c6;" horiz-adv-x="924" 
d="M137 1118l211 291h236l215 -291h-246l-86 129l-86 -129h-244z" />
    <glyph glyph-name="caron" unicode="&#x2c7;" horiz-adv-x="924" 
d="M377 1409l86 -129l86 129h246l-215 -291h-236l-211 291h244z" />
    <glyph glyph-name="breve" unicode="&#x2d8;" horiz-adv-x="733" 
d="M664 1393q-1 -69 -24.5 -123.5t-63.5 -92.5t-92.5 -58.5t-110.5 -20.5q-60 0 -112 20.5t-90.5 58.5t-61 92.5t-23.5 123.5h188q0 -53 28.5 -80t70.5 -27t69 27t27 80h195z" />
    <glyph glyph-name="dotaccent" unicode="&#x2d9;" horiz-adv-x="557" 
d="M422 1102h-268v282h268v-282z" />
    <glyph glyph-name="ring" unicode="&#x2da;" horiz-adv-x="647" 
d="M246 1319q0 -40 25.5 -63t60.5 -23t60.5 23t25.5 63t-25.5 63t-60.5 23t-60.5 -23t-25.5 -63zM113 1319q0 45 17 84t47 67.5t70 45t85 16.5t85 -16.5t70 -45t47 -67.5t17 -84t-17 -84t-47 -67.5t-70 -45t-85 -16.5t-85 16.5t-70 45t-47 67.5t-17 84z" />
    <glyph glyph-name="ogonek" unicode="&#x2db;" horiz-adv-x="492" 
d="M236 -98q0 -35 23 -55.5t60 -20.5q23 0 38 3q9 1 16 3v-162q-14 -7 -32 -11q-15 -5 -35.5 -8t-45.5 -3q-48 0 -89 15t-72 42t-48.5 63t-17.5 78q0 45 17 81.5t47.5 62t73 39.5t93.5 14h90v-49q-34 -2 -56.5 -10t-36 -20.5t-19.5 -28t-6 -33.5z" />
    <glyph glyph-name="tilde" unicode="&#x2dc;" horiz-adv-x="971" 
d="M834 1384q-5 -57 -21.5 -106.5t-43.5 -86t-63.5 -58t-82.5 -21.5q-24 0 -48.5 5t-48 13t-45 17.5t-39.5 17.5q-20 10 -35.5 16.5t-35.5 6.5q-22 0 -30 -19.5t-13 -50.5h-193q7 56 23.5 105t44 85t68 57t96.5 21q34 0 68.5 -12t72.5 -31q35 -17 57 -23.5t39 -6.5
q23 0 30.5 21t10.5 50h189z" />
    <glyph glyph-name="hungarumlaut" unicode="&#x2dd;" horiz-adv-x="999" 
d="M426 1114l217 285h236l-254 -285h-199zM94 1114l211 285h236l-254 -285h-193z" />
    <glyph glyph-name="tonos" unicode="&#x384;" horiz-adv-x="463" 
d="M121 1114v326h239l-49 -326h-190z" />
    <glyph glyph-name="dieresistonos" unicode="&#x385;" horiz-adv-x="887" 
d="M350 1190v350h185l-52 -350h-133zM276 1122h-237v252h237v-252zM819 1122h-237v252h237v-252z" />
    <glyph glyph-name="Alphatonos" unicode="&#x386;" horiz-adv-x="1225" 
d="M55 1114v326h240l-49 -326h-191zM877 309h-490l-111 -309h-301l527 1380h262l524 -1380h-299zM479 569h303l-151 418z" />
    <glyph glyph-name="Epsilontonos" unicode="&#x388;" horiz-adv-x="1473" 
d="M39 1114v326h240l-50 -326h-190zM1382 1116h-696v-285h588v-264h-588v-303h696v-264h-985v1380h985v-264z" />
    <glyph glyph-name="Etatonos" unicode="&#x389;" horiz-adv-x="1624" 
d="M39 1114v326h240l-50 -326h-190zM1495 0h-289v569h-489v-569h-289v1380h289v-542h489v542h289v-1380z" />
    <glyph glyph-name="Iotatonos" unicode="&#x38a;" horiz-adv-x="827" 
d="M696 0h-288v1380h288v-1380zM39 1114v326h240l-50 -326h-190z" />
    <glyph glyph-name="Omicrontonos" unicode="&#x38c;" horiz-adv-x="1606" 
d="M930 1405q153 0 266.5 -56t188.5 -152t112 -222.5t37 -267.5q0 -163 -38.5 -298t-114.5 -231.5t-190 -149.5t-265 -53q-148 0 -260 52t-187.5 147t-114 228.5t-38.5 297.5q0 161 41 291.5t119 222.5t190 141.5t254 49.5zM930 1147q-150 0 -232 -113t-82 -334
q0 -230 77.5 -348.5t232.5 -118.5q160 0 238.5 120t78.5 349q0 98 -18.5 179.5t-56.5 140.5t-97.5 92t-140.5 33zM39 1114v326h240l-50 -326h-190z" />
    <glyph glyph-name="Upsilontonos" unicode="&#x38e;" horiz-adv-x="1532" 
d="M1083 561v-561h-290v563l-465 817h315l297 -534l293 534h315zM39 1114v326h240l-50 -326h-190z" />
    <glyph glyph-name="Omegatonos" unicode="&#x38f;" horiz-adv-x="1602" 
d="M922 1153q-77 0 -136 -32.5t-99.5 -91.5t-61.5 -141t-21 -181q0 -98 18 -180t49.5 -145.5t75.5 -107.5t95 -65v-209h-502v238h160q-91 96 -137 223t-46 272q0 140 42 262.5t120 213.5t190 143.5t253 52.5q140 0 252 -52.5t190 -143.5t120 -213.5t42 -262.5
q0 -145 -46 -272t-137 -223h160v-238h-502v209q52 21 95.5 65t75 107.5t49.5 145.5t18 180q0 99 -21 181t-61 141t-99.5 91.5t-135.5 32.5zM39 1114v326h240l-50 -326h-190z" />
    <glyph glyph-name="iotadieresistonos" unicode="&#x390;" horiz-adv-x="539" 
d="M371 287q0 -38 24 -54t51 -16h48v-199q-16 -7 -34 -12q-16 -5 -37.5 -8.5t-45.5 -3.5q-51 0 -99.5 11t-86.5 42.5t-61.5 88t-23.5 147.5v721h265v-717zM143 1194v350h185l-52 -350h-133zM70 1126h-238v252h238v-252zM612 1126h-237v252h237v-252z" />
    <glyph glyph-name="Alpha" unicode="&#x391;" horiz-adv-x="1264" 
d="M877 309h-490l-111 -309h-301l527 1380h262l524 -1380h-299zM479 569h303l-151 418z" />
    <glyph glyph-name="Beta" unicode="&#x392;" horiz-adv-x="1286" 
d="M731 1380q123 0 208 -33.5t138.5 -88t77 -124t23.5 -141.5t-35 -145.5t-103 -132.5q78 -59 123 -138t45 -171q0 -66 -24.5 -137.5t-77.5 -131t-138 -98.5t-206 -39h-633v1380h602zM418 1130v-301h321q42 0 71 13t47 34t26 49t8 58q0 65 -41.5 106t-132.5 41h-299z
M418 586v-336h332q43 0 75 16t52.5 41.5t30.5 56.5t10 60q0 28 -10 56.5t-30.5 52t-52.5 38.5t-75 15h-332z" />
    <glyph glyph-name="Gamma" unicode="&#x393;" horiz-adv-x="1135" 
d="M1098 1114h-680v-1114h-287v1380h967v-266z" />
    <glyph glyph-name="uni0394" unicode="&#x394;" horiz-adv-x="1251" 
d="M1280 0h-1309l527 1380h258zM362 248h535l-272 702z" />
    <glyph glyph-name="Epsilon" unicode="&#x395;" horiz-adv-x="1204" 
d="M1114 1116h-696v-285h588v-264h-588v-303h696v-264h-985v1380h985v-264z" />
    <glyph glyph-name="Zeta" unicode="&#x396;" horiz-adv-x="1112" 
d="M1055 1176l-641 -910h657v-266h-1022v205l647 911h-604v264h963v-204z" />
    <glyph glyph-name="Eta" unicode="&#x397;" horiz-adv-x="1325" 
d="M1196 0h-289v569h-489v-569h-289v1380h289v-542h489v542h289v-1380z" />
    <glyph glyph-name="Theta" unicode="&#x398;" horiz-adv-x="1352" 
d="M676 1405q153 0 266.5 -56t188.5 -152t112 -222.5t37 -267.5q0 -163 -38.5 -298t-114.5 -231.5t-190 -149.5t-265 -53q-147 0 -259.5 52t-188 147t-114 228.5t-38.5 297.5q0 161 41 291.5t119 222.5t190 141.5t254 49.5zM676 1147q-150 0 -232 -113t-82 -334
q0 -230 77.5 -348.5t232.5 -118.5q160 0 238.5 120t78.5 349q0 98 -18.5 179.5t-56.5 140.5t-97.5 92t-140.5 33zM465 809h422v-236h-422v236z" />
    <glyph glyph-name="Iota" unicode="&#x399;" horiz-adv-x="551" 
d="M420 0h-289v1380h289v-1380z" />
    <glyph glyph-name="Kappa" unicode="&#x39a;" horiz-adv-x="1317" 
d="M813 827l504 -827h-338l-356 604l-205 -239v-365h-289v1380h289v-608l510 608h360z" />
    <glyph glyph-name="Lambda" unicode="&#x39b;" horiz-adv-x="1264" 
d="M631 987l-355 -987h-301l527 1380h262l524 -1380h-299z" />
    <glyph glyph-name="Mu" unicode="&#x39c;" horiz-adv-x="1575" 
d="M1446 0h-287v762l-268 -621h-203l-272 621v-762h-287v1380h295l367 -874l360 874h295v-1380z" />
    <glyph glyph-name="Nu" unicode="&#x39d;" horiz-adv-x="1327" 
d="M1198 0h-278l-502 844v-844h-289v1380h277l503 -845v845h289v-1380z" />
    <glyph glyph-name="Xi" unicode="&#x39e;" horiz-adv-x="1182" 
d="M1083 264v-264h-985v266zM1016 831v-262h-877l2 262h875zM98 1116v264h985v-264h-985z" />
    <glyph glyph-name="Omicron" unicode="&#x39f;" horiz-adv-x="1352" 
d="M676 1405q153 0 266.5 -56t188.5 -152t112 -222.5t37 -267.5q0 -163 -38.5 -298t-114.5 -231.5t-190 -149.5t-265 -53q-147 0 -259.5 52t-188 147t-114 228.5t-38.5 297.5q0 161 41 291.5t119 222.5t190 141.5t254 49.5zM676 1147q-150 0 -232 -113t-82 -334
q0 -230 77.5 -348.5t232.5 -118.5q160 0 238.5 120t78.5 349q0 98 -18.5 179.5t-56.5 140.5t-97.5 92t-140.5 33z" />
    <glyph glyph-name="Pi" unicode="&#x3a0;" horiz-adv-x="1325" 
d="M1196 0h-289v1112h-489v-1112h-289v1380h1067v-1380z" />
    <glyph glyph-name="Rho" unicode="&#x3a1;" horiz-adv-x="1251" 
d="M750 1380q82 0 148 -19.5t117.5 -52.5t88 -77.5t60.5 -94t35 -101.5t11 -101q0 -70 -25.5 -146.5t-81 -141t-143 -106.5t-210.5 -42h-332v-498h-289v1380h621zM418 1116v-354h330q44 0 76.5 17t53.5 42.5t31.5 56t10.5 58.5q0 29 -10.5 61t-31.5 58.5t-53.5 43.5
t-76.5 17h-330z" />
    <glyph glyph-name="Sigma" unicode="&#x3a3;" horiz-adv-x="1112" 
d="M487 250h543v-250h-928v203l480 495l-480 467v203h928v-252h-534l411 -420z" />
    <glyph glyph-name="Tau" unicode="&#x3a4;" horiz-adv-x="1108" 
d="M1087 1112h-387v-1112h-288v1112h-392v268h1067v-268z" />
    <glyph glyph-name="Upsilon" unicode="&#x3a5;" horiz-adv-x="1176" 
d="M733 561v-561h-291v563l-465 817h316l297 -534l293 534h315z" />
    <glyph glyph-name="Phi" unicode="&#x3a6;" horiz-adv-x="1573" 
d="M362 696q0 -63 16 -119.5t49.5 -101.5t86.5 -76.5t127 -44.5v682q-134 -24 -206.5 -114t-72.5 -226zM641 -82v182q-132 16 -237.5 63.5t-179 123.5t-113 179t-39.5 230q0 135 44 239.5t121 178.5t180.5 118.5t223.5 59.5v170h289v-170q120 -15 223.5 -59.5t180.5 -118.5
t121 -178.5t44 -239.5q0 -127 -39.5 -230t-113 -179t-179 -123.5t-237.5 -63.5v-182h-289zM1208 696q0 68 -18.5 125t-54 101t-87 73t-118.5 41v-682q73 13 126 44.5t86.5 76.5t49.5 101.5t16 119.5z" />
    <glyph glyph-name="Chi" unicode="&#x3a7;" horiz-adv-x="1145" 
d="M-47 0l446 719l-411 661h325l258 -422l258 422h322l-408 -657l449 -723h-324l-297 479l-292 -479h-326z" />
    <glyph glyph-name="Psi" unicode="&#x3a8;" horiz-adv-x="1386" 
d="M836 743q49 6 87 24.5t64 52.5t39.5 86.5t13.5 127.5v346h289v-344q0 -144 -40 -246.5t-107.5 -168.5t-157 -99t-188.5 -39v-483h-289v483q-98 5 -186.5 37t-156 98t-107.5 169t-40 249v344h289v-346q0 -77 13.5 -130t39 -87t63 -51t85.5 -23v637h289v-637z" />
    <glyph glyph-name="uni03A9" unicode="&#x3a9;" horiz-adv-x="1358" 
d="M678 1153q-77 0 -136 -32.5t-99.5 -91.5t-61.5 -141t-21 -181q0 -98 18 -180t49.5 -145.5t75.5 -107.5t95 -65v-209h-502v238h160q-91 96 -136.5 223t-45.5 272q0 140 41.5 262.5t119.5 213.5t190 143.5t253 52.5t253 -52.5t190 -143.5t119.5 -213.5t41.5 -262.5
q0 -145 -45.5 -272t-136.5 -223h160v-238h-502v209q51 21 94.5 65t75 107.5t49.5 145.5t18 180q0 99 -20.5 181t-61 141t-99.5 91.5t-136 32.5z" />
    <glyph glyph-name="Iotadieresis" unicode="&#x3aa;" horiz-adv-x="551" 
d="M420 0h-289v1380h289v-1380zM211 1489h-238v252h238v-252zM578 1489h-238v252h238v-252z" />
    <glyph glyph-name="Upsilondieresis" unicode="&#x3ab;" horiz-adv-x="1188" 
d="M739 561v-561h-290v563l-465 817h315l297 -534l293 534h315zM532 1489h-237v252h237v-252zM899 1489h-237v252h237v-252z" />
    <glyph glyph-name="alphatonos" unicode="&#x3ac;" horiz-adv-x="1106" 
d="M61 516q0 108 33 200.5t90.5 160t137 105.5t172.5 38q63 0 112 -20t86 -54l4 58h260v-728q0 -24 13.5 -40.5t36.5 -16.5h47v-207q-23 -8 -49 -13t-70 -5q-62 0 -107 19t-79 63q-56 -47 -117 -68.5t-127 -21.5q-105 0 -187.5 37.5t-139.5 107t-86.5 167.5t-29.5 218z
M328 510q0 -150 46 -220.5t146 -70.5q94 0 139.5 68.5t45.5 216.5q0 147 -45.5 214.5t-139.5 67.5q-49 0 -85 -19t-60 -55t-35.5 -87t-11.5 -115zM403 1114v326h240l-49 -326h-191z" />
    <glyph glyph-name="epsilontonos" unicode="&#x3ad;" horiz-adv-x="963" 
d="M547 618v-204l-66 -2q-44 -2 -73.5 -10t-47.5 -21.5t-26 -31.5t-8 -38q0 -23 12 -41.5t33 -32t49.5 -21t62.5 -7.5q78 0 121 29.5t51 85.5h260q-10 -65 -39.5 -126t-82 -108t-129.5 -75.5t-181 -28.5q-93 0 -170.5 23.5t-134 64.5t-88 96.5t-31.5 120.5q0 47 13 84
t34 65.5t49 49t58 34.5q-24 15 -46 34.5t-39 44.5t-27.5 55.5t-10.5 68.5q0 54 25 106t74 93t122.5 66.5t171.5 25.5q97 0 169 -26t121 -70t75.5 -102.5t32.5 -123.5h-256q-16 107 -142 107q-62 0 -95.5 -25t-33.5 -65q0 -42 32 -66t97 -26zM389 1114v326h240l-49 -326h-191
z" />
    <glyph glyph-name="etatonos" unicode="&#x3ae;" 
d="M115 0v1004h260l4 -74q48 40 113.5 63t125.5 23q82 0 146.5 -29t109 -81t68 -125t23.5 -160v-986h-265v969q0 50 -12 84t-32 55t-48 30t-59 9q-36 0 -67 -12t-54 -43t-36 -83t-13 -132v-512h-264zM477 1114v326h240l-49 -326h-191z" />
    <glyph glyph-name="iotatonos" unicode="&#x3af;" horiz-adv-x="539" 
d="M371 287q0 -38 24 -54t51 -16h48v-199q-16 -7 -34 -12q-16 -5 -37.5 -8.5t-45.5 -3.5q-51 0 -99.5 11t-86.5 42.5t-61.5 88t-23.5 147.5v721h265v-717zM115 1114v326h239l-49 -326h-190z" />
    <glyph glyph-name="upsilondieresistonos" unicode="&#x3b0;" horiz-adv-x="1042" 
d="M522 -14q-90 0 -167 30t-133.5 84.5t-88 131t-31.5 169.5v603h265v-603q0 -88 38.5 -136t116.5 -48q81 0 116.5 48t35.5 136v603h266v-603q0 -91 -30.5 -167.5t-85.5 -131.5t-132 -85.5t-170 -30.5zM438 1194v350h185l-52 -350h-133zM365 1126h-238v252h238v-252z
M907 1126h-237v252h237v-252z" />
    <glyph glyph-name="alpha" unicode="&#x3b1;" horiz-adv-x="1106" 
d="M61 516q0 108 33 200.5t90.5 160t137 105.5t172.5 38q63 0 112 -20t86 -54l4 58h260v-728q0 -24 13.5 -40.5t36.5 -16.5h47v-207q-23 -8 -49 -13t-70 -5q-62 0 -107 19t-79 63q-56 -47 -117 -68.5t-127 -21.5q-105 0 -187.5 37.5t-139.5 107t-86.5 167.5t-29.5 218z
M328 510q0 -150 46 -220.5t146 -70.5q94 0 139.5 68.5t45.5 216.5q0 147 -45.5 214.5t-139.5 67.5q-49 0 -85 -19t-60 -55t-35.5 -87t-11.5 -115z" />
    <glyph glyph-name="beta" unicode="&#x3b2;" horiz-adv-x="1118" 
d="M610 -14q-41 0 -75.5 8t-63.5 20t-51.5 27t-38.5 29v-451h-260v1337q0 114 32.5 196t90.5 135.5t138.5 78.5t176.5 25q88 0 162.5 -27.5t129 -76.5t85.5 -116t31 -145q0 -60 -20.5 -107t-45.5 -79q-29 -38 -65 -66q59 -33 106 -81q20 -21 39 -47.5t34 -59t24.5 -71
t9.5 -83.5q0 -110 -33.5 -193.5t-92.5 -139.5t-139 -84.5t-174 -28.5zM584 219q103 0 151.5 55.5t48.5 155.5q0 47 -12.5 86t-37 67.5t-61.5 44.5t-85 17l-80 2v213l55 2q35 1 62.5 16t46.5 37.5t29 50t10 54.5q0 59 -40 98t-114 39q-30 0 -62 -8.5t-58 -30t-43 -59
t-17 -94.5v-494q0 -65 15 -112.5t42.5 -78.5t65.5 -46t84 -15z" />
    <glyph glyph-name="gamma" unicode="&#x3b3;" horiz-adv-x="954" 
d="M272 -381q20 66 38 125.5t29 110.5t13 93.5t-10 74.5l-346 981h278l203 -642l209 642h272l-358 -1000q9 -42 8 -88t-9.5 -94t-23 -99t-32.5 -104h-271z" />
    <glyph glyph-name="delta" unicode="&#x3b4;" horiz-adv-x="1036" 
d="M518 -14q-108 0 -192.5 35.5t-143.5 103t-90 165t-31 222.5q0 136 50.5 236t132.5 163q-23 16 -43 35t-35 43t-24 54t-9 69q0 51 23.5 103.5t72 94.5t123 68.5t176.5 26.5q99 0 171.5 -26t120.5 -70t74 -102.5t32 -123.5h-256q-6 50 -41 78.5t-101 28.5
q-62 0 -97.5 -21.5t-35.5 -58.5q0 -54 68 -76q15 -5 30.5 -8t33 -6t39 -6.5t48.5 -9.5q91 -20 158.5 -64.5t112.5 -109t67.5 -145.5t22.5 -173q0 -125 -31 -222.5t-90 -165t-143.5 -103t-192.5 -35.5zM518 219q98 0 144.5 69t46.5 220q0 65 -11.5 116.5t-35 87.5t-59.5 55
t-85 19t-85 -19t-59 -55t-34.5 -87.5t-11.5 -116.5q0 -151 46 -220t144 -69z" />
    <glyph glyph-name="epsilon" unicode="&#x3b5;" horiz-adv-x="963" 
d="M547 618v-204l-66 -2q-44 -2 -73.5 -10t-47.5 -21.5t-26 -31.5t-8 -38q0 -23 12 -41.5t33 -32t49.5 -21t62.5 -7.5q78 0 121 29.5t51 85.5h260q-10 -65 -39.5 -126t-82 -108t-129.5 -75.5t-181 -28.5q-93 0 -170.5 23.5t-134 64.5t-88 96.5t-31.5 120.5q0 47 13 84
t34 65.5t49 49t58 34.5q-24 15 -46 34.5t-39 44.5t-27.5 55.5t-10.5 68.5q0 54 25 106t74 93t122.5 66.5t171.5 25.5q97 0 169 -26t121 -70t75.5 -102.5t32.5 -123.5h-256q-16 107 -142 107q-62 0 -95.5 -25t-33.5 -65q0 -42 32 -66t97 -26z" />
    <glyph glyph-name="zeta" unicode="&#x3b6;" horiz-adv-x="924" 
d="M61 395q0 81 22.5 156.5t61 145t89 132.5t106.5 120t114.5 107.5t112.5 94.5h-432v233h772v-217q-46 -38 -106.5 -88.5t-124.5 -111t-126.5 -128t-111.5 -138t-79.5 -143t-30.5 -142.5q0 -48 18 -82.5t50.5 -58t77 -36t97.5 -16.5q91 -6 150.5 -29.5t95 -59t50 -81
t14.5 -96.5q0 -36 -8.5 -78.5t-21 -86.5t-28 -88.5t-28.5 -84.5h-277q17 49 33.5 94t29.5 83.5t21 69.5t8 52q0 14 -3 25.5t-11.5 20t-23.5 13.5t-40 7q-101 7 -187 31.5t-149 72.5t-99 123t-36 184z" />
    <glyph glyph-name="eta" unicode="&#x3b7;" 
d="M115 0v1004h260l4 -74q48 40 113.5 63t125.5 23q82 0 146.5 -29t109 -81t68 -125t23.5 -160v-986h-265v969q0 50 -12 84t-32 55t-48 30t-59 9q-36 0 -67 -12t-54 -43t-36 -83t-13 -132v-512h-264z" />
    <glyph glyph-name="theta" unicode="&#x3b8;" horiz-adv-x="1126" 
d="M563 -25q-98 0 -173.5 30t-131.5 81.5t-94.5 121.5t-62 149.5t-34 165.5t-10.5 169q0 73 10 154.5t33 160.5t61 151t94.5 127t132.5 87.5t175 32.5t175.5 -32.5t132.5 -87.5t94 -127t61 -151t33 -160.5t10 -154.5q0 -84 -10.5 -169.5t-34 -165t-62 -149.5t-94.5 -121.5
t-131.5 -81.5t-173.5 -30zM563 209q65 0 109 31.5t71.5 84.5t40.5 122.5t17 144.5h-477q4 -75 17.5 -144.5t40.5 -122.5t71 -84.5t110 -31.5zM799 807q-6 70 -22 135.5t-44.5 116.5t-70 81.5t-99.5 30.5t-100 -30.5t-70 -81.5t-44 -116.5t-23 -135.5h473z" />
    <glyph glyph-name="iota" unicode="&#x3b9;" horiz-adv-x="539" 
d="M371 287q0 -38 24 -54t51 -16h48v-199q-16 -7 -34 -12q-16 -5 -37.5 -8.5t-45.5 -3.5q-51 0 -99.5 11t-86.5 42.5t-61.5 88t-23.5 147.5v721h265v-717z" />
    <glyph glyph-name="kappa" unicode="&#x3ba;" horiz-adv-x="1034" 
d="M672 596l387 -596h-307l-265 412l-108 -119v-293h-264v1006h264v-388l342 388h305z" />
    <glyph glyph-name="lambda" unicode="&#x3bb;" horiz-adv-x="954" 
d="M958 0h-272l-211 647l-203 -647h-276l352 1014q-8 21 -21 53t-24 53q-9 20 -28.5 35.5t-61.5 15.5h-107v226q35 5 68.5 6.5t54.5 1.5q54 0 102 -14.5t87 -41.5t68 -66t46 -87z" />
    <glyph glyph-name="uni03BC" unicode="&#x3bc;" horiz-adv-x="1090" 
d="M975 1004v-1004h-264v68q-15 -21 -35.5 -36t-43 -25t-45.5 -14.5t-42 -4.5q-44 0 -88 19t-78 61v-433h-264v1369h264v-592q0 -96 44 -143.5t122 -47.5q80 0 123 50.5t43 138.5v594h264z" />
    <glyph glyph-name="nu" unicode="&#x3bd;" horiz-adv-x="954" 
d="M598 0h-248l-354 1004h278l203 -642l209 642h272z" />
    <glyph glyph-name="xi" unicode="&#x3be;" horiz-adv-x="993" 
d="M559 -25q-98 2 -188 31t-159.5 86.5t-111 143.5t-41.5 202q0 55 16.5 106t44.5 95t66 79t82 58q-27 22 -50 51t-40 62t-27 67.5t-10 69.5q0 78 32 145t87.5 116t131.5 76.5t163 27.5q90 0 166 -22t132.5 -67t91 -113.5t42.5 -160.5h-258q-11 68 -58.5 98.5t-115.5 30.5
q-35 0 -64 -10t-50 -29t-32.5 -45t-11.5 -57q0 -32 11.5 -59t32.5 -47t49 -31.5t61 -12.5l76 -2v-221l-82 -2q-49 -2 -89.5 -16.5t-70 -40.5t-45.5 -62.5t-16 -81.5q0 -55 19 -96t55 -68.5t86.5 -42t113.5 -16.5q87 -4 146.5 -27.5t95.5 -62t51.5 -88.5t15.5 -107
q0 -30 -8 -67.5t-21 -78.5t-28 -84t-29 -83h-276q17 49 33.5 92.5t29.5 80.5t21 67t8 51q0 14 -3 25.5t-11.5 20t-23.5 13.5t-40 6z" />
    <glyph glyph-name="omicron" unicode="&#x3bf;" horiz-adv-x="1036" 
d="M518 -14q-108 0 -192.5 35.5t-143.5 103t-90 165t-31 222.5q0 111 30 204t88.5 160.5t143.5 105.5t195 38t195 -38t143.5 -105.5t88.5 -160.5t30 -204q0 -125 -31 -222.5t-90 -165t-143.5 -103t-192.5 -35.5zM518 219q98 0 144.5 69t46.5 220q0 65 -11.5 116.5t-35 87.5
t-59.5 55t-85 19t-85 -19t-59 -55t-34.5 -87.5t-11.5 -116.5q0 -151 46 -220t144 -69z" />
    <glyph glyph-name="pi" unicode="&#x3c0;" horiz-adv-x="1305" 
d="M1059 764v-477q0 -38 19 -54t48 -16h78v-199q-23 -7 -46 -12q-20 -5 -43.5 -8.5t-43.5 -3.5q-54 0 -103.5 11t-88 42.5t-61.5 88t-23 147.5v481h-306v-764h-264v764h-172v240h1166v-240h-160z" />
    <glyph glyph-name="rho" unicode="&#x3c1;" horiz-adv-x="1057" 
d="M995 489q0 -104 -28.5 -195.5t-81 -160.5t-126 -109t-163.5 -40q-45 0 -79 6t-61.5 16.5t-50 25t-43.5 31.5v-444h-264v899q0 109 32.5 201t91 159t140.5 104.5t181 37.5q97 0 179.5 -31.5t143 -97t95 -165.5t34.5 -237zM543 217q50 0 85 20.5t57.5 57.5t33 88t10.5 113
q0 145 -43 216.5t-143 71.5q-97 0 -142 -71.5t-45 -216.5q0 -62 11 -113t34 -88t58.5 -57.5t83.5 -20.5z" />
    <glyph glyph-name="sigma1" unicode="&#x3c2;" horiz-adv-x="991" 
d="M522 -14q-90 4 -173.5 40t-147.5 102t-102 160t-38 216q0 120 33 216t93.5 162.5t146.5 102t192 35.5q91 0 164.5 -27t127.5 -75t88 -114.5t46 -146.5h-268q-5 25 -15.5 48t-28.5 41t-46 29t-68 11q-97 0 -147.5 -68.5t-50.5 -213.5q0 -75 16.5 -126.5t46.5 -84t73 -48.5
t97 -20q86 -6 145 -28.5t95.5 -58.5t52.5 -84t16 -105q0 -32 -8.5 -72.5t-21.5 -84.5t-28.5 -88.5t-29.5 -84.5h-276q17 49 33.5 94t30 83t22 68t8.5 50q0 15 -3 27.5t-11.5 22t-23.5 15t-40 7.5z" />
    <glyph glyph-name="sigma" unicode="&#x3c3;" horiz-adv-x="1057" 
d="M518 -14q-108 0 -192.5 35.5t-143.5 103t-90 165t-31 222.5q0 111 30 204t88.5 160.5t143.5 105.5t195 38q35 0 67.5 -4t63.5 -12h367v-230h-125q24 -31 42 -74q16 -37 29 -90.5t13 -124.5q0 -105 -30 -196t-88 -158.5t-143 -106t-196 -38.5zM518 219q98 0 144.5 69
t46.5 220q0 65 -11.5 116.5t-35 87.5t-59.5 55t-85 19t-85 -19t-59 -55t-34.5 -87.5t-11.5 -116.5q0 -151 46 -220t144 -69z" />
    <glyph glyph-name="tau" unicode="&#x3c4;" horiz-adv-x="932" 
d="M598 764v-764h-264v764h-301v240h866v-240h-301z" />
    <glyph glyph-name="upsilon" unicode="&#x3c5;" horiz-adv-x="1042" 
d="M522 -14q-90 0 -167 30t-133.5 84.5t-88 131t-31.5 169.5v603h265v-603q0 -88 38.5 -136t116.5 -48q81 0 116.5 48t35.5 136v603h266v-603q0 -91 -30.5 -167.5t-85.5 -131.5t-132 -85.5t-170 -30.5z" />
    <glyph glyph-name="phi" unicode="&#x3c6;" horiz-adv-x="1272" 
d="M1210 510q0 -107 -34.5 -196t-94.5 -156.5t-141.5 -111t-175.5 -58.5v-369h-260v371q-96 14 -177 56.5t-140.5 109t-92.5 155t-33 193.5q0 112 29 203.5t82.5 158t129 105.5t169.5 47l2 -236q-33 -8 -60 -26.5t-45.5 -50.5t-29 -79.5t-10.5 -113.5q0 -126 48 -196.5
t128 -92.5v475q0 71 18.5 130t55.5 102t92.5 66.5t128.5 23.5q90 0 165.5 -34.5t130 -100t85 -160.5t30.5 -215zM764 223q39 11 72 34t57 58.5t37.5 84.5t13.5 112q0 64 -12 114.5t-30.5 86t-41.5 54.5t-45 19q-25 0 -38 -20t-13 -68v-475z" />
    <glyph glyph-name="chi" unicode="&#x3c7;" horiz-adv-x="1044" 
d="M-18 -381l387 707l-373 678h305l223 -422l224 422h301l-373 -678l389 -707h-305l-238 451l-235 -451h-305z" />
    <glyph glyph-name="psi" unicode="&#x3c8;" horiz-adv-x="1341" 
d="M367 1004v-504q0 -220 168 -262v766h264v-771q92 26 134 89.5t42 177.5v504h264v-500q0 -109 -32.5 -197.5t-91 -153.5t-139 -105.5t-177.5 -53.5v-375h-264v377q-96 14 -175.5 54.5t-137 105t-89 152.5t-31.5 196v500h265z" />
    <glyph glyph-name="omega" unicode="&#x3c9;" horiz-adv-x="1266" 
d="M633 86q-17 -18 -38.5 -36t-49 -31.5t-61.5 -22t-76 -8.5q-82 0 -146.5 37t-109 104t-68 160t-23.5 205q0 115 25.5 211t79 165t137 108.5t199.5 41.5v-234q-54 -2 -88 -24t-53 -60.5t-26 -92.5t-7 -120q0 -57 4.5 -106t16 -85t31.5 -56.5t52 -20.5t55 21.5t23 64.5v363
h246v-363q0 -43 23 -64.5t55 -21.5q31 0 51.5 20.5t32 56.5t16 85t4.5 106q0 66 -7 120t-26.5 92.5t-53 60.5t-87.5 24v234q116 -2 199 -41.5t136.5 -108.5t79 -165t25.5 -211q0 -112 -23.5 -205t-68 -160t-109 -104t-145.5 -37q-42 0 -76.5 8.5t-61.5 22t-48.5 31.5
t-38.5 36z" />
    <glyph glyph-name="iotadieresis" unicode="&#x3ca;" horiz-adv-x="539" 
d="M371 287q0 -38 24 -54t51 -16h48v-199q-16 -7 -34 -12q-16 -5 -37.5 -8.5t-45.5 -3.5q-51 0 -99.5 11t-86.5 42.5t-61.5 88t-23.5 147.5v721h265v-717zM188 1126h-237v252h237v-252zM555 1126h-238v252h238v-252z" />
    <glyph glyph-name="upsilondieresis" unicode="&#x3cb;" horiz-adv-x="1042" 
d="M522 -14q-90 0 -167 30t-133.5 84.5t-88 131t-31.5 169.5v603h265v-603q0 -88 38.5 -136t116.5 -48q81 0 116.5 48t35.5 136v603h266v-603q0 -91 -30.5 -167.5t-85.5 -131.5t-132 -85.5t-170 -30.5zM457 1126h-238v252h238v-252zM823 1126h-237v252h237v-252z" />
    <glyph glyph-name="omicrontonos" unicode="&#x3cc;" horiz-adv-x="1036" 
d="M518 -14q-108 0 -192.5 35.5t-143.5 103t-90 165t-31 222.5q0 111 30 204t88.5 160.5t143.5 105.5t195 38t195 -38t143.5 -105.5t88.5 -160.5t30 -204q0 -125 -31 -222.5t-90 -165t-143.5 -103t-192.5 -35.5zM518 219q98 0 144.5 69t46.5 220q0 65 -11.5 116.5t-35 87.5
t-59.5 55t-85 19t-85 -19t-59 -55t-34.5 -87.5t-11.5 -116.5q0 -151 46 -220t144 -69zM403 1114v326h240l-49 -326h-191z" />
    <glyph glyph-name="upsilontonos" unicode="&#x3cd;" horiz-adv-x="1042" 
d="M522 -14q-90 0 -167 30t-133.5 84.5t-88 131t-31.5 169.5v603h265v-603q0 -88 38.5 -136t116.5 -48q81 0 116.5 48t35.5 136v603h266v-603q0 -91 -30.5 -167.5t-85.5 -131.5t-132 -85.5t-170 -30.5zM401 1114v326h240l-49 -326h-191z" />
    <glyph glyph-name="omegatonos" unicode="&#x3ce;" horiz-adv-x="1268" 
d="M633 86q-17 -18 -38.5 -36t-49 -31.5t-61.5 -22t-76 -8.5q-82 0 -146.5 37t-109 104t-68 160t-23.5 205q0 115 25.5 211t79 165t137 108.5t199.5 41.5v-234q-54 -2 -88 -24t-53 -60.5t-26 -92.5t-7 -120q0 -57 4.5 -106t16 -85t31.5 -56.5t52 -20.5t55 21.5t23 64.5v363
h246v-363q0 -43 23 -64.5t55 -21.5q31 0 51.5 20.5t32 56.5t16 85t4.5 106q0 66 -7 120t-26.5 92.5t-53 60.5t-87.5 24v234q116 -2 199 -41.5t136.5 -108.5t79 -165t25.5 -211q0 -112 -23.5 -205t-68 -160t-109 -104t-145.5 -37q-42 0 -76.5 8.5t-61.5 22t-48.5 31.5
t-38.5 36zM520 1114v326h240l-49 -326h-191z" />
    <glyph glyph-name="uni03D0" unicode="&#x3d0;" horiz-adv-x="1100" 
d="M539 1391q87 0 162 -27.5t130 -76t86 -114.5t31 -143q0 -38 -10.5 -74t-28 -69t-41.5 -62t-51 -51q45 -24 83.5 -59t67.5 -79.5t45.5 -98t16.5 -113.5q0 -102 -35.5 -183t-99.5 -138t-152 -87t-194 -30q-102 0 -185 29.5t-141 88.5t-89.5 148.5t-31.5 208.5v495
q0 112 32.5 194t90 135.5t138 79.5t176.5 26zM549 219q110 0 163.5 59.5t53.5 159.5q0 199 -217 205l-66 2v217l62 2q38 1 66 14t46 34t26.5 47t8.5 55q0 31 -11.5 57.5t-31.5 45.5t-49 29.5t-63 10.5q-32 0 -64 -9t-57.5 -32t-41.5 -62t-16 -98v-503q0 -112 48.5 -173
t142.5 -61z" />
    <glyph glyph-name="afii10023" unicode="&#x401;" horiz-adv-x="1204" 
d="M1114 1116h-696v-285h588v-264h-588v-303h696v-264h-985v1380h985v-264zM557 1489h-238v252h238v-252zM924 1489h-238v252h238v-252z" />
    <glyph glyph-name="afii10051" unicode="&#x402;" horiz-adv-x="1448" 
d="M879 774q-39 0 -72.5 -10t-58.5 -32.5t-39.5 -59t-14.5 -88.5v-584h-288v1112h-386v268h1055v-268h-381v-143q48 24 107 40.5t121 16.5q114 0 200.5 -40.5t145 -111.5t88.5 -167t30 -207q0 -125 -31.5 -222.5t-90 -164.5t-143.5 -102.5t-191 -35.5q-15 0 -30.5 1t-28.5 3
q-15 2 -29 5v237h47q47 0 85 15t65 48t42 86t15 130q0 83 -20.5 136t-52 84t-70 42.5t-74.5 11.5z" />
    <glyph glyph-name="afii10052" unicode="&#x403;" horiz-adv-x="1073" 
d="M418 0h-289v1380h928v-268h-639v-1112zM408 1479l163 290h285l-215 -290h-233z" />
    <glyph glyph-name="afii10053" unicode="&#x404;" horiz-adv-x="1311" 
d="M1262 463q-18 -103 -61 -192t-112.5 -155t-167.5 -103.5t-225 -37.5q-149 0 -265 50.5t-196 144.5t-121.5 226t-41.5 296q0 163 41 295t120 225t193 143t260 50q123 0 219.5 -36t166 -99.5t112.5 -150t59 -187.5h-295q-20 105 -87 160t-173 55q-128 0 -209 -79.5
t-106 -233.5h473v-263h-475q23 -168 107.5 -253t217.5 -85q109 0 178 57t91 173h297z" />
    <glyph glyph-name="afii10054" unicode="&#x405;" horiz-adv-x="1239" 
d="M836 981q-6 36 -22 68t-43.5 56t-66.5 38t-90 14q-46 0 -85.5 -10.5t-69 -30.5t-46 -49t-16.5 -66q0 -48 30.5 -75t86 -45.5t132.5 -34t171 -39.5q88 -23 153 -58t108 -83t64 -110.5t21 -141.5q0 -97 -39.5 -177.5t-112.5 -138.5t-175.5 -90.5t-229.5 -32.5
q-114 0 -207.5 31t-163.5 90.5t-114.5 145t-59.5 194.5h299q6 -50 26.5 -89t53.5 -65.5t77 -40.5t95 -14q54 0 101.5 11.5t83.5 34t56.5 56.5t20.5 79q0 52 -27 81.5t-80.5 49t-133 36t-184.5 43.5q-59 15 -120 43.5t-110.5 74t-81 110t-31.5 151.5q0 92 37 167.5t104 129
t160.5 82.5t206.5 29q134 0 228 -37.5t155 -98t92.5 -136.5t40.5 -152h-294z" />
    <glyph glyph-name="afii10055" unicode="&#x406;" horiz-adv-x="551" 
d="M420 0h-289v1380h289v-1380z" />
    <glyph glyph-name="afii10056" unicode="&#x407;" horiz-adv-x="551" 
d="M420 0h-289v1380h289v-1380zM211 1487h-238v252h238v-252zM578 1487h-238v252h238v-252z" />
    <glyph glyph-name="afii10057" unicode="&#x408;" horiz-adv-x="1008" 
d="M311 383q3 -72 36.5 -114t105.5 -42q69 0 104 43.5t35 118.5v991h289v-991q0 -72 -24.5 -145.5t-76.5 -133.5t-133 -97.5t-194 -37.5q-102 0 -180 33t-131 89.5t-81 130.5t-30 155h280z" />
    <glyph glyph-name="afii10058" unicode="&#x409;" horiz-adv-x="1937" 
d="M836 0v1112h-347v-731q0 -84 -21 -157t-66 -127t-116 -84.5t-171 -30.5q-28 0 -49.5 3t-36.5 7q-18 4 -31 10v242h63q70 0 105 34t35 109v993h923v-497h312q123 0 210.5 -42t143 -106.5t81 -141.5t25.5 -147q0 -74 -25.5 -152.5t-81 -144t-143 -107.5t-210.5 -42h-600z
M1432 264q44 0 77 15.5t54.5 41t32 57.5t10.5 66t-10.5 65.5t-32 55.5t-54.5 38.5t-77 14.5h-308v-354h308z" />
    <glyph glyph-name="afii10059" unicode="&#x40a;" horiz-adv-x="1989" 
d="M887 0v569h-469v-569h-289v1380h289v-542h469v542h289v-497h311q124 0 211.5 -42t143 -106.5t81 -141.5t25.5 -147q0 -74 -25.5 -152.5t-81 -144t-143 -107.5t-211.5 -42h-600zM1483 264q45 0 77.5 15.5t54 41t32 58t10.5 65.5q0 31 -10.5 62.5t-32 56t-54 40t-77.5 15.5
h-307v-354h307z" />
    <glyph glyph-name="afii10060" unicode="&#x40b;" horiz-adv-x="1423" 
d="M1040 1112h-378v-145q51 34 111.5 48.5t123.5 14.5q83 0 154.5 -30t124.5 -84t83.5 -128.5t30.5 -162.5v-625h-289v588q0 86 -43.5 130t-111.5 44q-37 0 -70 -10t-58.5 -32t-40.5 -56.5t-15 -83.5v-580h-289v1112h-355v268h1022v-268z" />
    <glyph glyph-name="afii10061" unicode="&#x40c;" horiz-adv-x="1317" 
d="M813 827l504 -827h-338l-356 604l-205 -239v-365h-289v1380h289v-608l510 608h360zM438 1479l164 290h285l-215 -290h-234z" />
    <glyph glyph-name="afii10062" unicode="&#x40e;" horiz-adv-x="1147" 
d="M328 -18q-23 0 -44 2.5t-38 6.5q-19 4 -37 9v246h74q61 0 92 18.5t51 57.5l-442 1058h313l281 -721l274 721h311l-454 -1087q-11 -27 -26.5 -61t-37.5 -68.5t-51.5 -67t-68 -58t-87.5 -41t-110 -15.5zM868 1769q-1 -68 -24.5 -122.5t-63 -92.5t-92 -58.5t-110.5 -20.5
q-60 0 -112 20.5t-90.5 58.5t-61 92.5t-23.5 122.5h188q0 -52 28.5 -79t70.5 -27t69 27t27 79h194z" />
    <glyph glyph-name="afii10145" unicode="&#x40f;" horiz-adv-x="1325" 
d="M1196 0h-410v-236h-262v236h-395v1380h289v-1112h489v1112h289v-1380z" />
    <glyph glyph-name="afii10017" unicode="&#x410;" horiz-adv-x="1264" 
d="M877 309h-490l-111 -309h-301l527 1380h262l524 -1380h-299zM479 569h303l-151 418z" />
    <glyph glyph-name="afii10018" unicode="&#x411;" horiz-adv-x="1282" 
d="M418 883h332q123 0 210.5 -42t143 -106.5t81 -141.5t25.5 -147q0 -74 -25.5 -152.5t-81 -144t-143 -107.5t-210.5 -42h-621v1380h928v-268h-639v-229zM748 264q44 0 76.5 17.5t53.5 44t31.5 58t10.5 60.5q0 28 -10.5 58.5t-31.5 56t-53.5 42.5t-76.5 17h-330v-354h330z
" />
    <glyph glyph-name="afii10019" unicode="&#x412;" horiz-adv-x="1286" 
d="M731 1380q123 0 208 -33.5t138.5 -88t77 -124t23.5 -141.5t-35 -145.5t-103 -132.5q78 -59 123 -138t45 -171q0 -66 -24.5 -137.5t-77.5 -131t-138 -98.5t-206 -39h-633v1380h602zM418 1130v-301h321q42 0 71 13t47 34t26 49t8 58q0 65 -41.5 106t-132.5 41h-299z
M418 586v-336h332q43 0 75 16t52.5 41.5t30.5 56.5t10 60q0 28 -10 56.5t-30.5 52t-52.5 38.5t-75 15h-332z" />
    <glyph glyph-name="afii10020" unicode="&#x413;" horiz-adv-x="1073" 
d="M418 0h-289v1380h928v-268h-639v-1112z" />
    <glyph glyph-name="afii10021" unicode="&#x414;" horiz-adv-x="1391" 
d="M1370 -236h-289v236h-800v-236h-289v498h145q45 53 76 136t50.5 199.5t28.5 269t9 343.5v170h911v-1118h158v-498zM584 1122q-1 -165 -8.5 -294t-23.5 -232t-41 -184t-60 -150h473v860h-340z" />
    <glyph glyph-name="afii10022" unicode="&#x415;" horiz-adv-x="1204" 
d="M1114 1116h-696v-285h588v-264h-588v-303h696v-264h-985v1380h985v-264z" />
    <glyph glyph-name="afii10024" unicode="&#x416;" horiz-adv-x="2087" 
d="M1583 827l504 -827h-338l-356 604l-205 -239v-365h-289v365l-205 239l-356 -604h-338l504 827l-475 553h360l510 -608v608h289v-608l510 608h360z" />
    <glyph glyph-name="afii10025" unicode="&#x417;" horiz-adv-x="1192" 
d="M489 840l95 2q40 1 73 13t57 32.5t37 49t13 62.5q0 70 -48.5 113t-131.5 43q-38 0 -72 -12t-60 -34.5t-43.5 -55t-21.5 -74.5h-293q10 84 45.5 161t96 136t147.5 94t201 35t202 -32t147 -86t89.5 -124.5t30.5 -146.5q0 -94 -41.5 -164t-112.5 -117q37 -21 72.5 -51.5
t62.5 -70.5t43.5 -89.5t16.5 -107.5q0 -46 -13 -97t-39.5 -100t-67.5 -93t-97.5 -77.5t-129.5 -53.5t-163 -20q-120 0 -214 36.5t-161.5 99t-107.5 146.5t-52 179h299q8 -45 26 -83t47 -66t69.5 -44t93.5 -16q51 0 92 15t69.5 41.5t44 63t15.5 79.5q0 42 -16.5 75
t-45.5 56.5t-70 36.5t-89 14l-95 2v230z" />
    <glyph glyph-name="afii10026" unicode="&#x418;" horiz-adv-x="1327" 
d="M129 1380h289v-845l504 845h276v-1380h-289v844l-501 -844h-279v1380z" />
    <glyph glyph-name="afii10027" unicode="&#x419;" horiz-adv-x="1327" 
d="M129 1380h289v-845l504 845h276v-1380h-289v844l-501 -844h-279v1380zM961 1765q-1 -68 -25 -123t-63.5 -93t-92 -58.5t-110.5 -20.5q-60 0 -112 20.5t-90.5 58.5t-61 93t-23.5 123h188q0 -52 28.5 -79t70.5 -27t69 27t27 79h195z" />
    <glyph glyph-name="afii10028" unicode="&#x41a;" horiz-adv-x="1317" 
d="M813 827l504 -827h-338l-356 604l-205 -239v-365h-289v1380h289v-608l510 608h360z" />
    <glyph glyph-name="afii10029" unicode="&#x41b;" horiz-adv-x="1274" 
d="M115 -18q-28 0 -49.5 3t-36.5 7q-18 4 -31 10v242h63q70 0 105 34t35 109v993h944v-1380h-289v1112h-367v-731q0 -84 -21 -157t-66 -127t-116 -84.5t-171 -30.5z" />
    <glyph glyph-name="afii10030" unicode="&#x41c;" horiz-adv-x="1575" 
d="M1446 0h-287v762l-268 -621h-203l-272 621v-762h-287v1380h295l367 -874l360 874h295v-1380z" />
    <glyph glyph-name="afii10031" unicode="&#x41d;" horiz-adv-x="1325" 
d="M1196 0h-289v569h-489v-569h-289v1380h289v-542h489v542h289v-1380z" />
    <glyph glyph-name="afii10032" unicode="&#x41e;" horiz-adv-x="1352" 
d="M676 1405q153 0 266.5 -56t188.5 -152t112 -222.5t37 -267.5q0 -163 -38.5 -298t-114.5 -231.5t-190 -149.5t-265 -53q-147 0 -259.5 52t-188 147t-114 228.5t-38.5 297.5q0 161 41 291.5t119 222.5t190 141.5t254 49.5zM676 1147q-150 0 -232 -113t-82 -334
q0 -230 77.5 -348.5t232.5 -118.5q160 0 238.5 120t78.5 349q0 98 -18.5 179.5t-56.5 140.5t-97.5 92t-140.5 33z" />
    <glyph glyph-name="afii10033" unicode="&#x41f;" horiz-adv-x="1325" 
d="M1196 0h-289v1112h-489v-1112h-289v1380h1067v-1380z" />
    <glyph glyph-name="afii10034" unicode="&#x420;" horiz-adv-x="1251" 
d="M750 1380q82 0 148 -19.5t117.5 -52.5t88 -77.5t60.5 -94t35 -101.5t11 -101q0 -70 -25.5 -146.5t-81 -141t-143 -106.5t-210.5 -42h-332v-498h-289v1380h621zM418 1116v-354h330q44 0 76.5 17t53.5 42.5t31.5 56t10.5 58.5q0 29 -10.5 61t-31.5 58.5t-53.5 43.5
t-76.5 17h-330z" />
    <glyph glyph-name="afii10035" unicode="&#x421;" horiz-adv-x="1319" 
d="M1262 463q-18 -103 -61 -192t-112.5 -155t-167.5 -103.5t-225 -37.5q-149 0 -265 50.5t-196 144.5t-121.5 226t-41.5 296q0 163 41 295t120 225t193 143t260 50q123 0 219.5 -36t166 -99.5t112.5 -150t59 -187.5h-295q-20 105 -87 160t-173 55q-156 0 -241 -115.5
t-85 -339.5q0 -113 23 -199t66.5 -143.5t105 -87t139.5 -29.5q109 0 178 57t91 173h297z" />
    <glyph glyph-name="afii10036" unicode="&#x422;" horiz-adv-x="1108" 
d="M1087 1112h-387v-1112h-288v1112h-392v268h1067v-268z" />
    <glyph glyph-name="afii10037" unicode="&#x423;" horiz-adv-x="1147" 
d="M328 -18q-23 0 -44 2.5t-38 6.5q-19 4 -37 9v246h74q61 0 92 18.5t51 57.5l-442 1058h313l281 -721l274 721h311l-454 -1087q-11 -27 -26.5 -61t-37.5 -68.5t-51.5 -67t-68 -58t-87.5 -41t-110 -15.5z" />
    <glyph glyph-name="afii10038" unicode="&#x424;" horiz-adv-x="1573" 
d="M362 696q0 -63 16 -119.5t49.5 -101.5t86.5 -76.5t127 -44.5v682q-134 -24 -206.5 -114t-72.5 -226zM641 -82v182q-132 16 -237.5 63.5t-179 123.5t-113 179t-39.5 230q0 135 44 239.5t121 178.5t180.5 118.5t223.5 59.5v170h289v-170q120 -15 223.5 -59.5t180.5 -118.5
t121 -178.5t44 -239.5q0 -127 -39.5 -230t-113 -179t-179 -123.5t-237.5 -63.5v-182h-289zM1208 696q0 68 -18.5 125t-54 101t-87 73t-118.5 41v-682q73 13 126 44.5t86.5 76.5t49.5 101.5t16 119.5z" />
    <glyph glyph-name="afii10039" unicode="&#x425;" horiz-adv-x="1145" 
d="M-47 0l446 719l-411 661h325l258 -422l258 422h322l-408 -657l449 -723h-324l-297 479l-292 -479h-326z" />
    <glyph glyph-name="afii10040" unicode="&#x426;" horiz-adv-x="1372" 
d="M1196 268h156v-504h-289v236h-934v1380h289v-1112h489v1112h289v-1112z" />
    <glyph glyph-name="afii10041" unicode="&#x427;" horiz-adv-x="1262" 
d="M51 1380h289v-440q0 -38 12.5 -70t35 -55t54.5 -36t72 -13h330v614h289v-1380h-289v498h-332q-113 0 -199 34t-144.5 93t-88 138.5t-29.5 170.5v446z" />
    <glyph glyph-name="afii10042" unicode="&#x428;" horiz-adv-x="1671" 
d="M979 266h274v1114h289v-1380h-1413v1380h289v-1114h274v1114h287v-1114z" />
    <glyph glyph-name="afii10043" unicode="&#x429;" horiz-adv-x="1720" 
d="M1700 -236h-289v236h-1282v1380h289v-1114h274v1114h287v-1114h274v1114h289v-1114h158v-502z" />
    <glyph glyph-name="afii10044" unicode="&#x42a;" horiz-adv-x="1372" 
d="M250 0v1112h-270v268h559v-497h331q124 0 211.5 -42t143 -106.5t81 -141.5t25.5 -147q0 -74 -25.5 -152.5t-81 -144t-143 -107.5t-211.5 -42h-620zM866 264q45 0 77.5 15.5t54 41t32 57.5t10.5 66q0 32 -10.5 63.5t-32 56t-54 39.5t-77.5 15h-327v-354h327z" />
    <glyph glyph-name="afii10045" unicode="&#x42b;" horiz-adv-x="1786" 
d="M129 0v1380h289v-497h332q123 0 210.5 -42t143 -106.5t81 -141.5t25.5 -147q0 -74 -25.5 -152.5t-81 -144t-143 -107.5t-210.5 -42h-621zM745 264q45 0 77.5 16.5t54.5 42t32.5 57.5t10.5 64q0 30 -10.5 61t-32.5 56t-54.5 41t-77.5 16h-327v-354h327zM1655 0h-289v1380
h289v-1380z" />
    <glyph glyph-name="afii10046" unicode="&#x42c;" horiz-adv-x="1251" 
d="M129 0v1380h289v-497h332q123 0 210.5 -42t143 -106.5t81 -141.5t25.5 -147q0 -74 -25.5 -152.5t-81 -144t-143 -107.5t-210.5 -42h-621zM745 264q45 0 77.5 16.5t54.5 42t32.5 57.5t10.5 64q0 30 -10.5 61t-32.5 56t-54.5 41t-77.5 16h-327v-354h327z" />
    <glyph glyph-name="afii10047" unicode="&#x42d;" horiz-adv-x="1311" 
d="M346 463q22 -116 91 -173t177 -57q133 0 218 85.5t108 252.5h-475v263h473q-25 154 -106 233.5t-209 79.5q-107 0 -174 -55t-87 -160h-294q16 101 59 187.5t112.5 150t166 99.5t219.5 36q146 0 260 -50t193 -143t120 -225t41 -295q0 -164 -41.5 -296t-121.5 -226
t-196.5 -144.5t-265.5 -50.5q-128 0 -225.5 37.5t-167 103.5t-112 155t-60.5 192h297z" />
    <glyph glyph-name="afii10048" unicode="&#x42e;" horiz-adv-x="1886" 
d="M1210 1405q153 0 266.5 -56t189 -152t112.5 -222.5t37 -267.5q0 -163 -38.5 -298t-114.5 -231.5t-190.5 -149.5t-265.5 -53q-132 0 -236 42t-179 119.5t-120 187t-59 245.5h-194v-569h-289v1380h289v-542h196q16 131 63.5 236t123.5 178.5t179 113t230 39.5zM1210 1147
q-149 0 -231 -113t-82 -334q0 -230 77 -348.5t232 -118.5q160 0 239 120t79 349q0 98 -18.5 179.5t-57 140.5t-98 92t-140.5 33z" />
    <glyph glyph-name="afii10049" unicode="&#x42f;" horiz-adv-x="1319" 
d="M1190 1380v-1380h-289v500h-264l-283 -500h-334l318 547q-63 30 -108.5 75t-74.5 97t-43 108t-14 107q0 49 11 101t35 101.5t61 94t88 77.5t117.5 52.5t148.5 19.5h631zM567 1116q-44 0 -77.5 -15t-56 -40.5t-33.5 -58t-11 -66.5q0 -33 11 -64.5t33.5 -55.5t56 -39
t77.5 -15h334v354h-334z" />
    <glyph glyph-name="afii10065" unicode="&#x430;" horiz-adv-x="1106" 
d="M61 516q0 108 33 200.5t90.5 160t137 105.5t172.5 38q63 0 112 -20t86 -54l4 58h260v-728q0 -24 13.5 -40.5t36.5 -16.5h47v-207q-23 -8 -49 -13t-70 -5q-62 0 -107 19t-79 63q-56 -47 -117 -68.5t-127 -21.5q-105 0 -187.5 37.5t-139.5 107t-86.5 167.5t-29.5 218z
M328 510q0 -150 46 -220.5t146 -70.5q94 0 139.5 68.5t45.5 216.5q0 147 -45.5 214.5t-139.5 67.5q-49 0 -85 -19t-60 -55t-35.5 -87t-11.5 -115z" />
    <glyph glyph-name="afii10066" unicode="&#x431;" horiz-adv-x="1047" 
d="M528 -14q-107 0 -192 34.5t-143.5 106.5t-89.5 182t-31 260q0 147 18.5 260t50 197t73 142t87 94.5t93 53.5t91.5 21q32 3 59.5 4t53.5 5q31 3 41 21.5t12 37.5h234v-16q0 -39 -10.5 -85.5t-38 -87t-75 -69.5t-120.5 -33q-37 -3 -67 -4t-64 -4q-29 -3 -51.5 -15.5
t-39.5 -31.5t-29 -43t-19 -51q34 24 78 39.5t100 15.5q100 0 180.5 -38t137.5 -105.5t87.5 -160.5t30.5 -204q0 -125 -31 -222.5t-90 -165t-143.5 -103t-192.5 -35.5zM528 219q98 0 144.5 69t46.5 220q0 65 -11.5 116.5t-35 87.5t-59.5 55t-85 19t-85 -19t-59 -55
t-34.5 -87.5t-11.5 -116.5q0 -151 46 -220t144 -69z" />
    <glyph glyph-name="afii10067" unicode="&#x432;" horiz-adv-x="1063" 
d="M971 717q0 -66 -34 -117.5t-99 -85.5q68 -35 109.5 -92t41.5 -129q0 -66 -26 -120t-76.5 -92.5t-124.5 -59.5t-170 -21h-477v1004h463q100 0 174 -23.5t123 -63.5t72.5 -91.5t23.5 -108.5zM723 326q0 17 -7 33t-22 29t-38.5 20.5t-55.5 7.5h-223v-178h203q79 0 111 24.5
t32 63.5zM705 692q0 29 -25.5 51.5t-81.5 22.5h-221v-156h219q59 0 84 25t25 57z" />
    <glyph glyph-name="afii10068" unicode="&#x433;" horiz-adv-x="856" 
d="M379 760v-760h-264v1004h729v-244h-465z" />
    <glyph glyph-name="afii10069" unicode="&#x434;" horiz-adv-x="1227" 
d="M1038 244h156v-480h-262v236h-639v-236h-262v480h135q26 38 41.5 101.5t23.5 144.5t10.5 175.5t2.5 194.5v144h794v-760zM504 760q-2 -195 -17 -322t-55 -194h344v516h-272z" />
    <glyph glyph-name="afii10070" unicode="&#x435;" horiz-adv-x="1038" 
d="M952 322q-23 -77 -60.5 -139t-91 -106t-123 -67.5t-155.5 -23.5q-106 0 -191 35t-145 101.5t-92.5 163t-32.5 218.5q0 119 32 214.5t92 162.5t146 103t193 36q109 0 193.5 -39.5t142 -107.5t87.5 -159t30 -194q0 -40 -4 -73t-6 -41h-635q6 -55 24 -91t43.5 -57.5
t57.5 -30t67 -8.5q24 0 47.5 4.5t44.5 16.5t38.5 32t29.5 52zM522 791q-81 0 -127 -49t-61 -140h371q-3 41 -16.5 75.5t-36 60t-55.5 39.5t-75 14z" />
    <glyph glyph-name="afii10072" unicode="&#x436;" horiz-adv-x="1575" 
d="M1212 596l387 -596h-307l-264 412l-108 -119v-293h-265v293l-108 119l-264 -412h-308l387 596l-352 408h305l340 -386v386h265v-386l340 386h305z" />
    <glyph glyph-name="afii10073" unicode="&#x437;" horiz-adv-x="963" 
d="M479 621q65 2 97 26t32 66q0 40 -33.5 65t-95.5 25q-126 0 -141 -107h-256q6 65 32 123.5t75 102.5t120.5 70t169.5 26q97 0 171 -25.5t123 -66.5t74 -93t25 -106q0 -38 -10 -68.5t-27 -55.5t-39 -44.5t-46 -34.5q30 -14 57.5 -34.5t48.5 -49t34 -65.5t13 -84
q0 -65 -31.5 -120.5t-87.5 -96.5t-134 -64.5t-171 -23.5q-104 0 -180.5 28.5t-129 75.5t-82.5 108t-40 126h260q8 -56 51.5 -85.5t120.5 -29.5q34 0 63 7.5t50 21t33 32t12 41.5q0 20 -8 38t-26 31.5t-48 21.5t-74 10l-65 2v204z" />
    <glyph glyph-name="afii10074" unicode="&#x438;" horiz-adv-x="1102" 
d="M379 1004v-564l350 564h258v-1004h-264v563l-350 -563h-258v1004h264z" />
    <glyph glyph-name="afii10075" unicode="&#x439;" horiz-adv-x="1102" 
d="M379 1004v-564l350 564h258v-1004h-264v563l-350 -563h-258v1004h264zM840 1393q-1 -69 -24.5 -123.5t-63.5 -92.5t-92.5 -58.5t-110.5 -20.5q-60 0 -112 20.5t-90.5 58.5t-61 92.5t-23.5 123.5h189q0 -53 28 -80t70 -27t69 27t27 80h195z" />
    <glyph glyph-name="afii10076" unicode="&#x43a;" horiz-adv-x="1034" 
d="M672 596l387 -596h-307l-265 412l-108 -119v-293h-264v1004h264v-386l340 386h305z" />
    <glyph glyph-name="afii10077" unicode="&#x43b;" horiz-adv-x="1114" 
d="M168 1004h831v-1004h-264v760h-303v-477q0 -91 -23 -147.5t-61 -88t-86.5 -42.5t-99.5 -11q-25 0 -46 3.5t-37 8.5q-18 5 -34 12v199h47q28 0 52 16t24 54v717z" />
    <glyph glyph-name="afii10078" unicode="&#x43c;" horiz-adv-x="1286" 
d="M375 1004l270 -586l268 586h258v-1004h-260v498l-184 -406h-168l-184 404v-496h-260v1004h260z" />
    <glyph glyph-name="afii10079" unicode="&#x43d;" horiz-adv-x="1102" 
d="M379 1004v-365h344v365h264v-1004h-264v395h-344v-395h-264v1004h264z" />
    <glyph glyph-name="afii10080" unicode="&#x43e;" horiz-adv-x="1036" 
d="M518 -14q-108 0 -192.5 35.5t-143.5 103t-90 165t-31 222.5q0 111 30 204t88.5 160.5t143.5 105.5t195 38t195 -38t143.5 -105.5t88.5 -160.5t30 -204q0 -125 -31 -222.5t-90 -165t-143.5 -103t-192.5 -35.5zM518 219q98 0 144.5 69t46.5 220q0 65 -11.5 116.5t-35 87.5
t-59.5 55t-85 19t-85 -19t-59 -55t-34.5 -87.5t-11.5 -116.5q0 -151 46 -220t144 -69z" />
    <glyph glyph-name="afii10081" unicode="&#x43f;" horiz-adv-x="1102" 
d="M987 1004v-1004h-264v760h-344v-760h-264v1004h872z" />
    <glyph glyph-name="afii10082" unicode="&#x440;" horiz-adv-x="1069" 
d="M1008 489q0 -104 -29 -195.5t-81.5 -160.5t-126 -109t-163.5 -40q-45 0 -78.5 5.5t-60 15.5t-48 24t-42.5 30v-440h-264v1385h264v-66q17 14 39 28t50 25.5t61.5 19t74.5 7.5q74 0 146.5 -31t129.5 -96t92.5 -164.5t35.5 -237.5zM553 784q-99 0 -141.5 -68.5
t-42.5 -211.5q0 -150 48.5 -218.5t139.5 -68.5q48 0 83 20.5t57.5 57.5t33 88t10.5 113q0 145 -44 216.5t-144 71.5z" />
    <glyph glyph-name="afii10083" unicode="&#x441;" horiz-adv-x="1008" 
d="M684 657q-17 70 -57.5 99.5t-100.5 29.5q-97 0 -147.5 -68.5t-50.5 -213.5q0 -143 52.5 -214t149.5 -71q69 0 107.5 30t56.5 95h267q-17 -81 -54 -147.5t-92 -113t-128 -72t-163 -25.5q-105 0 -190.5 35.5t-146 102t-93.5 162.5t-33 218q0 120 33 216t93.5 162.5
t146.5 102t192 35.5q91 0 164.5 -27t127.5 -75t88 -114.5t46 -146.5h-268z" />
    <glyph glyph-name="afii10084" unicode="&#x442;" horiz-adv-x="938" 
d="M905 760h-307v-760h-262v760h-303v244h872v-244z" />
    <glyph glyph-name="afii10085" unicode="&#x443;" horiz-adv-x="954" 
d="M537 -180q-17 -48 -46.5 -87t-68.5 -66t-87 -41.5t-102 -14.5q-21 0 -54.5 1.5t-67.5 6.5v223h106q42 0 62.5 16t29.5 36q11 21 22 46.5t19 47.5q-86 252 -176.5 508t-177.5 508h276l205 -650l209 650h272z" />
    <glyph glyph-name="afii10086" unicode="&#x444;" horiz-adv-x="1645" 
d="M61 514q0 104 28.5 196t81 161t126.5 109t164 40q45 0 78.5 -6t60 -16t48 -24t42.5 -30v440h264v-446q17 14 39 28t50 25.5t62 19t75 7.5q73 0 145.5 -31t129.5 -96t92.5 -164.5t35.5 -237.5q0 -104 -28.5 -195.5t-81 -160.5t-126 -109t-163.5 -40q-45 0 -78.5 5.5
t-60 15.5t-48.5 24t-43 30v-440h-264v447q-17 -14 -39 -28t-50 -25.5t-62 -19t-74 -7.5q-74 0 -146.5 31t-129.5 95.5t-92.5 164t-35.5 237.5zM1128 784q-99 0 -141.5 -68.5t-42.5 -211.5q0 -150 49 -218.5t140 -68.5q48 0 83 20.5t57.5 57.5t33 88t10.5 113
q0 145 -44 216.5t-145 71.5zM516 219q99 0 141.5 68.5t42.5 212.5q0 149 -48.5 217.5t-139.5 68.5q-48 0 -83 -20.5t-57.5 -57t-33 -88t-10.5 -112.5q0 -146 44 -217.5t144 -71.5z" />
    <glyph glyph-name="afii10087" unicode="&#x445;" horiz-adv-x="997" 
d="M18 1004h301l179 -273l182 273h299l-336 -484l358 -520h-303l-198 311l-205 -311h-299l358 520z" />
    <glyph glyph-name="afii10088" unicode="&#x446;" horiz-adv-x="1176" 
d="M1143 -236h-262v236h-766v1004h264v-760h344v760h264v-760h156v-480z" />
    <glyph glyph-name="afii10089" unicode="&#x447;" horiz-adv-x="1057" 
d="M324 666q0 -48 29.5 -80.5t97.5 -32.5h229v451h262v-1004h-262v309h-221q-95 0 -169 26.5t-125 72.5t-77.5 108.5t-26.5 134.5v353h263v-338z" />
    <glyph glyph-name="afii10090" unicode="&#x448;" horiz-adv-x="1542" 
d="M115 0v1004h264v-760h260v760h264v-760h260v760h264v-1004h-1312z" />
    <glyph glyph-name="afii10091" unicode="&#x449;" horiz-adv-x="1616" 
d="M1583 -236h-262v236h-1206v1004h264v-760h260v760h264v-760h260v760h264v-760h156v-480z" />
    <glyph glyph-name="afii10092" unicode="&#x44a;" horiz-adv-x="1192" 
d="M250 0v760h-262v244h524v-310h221q95 0 169 -26.5t124.5 -72.5t77 -108.5t26.5 -134.5t-26.5 -136t-77 -112t-124.5 -76t-169 -28h-483zM743 244q29 0 52 9t38.5 24t24 34.5t8.5 40.5q0 44 -32.5 71.5t-100.5 27.5h-221v-207h231z" />
    <glyph glyph-name="afii10093" unicode="&#x44b;" horiz-adv-x="1518" 
d="M115 0v1004h262v-310h221q95 0 169 -26.5t124.5 -72.5t77 -108.5t26.5 -134.5t-26.5 -136t-77 -112t-124.5 -76t-169 -28h-483zM608 244q29 0 52 9t38.5 24t24 34.5t8.5 40.5q0 44 -32.5 71.5t-100.5 27.5h-221v-207h231zM1401 0h-264v1004h264v-1004z" />
    <glyph glyph-name="afii10094" unicode="&#x44c;" horiz-adv-x="1057" 
d="M115 0v1004h262v-310h221q95 0 169 -26.5t124.5 -72.5t77 -108.5t26.5 -134.5t-26.5 -136t-77 -112t-124.5 -76t-169 -28h-483zM608 244q29 0 52 9t38.5 24t24 34.5t8.5 40.5q0 44 -32.5 71.5t-100.5 27.5h-221v-207h231z" />
    <glyph glyph-name="afii10095" unicode="&#x44d;" horiz-adv-x="1006" 
d="M53 657q12 80 46 146.5t88 114.5t127.5 75t164.5 27q106 0 192 -35.5t146.5 -102t93.5 -162.5t33 -216q0 -122 -33 -218t-93.5 -162.5t-146 -102t-190.5 -35.5q-89 0 -161.5 25t-127.5 71t-91.5 111.5t-53.5 146.5h266q19 -65 57.5 -93t100.5 -28q165 0 203 176h-262v221
h262q-20 87 -69.5 128.5t-125.5 41.5q-60 0 -100 -29.5t-57 -99.5h-269z" />
    <glyph glyph-name="afii10096" unicode="&#x44e;" horiz-adv-x="1495" 
d="M977 -14q-95 0 -172 27.5t-134 79.5t-93.5 128t-49.5 174h-147v-395h-264v1004h264v-367h149q15 85 52 155.5t93.5 121t132 78.5t169.5 28q110 0 195 -38t143.5 -105.5t88.5 -160.5t30 -204q0 -125 -31 -222.5t-90 -165t-143.5 -103t-192.5 -35.5zM977 219q98 0 144 69
t46 220q0 65 -11.5 116.5t-34.5 87.5t-59 55t-85 19t-85 -19t-59.5 -55t-35 -87.5t-11.5 -116.5q0 -151 46.5 -220t144.5 -69z" />
    <glyph glyph-name="afii10097" unicode="&#x44f;" horiz-adv-x="1073" 
d="M958 1004v-1004h-262v309h-194l-168 -309h-283l197 360q-84 45 -127 121t-43 170q0 72 26.5 136.5t77 112.5t124.5 76t169 28h483zM465 764q-59 0 -91 -33t-32 -78q0 -43 31.5 -73.5t99.5 -30.5h223v215h-231z" />
    <glyph glyph-name="afii10071" unicode="&#x451;" horiz-adv-x="1038" 
d="M952 322q-23 -77 -60.5 -139t-91 -106t-123 -67.5t-155.5 -23.5q-106 0 -191 35t-145 101.5t-92.5 163t-32.5 218.5q0 119 32 214.5t92 162.5t146 103t193 36q109 0 193.5 -39.5t142 -107.5t87.5 -159t30 -194q0 -40 -4 -73t-6 -41h-635q6 -55 24 -91t43.5 -57.5
t57.5 -30t67 -8.5q24 0 47.5 4.5t44.5 16.5t38.5 32t29.5 52zM522 791q-81 0 -127 -49t-61 -140h371q-3 41 -16.5 75.5t-36 60t-55.5 39.5t-75 14zM457 1126h-238v252h238v-252zM823 1126h-237v252h237v-252z" />
    <glyph glyph-name="afii10099" unicode="&#x452;" 
d="M37 1284h78v100h264v-100h311v-182h-311v-156q42 29 95 49.5t122 20.5q87 0 161 -39t128.5 -106.5t85.5 -158.5t33 -196q1 -120 -30 -216.5t-87.5 -165t-133 -105.5t-165.5 -37q-36 0 -61 5q-13 2 -25 5v240h53q95 0 139.5 73t44.5 205q0 56 -12 102.5t-35 79.5t-58 51.5
t-81 18.5q-90 0 -133 -71t-43 -205v-496h-262v1102h-78v182z" />
    <glyph glyph-name="afii10100" unicode="&#x453;" horiz-adv-x="877" 
d="M379 760v-760h-264v1004h729v-244h-465zM330 1114l164 291h284l-215 -291h-233z" />
    <glyph glyph-name="afii10101" unicode="&#x454;" horiz-adv-x="1006" 
d="M684 657q-17 70 -57.5 99.5t-100.5 29.5q-75 0 -124.5 -41.5t-69.5 -128.5h262v-221h-262q18 -88 69.5 -132t133.5 -44q61 0 100 28t57 93h266q-17 -81 -53.5 -146.5t-91 -111.5t-127.5 -71t-162 -25q-105 0 -190.5 35.5t-146 102t-93.5 162.5t-33 218q0 120 33 216
t93.5 162.5t146.5 102t192 35.5q91 0 164.5 -27t127.5 -75t88 -114.5t46 -146.5h-268z" />
    <glyph glyph-name="afii10102" unicode="&#x455;" horiz-adv-x="963" 
d="M319 324q11 -56 50.5 -85.5t113.5 -29.5q36 0 65 7t49.5 19t31 28t10.5 34q0 34 -16.5 51.5t-51 28t-88.5 19t-129 24.5q-54 12 -102 36t-84 59.5t-57 81.5t-21 101q0 59 24 116.5t72.5 102.5t123.5 73t177 28q94 0 165 -26t120 -70t76 -102.5t33 -123.5h-256
q-8 48 -40 77.5t-98 29.5q-61 0 -97 -23.5t-36 -60.5q0 -30 15.5 -45t50.5 -25t91.5 -19.5t139.5 -27.5q48 -11 93.5 -34t80 -59t55.5 -85t21 -113q0 -70 -29 -129t-84 -102t-135 -67.5t-182 -24.5q-95 0 -167.5 27.5t-123.5 74t-81 107.5t-40 127h260z" />
    <glyph glyph-name="afii10103" unicode="&#x456;" horiz-adv-x="506" 
d="M385 0h-264v1004h264v-1004zM387 1122h-268v283h268v-283z" />
    <glyph glyph-name="afii10104" unicode="&#x457;" horiz-adv-x="506" 
d="M385 0h-264v1004h264v-1004zM188 1126h-237v252h237v-252zM555 1126h-238v252h238v-252z" />
    <glyph glyph-name="afii10105" unicode="&#x458;" horiz-adv-x="516" 
d="M399 1122h-268v283h268v-283zM-47 -162h100q45 0 62.5 19.5t17.5 70.5v1076h264v-1057q0 -95 -22 -159.5t-62.5 -105t-97.5 -58t-127 -17.5q-49 0 -79.5 5t-55.5 11v215z" />
    <glyph glyph-name="afii10106" unicode="&#x459;" horiz-adv-x="1679" 
d="M735 0v760h-303v-477q0 -91 -23 -147.5t-61 -88t-86.5 -42.5t-99.5 -11q-23 0 -43.5 2.5t-37.5 6.5q-19 4 -36 9v205h47q28 0 52 16t24 54v717h831v-310h222q95 0 169 -26.5t124.5 -72.5t77 -108.5t26.5 -134.5t-26.5 -136t-77 -112t-124.5 -76t-169 -28h-486zM1223 240
q66 0 98.5 31.5t32.5 76.5q0 47 -32.5 77t-100.5 30h-222v-215h224z" />
    <glyph glyph-name="afii10107" unicode="&#x45a;" horiz-adv-x="1667" 
d="M987 694h221q95 0 169 -26.5t125 -72.5t77.5 -108.5t26.5 -134.5t-26.5 -136t-77.5 -112t-125 -76t-169 -28h-485v395h-344v-395h-264v1004h264v-365h344v365h264v-310zM1210 240q66 0 98.5 31.5t32.5 76.5q0 47 -32.5 77t-100.5 30h-221v-215h223z" />
    <glyph glyph-name="afii10108" unicode="&#x45b;" 
d="M37 1284h78v100h266v-100h309v-182h-309v-166q53 42 115 61t122 19q82 0 146.5 -29t109 -81t68 -125t23.5 -160v-621h-265v602q0 51 -13 85.5t-34 55.5t-47 30t-51 9q-42 0 -74.5 -13t-54.5 -44t-33.5 -82.5t-11.5 -128.5v-514h-266v1102h-78v182z" />
    <glyph glyph-name="afii10109" unicode="&#x45c;" horiz-adv-x="1034" 
d="M672 596l387 -596h-307l-265 412l-108 -119v-293h-264v1004h264v-386l340 386h305zM356 1114l164 291h285l-215 -291h-234z" />
    <glyph glyph-name="afii10110" unicode="&#x45e;" horiz-adv-x="954" 
d="M537 -180q-17 -48 -46.5 -87t-68.5 -66t-87 -41.5t-102 -14.5q-21 0 -54.5 1.5t-67.5 6.5v223h106q42 0 62.5 16t29.5 36q11 21 22 46.5t19 47.5q-86 252 -176.5 508t-177.5 508h276l205 -650l209 650h272zM766 1401q-1 -68 -24.5 -123t-63.5 -93t-92.5 -58.5
t-110.5 -20.5q-60 0 -112 20.5t-90.5 58.5t-61 93t-23.5 123h189q0 -53 28 -80t70 -27t69 27t27 80h195z" />
    <glyph glyph-name="afii10193" unicode="&#x45f;" horiz-adv-x="1102" 
d="M680 0v-236h-262v236h-303v1004h264v-760h344v760h264v-1004h-307z" />
    <glyph glyph-name="afii10050" unicode="&#x490;" horiz-adv-x="1073" 
d="M1057 1112h-639v-1112h-289v1380h639v236h289v-504z" />
    <glyph glyph-name="afii10098" unicode="&#x491;" horiz-adv-x="877" 
d="M862 760h-483v-760h-264v1004h485v225h262v-469z" />
    <glyph glyph-name="afii10846" unicode="&#x4d9;" horiz-adv-x="1038" 
d="M86 684q23 77 61 139t91 106t122.5 67.5t155.5 23.5q106 0 191.5 -35t145.5 -102t92 -163t32 -218q0 -119 -32 -214.5t-92 -162.5t-145.5 -103t-193.5 -36q-109 0 -193.5 39.5t-142 107.5t-87.5 158.5t-30 193.5q0 41 4.5 74t6.5 41h635q-6 54 -24 90t-44 57.5t-58.5 30
t-66.5 8.5q-24 0 -47 -4.5t-44 -16t-39 -32t-30 -51.5zM516 215q82 0 127.5 48.5t61.5 139.5h-371q3 -41 16 -75t35.5 -59.5t55.5 -39.5t75 -14z" />
    <glyph glyph-name="Wgrave" unicode="&#x1e80;" horiz-adv-x="1665" 
d="M1313 0h-260l-219 877l-232 -877h-252l-350 1380h295l205 -876l209 876h243l215 -876l207 876h291zM762 1479l-215 290h284l164 -290h-233z" />
    <glyph glyph-name="wgrave" unicode="&#x1e81;" horiz-adv-x="1378" 
d="M1083 0h-219l-178 602l-176 -602h-217l-291 1004h272l146 -590l160 590h219l157 -592l150 592h270zM680 1114l-215 291h285l163 -291h-233z" />
    <glyph glyph-name="Wacute" unicode="&#x1e82;" horiz-adv-x="1665" 
d="M1313 0h-260l-219 877l-232 -877h-252l-350 1380h295l205 -876l209 876h243l215 -876l207 876h291zM672 1479l164 290h284l-215 -290h-233z" />
    <glyph glyph-name="wacute" unicode="&#x1e83;" horiz-adv-x="1378" 
d="M1083 0h-219l-178 602l-176 -602h-217l-291 1004h272l146 -590l160 590h219l157 -592l150 592h270zM467 1114l164 291h284l-215 -291h-233z" />
    <glyph glyph-name="Wdieresis" unicode="&#x1e84;" horiz-adv-x="1665" 
d="M1313 0h-260l-219 877l-232 -877h-252l-350 1380h295l205 -876l209 876h243l215 -876l207 876h291zM770 1487h-238v252h238v-252zM1137 1487h-238v252h238v-252z" />
    <glyph glyph-name="wdieresis" unicode="&#x1e85;" horiz-adv-x="1378" 
d="M1083 0h-219l-178 602l-176 -602h-217l-291 1004h272l146 -590l160 590h219l157 -592l150 592h270zM623 1126h-238v252h238v-252zM989 1126h-237v252h237v-252z" />
    <glyph glyph-name="Ygrave" unicode="&#x1ef2;" horiz-adv-x="1188" 
d="M739 561v-561h-290v563l-465 817h315l297 -534l293 534h315zM590 1477l-215 290h284l164 -290h-233z" />
    <glyph glyph-name="ygrave" unicode="&#x1ef3;" horiz-adv-x="954" 
d="M537 -180q-34 -97 -109.5 -153t-187.5 -56q-22 0 -58.5 1.5t-70.5 6.5v223h106q42 0 62.5 16t29.5 36q11 21 22 46.5t19 47.5l-354 1016h276l205 -650l209 650h272zM487 1114l-215 291h285l164 -291h-234z" />
    <glyph glyph-name="endash" unicode="&#x2013;" horiz-adv-x="1214" 
d="M104 678h1008v-234h-1008v234z" />
    <glyph glyph-name="emdash" unicode="&#x2014;" horiz-adv-x="1550" 
d="M0 678h1550v-234h-1550v234z" />
    <glyph glyph-name="quoteleft" unicode="&#x2018;" horiz-adv-x="504" 
d="M338 909h-232v172q0 82 26.5 141t71.5 97t103 56t121 20v-160q-15 -4 -31 -11t-29 -20.5t-21.5 -35t-8.5 -52.5v-207z" />
    <glyph glyph-name="quoteright" unicode="&#x2019;" horiz-adv-x="504" 
d="M166 1380h231v-172q0 -82 -26.5 -140.5t-71 -96.5t-102.5 -56.5t-121 -19.5v160q15 4 31 11t29 20.5t21.5 34.5t8.5 53v206z" />
    <glyph glyph-name="quotesinglbase" unicode="&#x201a;" horiz-adv-x="504" 
d="M166 279h231v-173q0 -82 -26.5 -140.5t-71 -96.5t-102.5 -56.5t-121 -19.5v160q15 4 31 11t29 20.5t21.5 34.5t8.5 53v207z" />
    <glyph glyph-name="quotedblleft" unicode="&#x201c;" horiz-adv-x="885" 
d="M338 909h-232v172q0 82 26.5 141t71.5 97t103 56t121 20v-160q-15 -4 -31 -11t-29 -20.5t-21.5 -35t-8.5 -52.5v-207zM719 909h-232v172q0 82 26.5 141t71.5 97t103 56t121 20v-160q-15 -4 -31 -11t-29 -20.5t-21.5 -35t-8.5 -52.5v-207z" />
    <glyph glyph-name="quotedblright" unicode="&#x201d;" horiz-adv-x="883" 
d="M166 1380h231v-172q0 -82 -26.5 -140.5t-71 -96.5t-102.5 -56.5t-121 -19.5v160q15 4 31 11t29 20.5t21.5 34.5t8.5 53v206zM545 1380h231v-172q0 -82 -26.5 -140.5t-71 -96.5t-102.5 -56.5t-121 -19.5v160q15 4 31 11t29 20.5t21.5 34.5t8.5 53v206z" />
    <glyph glyph-name="quotedblbase" unicode="&#x201e;" horiz-adv-x="889" 
d="M166 279h231v-173q0 -82 -26.5 -140.5t-71 -96.5t-102.5 -56.5t-121 -19.5v160q15 4 31 11t29 20.5t21.5 34.5t8.5 53v207zM551 279h231v-173q0 -82 -26.5 -140.5t-71 -96.5t-102.5 -56.5t-121 -19.5v160q15 4 31 11t29 20.5t21.5 34.5t8.5 53v207z" />
    <glyph glyph-name="dagger" unicode="&#x2020;" horiz-adv-x="750" 
d="M31 1044h215v418h256v-418h217v-227h-217v-962h-256v962h-215v227z" />
    <glyph glyph-name="daggerdbl" unicode="&#x2021;" horiz-adv-x="750" 
d="M31 1044h215v418h256v-418h217v-227h-217v-317h217v-228h-217v-417h-256v417h-215v228h215v317h-215v227z" />
    <glyph glyph-name="bullet" unicode="&#x2022;" horiz-adv-x="684" 
d="M139 678q0 40 16.5 77.5t45 66.5t66.5 46t81 17q45 0 83.5 -17t67.5 -46t45.5 -66.5t16.5 -77.5q0 -42 -16.5 -79.5t-45.5 -66.5t-67.5 -46t-83.5 -17q-43 0 -81 17t-66.5 46t-45 66.5t-16.5 79.5z" />
    <glyph glyph-name="ellipsis" unicode="&#x2026;" horiz-adv-x="1450" 
d="M377 313v-313h-238v313h238zM844 313v-313h-238v313h238zM1311 313v-313h-238v313h238z" />
    <glyph glyph-name="perthousand" unicode="&#x2030;" horiz-adv-x="2685" 
d="M754 0h-226l641 1380h224zM2226 588q-35 0 -58.5 -20t-37.5 -52t-20.5 -71t-6.5 -76q0 -31 4.5 -69t17.5 -71.5t37 -56t64 -22.5q57 0 88 56t31 163q0 33 -5.5 71.5t-19.5 71t-37 54.5t-57 22zM2226 772q86 0 148 -35t101.5 -91.5t58 -129t18.5 -147.5q0 -43 -7 -89.5
t-23 -91.5t-41.5 -85.5t-61.5 -71t-84 -48.5t-109 -18q-88 0 -150.5 35t-102.5 92t-58.5 129.5t-18.5 147.5q0 66 16.5 137t55.5 130.5t102 97.5t156 38zM463 1217q-35 0 -58.5 -20t-37.5 -52t-20.5 -71t-6.5 -77q0 -31 4 -69t17 -71.5t37.5 -56t64.5 -22.5q57 0 88 56.5
t31 162.5q0 33 -5.5 71.5t-19.5 71.5t-37 55t-57 22zM463 1401q86 0 147.5 -35t101 -92t58 -129.5t18.5 -147.5q0 -43 -7 -89.5t-23 -91.5t-41 -85t-61 -70.5t-84 -48.5t-109 -18q-89 0 -151.5 35t-102 91.5t-58 129t-18.5 147.5q0 44 7 91.5t23 92t42 84.5t62.5 70.5t85 48
t110.5 17.5zM1477 588q-35 0 -58.5 -20t-38 -52t-20.5 -71t-6 -76q0 -31 4 -69t17 -71.5t37.5 -56t64.5 -22.5q57 0 87.5 56t30.5 163q0 33 -5.5 71.5t-19 71t-36.5 54.5t-57 22zM1477 772q86 0 147.5 -35t101 -91.5t58 -129t18.5 -147.5q0 -43 -7 -89.5t-23 -91.5
t-41.5 -85.5t-61.5 -71t-83.5 -48.5t-108.5 -18q-89 0 -151.5 35t-102 92t-58 129.5t-18.5 147.5q0 66 16.5 137t55.5 130.5t102 97.5t156 38z" />
    <glyph glyph-name="guilsinglleft" unicode="&#x2039;" horiz-adv-x="760" 
d="M686 1004l-350 -443l348 -452h-293l-346 454l352 441h289z" />
    <glyph glyph-name="guilsinglright" unicode="&#x203a;" horiz-adv-x="760" 
d="M362 1004l353 -439l-346 -456h-293l344 450l-348 445h290z" />
    <glyph glyph-name="fraction" unicode="&#x2044;" horiz-adv-x="455" 
d="M12 0h-209l643 1380h205z" />
    <glyph glyph-name="zero.superior" unicode="&#x2070;" horiz-adv-x="758" 
d="M381 1446q-34 0 -56 -21.5t-34.5 -54.5t-17.5 -72.5t-5 -76.5q0 -30 3 -69t14 -74t34 -59t62 -24q56 0 82 60t26 166q0 32 -4 71.5t-16 73.5t-33 57t-55 23zM381 1616q84 0 141 -35t91 -91.5t48.5 -127t14.5 -141.5q0 -41 -5 -86t-18 -89t-34.5 -84t-54.5 -70.5
t-78 -48.5t-105 -18q-87 0 -144.5 35t-92 91.5t-48.5 127t-14 142.5q0 41 5 86.5t18 89.5t35 83.5t55 69.5t79 48t107 18z" />
    <glyph glyph-name="four.superior" unicode="&#x2074;" horiz-adv-x="737" 
d="M573 1604v-457h97v-162h-97v-145h-180v145h-338v141l334 478h184zM393 1393l-174 -246h174v246z" />
    <glyph glyph-name="five.superior" unicode="&#x2075;" horiz-adv-x="717" 
d="M358 829q-53 0 -100.5 17t-85 48.5t-63 76.5t-33.5 102h182q8 -35 34 -56.5t66 -21.5q47 0 72 28.5t25 84.5q0 54 -26 83.5t-71 29.5q-38 0 -61 -17.5t-39 -48.5h-160l43 451h457v-168h-307l-10 -99q21 13 48 21t58 8q56 0 102.5 -17.5t79.5 -50.5t51.5 -81t18.5 -109
q0 -62 -20.5 -114t-57.5 -89t-89 -57.5t-114 -20.5z" />
    <glyph glyph-name="six.superior" unicode="&#x2076;" horiz-adv-x="737" 
d="M387 1616q58 0 103.5 -20t78.5 -52t51.5 -71.5t22.5 -79.5h-182q-5 23 -23.5 40t-50.5 17q-40 0 -70 -37.5t-36 -97.5q23 15 53 24t53 9q58 0 107 -17.5t85 -50t56 -79t20 -103.5q0 -60 -20.5 -110t-57.5 -86.5t-88.5 -56.5t-113.5 -20q-58 0 -111 21t-93.5 66
t-64.5 115.5t-24 168.5q0 101 24.5 179.5t66 132t97 81t117.5 27.5zM375 991q18 0 35.5 6.5t31 20t21.5 33.5t8 47t-8 46.5t-21.5 33t-31 20t-35.5 6.5t-35 -6.5t-30.5 -20t-22 -33t-8.5 -46.5t8.5 -47t22.5 -33.5t31 -20t34 -6.5z" />
    <glyph glyph-name="seven.superior" unicode="&#x2077;" horiz-adv-x="664" 
d="M612 1606v-142l-299 -622h-196l305 592h-371v172h561z" />
    <glyph glyph-name="eight.superior" unicode="&#x2078;" horiz-adv-x="743" 
d="M373 1616q57 0 106 -15.5t85 -43.5t56.5 -68t20.5 -88q0 -31 -8.5 -56t-22 -44.5t-29 -33t-30.5 -22.5q21 -12 41 -29t36 -40t26 -51t10 -62q0 -54 -23.5 -98t-63 -75t-92.5 -48t-112 -17t-112 17t-93 48t-63 75t-23 98q0 34 10 62t25.5 51t36 40t41.5 29q-15 9 -31 22.5
t-29.5 33t-22 44.5t-8.5 56q0 48 20.5 88t57 68t85.5 43.5t106 15.5zM373 979q48 0 76 27t28 67q0 42 -28 69t-76 27t-76.5 -27t-28.5 -69q0 -40 28.5 -67t76.5 -27zM373 1307q35 0 60.5 22.5t25.5 54.5q0 35 -24 58.5t-62 23.5t-62 -23.5t-24 -58.5q0 -32 25.5 -54.5
t60.5 -22.5z" />
    <glyph glyph-name="nine.superior" unicode="&#x2079;" horiz-adv-x="737" 
d="M350 825q-57 0 -103 20t-78.5 52t-51.5 72t-23 80h182q5 -23 23.5 -40.5t50.5 -17.5q20 0 38.5 10t33 28t24 42.5t11.5 54.5q-23 -15 -53.5 -23.5t-53.5 -8.5q-57 0 -106 17.5t-85 49.5t-56.5 78.5t-20.5 103.5q0 60 20.5 110t57.5 86.5t88.5 56.5t113.5 20q58 0 111 -21
t93.5 -66t64.5 -115.5t24 -168.5q0 -101 -24.5 -179.5t-66 -132t-97 -81t-117.5 -27.5zM362 1450q-18 0 -35.5 -6.5t-31 -20t-21.5 -33.5t-8 -47t8 -46.5t21.5 -33t31 -20t35.5 -6.5t35.5 6.5t31 20t22 33t8.5 46.5t-8.5 47t-22.5 33.5t-31.5 20t-34.5 6.5z" />
    <glyph glyph-name="parenleft.superior" unicode="&#x207d;" horiz-adv-x="496" 
d="M94 1208q0 97 21 182.5t48 152.5t53.5 111.5t37.5 59.5h199q-15 -21 -46 -69.5t-62.5 -115.5t-55 -149.5t-23.5 -171.5q0 -56 11.5 -111.5t29 -107t39.5 -97.5t42.5 -83.5t37.5 -64t25 -39.5h-197q-45 70 -80 152q-15 34 -29.5 74.5t-25.5 85.5t-18 93t-7 98z" />
    <glyph glyph-name="parenright.superior" unicode="&#x207e;" horiz-adv-x="496" 
d="M401 1208q0 -50 -7 -98t-18 -93t-25.5 -85.5t-29.5 -74.5q-35 -82 -79 -152h-197q8 13 25 39.5t37.5 64t42 83.5t39 97.5t29 107t11.5 111.5q0 89 -23.5 171.5t-55 149.5t-62 115.5t-45.5 69.5h199q7 -10 21.5 -33.5t32 -58t36.5 -79.5t34 -97.5t25 -112.5t10 -125z" />
    <glyph glyph-name="zero.inferior" unicode="&#x2080;" horiz-adv-x="758" 
d="M381 362q-34 0 -56 -21t-34.5 -54t-17.5 -73t-5 -77q0 -30 3 -69t14 -73.5t34 -58.5t62 -24q56 0 82 60t26 165q0 32 -4 71.5t-16 73.5t-33 57t-55 23zM381 532q84 0 141 -35t91 -91t48.5 -126.5t14.5 -142.5q0 -61 -12.5 -130t-45 -128t-90 -98t-147.5 -39
q-87 0 -144.5 35t-92 91t-48.5 127t-14 142q0 41 5 86.5t18 89.5t35 83.5t55 70t79 48t107 17.5z" />
    <glyph glyph-name="one.inferior" unicode="&#x2081;" horiz-adv-x="565" 
d="M414 520v-764h-183v557l-133 -69v184l183 92h133z" />
    <glyph glyph-name="two.inferior" unicode="&#x2082;" horiz-adv-x="692" 
d="M606 -244h-526v160q54 44 104 85q21 18 43.5 37t44 37.5t40.5 36.5t34 33q68 68 68 136q0 35 -19.5 59.5t-54.5 24.5t-60 -24.5t-30 -74.5h-187q5 58 25.5 106.5t55.5 84t84.5 55.5t111.5 20q64 0 113 -20t81.5 -54.5t49 -79.5t16.5 -95q0 -62 -27.5 -111.5t-69.5 -91.5
t-93 -79.5t-99 -74.5h295v-170z" />
    <glyph glyph-name="three.inferior" unicode="&#x2083;" horiz-adv-x="725" 
d="M621 305q0 -25 -7 -47.5t-18 -41.5t-25 -33.5t-28 -24.5q19 -11 37 -27.5t32 -38t22.5 -47t8.5 -53.5q0 -59 -24 -105.5t-64.5 -78.5t-93.5 -49t-111 -17q-51 0 -98.5 17t-86 48.5t-65.5 77t-37 103.5h187q8 -37 34 -57.5t66 -20.5q45 0 76 20t31 62q0 35 -26 57.5
t-79 24.5l-59 2v141l59 2q38 2 59 23.5t21 50.5q0 17 -7 30.5t-19 22.5t-27 14t-31 5q-31 0 -55.5 -19.5t-32.5 -54.5h-188q6 57 31 101.5t63 75.5t85 47.5t97 16.5q58 0 107.5 -16t86.5 -46t58 -72t21 -93z" />
    <glyph glyph-name="four.inferior" unicode="&#x2084;" horiz-adv-x="737" 
d="M573 520v-457h97v-161h-97v-146h-180v146h-338v141l334 477h184zM393 309l-174 -246h174v246z" />
    <glyph glyph-name="five.inferior" unicode="&#x2085;" horiz-adv-x="717" 
d="M358 -254q-53 0 -100.5 16.5t-85 48t-63 77t-33.5 102.5h182q8 -35 34 -56.5t66 -21.5q47 0 72 28.5t25 84.5q0 54 -26 83t-71 29q-38 0 -61 -17t-39 -48h-160l43 450h457v-168h-307l-10 -98q21 12 48 20.5t58 8.5q56 0 102.5 -17.5t79.5 -51t51.5 -81.5t18.5 -108
q0 -62 -20.5 -114t-57.5 -89t-89 -57.5t-114 -20.5z" />
    <glyph glyph-name="six.inferior" unicode="&#x2086;" horiz-adv-x="737" 
d="M387 532q58 0 103.5 -20t78.5 -51.5t51.5 -71.5t22.5 -80h-182q-5 23 -23.5 40.5t-50.5 17.5q-40 0 -70 -38t-36 -98q23 16 53 24.5t53 8.5q58 0 107 -17.5t85 -50t56 -78.5t20 -104q0 -60 -20.5 -110t-57.5 -86t-88.5 -56t-113.5 -20q-58 0 -111 21t-93.5 66t-64.5 115
t-24 169q0 101 24.5 179t66 131.5t97 81t117.5 27.5zM375 -92q18 0 35.5 6.5t31 20t21.5 33t8 46.5t-8 47t-21.5 33.5t-31 20t-35.5 6.5t-35 -6.5t-30.5 -20t-22 -33.5t-8.5 -47t8.5 -46.5t22.5 -33t31 -20t34 -6.5z" />
    <glyph glyph-name="seven.inferior" unicode="&#x2087;" horiz-adv-x="664" 
d="M612 522v-141l-299 -623h-196l305 592h-371v172h561z" />
    <glyph glyph-name="eight.inferior" unicode="&#x2088;" horiz-adv-x="743" 
d="M373 532q57 0 106 -15.5t85 -43.5t56.5 -68t20.5 -88q0 -30 -8.5 -55t-22 -44.5t-29 -33.5t-30.5 -22q21 -12 41 -29t36 -40t26 -51t10 -62q0 -55 -23.5 -99t-63 -75t-92.5 -47.5t-112 -16.5t-112 16.5t-93 47.5t-63 75t-23 99q0 34 10 62t25.5 51t36 40t41.5 29
q-15 8 -31 22t-29.5 33.5t-22 44.5t-8.5 55q0 48 20.5 88t57 68t85.5 43.5t106 15.5zM373 -104q48 0 76 27t28 67q0 42 -28 69t-76 27t-76.5 -27t-28.5 -69q0 -40 28.5 -67t76.5 -27zM373 223q35 0 60.5 23t25.5 55q0 34 -24 58t-62 24t-62 -24t-24 -58q0 -32 25.5 -55
t60.5 -23z" />
    <glyph glyph-name="nine.inferior" unicode="&#x2089;" horiz-adv-x="737" 
d="M350 -258q-57 0 -103 20t-78.5 52t-51.5 71.5t-23 79.5h182q5 -23 23.5 -40t50.5 -17q20 0 38.5 10t33 27.5t24 42.5t11.5 55q-23 -15 -53.5 -24t-53.5 -9q-57 0 -106 17.5t-85 50t-56.5 78.5t-20.5 104q0 60 20.5 110t57.5 86t88.5 56t113.5 20q58 0 111 -21t93.5 -66
t64.5 -115t24 -168q0 -102 -24.5 -180t-66 -131.5t-97 -81t-117.5 -27.5zM362 367q-18 0 -35.5 -6.5t-31 -20t-21.5 -33.5t-8 -47t8 -47t21.5 -33t31 -19.5t35.5 -6.5t35.5 6.5t31 19.5t22 33t8.5 47t-8.5 47t-22.5 33.5t-31.5 20t-34.5 6.5z" />
    <glyph glyph-name="parenleft.inferior" unicode="&#x208d;" horiz-adv-x="496" 
d="M94 125q0 97 21 182.5t48 152.5t53.5 111.5t37.5 59.5h199q-10 -15 -27.5 -41.5t-38.5 -63t-42.5 -81.5t-39 -96.5t-28.5 -108t-11 -115.5q0 -56 11.5 -111.5t29 -107t39.5 -98t42.5 -84t37.5 -64t25 -39.5h-197q-45 70 -80 152q-15 35 -29.5 75.5t-25.5 85.5t-18 93
t-7 98z" />
    <glyph glyph-name="parenright.inferior" unicode="&#x208e;" horiz-adv-x="496" 
d="M401 125q0 -50 -7 -98t-18 -93t-25.5 -85.5t-29.5 -75.5q-35 -82 -79 -152h-197q8 13 25 39.5t37.5 64t42 84t39 98t29 107t11.5 111.5q0 89 -23.5 171t-55 149t-62 115.5t-45.5 70.5h199q7 -10 21.5 -33.5t32 -58t36.5 -79.5t34 -97.5t25 -112.5t10 -125z" />
    <glyph glyph-name="Euro" unicode="&#x20ac;" horiz-adv-x="1341" 
d="M322 934q23 90 64.5 172.5t106 145t153.5 100t206 37.5q93 0 169 -29.5t132 -76.5t90.5 -106t44.5 -118h-297q-15 38 -56.5 57t-92.5 19q-42 0 -76 -15t-61.5 -42t-48.5 -64t-35 -80h313v-156h-348q-3 -37 -4 -72.5t2 -72.5h350v-156h-328q12 -63 36.5 -108t57 -74.5
t71.5 -43t81 -13.5q69 0 105 24t49 55h294q-13 -64 -46 -124t-88.5 -106.5t-133.5 -74.5t-180 -28t-190.5 32.5t-158.5 95t-119.5 154.5t-72.5 211h-213v156h195q-2 43 -0.5 76.5t4.5 68.5h-199v156h224z" />
    <glyph glyph-name="afii61352" unicode="&#x2116;" horiz-adv-x="2079" 
d="M1198 0h-278l-502 844v-844h-289v1380h277l503 -845v845h289v-1380zM1698 688q-75 0 -134.5 24t-101 69.5t-63 112t-21.5 150.5q0 74 21 136.5t62 108.5t100.5 71.5t136.5 25.5t136.5 -25.5t100 -71.5t61.5 -108.5t21 -136.5q0 -84 -21.5 -150.5t-63 -112t-100.5 -69.5
t-134 -24zM1698 858q62 0 90.5 44t28.5 138q0 82 -28.5 129.5t-90.5 47.5t-90.5 -47.5t-28.5 -129.5q0 -94 28.5 -138t90.5 -44z" />
    <glyph glyph-name="soundcopyright" unicode="&#x2117;" horiz-adv-x="1622" 
d="M866 1020q64 0 112 -23t80 -59t48 -80t16 -86q0 -35 -15.5 -73t-47 -69.5t-79.5 -52t-114 -20.5h-94v-217h-207v680h301zM768 842v-142h80q32 0 52 20.5t20 51.5q0 26 -20 48t-52 22h-80zM94 678q0 147 56 276t153.5 226t228 153t279.5 56t279 -56t226.5 -153t152 -226
t55.5 -276q0 -96 -25 -185t-71.5 -167.5t-111 -143t-144 -110.5t-171 -71.5t-190.5 -25.5q-149 0 -279.5 56t-228 152t-153.5 223.5t-56 271.5zM295 678q0 -108 40.5 -203t110.5 -166t164 -112t201 -41q105 0 199 41t164.5 112t111.5 166t41 203q0 110 -41 205t-111.5 165.5
t-164.5 111t-199 40.5q-107 0 -201 -40.5t-164 -111t-110.5 -165.5t-40.5 -205z" />
    <glyph glyph-name="trademark" unicode="&#x2122;" horiz-adv-x="1399" 
d="M612 1188h-176v-486h-196v486h-179v186h551v-186zM1290 702h-184v265l-78 -203h-115l-75 205v-267h-189v672h168l152 -368l155 368h166v-672z" />
    <glyph glyph-name="Omega" unicode="&#x2126;" horiz-adv-x="1358" 
d="M678 1153q-77 0 -136 -32.5t-99.5 -91.5t-61.5 -141t-21 -181q0 -98 18 -180t49.5 -145.5t75.5 -107.5t95 -65v-209h-502v238h160q-91 96 -136.5 223t-45.5 272q0 140 41.5 262.5t119.5 213.5t190 143.5t253 52.5t253 -52.5t190 -143.5t119.5 -213.5t41.5 -262.5
q0 -145 -45.5 -272t-136.5 -223h160v-238h-502v209q51 21 94.5 65t75 107.5t49.5 145.5t18 180q0 99 -20.5 181t-61 141t-99.5 91.5t-136 32.5z" />
    <glyph glyph-name="partialdiff" unicode="&#x2202;" horiz-adv-x="1042" 
d="M524 1018q31 0 50.5 -3t21.5 -3q-21 45 -50.5 74.5t-65 46.5t-76 23.5t-85.5 6.5h-120v221q43 14 82.5 16.5t74.5 2.5q96 -1 179 -33t152 -89.5t123 -136.5t91 -173.5t56.5 -200.5t19.5 -217q0 -137 -31 -242.5t-89.5 -177t-142.5 -108.5t-190 -37q-110 0 -195.5 35
t-144.5 102.5t-90 164.5t-31 222q0 120 33 214t94 159t145.5 99t188.5 34zM524 217q95 0 141 71t46 222q0 65 -11.5 117.5t-34.5 89t-58 56.5t-83 20q-93 0 -143.5 -70t-50.5 -213q0 -151 47 -222t147 -71z" />
    <glyph glyph-name="Delta" unicode="&#x2206;" horiz-adv-x="1251" 
d="M1280 0h-1309l527 1380h258zM362 248h535l-272 702z" />
    <glyph glyph-name="product" unicode="&#x220f;" horiz-adv-x="1272" 
d="M858 0v1118h-444v-1118h-285v1368h1014v-1368h-285z" />
    <glyph glyph-name="summation" unicode="&#x2211;" horiz-adv-x="1112" 
d="M487 250h543v-250h-928v203l480 495l-480 467v203h928v-252h-534l411 -420z" />
    <glyph glyph-name="minus" unicode="&#x2212;" horiz-adv-x="1122" 
d="M1001 444h-909v236h909v-236z" />
    <glyph glyph-name="radical" unicode="&#x221a;" horiz-adv-x="1380" 
d="M1124 1292l-448 -1292h-246l-356 1001h278l201 -624l387 1147h463v-232h-279z" />
    <glyph glyph-name="infinity" unicode="&#x221e;" horiz-adv-x="1647" 
d="M811 401q-37 -39 -73 -73t-74.5 -59t-81 -39t-90.5 -13q-65 0 -127.5 24t-112 71t-79.5 116t-30 158q0 88 30 157t79.5 116t112 72t127.5 25q49 0 91.5 -14t81 -39t74 -60t70.5 -77q36 42 72 78.5t74.5 63.5t81.5 42t93 15q66 0 129 -25.5t113 -74.5t80.5 -120t30.5 -161
q0 -92 -30.5 -162.5t-80.5 -118.5t-113 -73t-129 -25q-49 0 -92 15.5t-81.5 42t-74.5 62t-71 76.5zM1118 727q-21 0 -46 -12.5t-49.5 -33t-48.5 -46t-44 -51.5q19 -23 43 -48t49 -45.5t50 -33.5t46 -13q22 0 44.5 8.5t41.5 26t31 43.5t12 62q0 35 -12 62t-31 45t-41.5 27
t-44.5 9zM504 721q-22 0 -45 -8.5t-41.5 -25.5t-30.5 -42t-12 -59t12 -58.5t30.5 -40.5t41.5 -24t45 -8q21 0 45.5 11t49.5 29.5t48.5 42t42.5 48.5q-20 27 -43.5 51t-48 43t-49 30t-45.5 11z" />
    <glyph glyph-name="integral" unicode="&#x222b;" horiz-adv-x="731" 
d="M6 -141h119q34 0 54 16t20 59v1119q0 92 20 155t59.5 101.5t98.5 55.5t137 17q51 0 150 -18v-217h-127q-34 0 -50 -18t-16 -58v-1118q0 -93 -20.5 -155.5t-60 -100.5t-99 -54t-137.5 -16q-26 0 -63 2t-85 9v221z" />
    <glyph glyph-name="approxequal" unicode="&#x2248;" horiz-adv-x="1264" 
d="M1096 567q-5 -62 -27.5 -118t-59.5 -98t-87 -66.5t-109 -24.5q-45 0 -91 12.5t-88.5 27.5t-79.5 27.5t-65 12.5q-30 0 -52 -15t-27 -59h-232q9 67 33 123t60 96t83 62t103 22q44 0 92 -12.5t93 -27.5t84.5 -27.5t66.5 -12.5q38 0 56 20t21 58h226zM1096 928
q-5 -62 -27.5 -118t-59.5 -98t-87 -66.5t-109 -24.5q-45 0 -91 12.5t-88.5 27t-79.5 27t-65 12.5q-30 0 -52 -15t-27 -58h-232q9 67 33 123t60 96t83 62t103 22q44 0 92 -12.5t93 -27.5t84.5 -27.5t66.5 -12.5q38 0 56 20t21 58h226z" />
    <glyph glyph-name="notequal" unicode="&#x2260;" horiz-adv-x="1284" 
d="M1106 371h-467l-172 -371h-266l170 371h-199v231h305l78 168h-383v231h490l155 338h270l-157 -338h176v-231h-283l-78 -168h361v-231z" />
    <glyph glyph-name="lessequal" unicode="&#x2264;" horiz-adv-x="1122" 
d="M111 231h909v-231h-909v231zM1024 283l-930 403v193l930 401v-254l-627 -242l627 -247v-254z" />
    <glyph glyph-name="greaterequal" unicode="&#x2265;" horiz-adv-x="1122" 
d="M1010 0h-910v231h910v-231zM98 532l627 246l-627 244v254l930 -402v-192l-930 -403v253z" />
    <glyph glyph-name="lozenge" unicode="&#x25ca;" horiz-adv-x="1139" 
d="M670 -365h-221l-371 867l389 862h221l365 -862zM571 991l-221 -489l211 -496l219 496z" />
    <glyph glyph-name="a.alt" unicode="&#xe000;" horiz-adv-x="1055" 
d="M102 696q9 77 41 137t84 101.5t122.5 63.5t154.5 22q113 0 190 -31.5t124.5 -85.5t68 -126.5t20.5 -155.5v-340q0 -66 62 -66h37v-209q-16 -4 -34 -7q-16 -3 -36 -5t-43 -2q-62 0 -116 20t-85 70q-21 -18 -47 -35t-58.5 -30.5t-73 -22t-91.5 -8.5q-67 0 -130 19t-112 58
t-78.5 97.5t-29.5 136.5q0 76 33 134t90 97.5t135 59.5t168 20q38 0 67 -0.5t49 -0.5q24 -1 41 -1q0 104 -35 149.5t-114 45.5q-39 0 -64 -10t-41 -25.5t-23.5 -34t-10.5 -35.5h-265zM457 203q31 0 66 8t64.5 31.5t48.5 66t19 111.5q-18 0 -39 1q-18 0 -43 0.5t-55 0.5
q-94 0 -137 -29.5t-43 -85.5q0 -43 31 -73.5t88 -30.5z" />
    <glyph glyph-name="aacute.alt" unicode="&#xe001;" horiz-adv-x="1055" 
d="M102 696q9 77 41 137t84 101.5t122.5 63.5t154.5 22q113 0 190 -31.5t124.5 -85.5t68 -126.5t20.5 -155.5v-340q0 -66 62 -66h37v-209q-16 -4 -34 -7q-16 -3 -36 -5t-43 -2q-62 0 -116 20t-85 70q-21 -18 -47 -35t-58.5 -30.5t-73 -22t-91.5 -8.5q-67 0 -130 19t-112 58
t-78.5 97.5t-29.5 136.5q0 76 33 134t90 97.5t135 59.5t168 20q38 0 67 -0.5t49 -0.5q24 -1 41 -1q0 104 -35 149.5t-114 45.5q-39 0 -64 -10t-41 -25.5t-23.5 -34t-10.5 -35.5h-265zM457 203q31 0 66 8t64.5 31.5t48.5 66t19 111.5q-18 0 -39 1q-18 0 -43 0.5t-55 0.5
q-94 0 -137 -29.5t-43 -85.5q0 -43 31 -73.5t88 -30.5zM344 1114l164 291h285l-215 -291h-234z" />
    <glyph glyph-name="agrave.alt" unicode="&#xe002;" horiz-adv-x="1055" 
d="M102 696q9 77 41 137t84 101.5t122.5 63.5t154.5 22q113 0 190 -31.5t124.5 -85.5t68 -126.5t20.5 -155.5v-340q0 -66 62 -66h37v-209q-16 -4 -34 -7q-16 -3 -36 -5t-43 -2q-62 0 -116 20t-85 70q-21 -18 -47 -35t-58.5 -30.5t-73 -22t-91.5 -8.5q-67 0 -130 19t-112 58
t-78.5 97.5t-29.5 136.5q0 76 33 134t90 97.5t135 59.5t168 20q38 0 67 -0.5t49 -0.5q24 -1 41 -1q0 104 -35 149.5t-114 45.5q-39 0 -64 -10t-41 -25.5t-23.5 -34t-10.5 -35.5h-265zM457 203q31 0 66 8t64.5 31.5t48.5 66t19 111.5q-18 0 -39 1q-18 0 -43 0.5t-55 0.5
q-94 0 -137 -29.5t-43 -85.5q0 -43 31 -73.5t88 -30.5zM471 1114l-215 291h285l164 -291h-234z" />
    <glyph glyph-name="acircumflex.alt" unicode="&#xe003;" horiz-adv-x="1055" 
d="M102 696q9 77 41 137t84 101.5t122.5 63.5t154.5 22q113 0 190 -31.5t124.5 -85.5t68 -126.5t20.5 -155.5v-340q0 -66 62 -66h37v-209q-16 -4 -34 -7q-16 -3 -36 -5t-43 -2q-62 0 -116 20t-85 70q-21 -18 -47 -35t-58.5 -30.5t-73 -22t-91.5 -8.5q-67 0 -130 19t-112 58
t-78.5 97.5t-29.5 136.5q0 76 33 134t90 97.5t135 59.5t168 20q38 0 67 -0.5t49 -0.5q24 -1 41 -1q0 104 -35 149.5t-114 45.5q-39 0 -64 -10t-41 -25.5t-23.5 -34t-10.5 -35.5h-265zM457 203q31 0 66 8t64.5 31.5t48.5 66t19 111.5q-18 0 -39 1q-18 0 -43 0.5t-55 0.5
q-94 0 -137 -29.5t-43 -85.5q0 -43 31 -73.5t88 -30.5zM186 1112l211 291h236l215 -291h-246l-86 129l-86 -129h-244z" />
    <glyph glyph-name="adieresis.alt" unicode="&#xe004;" horiz-adv-x="1055" 
d="M102 696q9 77 41 137t84 101.5t122.5 63.5t154.5 22q113 0 190 -31.5t124.5 -85.5t68 -126.5t20.5 -155.5v-340q0 -66 62 -66h37v-209q-16 -4 -34 -7q-16 -3 -36 -5t-43 -2q-62 0 -116 20t-85 70q-21 -18 -47 -35t-58.5 -30.5t-73 -22t-91.5 -8.5q-67 0 -130 19t-112 58
t-78.5 97.5t-29.5 136.5q0 76 33 134t90 97.5t135 59.5t168 20q38 0 67 -0.5t49 -0.5q24 -1 41 -1q0 104 -35 149.5t-114 45.5q-39 0 -64 -10t-41 -25.5t-23.5 -34t-10.5 -35.5h-265zM457 203q31 0 66 8t64.5 31.5t48.5 66t19 111.5q-18 0 -39 1q-18 0 -43 0.5t-55 0.5
q-94 0 -137 -29.5t-43 -85.5q0 -43 31 -73.5t88 -30.5zM455 1126h-238v252h238v-252zM821 1126h-237v252h237v-252z" />
    <glyph glyph-name="atilde.alt" unicode="&#xe005;" horiz-adv-x="1055" 
d="M102 696q9 77 41 137t84 101.5t122.5 63.5t154.5 22q113 0 190 -31.5t124.5 -85.5t68 -126.5t20.5 -155.5v-340q0 -66 62 -66h37v-209q-16 -4 -34 -7q-16 -3 -36 -5t-43 -2q-62 0 -116 20t-85 70q-21 -18 -47 -35t-58.5 -30.5t-73 -22t-91.5 -8.5q-67 0 -130 19t-112 58
t-78.5 97.5t-29.5 136.5q0 76 33 134t90 97.5t135 59.5t168 20q38 0 67 -0.5t49 -0.5q24 -1 41 -1q0 104 -35 149.5t-114 45.5q-39 0 -64 -10t-41 -25.5t-23.5 -34t-10.5 -35.5h-265zM457 203q31 0 66 8t64.5 31.5t48.5 66t19 111.5q-18 0 -39 1q-18 0 -43 0.5t-55 0.5
q-94 0 -137 -29.5t-43 -85.5q0 -43 31 -73.5t88 -30.5zM870 1384q-5 -57 -21 -106.5t-43 -86t-64 -58t-83 -21.5q-24 0 -48.5 5t-47.5 13t-44.5 17.5t-39.5 17.5q-20 10 -35.5 16.5t-35.5 6.5q-22 0 -30 -19.5t-13 -50.5h-193q7 56 23 105t44 85t68.5 57t95.5 21
q35 0 69.5 -12t72.5 -31q35 -17 57 -23.5t39 -6.5q23 0 30.5 21t10.5 50h188z" />
    <glyph glyph-name="aring.alt" unicode="&#xe006;" horiz-adv-x="1055" 
d="M102 696q9 77 41 137t84 101.5t122.5 63.5t154.5 22q113 0 190 -31.5t124.5 -85.5t68 -126.5t20.5 -155.5v-340q0 -66 62 -66h37v-209q-16 -4 -34 -7q-16 -3 -36 -5t-43 -2q-62 0 -116 20t-85 70q-21 -18 -47 -35t-58.5 -30.5t-73 -22t-91.5 -8.5q-67 0 -130 19t-112 58
t-78.5 97.5t-29.5 136.5q0 76 33 134t90 97.5t135 59.5t168 20q38 0 67 -0.5t49 -0.5q24 -1 41 -1q0 104 -35 149.5t-114 45.5q-39 0 -64 -10t-41 -25.5t-23.5 -34t-10.5 -35.5h-265zM457 203q31 0 66 8t64.5 31.5t48.5 66t19 111.5q-18 0 -39 1q-18 0 -43 0.5t-55 0.5
q-94 0 -137 -29.5t-43 -85.5q0 -43 31 -73.5t88 -30.5zM436 1319q0 -40 25.5 -63t60.5 -23t60.5 23t25.5 63t-25.5 63t-60.5 23t-60.5 -23t-25.5 -63zM303 1319q0 45 17 84t47 67.5t70 45t85 16.5t85 -16.5t70 -45t47 -67.5t17 -84t-17 -84t-47 -67.5t-70 -45t-85 -16.5
t-85 16.5t-70 45t-47 67.5t-17 84z" />
    <glyph glyph-name="amacron.alt" unicode="&#xe007;" horiz-adv-x="1055" 
d="M102 696q9 77 41 137t84 101.5t122.5 63.5t154.5 22q113 0 190 -31.5t124.5 -85.5t68 -126.5t20.5 -155.5v-340q0 -66 62 -66h37v-209q-16 -4 -34 -7q-16 -3 -36 -5t-43 -2q-62 0 -116 20t-85 70q-21 -18 -47 -35t-58.5 -30.5t-73 -22t-91.5 -8.5q-67 0 -130 19t-112 58
t-78.5 97.5t-29.5 136.5q0 76 33 134t90 97.5t135 59.5t168 20q38 0 67 -0.5t49 -0.5q24 -1 41 -1q0 104 -35 149.5t-114 45.5q-39 0 -64 -10t-41 -25.5t-23.5 -34t-10.5 -35.5h-265zM457 203q31 0 66 8t64.5 31.5t48.5 66t19 111.5q-18 0 -39 1q-18 0 -43 0.5t-55 0.5
q-94 0 -137 -29.5t-43 -85.5q0 -43 31 -73.5t88 -30.5zM213 1356h594v-193h-594v193z" />
    <glyph glyph-name="aogonek.alt" unicode="&#xe008;" horiz-adv-x="1055" 
d="M887 -102q0 -36 23.5 -56t60.5 -20q22 0 37 3q9 1 16 3v-162q-14 -7 -32 -11q-15 -5 -35.5 -8t-45.5 -3q-48 0 -89 15t-72 42t-48.5 63t-17.5 78q0 59 26 101t74 65q-29 11 -52.5 29.5t-39.5 44.5q-21 -18 -47 -35t-58.5 -30.5t-73 -22t-91.5 -8.5q-67 0 -130 19t-112 58
t-78.5 97.5t-29.5 136.5q0 76 33 134t90 97.5t135 59.5t168 20q38 0 67 -0.5t49 -0.5q24 -1 41 -1q0 104 -35 149.5t-114 45.5q-39 0 -64 -10t-41 -25.5t-23.5 -34t-10.5 -35.5h-265q9 77 41 137t84 101.5t122.5 63.5t154.5 22q113 0 190 -31.5t124.5 -85.5t68 -126.5
t20.5 -155.5v-340q0 -66 62 -66h37v-225q-34 -2 -57 -10t-36.5 -20.5t-19.5 -28t-6 -33.5zM457 203q31 0 66 8t64.5 31.5t48.5 66t19 111.5q-18 0 -39 1q-18 0 -43 0.5t-55 0.5q-94 0 -137 -29.5t-43 -85.5q0 -43 31 -73.5t88 -30.5z" />
    <glyph glyph-name="abreve.alt" unicode="&#xe009;" horiz-adv-x="1055" 
d="M102 696q9 77 41 137t84 101.5t122.5 63.5t154.5 22q113 0 190 -31.5t124.5 -85.5t68 -126.5t20.5 -155.5v-340q0 -66 62 -66h37v-209q-16 -4 -34 -7q-16 -3 -36 -5t-43 -2q-62 0 -116 20t-85 70q-21 -18 -47 -35t-58.5 -30.5t-73 -22t-91.5 -8.5q-67 0 -130 19t-112 58
t-78.5 97.5t-29.5 136.5q0 76 33 134t90 97.5t135 59.5t168 20q38 0 67 -0.5t49 -0.5q24 -1 41 -1q0 104 -35 149.5t-114 45.5q-39 0 -64 -10t-41 -25.5t-23.5 -34t-10.5 -35.5h-265zM457 203q31 0 66 8t64.5 31.5t48.5 66t19 111.5q-18 0 -39 1q-18 0 -43 0.5t-55 0.5
q-94 0 -137 -29.5t-43 -85.5q0 -43 31 -73.5t88 -30.5zM807 1393q-1 -69 -24.5 -123.5t-63.5 -92.5t-92.5 -58.5t-110.5 -20.5q-60 0 -112 20.5t-90.5 58.5t-61 92.5t-23.5 123.5h189q0 -53 28 -80t70 -27t69 27t27 80h195z" />
    <glyph glyph-name="ordfeminine.alt" unicode="&#xe010;" horiz-adv-x="762" 
d="M80 1157q14 110 89 169.5t193 59.5q80 0 134.5 -21.5t88 -58.5t48 -86.5t14.5 -105.5v-223q0 -37 37 -37h29v-149q-11 -4 -25 -7q-12 -2 -28 -4t-33 -2q-20 0 -41 4t-39 12.5t-31.5 20.5t-19.5 27q-31 -29 -79.5 -48.5t-113.5 -19.5q-51 0 -95.5 14.5t-77 42t-51 67.5
t-18.5 91q0 54 23.5 93.5t64 66t94.5 39t115 12.5q23 0 40.5 -0.5t30.5 -0.5q15 -1 26 -1q0 56 -19.5 84.5t-68.5 28.5q-24 0 -40 -6.5t-26 -16t-15 -21.5t-7 -24h-199zM330 848q16 0 37.5 3.5t41 16.5t33 38t13.5 67h-82q-59 0 -86 -16.5t-27 -47.5q0 -29 20.5 -45
t49.5 -16z" />
    <glyph glyph-name="hyphen.denominator" unicode="&#xf62b;" horiz-adv-x="573" 
d="M74 414h426v-158h-426v158z" />
    <glyph glyph-name="parenleft.denominator" unicode="&#xf62c;" horiz-adv-x="496" 
d="M94 369q0 97 21 182.5t48 152.5t53.5 111t37.5 59h199q-15 -21 -46 -69.5t-62.5 -115.5t-55 -149t-23.5 -171q0 -56 11.5 -111.5t29 -107.5t39.5 -98t42.5 -83.5t37.5 -64t25 -39.5h-197q-45 70 -80 152q-30 70 -55 160.5t-25 191.5z" />
    <glyph glyph-name="parenright.denominator" unicode="&#xf62d;" horiz-adv-x="496" 
d="M401 369q0 -101 -25 -191.5t-55 -160.5q-35 -82 -79 -152h-197q8 13 25 39.5t37.5 64t42 83.5t39 98t29 107.5t11.5 111.5q0 89 -23.5 171t-55 149t-62 115.5t-45.5 69.5h199q10 -15 36.5 -59t53.5 -111t48 -152.5t21 -182.5z" />
    <glyph glyph-name="hyphen.numerator" unicode="&#xf630;" horiz-adv-x="573" 
d="M74 1030h426v-158h-426v158z" />
    <glyph glyph-name="parenleft.numerator" unicode="&#xf631;" horiz-adv-x="496" 
d="M94 985q0 97 21 182.5t48 152.5t53.5 111.5t37.5 59.5h199q-15 -21 -46 -69.5t-62.5 -115.5t-55 -149.5t-23.5 -171.5q0 -56 11.5 -111.5t29 -107t39.5 -98t42.5 -84t37.5 -64t25 -39.5h-197q-45 70 -80 152q-15 35 -29.5 75.5t-25.5 85.5t-18 93t-7 98z" />
    <glyph glyph-name="parenright.numerator" unicode="&#xf632;" horiz-adv-x="496" 
d="M401 985q0 -50 -7 -98t-18 -93t-25.5 -85.5t-29.5 -75.5q-35 -82 -79 -152h-197q8 13 25 39.5t37.5 64t42 84t39 98t29 107t11.5 111.5q0 89 -23.5 171.5t-55 149.5t-62 115.5t-45.5 69.5h199q7 -10 21.5 -33.5t32 -58t36.5 -79.5t34 -97.5t25 -112.5t10 -125z" />
    <glyph glyph-name="zeroslash.plf" unicode="&#xf638;" horiz-adv-x="1120" 
d="M561 1374q97 0 172 -28.5t131 -78t94.5 -116.5t62 -144.5t34 -162t10.5 -168.5q0 -72 -9 -152t-31 -158t-59 -149t-93 -124.5t-133 -85.5t-179 -32q-98 0 -173.5 28.5t-131.5 79t-94.5 118t-62 145.5t-34 162.5t-10.5 167.5q0 73 8.5 153.5t30.5 158t59 147.5t93 123
t134 84.5t181 31.5zM780 676q0 46 -4.5 101.5t-15.5 109.5l-318 -613q22 -21 51.5 -33t67.5 -12q58 0 99.5 31t68 88.5t39 140.5t12.5 187zM561 1120q-45 0 -79 -19.5t-58.5 -53t-40.5 -78t-25.5 -94t-13.5 -101t-4 -98.5t2.5 -103.5t13.5 -113.5l318 614q-23 22 -51 34.5
t-62 12.5z" />
    <glyph glyph-name="zero.plf" unicode="&#xf639;" horiz-adv-x="1137" 
d="M569 1120q-45 0 -79 -19.5t-58.5 -53t-40.5 -78t-25.5 -94t-13.5 -101t-4 -98.5q0 -41 2 -89.5t10 -98.5t22 -96.5t39 -82.5t61 -58t87 -22q58 0 99.5 31t68 88.5t39 140.5t12.5 187q0 42 -3.5 91t-12.5 98.5t-24.5 95.5t-39.5 81.5t-58.5 56.5t-80.5 21zM569 1374
q97 0 172 -28.5t131 -78t94.5 -116.5t62 -144.5t34 -162t10.5 -168.5q0 -72 -9 -152t-31 -158t-59 -149t-93 -124.5t-133 -85.5t-179 -32q-98 0 -173.5 28.5t-131.5 79t-94.5 118t-62 145.5t-34 162.5t-10.5 167.5q0 73 9 153.5t30.5 158t58.5 147.5t93 123t134 84.5
t181 31.5z" />
    <glyph glyph-name="two.plf" unicode="&#xf63a;" horiz-adv-x="1024" 
d="M961 0h-885v252q93 75 180 150q37 32 76.5 66.5t77.5 69.5t72 68.5t61 63.5q62 69 93.5 134.5t31.5 133.5q0 39 -9.5 72t-29 57t-48.5 37.5t-67 13.5q-74 0 -123 -43t-57 -133h-283q9 92 43.5 171t93 137t139.5 91t185 33q108 0 190.5 -35t138 -94t83.5 -137.5t28 -165.5
q0 -88 -33 -167t-84 -148.5t-114 -128.5t-123.5 -106t-111 -81.5t-76.5 -56.5h551v-254z" />
    <glyph glyph-name="three.plf" unicode="&#xf63b;" horiz-adv-x="1094" 
d="M991 977q0 -51 -12 -91t-33 -72.5t-49.5 -58t-60.5 -46.5q41 -17 77 -48.5t62.5 -72t41.5 -87.5t15 -95q0 -104 -39 -184.5t-106 -135t-157 -83t-193 -28.5q-93 0 -175.5 27t-147 78t-107 124t-56.5 165h285q11 -65 62 -102.5t139 -37.5q42 0 80 11t67.5 33t46.5 56
t17 79q0 39 -14.5 70t-41.5 53t-64.5 34t-82.5 13l-127 2v225l119 2q80 2 125 44.5t45 111.5q0 36 -14.5 65.5t-38.5 50t-55.5 32t-66.5 11.5q-69 0 -118 -36t-60 -99h-284q7 83 47.5 153.5t103.5 122t143.5 81t167.5 30.5q99 1 183 -29t145.5 -83t96 -126t34.5 -159z" />
    <glyph glyph-name="four.plf" unicode="&#xf63c;" horiz-adv-x="1171" 
d="M926 1350v-844h170v-238h-170v-268h-273v268h-602v215l586 867h289zM653 1030l-348 -524h348v524z" />
    <glyph glyph-name="five.plf" unicode="&#xf63d;" horiz-adv-x="1083" 
d="M518 -25q-90 0 -169 28.5t-141 80t-103 123.5t-54 160h277q20 -70 69 -104t121 -34q45 0 82.5 15t64.5 45t41.5 73.5t14.5 100.5q0 55 -14.5 97t-41.5 70.5t-64.5 43t-82.5 14.5q-60 0 -108 -28.5t-76 -84.5h-244l70 775h766v-254h-543l-21 -219q47 26 96 40.5t111 14.5
q94 0 173 -34t136 -96t89 -148.5t32 -190.5q0 -108 -35.5 -198t-99 -154.5t-152 -100t-194.5 -35.5z" />
    <glyph glyph-name="six.plf" unicode="&#xf63e;" horiz-adv-x="1094" 
d="M569 1374q81 0 154 -25.5t131 -74t97.5 -117.5t54.5 -156h-277q-20 65 -63.5 94t-94.5 29q-31 0 -64 -15t-62 -50t-51 -93t-29 -143q46 34 104.5 53t112.5 19q100 0 183 -33.5t142.5 -92.5t92 -140.5t32.5 -177.5q0 -107 -36.5 -194.5t-100.5 -150t-151 -97t-187 -34.5
q-61 0 -121 14t-115 46t-102 82.5t-81.5 124t-54.5 171t-20 222.5q0 145 23.5 256t63.5 193t92 137.5t108 89.5t112.5 48.5t106.5 14.5zM557 227q43 0 79 16t61.5 44.5t40 68.5t14.5 88q0 51 -15 91.5t-41.5 69t-62 44t-76.5 15.5q-42 0 -77.5 -15.5t-61.5 -44t-41 -69
t-15 -91.5q0 -47 14.5 -86.5t40 -68.5t61.5 -45.5t79 -16.5z" />
    <glyph glyph-name="seven.plf" unicode="&#xf63f;" horiz-adv-x="973" 
d="M946 1350v-228l-518 -1122h-299l522 1092h-624v258h919z" />
    <glyph glyph-name="eight.plf" unicode="&#xf640;" horiz-adv-x="1122" 
d="M561 -27q-100 0 -189 28.5t-155.5 82t-105.5 130.5t-39 175q0 55 14.5 103.5t39.5 90t59 75t73 57.5q-30 24 -56.5 52t-47 62.5t-32 77.5t-11.5 97q0 84 35 152.5t95.5 117t142.5 75.5t177 27q94 0 176.5 -27t143.5 -75.5t96 -117t35 -152.5q0 -54 -12 -97t-32 -77.5
t-47 -62.5t-57 -52q39 -24 73.5 -57.5t59.5 -75t39.5 -90t14.5 -103.5q0 -98 -39.5 -175t-106.5 -130.5t-156 -82t-188 -28.5zM561 594q-47 0 -85 -14t-64.5 -39.5t-41 -61.5t-14.5 -80q0 -41 15 -75.5t42.5 -59t65.5 -38t84 -13.5q48 0 85.5 13.5t63.5 38t40 59t14 75.5
q0 44 -14.5 80t-41 61.5t-64.5 39.5t-85 14zM561 1141q-36 0 -67 -11t-54 -32t-36 -51t-13 -68q0 -37 13 -67t36 -51.5t54 -33.5t67 -12t67 12t54 33.5t36 51.5t13 67q0 38 -13 68t-36 51t-54 32t-67 11z" />
    <glyph glyph-name="nine.plf" unicode="&#xf641;" horiz-adv-x="1096" 
d="M526 -25q-81 0 -154 26t-131 74t-97 117t-54 156h277q20 -65 63 -94t94 -29q31 0 64.5 15t63 50.5t51.5 93t30 142.5q-46 -34 -105.5 -52.5t-113.5 -18.5q-101 0 -184 33.5t-142 92.5t-92 140.5t-33 177.5q0 107 36.5 194.5t100.5 150t151 96.5t188 34q60 0 120 -14
t115 -46t102 -82.5t81.5 -124t54.5 -170.5t20 -222q0 -145 -23.5 -256t-63.5 -193t-91.5 -138t-108 -90t-113 -48.5t-106.5 -14.5zM539 1122q-43 0 -79 -16t-61.5 -44.5t-40 -68.5t-14.5 -88q0 -51 15 -91.5t41.5 -69t62 -43.5t76.5 -15t76.5 15t61.5 43.5t41 69t15 91.5
q0 47 -14.5 86.5t-40 68.5t-61 45.5t-78.5 16.5z" />
    </font>
</defs>
</svg>
